<svg width="13" height="13" viewBox="0 0 13 13" fill="none" xmlns="http://www.w3.org/2000/svg">
<path d="M11.375 1.94995V3.89995H1.625V1.94995H0V12.675H13V1.94995H11.375ZM4.55 10.725H2.6V8.77495H4.55V10.725ZM4.55 7.79995H2.6V5.84995H4.55V7.79995ZM7.475 10.725H5.525V8.77495H7.475V10.725ZM7.475 7.79995H5.525V5.84995H7.475V7.79995ZM10.4 10.725H8.45V8.77495H10.4V10.725ZM10.4 7.79995H8.45V5.84995H10.4V7.79995Z" fill="#6CCED9"/>
<path d="M7.4749 0H5.5249V2.925H7.4749V0Z" fill="#6CCED9"/>
<path d="M4.5501 0H2.6001V2.925H4.5501V0Z" fill="#6CCED9"/>
<path d="M10.3997 0H8.44971V2.925H10.3997V0Z" fill="#6CCED9"/>
</svg>
