<?xml version="1.0" standalone="yes"?>
<svg xmlns="http://www.w3.org/2000/svg" width="1280" height="3674">
<path style="fill:#f8f9f9; stroke:none;" d="M0 0L0 3674L1280 3674L1280 0L0 0z"/>
<path style="fill:#889da5; stroke:none;" d="M353 147L353 493L353 602L352 656C380.673 649.365 409.13 633.835 439 634L439 633L433 632L435 627L431 625L435 626L431 624L431 608L435 608L435 592L438 592L443.853 468.925L442 453L437 453L437 452L444 452L444 451L436 451L436 450L444 450L444 449L354 449L354 236L354 174L353 147z"/>
<path style="fill:#2e4f5a; stroke:none;" d="M354 147L354 449L444 449L444 450L436 450L436 451L444 451L444 452L437 452L437 453L442 453C441.394 458.509 444.233 463.727 443.687 468.925C439.42 509.508 438.113 550.886 438 592L435 592L435 608L431 608L431 624L435 626L431 625L435 627L433 632L474 630L580 630L756 630.089L860 644L860 643L856 643L856 642L860 642L860 641L855 640L846 641L846 640L848 629L844 630L843 616L839 618L834 604C827.529 603.295 828.466 593.123 826 588L820 584L824 584L817 568L816 568L816 573L812 569L812 568L812 563C808.388 565.469 808.051 567.756 808 572C798.472 567.03 809.637 539.404 798 536L798 544L795 544C795 539.654 795.873 534.736 792 532L792 536L790 536L785.314 516.911L785 493L784 493L781 496L781 487L775 486L775 485L786 483L786 482C778.962 477.614 777.887 463.693 776 456L780 456L780 455L776 455L776 454L781 454L781 453L776 453L776 452L780 451L780 450L776 450L776 449L883 449L883 584L883 650L892 652L892 651L888 651L888 650L891 650L891 649L888 649L888 640L887 640L888 650L885 649L886 608L887 608L887 616L890 616C890 595.517 886.937 575.52 886.039 555C885.161 534.919 887 514.224 887 494L887 464C887 459.795 886.171 455.482 890 453L890 454C886.672 455.809 888.076 461.699 888.611 465C889.728 471.894 884.57 480.764 892 485L895 455L894 464L896 464L899 455L899 454L892 454L892 453L896 453L896 452L892 452L892 451L900 451L900 450L888 450L888 451L890 451L890 452L887 449C892.517 449 914.747 452.066 917.397 446.682C920.236 440.911 918 429.381 918 423L918 365L918 221C918 197.168 921.351 170.438 917 147L354 147z"/>
<path style="fill:#889da5; stroke:none;" d="M714 147L714 148L840 148C829.972 143.792 812.896 147 802 147L714 147M917 147L917 150L918 150L917 147M917 448C910.27 450.46 901.179 449 894 449C891.388 449 883.611 450.657 890 452L890 451L888 451L888 450L900 450L900 451L892 451L892 452L896 452L896 453L892 453L892 454L899 454L899 455L896 455L896 464L894 464L895 455L892 485C887.316 480.49 885.339 459.091 890 454L890 453C885.584 453.946 887 459.23 887 463L887 492C887 524.145 886.696 556.058 887 588C887.086 597.048 890 606.474 890 616L887 616L887 608L886 608C886 618.429 886.072 628.692 886 639C885.972 643.027 883.506 648.207 888 650L887 640L888 640C888.015 643.554 886.928 648.198 891 649L891 650L888 650L888 651L892 651L892 652L889 653L896 653C896.943 657.399 912.696 661.508 917 660L923 664L923 663C916.709 660.687 918 654.742 918 649L918 611L918 497C918 483.223 922.306 460.645 917 448M776 449L776 450L780 450L780 451L776 452L776 453L781 453L781 454L776 454L776 455L780 455L780 456L776 456C776.986 462.98 779.143 479.09 786 482L786 483L775 485L775 486L781 487L781 496L784 493L785 493L790 536L792 536L792 532L795 544L798 544L798 536C804.158 539.257 804.495 555.516 804.931 562C805.204 566.067 803.156 570.577 808 572L812 563L812 568L812 569L816 573L816 568L817 568L824 584L820 584L826 588C827.76 593.273 827.697 603.715 834 604L839 618L843 616L844 630L848 629L846 640L846 641L855 640L860 641L860 642L856 642L856 643L860 643L860 644L857 646L869 645L871 649L873 648L884 651L883.985 597L883 449L776 449M884 449L885 450L884 449M768 450L768 451L776 451L768 450M884.667 451.333L885.333 451.667L884.667 451.333M774.667 453.333L775.333 453.667L774.667 453.333z"/>
<path style="fill:#2e4f5a; stroke:none;" d="M786 453L787 454L786 453z"/>
<path style="fill:#889da5; stroke:none;" d="M884.333 453.667L884.667 454.333L884.333 453.667z"/>
<path style="fill:#2e4f5a; stroke:none;" d="M913 453L914 454L913 453z"/>
<path style="fill:#889da5; stroke:none;" d="M884 480L885 512L886 512C886 502.078 888.001 489.275 884 480z"/>
<path style="fill:#2e4f5a; stroke:none;" d="M888 488L888 496L889 496L888 488z"/>
<path style="fill:#889da5; stroke:none;" d="M884 520L884 528L885 528L884 520M886 520L886 528L887 528L886 520M885 536L886 584L887 584L885.004 553L885 536z"/>
<path style="fill:#2e4f5a; stroke:none;" d="M434 568L434 584L436 584L436 568L434 568M887 624L887 627L888 627L887 624z"/>
<path style="fill:#1785bc; stroke:none;" d="M493 635L498 639L498 640L496.82 652L493.287 664L496 675L491 672L492 680L496 680L496 696L494 696L494 688L491 688L491 704L496 704L496 720L492 720L490 787L491 787L492 784L494 784L495 838L495 946L495 1293L493 2192L495 2400L491 2400L488 2472L485 2472L479 2512L475 2512L475 2520L472 2520L472 2528L467 2528L467 2536L464 2536L464 2544L459 2544L459 2552L456 2552L451 2568L443 2568L443 2576L438 2575L438 2576L440 2584L430 2583L430 2584L432 2590L424 2590L416 2600L384 2614L384 2616L388 2616C380.937 2621.64 368.841 2620.93 360 2621L360 2624L336 2624L336 2628L304 2628L299 2624L300 2627L293 2624L293 2629L292 2629L292 2616L291 2616L291 2619L290 2619L289 1320L289 899L289 759L289 690C246.595 714.395 214.732 767.122 208.282 815C204.917 839.98 208 865.836 208 891C208 1019.29 206 1147.63 206 1276C206 1859.61 196 2443.4 196 3027L289 3043L290 2991L292 2992L292 2985L293 2985L293 2990L294 2990C303.121 2983.09 317.987 2992.55 327 2984C333.092 2988.27 344.742 2986 352 2986L352 2989L368 2990L368 2987L384 2989L384 2992C392.696 2992.1 411.587 2994.96 416 3003L408 3002L408 3004C423.647 3003.97 437.202 3016.72 448.42 3026.84C453.815 3031.71 456.194 3038.86 464 3040C464.343 3047 472.323 3055.75 478 3059L478 3060L475 3061L496 3064L496 3065L492 3065L492 3066C544.952 3066 597.915 3069.29 651 3067.99C682.362 3067.22 713.674 3064.42 745 3063.04C766.059 3062.11 786.964 3059.14 808 3057.96C813.616 3057.65 828.363 3058.16 832 3054L838 3055L838 3054L835 3054L835 3053L845 3052L843 3048L847 3050L852 3050L855 3046L851 3046L859 3040C859.058 3034.83 860.128 3031.54 864 3028L864 3031L865 3031L880 3021L888 3014L884 3015L883 3012L896 3008L896 3012L900 3008L896 3008C897.29 3003.9 899.992 3002.97 904 3002L904 3008L912 3005L916 2999L912 2998L912 2996C919.65 2993.81 923.091 2992.63 930 2996L930 2992L937 2993L937 2988L938 2988L938 2999L939 2999L939 2993L942 2992L943 3039C976.321 3030.38 1011.32 3026.12 1045 3018.58C1053.67 3016.63 1062.35 3014.8 1071 3012.77C1073.81 3012.1 1079.07 3011.66 1080.97 3009.26C1085.41 3003.67 1082 2985.95 1082 2979C1082 2950.61 1083 2922.37 1083 2894C1083 2784.96 1083.96 2676.06 1084 2567C1084.07 2373.09 1086.06 2178.93 1087 1985C1088.26 1723.32 1086 1461.61 1086 1200C1086 1115.82 1086.72 1031.05 1083.04 947C1080.93 898.832 1087.23 847.821 1073.28 801C1065.85 776.067 1052.5 753.596 1035.57 734C1024.71 721.427 1011.65 710.453 998 701.025C981.339 689.521 962.897 679.331 944 672C938.914 689.207 943 713.031 943 731L943 858L943 1274C943 1726.04 942 2178.18 942 2630L941 2630L941 2615L940 2615L940 2624L939 2624L938 2620L937 2620L937 2630L936 2630L930 2618C922.855 2620.74 919.838 2617.75 913 2616L913 2608L912 2608L912 2611C906.06 2607.73 898.234 2607.38 896 2600L888 2592L884 2592L870.494 2579.62L864 2570L864 2574L858 2568L856 2554L850 2553L851 2550L848 2543L843.667 2534L838 2512C827.312 2507.02 824.298 2479.67 828 2470C823.507 2466.05 822.065 2461.9 822 2456L826 2456L822 2416L819 2416L818 2328L816 2328L816 2336L815 2336L815 2320L818 2320L819 1392L818 1392L818 1568L816 1568L816 1472L815 1472L815 1536L813 1536L821 1200L818 1200L817 1304L815 1304L815.907 1212.04L813.258 1180L816 1152L818 1152L818 1192L819 1192L818 1144L814 1144L815 864L816 864L816 1000L817 1000L817 857C817 841.032 821.505 813.201 812 800L816 800L815 780L810 780L810 776L805 776L807 760L807 759C801.277 749.915 799.09 730.888 799 720L795 720L794 704L791 704L789 688L778 688C780.438 682.217 778.758 674.944 777 669L774 670C774.364 664.39 776.812 661.286 771 658L773 656L770 650L768 654C765.155 652.395 763.252 651.128 765 648L760 643L760 634L760 633L750 633C746.191 628.568 737.427 629 732 629C717.616 628.999 703.343 630 689 630L558 630C536.948 630 512.369 626.134 493 635z"/>
<path style="fill:#5ba3c6; stroke:none;" d="M742.667 629.333L743.333 629.667L742.667 629.333z"/>
<path style="fill:#1785bc; stroke:none;" d="M461 630L461 631L464 631L461 630z"/>
<path style="fill:#5ba3c6; stroke:none;" d="M290 2619L291 2619L291 2616L292 2616L292 2629L293 2629L293 2624L296 2627L300 2627L299 2624L304 2628L336 2628L336 2624L360 2624L360 2621C367.97 2620.98 382.502 2622.23 388 2616L384 2616L384 2614L416 2600L424 2590L432 2590L430 2584L430 2583L440 2584L438 2576L438 2575L443 2576L443 2568L451 2568L456 2552L459 2552L459 2544L464 2544L464 2536L467 2536L467 2528L472 2528L472 2520L475 2520L475 2512L479 2512L485 2472L488 2472L491 2400L495 2400C495 2330.06 493.031 2259.55 493 2190C492.863 1886.16 495 1582.58 495 1279L495 938L495 834C495 818.659 498.346 798.703 494 784L492 784L491 787L490 787C494.015 765.375 492 741.942 492 720L496 720L496 704L491 704L491 688L494 688L494 696L496 696L496 680L492 680L491 672L496 675L493.597 664L496.895 652.999L498 640L498 639L493 635L505 631C493.254 626.072 472.549 630.047 460 630.911C417.612 633.829 377.001 646.175 338 662.665C326.102 667.696 315.318 674.513 303.985 680.65C299.883 682.872 291.557 686.732 289.603 691.224C286.301 698.811 289 712.753 289 721L289 793L289 1043C289 1568.32 289.943 2093.77 290 2619M744 630L744 631L750 633L760 633L760 634L758 635L758 636L760 643L765 648C761.924 650.806 765.022 652.907 768 654L770 650L773 656L771 656L771 658C775.744 661.888 774.16 664.442 774 670L777 669L778 688L789 688L791 704L794 704L795 720L799 720L803.53 746.17L807 759L807 760L805 776L810 776L810 780L815 780L816 800L812 800C820.854 817.827 817 844.12 817 864L817 1000L816 1000L816 864L815 864L814 1144L818 1144L819 1192L818 1192L818 1152L816 1152L813.108 1180L815.782 1212.04L815 1304L817 1304L818 1200L821 1200L813 1536L815 1536L815 1472L816 1472L816 1568L818 1568L818 1392L819 1392L818 2320L815 2320L815 2336L816 2336L816 2328L818 2328L819 2416L822 2416L826 2456L822 2456C822.02 2461.78 822.723 2466.82 828 2470C823.693 2478.28 827.456 2508.98 838 2512L843.097 2535L848 2543C847.339 2546.53 847.871 2548.17 851 2550L850 2553L856 2554L858 2568L864 2574L864 2570L870.494 2580.39L884 2592L888 2592C888.753 2596.47 891.732 2598.81 896 2600C896.436 2605.77 910.818 2613.37 912 2608L913 2608L913 2616C919.255 2618.57 923.416 2621.43 930 2618L936 2630L937 2630L937 2620L938 2620L939 2624L940 2624L940 2615L941 2615L941 2630L942 2630C942 2183.84 943 1737.38 943 1291L943 869L943 737C943 716.558 939.265 691.889 944 672C936.195 669.342 922.395 666.135 917 660L887 651.541L873 648L871 649C866.583 643.197 848.231 642.827 841 641.336C809.741 634.89 775.941 630.003 744 630z"/>
<path style="fill:#1785bc; stroke:none;" d="M754 630L754 631L760 631L754 630M448 631L448 632L451 632L448 631M768 631L769 632L768 631M496 632L497 633L496 632z"/>
<path style="fill:#5ba3c6; stroke:none;" d="M499 634L502 634L500 632L499 634z"/>
<path style="fill:#1785bc; stroke:none;" d="M776 632L776 633L782 633L776 632z"/>
<path style="fill:#2e4f5a; stroke:none;" d="M430.667 633.333L431.333 633.667L430.667 633.333z"/>
<path style="fill:#1785bc; stroke:none;" d="M788 633L789 634L788 633z"/>
<path style="fill:#5ba3c6; stroke:none;" d="M755 634L753 635L753 636L755 634z"/>
<path style="fill:#1785bc; stroke:none;" d="M796.667 634.333L797.333 634.667L796.667 634.333M491 636L492 637L491 636M811.667 636.333L812.333 636.667L811.667 636.333z"/>
<path style="fill:#5ba3c6; stroke:none;" d="M407 638L408 639L407 638z"/>
<path style="fill:#1785bc; stroke:none;" d="M824.667 638.333L825.333 638.667L824.667 638.333z"/>
<path style="fill:#5ba3c6; stroke:none;" d="M499 639L499 640L502 640L499 639z"/>
<path style="fill:#1785bc; stroke:none;" d="M837 640L838 641L837 640z"/>
<path style="fill:#889da5; stroke:none;" d="M841 641L841 642L844 642L841 641M848.667 642.333L849.333 642.667L848.667 642.333z"/>
<path style="fill:#2e4f5a; stroke:none;" d="M862.667 642.333L863.333 642.667L862.667 642.333M862.667 644.333L863.333 644.667L862.667 644.333M867.667 645.333L868.333 645.667L867.667 645.333M895 650L896 651L895 650M898 650L899 651L898 650M895 653L896 654L895 653M897 653L898 654L897 653z"/>
<path style="fill:#889da5; stroke:none;" d="M349.667 656.333L350.333 656.667L349.667 656.333z"/>
<path style="fill:#1785bc; stroke:none;" d="M488.667 656.333L489.333 656.667L488.667 656.333z"/>
<path style="fill:#889da5; stroke:none;" d="M342 659L342 660L348 657L342 659M340.667 660.333L341.333 660.667L340.667 660.333M336 664L340 661L336 664M333.667 663.333L334.333 663.667L333.667 663.333M320 670L320 671L333 665L320 670M924.667 664.333L925.333 664.667L924.667 664.333M928 665L929 666L928 665M929 666L929 667L932 667L929 666M933 667L934 668L933 667M935 668L936 669L935 668M937.667 669.333L938.333 669.667L937.667 669.333M939.667 670.333L940.333 670.667L939.667 670.333M316 672L316 673L320 672L316 672z"/>
<path style="fill:#1785bc; stroke:none;" d="M488 671L489 675L490 675L490 671L488 671z"/>
<path style="fill:#889da5; stroke:none;" d="M942.667 671.333L943.333 671.667L942.667 671.333z"/>
<path style="fill:#5ba3c6; stroke:none;" d="M945 672L946 673L945 672z"/>
<path style="fill:#889da5; stroke:none;" d="M946 672L947 673L946 672M310 675L310 676L316 673L310 675z"/>
<path style="fill:#5ba3c6; stroke:none;" d="M947 673L948 674L947 673z"/>
<path style="fill:#889da5; stroke:none;" d="M948 673L949 674L948 673z"/>
<path style="fill:#5ba3c6; stroke:none;" d="M950 674L951 675L950 674M952 675L953 676L952 675z"/>
<path style="fill:#889da5; stroke:none;" d="M309 676L310 677L309 676z"/>
<path style="fill:#5ba3c6; stroke:none;" d="M954 676L955 677L954 676z"/>
<path style="fill:#889da5; stroke:none;" d="M302 680L302 681L309 677L302 680z"/>
<path style="fill:#5ba3c6; stroke:none;" d="M956 677L957 678L956 677z"/>
<path style="fill:#889da5; stroke:none;" d="M957 677L958 678L957 677z"/>
<path style="fill:#5ba3c6; stroke:none;" d="M958 678L959 679L958 678z"/>
<path style="fill:#889da5; stroke:none;" d="M959 678L960 679L959 678z"/>
<path style="fill:#5ba3c6; stroke:none;" d="M960 679L961 680L960 679z"/>
<path style="fill:#889da5; stroke:none;" d="M961 679L962 680L961 679z"/>
<path style="fill:#5ba3c6; stroke:none;" d="M962 680L963 681L962 680z"/>
<path style="fill:#889da5; stroke:none;" d="M963 680L964 681L963 680M301 681L302 682L301 681z"/>
<path style="fill:#5ba3c6; stroke:none;" d="M964 681L965 682L964 681z"/>
<path style="fill:#889da5; stroke:none;" d="M965 681L966 682L965 681M296 684L296 685L301 683L296 684z"/>
<path style="fill:#5ba3c6; stroke:none;" d="M966 682L967 683L966 682z"/>
<path style="fill:#889da5; stroke:none;" d="M967 682L968 683L967 682z"/>
<path style="fill:#5ba3c6; stroke:none;" d="M968 683L969 684L968 683z"/>
<path style="fill:#889da5; stroke:none;" d="M969 683L970 684L969 683z"/>
<path style="fill:#5ba3c6; stroke:none;" d="M970 684L971 685L970 684z"/>
<path style="fill:#889da5; stroke:none;" d="M971 684L972 685L971 684M295 685L296 686L295 685z"/>
<path style="fill:#5ba3c6; stroke:none;" d="M972 685L973 686L972 685z"/>
<path style="fill:#889da5; stroke:none;" d="M292 688L295 686L292 688z"/>
<path style="fill:#5ba3c6; stroke:none;" d="M974 686L975 687L974 686z"/>
<path style="fill:#889da5; stroke:none;" d="M976 687L977 688L976 687M290.667 688.333L291.333 688.667L290.667 688.333z"/>
<path style="fill:#1785bc; stroke:none;" d="M489 688L489 696L490 696L489 688z"/>
<path style="fill:#5ba3c6; stroke:none;" d="M977 688L978 689L977 688z"/>
<path style="fill:#889da5; stroke:none;" d="M978 688L979 689L978 688M288.667 689.333L289.333 689.667L288.667 689.333z"/>
<path style="fill:#5ba3c6; stroke:none;" d="M979 689L980 690L979 689z"/>
<path style="fill:#889da5; stroke:none;" d="M287 690L288 691L287 690z"/>
<path style="fill:#5ba3c6; stroke:none;" d="M981 690L982 691L981 690M286 691L287 692L286 691z"/>
<path style="fill:#2e4f5a; stroke:none;" d="M288 691L289 692L288 691z"/>
<path style="fill:#889da5; stroke:none;" d="M983 691L984 692L983 691M284 692L285 693L284 692z"/>
<path style="fill:#5ba3c6; stroke:none;" d="M984 692L985 693L984 692z"/>
<path style="fill:#889da5; stroke:none;" d="M283 693L284 694L283 693z"/>
<path style="fill:#5ba3c6; stroke:none;" d="M986 693L987 694L986 693M282 694L283 695L282 694z"/>
<path style="fill:#889da5; stroke:none;" d="M988 694L989 695L988 694M280 695L281 696L280 695z"/>
<path style="fill:#5ba3c6; stroke:none;" d="M281 695L282 696L281 695M989 695L990 696L989 695z"/>
<path style="fill:#889da5; stroke:none;" d="M279 696L280 697L279 696z"/>
<path style="fill:#5ba3c6; stroke:none;" d="M991 696L992 697L991 696z"/>
<path style="fill:#889da5; stroke:none;" d="M278 697L279 698L278 697z"/>
<path style="fill:#5ba3c6; stroke:none;" d="M992 697L993 698L992 697M277 698L278 699L277 698z"/>
<path style="fill:#2e4f5a; stroke:none;" d="M278 698L279 699L278 698z"/>
<path style="fill:#5ba3c6; stroke:none;" d="M994 698L995 699L994 698M276 699L277 700L276 699M995 699L996 700L995 699z"/>
<path style="fill:#889da5; stroke:none;" d="M274 700L275 701L274 700M997 700L998 701L997 700M273 701L274 702L273 701z"/>
<path style="fill:#5ba3c6; stroke:none;" d="M998 701L999 702L998 701z"/>
<path style="fill:#889da5; stroke:none;" d="M272 702L273 703L272 702M271 703L272 704L271 703M1001 703L1002 704L1001 703z"/>
<path style="fill:#5ba3c6; stroke:none;" d="M270 704L271 705L270 704M1002 704L1003 705L1002 704M269 705L270 706L269 705z"/>
<path style="fill:#889da5; stroke:none;" d="M1004 705L1005 706L1004 705z"/>
<path style="fill:#5ba3c6; stroke:none;" d="M1005 706L1006 707L1005 706M1006 707L1007 708L1006 707z"/>
<path style="fill:#889da5; stroke:none;" d="M1008 708L1009 709L1008 708M264 709L265 710L264 709M1009 709L1010 710L1009 709M263 710L264 711L263 710z"/>
<path style="fill:#5ba3c6; stroke:none;" d="M1010 710L1011 711L1010 710z"/>
<path style="fill:#889da5; stroke:none;" d="M262 711L263 712L262 711z"/>
<path style="fill:#5ba3c6; stroke:none;" d="M1011 711L1012 712L1011 711z"/>
<path style="fill:#889da5; stroke:none;" d="M261 712L262 713L261 712M1013 712L1014 713L1013 712M260 713L261 714L260 713M1014 713L1015 714L1014 713M259 714L260 715L259 714z"/>
<path style="fill:#5ba3c6; stroke:none;" d="M1015 714L1016 715L1015 714z"/>
<path style="fill:#889da5; stroke:none;" d="M258 715L259 716L258 715z"/>
<path style="fill:#5ba3c6; stroke:none;" d="M1016 715L1017 716L1016 715z"/>
<path style="fill:#889da5; stroke:none;" d="M257 716L258 717L257 716z"/>
<path style="fill:#5ba3c6; stroke:none;" d="M1017 716L1018 717L1017 716z"/>
<path style="fill:#889da5; stroke:none;" d="M256 717L257 718L256 717M255 718L256 719L255 718M254 719L255 720L254 719M1021 719L1022 720L1021 719z"/>
<path style="fill:#5ba3c6; stroke:none;" d="M1022 720L1023 721L1022 720M253 721L254 722L253 721M1023 721L1024 722L1023 721M252 722L253 723L252 722M1024 722L1025 723L1024 722M251 723L252 724L251 723M1025 723L1026 724L1025 723z"/>
<path style="fill:#889da5; stroke:none;" d="M250 724L248 727L250 724z"/>
<path style="fill:#2e4f5a; stroke:none;" d="M251 724L252 725L251 724z"/>
<path style="fill:#5ba3c6; stroke:none;" d="M1026 724L1027 725L1026 724z"/>
<path style="fill:#2e4f5a; stroke:none;" d="M250 725L251 726L250 725z"/>
<path style="fill:#5ba3c6; stroke:none;" d="M1027 725L1028 726L1027 725z"/>
<path style="fill:#2e4f5a; stroke:none;" d="M249 726L250 727L249 726z"/>
<path style="fill:#5ba3c6; stroke:none;" d="M1028 726L1029 727L1028 726M1029 727L1030 728L1029 727M1030 728L1031 729L1030 728M246 729L247 730L246 729M1031 729L1032 730L1031 729z"/>
<path style="fill:#889da5; stroke:none;" d="M245 730L246 731L245 730z"/>
<path style="fill:#5ba3c6; stroke:none;" d="M1032 730L1033 731L1032 730z"/>
<path style="fill:#889da5; stroke:none;" d="M244 731L245 732L244 731M1033 731L1034 732L1033 731M1034 732L1035 733L1034 732M1035 733L1036 734L1035 733z"/>
<path style="fill:#5ba3c6; stroke:none;" d="M242 734L243 735L242 734z"/>
<path style="fill:#889da5; stroke:none;" d="M241 735L242 736L241 735z"/>
<path style="fill:#5ba3c6; stroke:none;" d="M1036 735L1037 736L1036 735z"/>
<path style="fill:#889da5; stroke:none;" d="M240 736L241 737L240 736z"/>
<path style="fill:#5ba3c6; stroke:none;" d="M1037 736L1038 737L1037 736M240 737L241 738L240 737M1038 737L1039 738L1038 737M239 738L240 739L239 738M1039 738L1040 739L1039 738z"/>
<path style="fill:#889da5; stroke:none;" d="M238 739L239 740L238 739M1040 739L1041 740L1040 739M1041 740L1042 741L1041 740z"/>
<path style="fill:#5ba3c6; stroke:none;" d="M237 741L238 742L237 741z"/>
<path style="fill:#889da5; stroke:none;" d="M236 742L237 743L236 742z"/>
<path style="fill:#2e4f5a; stroke:none;" d="M237 742L238 743L237 742z"/>
<path style="fill:#5ba3c6; stroke:none;" d="M1042 742L1043 743L1042 742z"/>
<path style="fill:#889da5; stroke:none;" d="M235 743L236 744L235 743z"/>
<path style="fill:#5ba3c6; stroke:none;" d="M1043 743L1044 744L1043 743M235 744L236 745L235 744z"/>
<path style="fill:#889da5; stroke:none;" d="M1044 744L1045 745L1044 744z"/>
<path style="fill:#5ba3c6; stroke:none;" d="M234 745L235 746L234 745M233 747L234 748L233 747M1046 747L1047 748L1046 747z"/>
<path style="fill:#889da5; stroke:none;" d="M232 748L233 749L232 748M1047 748L1048 749L1047 748z"/>
<path style="fill:#5ba3c6; stroke:none;" d="M231 750L232 751L231 750M1048 750L1049 751L1048 750z"/>
<path style="fill:#889da5; stroke:none;" d="M230 751L231 752L230 751M1049 751L1050 752L1049 751M229 753L230 754L229 753z"/>
<path style="fill:#5ba3c6; stroke:none;" d="M1050 753L1051 754L1050 753M1051 754L1052 755L1051 754z"/>
<path style="fill:#889da5; stroke:none;" d="M228 755L229 756L228 755z"/>
<path style="fill:#2e4f5a; stroke:none;" d="M229 755L230 756L229 755M228 756L229 757L228 756z"/>
<path style="fill:#5ba3c6; stroke:none;" d="M1052 756L1053 757L1052 756M227 757L228 758L227 757M1053 757L1054 758L1053 757z"/>
<path style="fill:#889da5; stroke:none;" d="M226 758L227 759L226 758z"/>
<path style="fill:#5ba3c6; stroke:none;" d="M226 759L227 760L226 759M1054 759L1055 760L1054 759z"/>
<path style="fill:#889da5; stroke:none;" d="M225 760L226 761L225 760M1055 760L1056 761L1055 760z"/>
<path style="fill:#5ba3c6; stroke:none;" d="M225 761L226 762L225 761M1055 761L1056 762L1055 761z"/>
<path style="fill:#889da5; stroke:none;" d="M224 762L225 763L224 762z"/>
<path style="fill:#2e4f5a; stroke:none;" d="M225 762L226 763L225 762z"/>
<path style="fill:#5ba3c6; stroke:none;" d="M1056 762L1057 763L1056 762M224 763L225 764L224 763z"/>
<path style="fill:#889da5; stroke:none;" d="M223 764L224 765L223 764z"/>
<path style="fill:#5ba3c6; stroke:none;" d="M1057 764L1058 765L1057 764M223 765L224 766L223 765z"/>
<path style="fill:#889da5; stroke:none;" d="M222 766L223 767L222 766z"/>
<path style="fill:#5ba3c6; stroke:none;" d="M1058 766L1059 767L1058 766M222 767L223 768L222 767z"/>
<path style="fill:#889da5; stroke:none;" d="M1059 767L1060 768L1059 767M221 768L222 769L221 768z"/>
<path style="fill:#5ba3c6; stroke:none;" d="M221 769L222 770L221 769z"/>
<path style="fill:#889da5; stroke:none;" d="M1060 769L1061 770L1060 769z"/>
<path style="fill:#2e4f5a; stroke:none;" d="M221 770L222 771L221 770z"/>
<path style="fill:#889da5; stroke:none;" d="M220 771L221 772L220 771z"/>
<path style="fill:#5ba3c6; stroke:none;" d="M1061 771L1062 772L1061 771z"/>
<path style="fill:#889da5; stroke:none;" d="M219 773L220 774L219 773M1062 773L1063 774L1062 773z"/>
<path style="fill:#5ba3c6; stroke:none;" d="M219 774L220 775L219 774M1062 774L1063 775L1062 774z"/>
<path style="fill:#889da5; stroke:none;" d="M218 775L219 776L218 775z"/>
<path style="fill:#2e4f5a; stroke:none;" d="M219 775L220 776L219 775z"/>
<path style="fill:#5ba3c6; stroke:none;" d="M1063 775L1064 776L1063 775M218 776L219 777L218 776z"/>
<path style="fill:#889da5; stroke:none;" d="M1064 777L1065 778L1064 777M217 778L218 779L217 778z"/>
<path style="fill:#5ba3c6; stroke:none;" d="M217 779L218 780L217 779z"/>
<path style="fill:#889da5; stroke:none;" d="M216 780L217 781L216 780z"/>
<path style="fill:#5ba3c6; stroke:none;" d="M1065 780L1066 781L1065 780M216 781L217 782L216 781M1066 782L1067 783L1066 782M215 784L216 785L215 784M1067.33 784.667L1067.67 785.333L1067.33 784.667z"/>
<path style="fill:#889da5; stroke:none;" d="M214 786L215 787L214 786z"/>
<path style="fill:#5ba3c6; stroke:none;" d="M214 787L215 788L214 787M1068 787L1069 788L1068 787M1069.33 789.667L1069.67 790.333L1069.33 789.667z"/>
<path style="fill:#889da5; stroke:none;" d="M213 790L214 791L213 790M212.333 792.667L212.667 793.333L212.333 792.667z"/>
<path style="fill:#5ba3c6; stroke:none;" d="M1070 792L1071 793L1070 792M212 794L213 795L212 794M1071 795L1072 796L1071 795z"/>
<path style="fill:#889da5; stroke:none;" d="M211.333 796.667L211.667 797.333L211.333 796.667z"/>
<path style="fill:#5ba3c6; stroke:none;" d="M211 798L212 799L211 798z"/>
<path style="fill:#889da5; stroke:none;" d="M1072 798L1073 799L1072 798M210 800L211 801L210 800M1073 800L1074 801L1073 800z"/>
<path style="fill:#5ba3c6; stroke:none;" d="M210.333 801.667L210.667 802.333L210.333 801.667M1073 801L1074 802L1073 801z"/>
<path style="fill:#889da5; stroke:none;" d="M1074 804L1075 805L1074 804M209.333 805.667L209.667 806.333L209.333 805.667z"/>
<path style="fill:#5ba3c6; stroke:none;" d="M1074 805L1075 806L1074 805M209 807L210 808L209 807M1075.33 808.667L1075.67 809.333L1075.33 808.667z"/>
<path style="fill:#889da5; stroke:none;" d="M208 810L209 811L208 810z"/>
<path style="fill:#5ba3c6; stroke:none;" d="M208 811L208 814L209 814L208 811z"/>
<path style="fill:#889da5; stroke:none;" d="M1076 812L1077 813L1076 812z"/>
<path style="fill:#5ba3c6; stroke:none;" d="M1076 813L1077 814L1076 813z"/>
<path style="fill:#889da5; stroke:none;" d="M207 816L207 819L208 819L207 816z"/>
<path style="fill:#5ba3c6; stroke:none;" d="M1077 816L1077 819L1078 819L1077 816M207 819L207 822L208 822L207 819z"/>
<path style="fill:#889da5; stroke:none;" d="M1078 821L1079 822L1078 821z"/>
<path style="fill:#5ba3c6; stroke:none;" d="M1078.33 822.667L1078.67 823.333L1078.33 822.667z"/>
<path style="fill:#889da5; stroke:none;" d="M206 826L206 830L207 830L206 826M1079 827L1080 828L1079 827z"/>
<path style="fill:#5ba3c6; stroke:none;" d="M1079 828L1079 831L1080 831L1079 828M206 830L206 848L207 848L206 830z"/>
<path style="fill:#889da5; stroke:none;" d="M1080 835L1080 838L1081 838L1080 835z"/>
<path style="fill:#5ba3c6; stroke:none;" d="M1080 838L1080 842L1081 842L1080 838z"/>
<path style="fill:#889da5; stroke:none;" d="M206.333 848.667L206.667 849.333L206.333 848.667M1081 852L1082 853L1081 852z"/>
<path style="fill:#5ba3c6; stroke:none;" d="M1081 853L1081 864L1082 864L1081 853M207 854L207 910L208 910L208 872L207 854z"/>
<path style="fill:#889da5; stroke:none;" d="M1082 879L1082 888L1083 888L1082 879z"/>
<path style="fill:#5ba3c6; stroke:none;" d="M1082 888L1082 901L1083 901L1082 888z"/>
<path style="fill:#889da5; stroke:none;" d="M1083 922L1083 928L1084 928L1083 922z"/>
<path style="fill:#1785bc; stroke:none;" d="M490 928L490 1512L491 1512L491 1098L491 979C491 964.7 495.506 941.121 490 928z"/>
<path style="fill:#5ba3c6; stroke:none;" d="M1083 928L1083 952L1084 952L1083 928z"/>
<path style="fill:#889da5; stroke:none;" d="M206 984L206 1024L207 1024C207 1012.57 210.411 994.512 206 984M1084 984L1084 995L1085 995L1084 984z"/>
<path style="fill:#5ba3c6; stroke:none;" d="M1084 995L1084 1026L1085 1026L1084 995M206 1024L206 1096L207 1096L207 1047L206 1024z"/>
<path style="fill:#1785bc; stroke:none;" d="M818 1032L818 1136L819 1136L819 1064L818 1032z"/>
<path style="fill:#889da5; stroke:none;" d="M1085 1072L1085 1085L1086 1085L1085 1072z"/>
<path style="fill:#5ba3c6; stroke:none;" d="M1085 1085L1086 1086L1085 1085z"/>
<path style="fill:#889da5; stroke:none;" d="M1085 1086L1086 1087L1085 1086z"/>
<path style="fill:#5ba3c6; stroke:none;" d="M1085 1087L1085 1137L1086 1137C1086 1122.95 1090.41 1099.89 1085 1087M813 1144L813 1168L814 1168L813 1144z"/>
<path style="fill:#889da5; stroke:none;" d="M205 1168L205 1232L206 1232L206 1188L205 1168M1086 1217L1086 1268L1087 1268C1087 1253.69 1091.51 1230.13 1086 1217z"/>
<path style="fill:#5ba3c6; stroke:none;" d="M205 1232L205 1288L206 1288L206 1250L205 1232M1086 1268L1086 1352L1087 1352L1087 1294L1086 1268z"/>
<path style="fill:#889da5; stroke:none;" d="M204 1368L204 1408L205 1408C205 1396.57 208.411 1378.51 204 1368z"/>
<path style="fill:#5ba3c6; stroke:none;" d="M204 1408L204 1478L205 1478L205 1430L204 1408z"/>
<path style="fill:#889da5; stroke:none;" d="M203 1552L203 1615L204 1615L204 1572L203 1552z"/>
<path style="fill:#5ba3c6; stroke:none;" d="M203 1615L203 1664L204 1664C204 1650.21 208.309 1627.65 203 1615z"/>
<path style="fill:#889da5; stroke:none;" d="M202 1736L202 1791L203 1791L203 1754L202 1736z"/>
<path style="fill:#5ba3c6; stroke:none;" d="M202 1791L202 1856L203 1856L203 1812L202 1791z"/>
<path style="fill:#889da5; stroke:none;" d="M201 1928L201 1992L202 1992L202 1948L201 1928z"/>
<path style="fill:#5ba3c6; stroke:none;" d="M201 1992L201 2048L202 2048L202 2010L201 1992M1086 1992L1086 2104L1087 2104L1087 2026L1086 1992z"/>
<path style="fill:#889da5; stroke:none;" d="M1086 2104L1086 2192L1087 2192L1087 2131L1086 2104M200 2120L200 2161L201 2161C201 2149.3 204.511 2130.75 200 2120z"/>
<path style="fill:#5ba3c6; stroke:none;" d="M200 2161L200 2232L201 2232L201 2183L200 2161z"/>
<path style="fill:#1785bc; stroke:none;" d="M490 2200L490 2312L491 2312L491 2234L490 2200z"/>
<path style="fill:#889da5; stroke:none;" d="M199 2308L199 2369L200 2369L200 2328L199 2308z"/>
<path style="fill:#5ba3c6; stroke:none;" d="M1085 2328L1085 2424L1086 2424L1086 2357L1085 2328M816 2336L816 2368L817 2368L816 2336M199 2369L200 2370L199 2369z"/>
<path style="fill:#889da5; stroke:none;" d="M199.333 2370.67L199.667 2371.33L199.333 2370.67z"/>
<path style="fill:#5ba3c6; stroke:none;" d="M199 2372L199 2424L200 2424L200 2389L199 2372z"/>
<path style="fill:#1785bc; stroke:none;" d="M487 2416L487 2424L488 2424L487 2416z"/>
<path style="fill:#889da5; stroke:none;" d="M1085 2424L1085 2456L1086 2456L1085 2424z"/>
<path style="fill:#5ba3c6; stroke:none;" d="M484 2488L484 2496L486 2496L486 2488L484 2488z"/>
<path style="fill:#889da5; stroke:none;" d="M198 2502L198 2543L199 2543C199 2531.3 202.511 2512.75 198 2502z"/>
<path style="fill:#5ba3c6; stroke:none;" d="M839.333 2534.67L839.667 2535.33L839.333 2534.67M198 2543L198 2616L199 2616L199 2566L198 2543M1084 2557L1084 2623L1085 2623L1085 2578L1084 2557z"/>
<path style="fill:#1785bc; stroke:none;" d="M904 2604L904 2606L906 2604L904 2604z"/>
<path style="fill:#5ba3c6; stroke:none;" d="M895 2608L896 2609L895 2608z"/>
<path style="fill:#1785bc; stroke:none;" d="M936.333 2614.67L936.667 2615.33L936.333 2614.67M920.667 2615.33L921.333 2615.67L920.667 2615.33M938 2615L939 2616L938 2615M293.333 2621.67L293.667 2622.33L293.333 2621.67M295 2622L296 2623L295 2622z"/>
<path style="fill:#889da5; stroke:none;" d="M1084 2623L1084 2659L1085 2659C1085 2648.61 1088.01 2632.56 1084 2623M197 2704L197 2752L198 2752C198 2738.47 202.209 2716.41 197 2704z"/>
<path style="fill:#5ba3c6; stroke:none;" d="M197 2752L197 2808L198 2808L198 2770L197 2752M1083 2752L1083 2817L1084 2817L1084 2773L1083 2752z"/>
<path style="fill:#889da5; stroke:none;" d="M1083 2817L1083 2856L1084 2856C1084 2844.83 1087.31 2827.27 1083 2817M196 2888L196 2927L197 2927C197 2915.83 200.311 2898.27 196 2888z"/>
<path style="fill:#5ba3c6; stroke:none;" d="M196 2927L196 2992L197 2992L197 2948L196 2927M1082 2928L1082 2976L1083 2976C1083 2962.47 1087.21 2940.41 1082 2928z"/>
<path style="fill:#889da5; stroke:none;" d="M1082 2976L1082 2996L1083 2996L1082 2976z"/>
<path style="fill:#5ba3c6; stroke:none;" d="M327 2984L294 2990L293 2990L293 2985L292 2985L292 2992L290 2991L289 3044L355 3055L355 3054L352 3054L352 3053L496 3065L496 3064L478 3060L478 3059C472.842 3053.77 465.211 3047.71 464 3040C456.703 3038.1 454.482 3031.58 449.267 3026.84C437.7 3016.33 424.09 3003.88 408 3004L408 3002L416 3003C413.216 2994.57 392.027 2992.03 384 2992L384 2989L368 2987L368 2990L352 2989L352 2986L327 2984M937 2988L937 2993L930 2992L930 2996L928 2993L912 2996L912 2998L916 2999L912 3005L904 3008L904 3002C899.728 3002.65 896.789 3003.44 896 3008L900 3008L896 3012L896 3008L883 3012L884 3015L888 3014L880 3021C876.683 3018.63 867.255 3028.72 864 3031L864 3028L863 3028L859 3040L851 3046L855 3046L852 3050L847 3050L843 3048L845 3052L835 3053L835 3054L943 3040L942 2992L939 2993L939 2999L938 2999L937 2988M939 2988L939 2992L940 2992L939 2988z"/>
<path style="fill:#1785bc; stroke:none;" d="M940.333 2996.67L940.667 2997.33L940.333 2996.67z"/>
<path style="fill:#5ba3c6; stroke:none;" d="M1083 2996L1083 2997L1087 2997L1083 2996z"/>
<path style="fill:#889da5; stroke:none;" d="M1087.67 2996.33L1088.33 2996.67L1087.67 2996.33z"/>
<path style="fill:#1785bc; stroke:none;" d="M392 2997L392 2998L400 2999L400 2997L392 2997z"/>
<path style="fill:#2e4f5a; stroke:none;" d="M1082 2997C1082 3000.36 1082.96 3005.65 1080.97 3008.57C1079.07 3011.35 1074.02 3011.78 1071 3012.53C1062.04 3014.74 1053 3016.56 1044 3018.58C1002.1 3027.97 959.406 3038.28 917 3044.42C795.524 3062.01 672.798 3070.99 550 3067.99C505.983 3066.91 461.936 3063.76 418 3060.99C401.994 3059.98 386.021 3057 370 3057L370 3058C378.2 3060.93 387.324 3064.56 396 3062L400 3064L400 3065L384 3066C388.305 3071.32 404.292 3071.36 411 3073L411 3074L400 3074L400 3073L402 3073L402 3072L397 3072L397 3073L398 3075L426 3079.83L519 3086L519 3087L512 3087L520 3096L517 3096L517 3097C518.962 3099.67 519.944 3101.16 518 3104L518 3105L520 3108C525.173 3108.57 526.692 3113.32 527 3118L528 3118L528 3114L529 3114L532 3144L535 3144L536 3162L537 3162L537 3152L540 3152L543.737 3171.09L546 3208L547 3208L547 3200L550 3200C550.052 3219 553.323 3238.75 558 3257L478 3258L478 3259L499 3259L499 3260L494 3260L494 3261L503 3261L502 3264L498 3264L498 3272L501 3272L506 3328L503 3328L504.981 3354L502 3408L499 3408L500 3392L498 3392L496 3432L493 3432L493 3440L490 3440L490 3448L488 3448L488 3442L480 3448L472.934 3463L470.4 3471.23L458 3477L492 3478.09L594 3478.04L766 3475.96L852 3470L852 3469L846 3468L846 3467L848 3467L848 3466L832 3470L832 3469L836 3469L836 3468L831 3468L831 3464L835 3465L835 3464L831 3460L830 3460L830 3468L829 3468L818 3432L816 3432L816 3440L814 3440L810 3408L805 3408L805 3402L806 3402L808 3404L808 3400L812 3404L813 3404C813.306 3399.06 812.574 3395.44 808 3393L808 3392L812 3392L812 3391L806 3392L806 3376L803 3376L804 3360L800 3360L800 3344L804 3344L808 3272L815 3272C815 3268.49 815.987 3264.85 812 3264L812 3263C815.731 3262.94 825.021 3263.04 825 3259L840 3259L840 3258C811.897 3258 780.7 3261.78 753 3257C757.484 3252.77 763.275 3255.02 765 3248L772 3248C771.987 3243.14 770.446 3237.74 771.537 3233C773.278 3225.44 777.919 3218.41 780.093 3210.99C781.241 3207.07 779.297 3202.97 780.584 3199C784.395 3187.25 791.127 3178.1 789 3165L795 3160L793 3160L797.831 3140L805 3123L810 3114L806 3116L808 3107L812 3108L821 3088L824 3091L825 3091L828 3088L827 3084L832 3086L831 3081L823 3081L824 3078C826.09 3078 839.926 3077.95 836 3075L836 3074L842 3074L842 3075L840 3075L840 3076L848 3076L848 3075L844 3075L844 3074C869.016 3066.07 899.835 3072.2 924 3062L924 3061L920 3062C922.655 3060.02 924.345 3060.02 927 3062L928 3062C930.371 3057.38 933.393 3057.83 938 3059L935 3057L935 3056L938 3056L938 3050L939 3050L939 3060L940 3060L940 3050L941 3050C947.087 3183.21 943 3317.39 943 3451C985.973 3441.15 1027.76 3421.87 1067 3402.25C1076.83 3397.33 1086.45 3392.16 1096 3386.72C1099.67 3384.63 1105.66 3382.32 1107.97 3378.62C1110.63 3374.38 1109 3365.84 1109 3361C1109 3347.62 1110 3334.39 1110 3321C1110 3272.99 1112.77 3224.97 1113 3177C1113.15 3145.38 1112.66 3113.58 1114.04 3082C1114.68 3067.33 1115 3052.73 1115 3038C1115 3032.31 1116.56 3025.44 1115.42 3019.91C1112.36 3005.17 1095.77 2997.04 1082 2997z"/>
<path style="fill:#1785bc; stroke:none;" d="M1090 2997L1091 2998L1090 2997z"/>
<path style="fill:#889da5; stroke:none;" d="M1091 2997L1092 2998L1091 2997z"/>
<path style="fill:#5ba3c6; stroke:none;" d="M909 3000L912 2998L909 3000M1093 2998L1094 2999L1093 2998z"/>
<path style="fill:#889da5; stroke:none;" d="M1094 2998L1095 2999L1094 2998M1096 2999L1097 3000L1096 2999z"/>
<path style="fill:#1785bc; stroke:none;" d="M398.667 3000.33L399.333 3000.67L398.667 3000.33z"/>
<path style="fill:#889da5; stroke:none;" d="M1098 3000L1099 3001L1098 3000M1100 3001L1101 3002L1100 3001z"/>
<path style="fill:#5ba3c6; stroke:none;" d="M1101 3002L1102 3003L1101 3002M905 3003L906 3004L905 3003z"/>
<path style="fill:#889da5; stroke:none;" d="M1103 3003L1104 3004L1103 3003z"/>
<path style="fill:#1785bc; stroke:none;" d="M1104 3004L1105 3005L1104 3004z"/>
<path style="fill:#889da5; stroke:none;" d="M1107 3006L1108 3007L1107 3006M1108 3007L1109 3008L1108 3007z"/>
<path style="fill:#1785bc; stroke:none;" d="M406.667 3008.33L407.333 3008.67L406.667 3008.33z"/>
<path style="fill:#889da5; stroke:none;" d="M1109 3008L1110 3009L1109 3008M192 3009L193 3010L192 3009z"/>
<path style="fill:#1785bc; stroke:none;" d="M193 3009L194 3010L193 3009z"/>
<path style="fill:#2e4f5a; stroke:none;" d="M289 3451L289 3196L290 3056L294 3054L294 3056L295 3056L295 3054L296 3054L296 3058L299 3058L299 3056L301 3057L318 3051L318 3050L290 3047C289.256 3041.01 273.147 3040.72 268 3040C244.024 3036.67 220.073 3028.92 196 3027L196 3009C182.65 3012.17 170.008 3021.5 166.043 3035C162.592 3046.75 167 3062.62 167 3075C167 3105.39 166 3135.61 166 3166C166 3225 165 3284.08 165 3343L165 3389C165 3393.72 163.327 3402.5 166.028 3406.58C170.639 3413.56 189.343 3417.77 197 3420.68C226.222 3431.8 257.904 3446.41 289 3451z"/>
<path style="fill:#889da5; stroke:none;" d="M1110 3009L1111 3010L1110 3009M190 3010L191 3011L190 3010M1111 3010L1112 3011L1111 3010z"/>
<path style="fill:#5ba3c6; stroke:none;" d="M188 3011L189 3012L188 3011z"/>
<path style="fill:#889da5; stroke:none;" d="M186 3012L187 3013L186 3012M1112 3012L1113 3013L1112 3012M184 3013L185 3014L184 3013M1113 3013L1114 3014L1113 3013M182 3014L183 3015L182 3014z"/>
<path style="fill:#1785bc; stroke:none;" d="M427 3014L428 3016L424 3016L424 3018L432 3018L427 3014z"/>
<path style="fill:#5ba3c6; stroke:none;" d="M1113 3014L1114 3015L1113 3014M181 3015L182 3016L181 3015z"/>
<path style="fill:#889da5; stroke:none;" d="M179 3016L180 3017L179 3016z"/>
<path style="fill:#5ba3c6; stroke:none;" d="M1114 3016L1115 3017L1114 3016z"/>
<path style="fill:#889da5; stroke:none;" d="M178 3017L179 3018L178 3017M1115 3018L1116 3019L1115 3018z"/>
<path style="fill:#5ba3c6; stroke:none;" d="M1115 3019L1116 3020L1115 3019z"/>
<path style="fill:#1785bc; stroke:none;" d="M1115 3023L1116 3024L1115 3023z"/>
<path style="fill:#889da5; stroke:none;" d="M170 3025L171 3026L170 3025z"/>
<path style="fill:#1785bc; stroke:none;" d="M440 3025L440 3030L441 3030L442 3025L440 3025M1115.33 3025.67L1115.67 3026.33L1115.33 3025.67z"/>
<path style="fill:#889da5; stroke:none;" d="M169 3026L170 3027L169 3026z"/>
<path style="fill:#5ba3c6; stroke:none;" d="M1115 3027L1115 3032L1116 3032L1115 3027z"/>
<path style="fill:#889da5; stroke:none;" d="M168 3028L169 3029L168 3028M167 3030L168 3031L167 3030M166 3032L167 3033L166 3032M1115 3032L1115 3054L1116 3054L1115 3032z"/>
<path style="fill:#5ba3c6; stroke:none;" d="M166 3033L167 3034L166 3033z"/>
<path style="fill:#889da5; stroke:none;" d="M165.333 3035.67L165.667 3036.33L165.333 3035.67M164 3040L164 3045L165 3045L164 3040z"/>
<path style="fill:#1785bc; stroke:none;" d="M937.667 3040.33L938.333 3040.67L937.667 3040.33M940 3040L941 3041L940 3040M932.667 3041.33L933.333 3041.67L932.667 3041.33M925 3042L925 3043L929 3043L925 3042M919 3043L919 3044L924 3044L919 3043M289 3044L289 3045L290 3047L292 3044L289 3044M912 3044L912 3045L917 3045L912 3044M293 3045L293 3046L318 3052L325 3050L331 3051C320.597 3046.59 304.281 3045.23 293 3045M904 3045L904 3046L909 3046L904 3045z"/>
<path style="fill:#5ba3c6; stroke:none;" d="M850 3046L850 3048L852 3048L850 3046z"/>
<path style="fill:#1785bc; stroke:none;" d="M898 3046L898 3047L902 3047L898 3046z"/>
<path style="fill:#5ba3c6; stroke:none;" d="M847 3047L848 3048L847 3047z"/>
<path style="fill:#1785bc; stroke:none;" d="M891 3047L891 3048L895 3048L891 3047z"/>
<path style="fill:#5ba3c6; stroke:none;" d="M840 3048L838 3050L838 3051L842 3048L840 3048z"/>
<path style="fill:#1785bc; stroke:none;" d="M884 3048L884 3049L887 3049L884 3048z"/>
<path style="fill:#5ba3c6; stroke:none;" d="M165 3049L166 3050L165 3049z"/>
<path style="fill:#1785bc; stroke:none;" d="M290 3049L290 3054L294 3050L290 3049M876 3049L876 3050L880 3050L876 3049z"/>
<path style="fill:#889da5; stroke:none;" d="M165 3050L166 3051L165 3050z"/>
<path style="fill:#5ba3c6; stroke:none;" d="M312 3050L313 3051L312 3050z"/>
<path style="fill:#2e4f5a; stroke:none;" d="M323.667 3050.33L324.333 3050.67L323.667 3050.33z"/>
<path style="fill:#1785bc; stroke:none;" d="M868 3050L868 3051L872 3051L868 3050z"/>
<path style="fill:#5ba3c6; stroke:none;" d="M938 3050L938 3054L939 3054L938 3050z"/>
<path style="fill:#1785bc; stroke:none;" d="M940.333 3050.67L940.667 3051.33L940.333 3050.67z"/>
<path style="fill:#5ba3c6; stroke:none;" d="M314 3052L314 3053L320 3054L320 3055C315.107 3055.39 306.816 3054.66 304 3059L299 3056L296 3058L296 3054L295 3054L294 3056L294 3054C288.098 3059.64 289 3074.33 289 3082L289 3155L290 3155C290 3134.34 289.895 3112.29 294 3092L295 3092L298 3103C301.302 3101.67 301.803 3100.43 301 3097L303 3097L302 3094L306 3096L306 3097L304 3100C316.744 3095.8 330.651 3096 344 3096C345.938 3102.63 361.971 3103.92 368 3104L368 3109C375.04 3110.34 382.934 3112.06 384 3120C393.167 3120.1 400.562 3125.14 399 3135L401 3134L401 3135C399.949 3139.39 401.666 3142.57 406 3144L402 3136L408 3144L409 3144L410 3141L412 3141L424 3164L420 3162C420.285 3160.27 418.923 3153.04 416.603 3157.49C414.038 3162.41 420.666 3168.17 425 3166C431.098 3171.36 432.351 3175.79 433 3184C437.85 3186.92 439.358 3192.64 440 3198L437 3194L436 3194L444.093 3217.29L450 3252L444 3252C444.171 3256.8 436.606 3256.72 433 3257L433 3258L501 3257L502 3250L499 3251L490.251 3208L488 3192C483.218 3182.86 481 3174.28 481 3164L480 3164L480 3167L479 3167L478 3159L474 3154L466 3132L463 3134L462 3128L466 3128C458.75 3118.64 451.675 3099.96 440 3096C436.576 3074.3 404.762 3079.24 389 3076L389 3075L399 3074L399 3073L386 3071L386 3070L389 3070L389 3069C386.717 3068.28 384.442 3067.32 384 3070L369 3065L369 3064L373 3064L373 3063L347 3057L350 3056L350 3055L340 3054L340 3055L342 3055L342 3056L333 3056L333 3055L337 3054L337 3053L321 3056L320 3052L325 3052L314 3052z"/>
<path style="fill:#2e4f5a; stroke:none;" d="M325 3052L325 3053L335 3053L325 3052z"/>
<path style="fill:#1785bc; stroke:none;" d="M332 3051L332 3052L335 3054L350 3055L350 3056L347 3057L373 3063L373 3064L369 3064L369 3065L384 3070L384 3066L400 3065L400 3064L396 3062L383 3064C381.073 3059.22 374.662 3059.12 370 3058L370 3057L382 3057L382 3056L352 3053L352 3054L356 3056L332 3051M846 3051L847 3052L846 3051M855 3051L852 3052L852 3053L855 3051M862.667 3051.33L863.333 3051.67L862.667 3051.33M166 3052L167 3053L166 3052z"/>
<path style="fill:#2e4f5a; stroke:none;" d="M320.667 3052.33L321.333 3052.67L320.667 3052.33z"/>
<path style="fill:#889da5; stroke:none;" d="M320 3053L320 3054L328 3054L320 3053M328 3052L328 3053L331 3053L328 3052z"/>
<path style="fill:#5ba3c6; stroke:none;" d="M331 3052L332 3053L331 3052M940 3052L941 3053L940 3052z"/>
<path style="fill:#889da5; stroke:none;" d="M166 3053L166 3072L167 3072L166 3053z"/>
<path style="fill:#5ba3c6; stroke:none;" d="M308 3053L308 3054L312 3054L308 3053z"/>
<path style="fill:#1785bc; stroke:none;" d="M304 3059L320 3055C316.053 3052.03 296.898 3053.76 304 3059M842 3053L842 3054L848 3054L842 3053z"/>
<path style="fill:#889da5; stroke:none;" d="M940 3053L940 3057L941 3057L940 3053z"/>
<path style="fill:#1785bc; stroke:none;" d="M321 3054L321 3056L323 3054L321 3054z"/>
<path style="fill:#2e4f5a; stroke:none;" d="M323.667 3054.33L324.333 3054.67L323.667 3054.33z"/>
<path style="fill:#1785bc; stroke:none;" d="M325 3054L325 3056L327 3054L325 3054M328 3054L329 3055L328 3054z"/>
<path style="fill:#2e4f5a; stroke:none;" d="M335 3055L335 3056L340 3055L335 3055z"/>
<path style="fill:#5ba3c6; stroke:none;" d="M832.667 3054.33L833.333 3054.67L832.667 3054.33z"/>
<path style="fill:#889da5; stroke:none;" d="M938 3054L935 3056L935 3057L938 3060L939 3060L938 3054z"/>
<path style="fill:#1785bc; stroke:none;" d="M327 3055L328 3056L327 3055M329 3055L330 3056L329 3055M333.667 3055.33L334.333 3055.67L333.667 3055.33z"/>
<path style="fill:#889da5; stroke:none;" d="M339 3055L339 3056L342 3056L339 3055z"/>
<path style="fill:#2e4f5a; stroke:none;" d="M344 3055L345 3056L344 3055M352 3055L352 3056L356 3056L352 3055z"/>
<path style="fill:#5ba3c6; stroke:none;" d="M357 3055L357 3056L360 3056L357 3055z"/>
<path style="fill:#1785bc; stroke:none;" d="M290 3056L289 3067L291 3067L290 3056z"/>
<path style="fill:#5ba3c6; stroke:none;" d="M354 3056L355 3057L354 3056z"/>
<path style="fill:#1785bc; stroke:none;" d="M469 3056L469 3057L472 3057L469 3056z"/>
<path style="fill:#5ba3c6; stroke:none;" d="M941 3056L940 3061L928 3059C927.364 3062.82 922.957 3066.17 924 3062L876 3070L876 3071L879 3071L879 3072C876.23 3073.9 875.84 3076.81 873.66 3079.25C867.684 3085.94 862.837 3086.31 861 3096L856 3094L858 3096C850.448 3107.09 842.24 3117.37 836.186 3129.29C833.639 3134.3 834.668 3140.29 832.452 3145.42C823.93 3165.16 818.009 3184.59 814.704 3206C813.354 3214.74 810.025 3223.16 810 3232L808 3230L807 3230C806.996 3235.05 802.946 3244.46 807 3248L806 3255L808 3258L865 3258L865 3257L862 3255L859 3257L854 3252L851 3254L851 3248L843 3248L848 3213L847 3213L846 3216L845 3216L847 3208L848 3208L848 3211L849 3211C849.048 3198.3 855.996 3188.9 860.544 3177.71C862.045 3174.02 861.247 3169.71 862.985 3166.17C867.653 3156.65 876.397 3146.62 878 3136L877 3136L872 3142L872 3138C878.619 3135.82 882.868 3126.23 885 3120L886 3120L880 3136L887 3124C892.215 3124.08 898.559 3116.88 900 3112L904 3112C905.414 3107.33 918.258 3100.6 914 3096L914 3095L930 3093L935 3089L934 3084L933 3084L930 3088L936 3079L939 3084L942 3099L943 3099C943 3088.16 947.369 3064.95 941 3056z"/>
<path style="fill:#1785bc; stroke:none;" d="M292.333 3057.67L292.667 3058.33L292.333 3057.67M382 3057L382 3058L403 3059L382 3057z"/>
<path style="fill:#5ba3c6; stroke:none;" d="M925 3057L926 3058L925 3057z"/>
<path style="fill:#889da5; stroke:none;" d="M929 3058L929 3059L933 3059L929 3058z"/>
<path style="fill:#1785bc; stroke:none;" d="M294.333 3058.67L294.667 3059.33L294.333 3058.67M300 3058L301 3059L300 3058M376.667 3058.33L377.333 3058.67L376.667 3058.33z"/>
<path style="fill:#889da5; stroke:none;" d="M940 3058L941 3059L940 3058z"/>
<path style="fill:#1785bc; stroke:none;" d="M403 3059L403 3060L424 3062C420.278 3057.74 408.44 3059 403 3059z"/>
<path style="fill:#889da5; stroke:none;" d="M936 3059L937 3060L936 3059z"/>
<path style="fill:#1785bc; stroke:none;" d="M942 3059L943 3060L942 3059M292.333 3060.67L292.667 3061.33L292.333 3060.67M398.667 3060.33L399.333 3060.67L398.667 3060.33z"/>
<path style="fill:#889da5; stroke:none;" d="M920 3062L924 3061L923 3064L927 3064L927 3060L920 3062z"/>
<path style="fill:#1785bc; stroke:none;" d="M939 3060L940 3061L939 3060M407 3061L408 3062L407 3061M431 3061L431 3062L439 3062L431 3061z"/>
<path style="fill:#2e4f5a; stroke:none;" d="M925 3061L926 3062L925 3061z"/>
<path style="fill:#5ba3c6; stroke:none;" d="M376.667 3062.33L377.333 3062.67L376.667 3062.33z"/>
<path style="fill:#1785bc; stroke:none;" d="M397 3062L397 3063L400 3063L397 3062M444 3062L444 3063L452 3063L444 3062z"/>
<path style="fill:#5ba3c6; stroke:none;" d="M925 3062L926 3063L925 3062M383 3063L384 3064L383 3063z"/>
<path style="fill:#1785bc; stroke:none;" d="M460 3063L460 3064L469 3064L460 3063z"/>
<path style="fill:#889da5; stroke:none;" d="M298 3065L304 3066L298 3065M308 3066L308 3067C324.767 3071.71 342.303 3072.95 360 3073L360 3072L353 3072L351 3069L352 3066C338.078 3065.4 321.387 3061.12 308 3066z"/>
<path style="fill:#2e4f5a; stroke:none;" d="M381 3064L383 3066L383 3064L381 3064z"/>
<path style="fill:#1785bc; stroke:none;" d="M407 3064L408 3065L407 3064M476 3064L476 3065L486 3065L476 3064M910 3064L910 3065L915 3065L910 3064z"/>
<path style="fill:#889da5; stroke:none;" d="M296 3065L297 3066L296 3065z"/>
<path style="fill:#5ba3c6; stroke:none;" d="M323 3065L323 3066L328 3067L323 3065z"/>
<path style="fill:#1785bc; stroke:none;" d="M903 3065L904 3066L903 3065M896 3066L896 3067L899 3067L896 3066M888 3067L888 3068L893 3068L888 3067M880 3068L881 3069L880 3068M882 3068L882 3069L887 3069L882 3068M386 3070L386 3071L402 3072L402 3073L400 3073L400 3074L411 3074C405.048 3069.16 393.343 3068.26 386 3070z"/>
<path style="fill:#5ba3c6; stroke:none;" d="M390 3069L390 3070L393 3070L390 3069z"/>
<path style="fill:#1785bc; stroke:none;" d="M844 3074L844 3075L848 3075L848 3076L840 3076L840 3075L842 3075L842 3074L836 3074L836 3075L838 3076L824 3078L823 3081L831 3081L832 3086L827 3084L828 3088L825 3091L824 3091L821 3088L812 3108L808 3107L806 3116L810 3114L805 3123L797.831 3139L793 3160L795 3160L789 3165C789.972 3177.93 784.389 3186.32 780.584 3198C779.305 3201.92 780.836 3206.06 779.897 3210C778.094 3217.54 773.351 3224.5 771.533 3232C770.279 3237.18 771.956 3242.74 772 3248L765 3248L753 3257C769.502 3261.46 790.92 3258 808 3258L806 3255L807 3248L807 3230L808 3230L810 3232C810.072 3223.93 813.105 3215.96 814.537 3208C818.484 3186.06 823.916 3166.44 832.596 3146C834.737 3140.96 833.889 3135.07 836.2 3130.17C838.855 3124.54 843.604 3115.22 847.417 3110.46C851.064 3105.9 858.708 3100.33 856 3094L861 3096C863.323 3086.7 872.424 3078.79 879 3072L879 3071L876 3071L876 3070L880 3070C872.214 3066.74 851.664 3070.77 844 3074M384.333 3070.67L384.667 3071.33L384.333 3070.67M880 3074L883 3071L880 3074z"/>
<path style="fill:#5ba3c6; stroke:none;" d="M166 3072L166 3104L167 3104L166 3072z"/>
<path style="fill:#889da5; stroke:none;" d="M363 3072L363 3073L368 3073L363 3072z"/>
<path style="fill:#2e4f5a; stroke:none;" d="M392 3074L393 3075L392 3074z"/>
<path style="fill:#1785bc; stroke:none;" d="M389 3075L389 3076L424 3080C414.281 3075.33 399.623 3073.85 389 3075z"/>
<path style="fill:#2e4f5a; stroke:none;" d="M394 3074L395 3075L394 3074z"/>
<path style="fill:#5ba3c6; stroke:none;" d="M396.667 3075.33L397.333 3075.67L396.667 3075.33z"/>
<path style="fill:#1785bc; stroke:none;" d="M1114 3077L1114 3080L1115 3080L1114 3077z"/>
<path style="fill:#889da5; stroke:none;" d="M934 3079L930 3088L933 3084L934 3084L935 3089L932 3088L930 3093L928 3091L927 3091L914 3095L914 3096L904 3112L900 3112C897.704 3116.7 892.149 3122.8 887 3124L880 3136L886 3120L885 3120C881.995 3126.3 878.305 3134.55 872 3138L872 3142L877 3136L878 3136C875.511 3146.33 867.731 3155.86 862.985 3165.29C860.923 3169.38 861.891 3174.34 859.711 3178.57C854.752 3188.19 847.656 3199.74 849 3211L848 3211L848 3208L847 3208L845 3216L846 3216L847 3213L848 3213L843 3248L851 3248L851 3254L854 3252L859 3257L862 3255C865.917 3260.13 877.182 3258 883 3258L943 3258L942.961 3103L939 3084L936 3079L934 3079z"/>
<path style="fill:#1785bc; stroke:none;" d="M428 3080L428 3081C433.177 3084.28 438.338 3090.05 440 3096L466 3128L462 3128L463 3134L466 3132C467.826 3137.32 473.116 3157.87 478 3159L479 3167L480 3167L480 3164L481 3164C481 3173.94 482.119 3183.64 488 3192L489.649 3207L499 3251L502 3250L498 3257L498 3258L558 3257L550 3200L547 3200L547 3208L546 3208L543.87 3171.09L540 3152L537 3152L537 3162L536 3162L535 3144L532 3144L529 3114L528 3114L528 3118L527 3118C526.853 3113.04 525.635 3108.24 520 3108L518 3105L518 3104C520.928 3101.43 518.916 3098.76 517 3096L520 3096L520 3095L512 3087L519 3087L493 3084.83L428 3080z"/>
<path style="fill:#5ba3c6; stroke:none;" d="M1114 3080L1114 3084L1115 3084L1114 3080z"/>
<path style="fill:#889da5; stroke:none;" d="M337 3083L337 3084L343 3084L337 3083M294 3084L294 3087L295 3087L294 3084M1114 3084L1114 3107L1115 3107L1114 3084z"/>
<path style="fill:#1785bc; stroke:none;" d="M520.667 3086.33L521.333 3086.67L520.667 3086.33M822 3086L822 3088L824 3088L822 3086z"/>
<path style="fill:#889da5; stroke:none;" d="M295 3088L296 3089L295 3088z"/>
<path style="fill:#2e4f5a; stroke:none;" d="M832 3088L833 3089L832 3088z"/>
<path style="fill:#889da5; stroke:none;" d="M914 3090L912 3094L912 3095L920 3094L920 3090L921 3092L921 3093L928 3088L914 3090z"/>
<path style="fill:#5ba3c6; stroke:none;" d="M937.333 3090.67L937.667 3091.33L937.333 3090.67M916 3091L917 3092L916 3091z"/>
<path style="fill:#889da5; stroke:none;" d="M294 3092C288.985 3110.2 290.782 3131.24 289.961 3150C288.388 3185.91 289 3222 289 3258L408 3258C416.879 3258 426.151 3258.79 434.91 3257.19C438.705 3256.5 443.446 3256.48 444 3252L450 3252L444.466 3217.29L436 3194L437 3194L440 3198C439.748 3192.72 438.512 3186 433 3184C432.659 3176.05 431.93 3170.36 425 3166C411.492 3168.68 420.682 3149.19 420 3162L424 3164L412 3141L410 3141L409 3144L408 3144C407.432 3140.01 405.919 3137.29 402 3136L406 3144C401.757 3141.71 400.425 3138.73 401 3134L399 3135C401.632 3124.58 393.17 3120.03 384 3120C383.449 3111.81 375.324 3109.79 368 3109L368 3104C361.097 3103.65 347.852 3102.32 344 3096C331.124 3096 315.897 3094.5 304 3100L306 3097L306 3096L302 3094L303 3097L301 3097L298 3103L294 3092z"/>
<path style="fill:#5ba3c6; stroke:none;" d="M294 3096L295 3097L294 3096z"/>
<path style="fill:#889da5; stroke:none;" d="M347 3096L347 3097L352 3099C351.346 3095.95 349.993 3096.06 347 3096M912 3096L912 3099L914 3096L912 3096M364 3100L364 3101L368 3103L364 3100z"/>
<path style="fill:#1785bc; stroke:none;" d="M166 3104L166 3120L167 3120L166 3104z"/>
<path style="fill:#5ba3c6; stroke:none;" d="M298 3104L299 3105L298 3104z"/>
<path style="fill:#889da5; stroke:none;" d="M900 3110L907 3105C902.731 3103.4 900.652 3105.91 900 3110z"/>
<path style="fill:#5ba3c6; stroke:none;" d="M298 3107L298 3109L300 3109L300 3107L298 3107M368 3111L369 3112L368 3111z"/>
<path style="fill:#1785bc; stroke:none;" d="M532 3116L531 3120C534.021 3119.35 534.086 3118.09 532 3116z"/>
<path style="fill:#889da5; stroke:none;" d="M398 3120L399 3121L398 3120M888 3123L891 3120L888 3123z"/>
<path style="fill:#2e4f5a; stroke:none;" d="M527 3121L527 3128L528 3128L527 3121z"/>
<path style="fill:#1785bc; stroke:none;" d="M532 3125L532 3128L534 3128L534 3125L532 3125M1113.33 3131.67L1113.67 3132.33L1113.33 3131.67z"/>
<path style="fill:#5ba3c6; stroke:none;" d="M1113 3133L1113 3139L1114 3139L1113 3133z"/>
<path style="fill:#1785bc; stroke:none;" d="M535 3136L535 3144L536 3144L535 3136z"/>
<path style="fill:#889da5; stroke:none;" d="M1113 3139L1113 3159L1114 3159L1113 3139z"/>
<path style="fill:#1785bc; stroke:none;" d="M943.333 3142.67L943.667 3143.33L943.333 3142.67z"/>
<path style="fill:#889da5; stroke:none;" d="M866 3152L862 3160L866 3160L868 3152L866 3152z"/>
<path style="fill:#1785bc; stroke:none;" d="M943 3152L943 3230L944 3230L944 3176L943 3152z"/>
<path style="fill:#889da5; stroke:none;" d="M1113 3160L1114 3161L1113 3160z"/>
<path style="fill:#1785bc; stroke:none;" d="M479 3168L479 3172L480 3172L479 3168z"/>
<path style="fill:#5ba3c6; stroke:none;" d="M864 3168L864 3171L865 3171L866 3168L864 3168z"/>
<path style="fill:#1785bc; stroke:none;" d="M548 3184L548 3192L550 3192L550 3184L548 3184M1112 3184L1113 3185L1112 3184z"/>
<path style="fill:#5ba3c6; stroke:none;" d="M1112 3185L1112 3188L1113 3188L1112 3185z"/>
<path style="fill:#889da5; stroke:none;" d="M1112 3188L1112 3213L1113 3213L1112 3188M440 3198L438 3200L447 3220L448 3220C447.536 3212.61 445.059 3203.67 440 3198z"/>
<path style="fill:#2e4f5a; stroke:none;" d="M783 3200L783 3208L784 3208L783 3200z"/>
<path style="fill:#889da5; stroke:none;" d="M165 3206L165 3293L166 3293L166 3233L165 3206z"/>
<path style="fill:#5ba3c6; stroke:none;" d="M440.333 3216.67L440.667 3217.33L440.333 3216.67z"/>
<path style="fill:#2e4f5a; stroke:none;" d="M547 3216L547 3224L548 3224L547 3216z"/>
<path style="fill:#889da5; stroke:none;" d="M447 3221L447 3226L448 3226L447 3221z"/>
<path style="fill:#5ba3c6; stroke:none;" d="M847 3221L845 3232L846 3232L847 3221M943.333 3230.67L943.667 3231.33L943.333 3230.67z"/>
<path style="fill:#2e4f5a; stroke:none;" d="M774 3232L774 3240L776 3240L776 3232L774 3232z"/>
<path style="fill:#889da5; stroke:none;" d="M842 3232L842 3245L843 3245L842 3232z"/>
<path style="fill:#1785bc; stroke:none;" d="M943 3232L943 3237L944 3237L943 3232M1111 3236L1111 3240L1112 3240L1111 3236z"/>
<path style="fill:#5ba3c6; stroke:none;" d="M943 3237L943 3249L944 3249L943 3237z"/>
<path style="fill:#2e4f5a; stroke:none;" d="M552 3240L553 3256L556 3256L552 3240z"/>
<path style="fill:#5ba3c6; stroke:none;" d="M1111 3240L1111 3249L1112 3249L1111 3240z"/>
<path style="fill:#1785bc; stroke:none;" d="M943 3249L943 3252L944 3252L943 3249z"/>
<path style="fill:#889da5; stroke:none;" d="M1111 3249L1111 3264L1112 3264L1111 3249M844 3251L844 3252L848 3251L844 3251z"/>
<path style="fill:#2e4f5a; stroke:none;" d="M551 3252L551 3256L552 3256L551 3252z"/>
<path style="fill:#5ba3c6; stroke:none;" d="M943 3252L943 3255L944 3255L943 3252z"/>
<path style="fill:#1785bc; stroke:none;" d="M561 3254L560 3256L562 3256L561 3254M943 3255L944 3256L943 3255z"/>
<path style="fill:#5ba3c6; stroke:none;" d="M943.333 3256.67L943.667 3257.33L943.333 3256.67z"/>
<path style="fill:#1785bc; stroke:none;" d="M559 3257L560 3258L559 3257z"/>
<path style="fill:#5ba3c6; stroke:none;" d="M866 3257L867 3258L866 3257M289 3258L289 3331L291 3432L292 3432L292 3408L293 3408L293 3432L295 3432L296 3423L305 3435L303 3431L306 3427L312 3439C315.511 3439 319.146 3439.99 320 3436L329 3444L329 3440L333 3445L334 3445C336.267 3438.85 339.517 3441.64 344 3444C346.268 3440.51 349.732 3440.51 352 3444C356.103 3441.52 359.253 3436.74 360 3432L361 3432C364.775 3441.28 373.891 3437.54 375 3429L376 3429L376 3432L377 3432L378 3426L379 3426L380 3432C384.823 3430.3 383.997 3425.42 384 3421L395 3424L394 3414C398.373 3411.85 399.838 3409.88 400 3405L401 3405L402 3408L404 3408C408.454 3400.22 409.975 3392.95 410 3384L412 3384L412 3392L414 3392L415 3368L420 3368L421 3336L424 3336C423.978 3328.04 423.721 3311.24 416 3307L418 3304L418 3303L418 3302L411 3288L413 3288L406 3281L408 3276L405 3276L400 3263L395 3263L392 3266C393.39 3263.68 395.128 3263.63 392 3263L392 3262L400 3262L400 3259L414 3259C403.972 3254.79 386.896 3258 376 3258L289 3258z"/>
<path style="fill:#1785bc; stroke:none;" d="M400 3259L400 3262L392 3262L392 3263L394 3264L392 3266L395 3263L400 3263L405 3276L408 3276L406 3281L413 3288L411 3288L418 3302L418 3303L418 3304L416 3307C423.126 3312.92 423.927 3327.22 424 3336L421 3336L420 3368L415 3368L414 3392L412 3392L412 3384L410 3384L404 3408L402 3408L401 3405L400 3405C399.644 3409.63 397.7 3411.39 394 3414L395 3424L392 3421L384 3421C383.987 3425.57 384.269 3429.51 380 3432L379 3426L378 3426L377 3432L376 3432L376 3429L375 3429C373.243 3436.99 365.811 3439.84 361 3432L360 3432L352 3444C351.091 3439.76 344.909 3439.76 344 3444C339.838 3440.9 335.471 3438.26 334 3445L333 3445L329 3440L329 3444L320 3436L312 3439L306 3427L303 3431L305 3435L296 3423L295 3432L293 3432L293 3408L292 3408L292 3432L291 3432L290 3405L289 3405L289 3451L293 3450L292 3452L293 3452L327 3458C328.997 3461.78 340.081 3462.63 344 3462C347.014 3465.45 355.598 3465.48 360 3465L379 3470L427 3476L427 3474L459 3478C458.759 3471.26 469.163 3475.01 471.5 3471.83C473.013 3469.77 471.429 3466.34 472.5 3464C475.063 3458.41 479.32 3454.46 480 3448L488 3442L488 3448L490 3448L490 3440L493 3440L493 3432L496 3432L498 3392L500 3392L499 3408L502 3408L504.981 3354.99L503 3328L506 3328L501 3272L498 3272L498 3264L503 3261L494 3261L494 3260L499 3260L475 3258.38L400 3259z"/>
<path style="fill:#2e4f5a; stroke:none;" d="M474 3258L474 3259L477 3259L474 3258z"/>
<path style="fill:#1785bc; stroke:none;" d="M825 3259C824.506 3262.69 815.495 3262.82 812 3263L812 3264L815 3264L815 3272L808 3272L804 3344L800 3344L800 3360L804 3360L803 3376L806 3376L806 3392L808 3390L812 3391L812 3392L808 3392L808 3393C811.867 3396.11 813.078 3399.1 813 3404L812 3404L808 3400L808 3404L806 3402L805 3402L805 3408L810 3408L814 3440L816 3440L816 3432L818 3432C818.041 3446.75 824.86 3454.87 829 3468L830 3468L830 3460L831 3460L835 3464L835 3465L831 3464L831 3468L836 3468L836 3469L832 3469L832 3470L848 3466L848 3467L846 3467L846 3468C853.065 3469.04 875.357 3470.65 880 3464C891.713 3465.98 916.097 3460.74 925 3453L924 3456L928 3454L926 3452L934 3452L934 3451L932 3450L936 3447L922 3452L922 3451L931 3449L931 3448L921 3449L921 3448L923 3446L912 3428L912 3434L911 3434L898 3414C902.012 3410.49 899.473 3404.89 896 3402L896 3408L893 3408L893 3400L890 3400L890 3384L886 3384L886 3360L882 3360C882 3333.4 880.204 3309.48 890.577 3284.01C893.916 3275.82 894.695 3266.62 904 3263L904 3262L899 3259L825 3259z"/>
<path style="fill:#2e4f5a; stroke:none;" d="M841 3258L842 3259L841 3258z"/>
<path style="fill:#5ba3c6; stroke:none;" d="M891 3258L891 3259L899 3259L904 3262L904 3263C894.37 3265.55 893.311 3275.96 890.063 3284C879.781 3309.47 882 3333.52 882 3360L886 3360L886 3384L890 3384L890 3400L893 3400L893 3408L896 3408L896 3402C899.228 3405.82 901.319 3409.61 898 3414L911 3434L912 3434L912 3428C916.313 3433.9 915.775 3443.04 923 3446L921 3448L921 3449L931 3448L931 3449L922 3451L922 3452L936 3447L932 3450L934 3451L934 3452C931.599 3451.35 925.165 3449.92 928 3454L925 3455L925 3456L943 3451C938.897 3387.28 943 3321.88 943 3258L891 3258z"/>
<path style="fill:#1785bc; stroke:none;" d="M500.667 3259.33L501.333 3259.67L500.667 3259.33M289 3260L289 3263L290 3263L289 3260z"/>
<path style="fill:#2e4f5a; stroke:none;" d="M486 3260L487 3261L486 3260M827 3260L828 3261L827 3260z"/>
<path style="fill:#1785bc; stroke:none;" d="M504 3261L505 3262L504 3261M809 3261L810 3262L809 3261M811.667 3261.33L812.333 3261.67L811.667 3261.33M390 3262L391 3263L390 3262z"/>
<path style="fill:#2e4f5a; stroke:none;" d="M498 3262L499 3263L498 3262M824 3263L824 3264L828 3264L824 3263z"/>
<path style="fill:#1785bc; stroke:none;" d="M505 3263L506 3264L505 3263M397 3264L398 3265L397 3264z"/>
<path style="fill:#2e4f5a; stroke:none;" d="M816 3264L817 3265L816 3264M818 3264L818 3268L819 3268L820 3264L818 3264z"/>
<path style="fill:#1785bc; stroke:none;" d="M400 3272L400 3275L402 3272L400 3272M404.333 3278.67L404.667 3279.33L404.333 3278.67M1110 3290L1110 3293L1111 3293L1110 3290z"/>
<path style="fill:#5ba3c6; stroke:none;" d="M165 3293L165 3312L166 3312L165 3293M1110 3293L1110 3298L1111 3298L1110 3293z"/>
<path style="fill:#1785bc; stroke:none;" d="M888 3296L889 3297L888 3296z"/>
<path style="fill:#889da5; stroke:none;" d="M1110 3298L1110 3316L1111 3316L1110 3298z"/>
<path style="fill:#1785bc; stroke:none;" d="M165 3312L165 3321L166 3321L165 3312M1109 3341L1109 3347L1110 3347L1109 3341z"/>
<path style="fill:#5ba3c6; stroke:none;" d="M1109 3347L1109 3357L1110 3357L1109 3347z"/>
<path style="fill:#1785bc; stroke:none;" d="M416 3352L416 3360L418 3360L418 3352L416 3352z"/>
<path style="fill:#889da5; stroke:none;" d="M1109 3357L1109 3371L1110 3371L1109 3357z"/>
<path style="fill:#2e4f5a; stroke:none;" d="M808 3368L808 3389L812 3386L808 3368z"/>
<path style="fill:#889da5; stroke:none;" d="M1108 3379L1109 3380L1108 3379z"/>
<path style="fill:#5ba3c6; stroke:none;" d="M1106 3380L1107 3381L1106 3380z"/>
<path style="fill:#1785bc; stroke:none;" d="M1104 3381L1105 3382L1104 3381z"/>
<path style="fill:#889da5; stroke:none;" d="M1103 3382L1104 3383L1103 3382M1101 3383L1102 3384L1101 3383z"/>
<path style="fill:#5ba3c6; stroke:none;" d="M1099 3384L1100 3385L1099 3384z"/>
<path style="fill:#889da5; stroke:none;" d="M1098 3385L1099 3386L1098 3385M1096 3386L1097 3387L1096 3386M1094 3387L1095 3388L1094 3387z"/>
<path style="fill:#5ba3c6; stroke:none;" d="M1092 3388L1093 3389L1092 3388z"/>
<path style="fill:#889da5; stroke:none;" d="M1091 3389L1092 3390L1091 3389M1089 3390L1090 3391L1089 3390z"/>
<path style="fill:#5ba3c6; stroke:none;" d="M1087 3391L1088 3392L1087 3391M885 3392L885 3393L888 3393L885 3392M1085 3392L1086 3393L1085 3392z"/>
<path style="fill:#1785bc; stroke:none;" d="M1083 3393L1084 3394L1083 3393z"/>
<path style="fill:#889da5; stroke:none;" d="M1082 3394L1083 3395L1082 3394M1080 3395L1081 3396L1080 3395z"/>
<path style="fill:#5ba3c6; stroke:none;" d="M886 3396L888 3399L888 3396L886 3396z"/>
<path style="fill:#889da5; stroke:none;" d="M1078 3396L1079 3397L1078 3396M1076 3397L1077 3398L1076 3397z"/>
<path style="fill:#5ba3c6; stroke:none;" d="M1074 3398L1075 3399L1074 3398z"/>
<path style="fill:#889da5; stroke:none;" d="M1072 3399L1073 3400L1072 3399z"/>
<path style="fill:#5ba3c6; stroke:none;" d="M1070 3400L1071 3401L1070 3400z"/>
<path style="fill:#1785bc; stroke:none;" d="M1068 3401L1069 3402L1068 3401z"/>
<path style="fill:#5ba3c6; stroke:none;" d="M1066 3402L1067 3403L1066 3402z"/>
<path style="fill:#1785bc; stroke:none;" d="M1064 3403L1065 3404L1064 3403z"/>
<path style="fill:#5ba3c6; stroke:none;" d="M1062 3404L1063 3405L1062 3404z"/>
<path style="fill:#889da5; stroke:none;" d="M164.333 3405.67L164.667 3406.33L164.333 3405.67z"/>
<path style="fill:#5ba3c6; stroke:none;" d="M1060 3405L1061 3406L1060 3405z"/>
<path style="fill:#889da5; stroke:none;" d="M1061 3405L1062 3406L1061 3405z"/>
<path style="fill:#1785bc; stroke:none;" d="M1058 3406L1059 3407L1058 3406z"/>
<path style="fill:#889da5; stroke:none;" d="M1059 3406L1060 3407L1059 3406z"/>
<path style="fill:#5ba3c6; stroke:none;" d="M165 3407L166 3408L165 3407M1056 3407L1057 3408L1056 3407z"/>
<path style="fill:#889da5; stroke:none;" d="M167 3408L168 3409L167 3408z"/>
<path style="fill:#5ba3c6; stroke:none;" d="M1054 3408L1055 3409L1054 3408z"/>
<path style="fill:#889da5; stroke:none;" d="M169 3409L170 3410L169 3409z"/>
<path style="fill:#1785bc; stroke:none;" d="M170 3409L171 3410L170 3409z"/>
<path style="fill:#5ba3c6; stroke:none;" d="M1052 3409L1053 3410L1052 3409z"/>
<path style="fill:#889da5; stroke:none;" d="M172 3410L173 3411L172 3410M1050 3410L1051 3411L1050 3410M174 3411L175 3412L174 3411M1048 3411L1049 3412L1048 3411M176 3412L177 3413L176 3412M1046 3412L1047 3413L1046 3412M178 3413L179 3414L178 3413z"/>
<path style="fill:#5ba3c6; stroke:none;" d="M179 3413L180 3414L179 3413z"/>
<path style="fill:#889da5; stroke:none;" d="M1044 3413L1045 3414L1044 3413M181 3414L182 3415L181 3414M1042 3414L1043 3415L1042 3414M183 3415L184 3416L183 3415z"/>
<path style="fill:#1785bc; stroke:none;" d="M184 3415L185 3416L184 3415M1039 3415L1040 3416L1039 3415z"/>
<path style="fill:#889da5; stroke:none;" d="M186 3416L187 3417L186 3416z"/>
<path style="fill:#2e4f5a; stroke:none;" d="M814 3416L814 3424L815 3424L814 3416z"/>
<path style="fill:#5ba3c6; stroke:none;" d="M1037 3416L1038 3417L1037 3416z"/>
<path style="fill:#889da5; stroke:none;" d="M188 3417L189 3418L188 3417z"/>
<path style="fill:#1785bc; stroke:none;" d="M189 3417L190 3418L189 3417z"/>
<path style="fill:#889da5; stroke:none;" d="M1035 3417L1036 3418L1035 3417M190 3418L191 3419L190 3418z"/>
<path style="fill:#5ba3c6; stroke:none;" d="M191 3418L192 3419L191 3418z"/>
<path style="fill:#889da5; stroke:none;" d="M1033 3418L1034 3419L1033 3418M193 3419L194 3420L193 3419z"/>
<path style="fill:#1785bc; stroke:none;" d="M1030 3419L1031 3420L1030 3419z"/>
<path style="fill:#889da5; stroke:none;" d="M1031 3419L1032 3420L1031 3419M195.667 3420.33L196.333 3420.67L195.667 3420.33z"/>
<path style="fill:#5ba3c6; stroke:none;" d="M1028 3420L1029 3421L1028 3420z"/>
<path style="fill:#889da5; stroke:none;" d="M1029 3420L1030 3421L1029 3420M198 3421L199 3422L198 3421z"/>
<path style="fill:#1785bc; stroke:none;" d="M199 3421L200 3422L199 3421M906 3421L909 3424L906 3421z"/>
<path style="fill:#5ba3c6; stroke:none;" d="M1026 3421L1027 3422L1026 3421z"/>
<path style="fill:#889da5; stroke:none;" d="M201 3422L202 3423L201 3422M1024 3422L1025 3423L1024 3422M203 3423L204 3424L203 3423z"/>
<path style="fill:#5ba3c6; stroke:none;" d="M1021 3423L1022 3424L1021 3423z"/>
<path style="fill:#889da5; stroke:none;" d="M1022 3423L1023 3424L1022 3423M206 3424L207 3425L206 3424z"/>
<path style="fill:#5ba3c6; stroke:none;" d="M903.333 3424.67L903.667 3425.33L903.333 3424.67z"/>
<path style="fill:#889da5; stroke:none;" d="M1019 3424L1020 3425L1019 3424M208 3425L209 3426L208 3425z"/>
<path style="fill:#5ba3c6; stroke:none;" d="M209 3425L210 3426L209 3425z"/>
<path style="fill:#1785bc; stroke:none;" d="M1016 3425L1017 3426L1016 3425z"/>
<path style="fill:#889da5; stroke:none;" d="M1017 3425L1018 3426L1017 3425M211 3426L212 3427L211 3426M1014 3426L1015 3427L1014 3426M214 3427L215 3428L214 3427z"/>
<path style="fill:#1785bc; stroke:none;" d="M1011 3427L1012 3428L1011 3427z"/>
<path style="fill:#889da5; stroke:none;" d="M1012 3427L1013 3428L1012 3427M216 3428L217 3429L216 3428z"/>
<path style="fill:#5ba3c6; stroke:none;" d="M217 3428L218 3429L217 3428M296 3428L296 3432L298 3432L298 3428L296 3428z"/>
<path style="fill:#889da5; stroke:none;" d="M1009 3428L1010 3429L1009 3428M219 3429L220 3430L219 3429z"/>
<path style="fill:#1785bc; stroke:none;" d="M1006 3429L1007 3430L1006 3429z"/>
<path style="fill:#889da5; stroke:none;" d="M1007 3429L1008 3430L1007 3429M222 3430L223 3431L222 3430M1004 3430L1005 3431L1004 3430z"/>
<path style="fill:#5ba3c6; stroke:none;" d="M225 3431L226 3432L225 3431M1001 3431L1002 3432L1001 3431z"/>
<path style="fill:#889da5; stroke:none;" d="M1002 3431L1003 3432L1002 3431M227.667 3432.33L228.333 3432.67L227.667 3432.33M999 3432L1000 3433L999 3432M230 3433L231 3434L230 3433z"/>
<path style="fill:#5ba3c6; stroke:none;" d="M231 3433L232 3434L231 3433M996 3433L997 3434L996 3433z"/>
<path style="fill:#889da5; stroke:none;" d="M233 3434L234 3435L233 3434z"/>
<path style="fill:#5ba3c6; stroke:none;" d="M234 3434L235 3435L234 3434z"/>
<path style="fill:#889da5; stroke:none;" d="M994 3434L995 3435L994 3434M236 3435L237 3436L236 3435z"/>
<path style="fill:#5ba3c6; stroke:none;" d="M237 3435L238 3436L237 3435M991 3435L992 3436L991 3435z"/>
<path style="fill:#889da5; stroke:none;" d="M239 3436L240 3437L239 3436z"/>
<path style="fill:#5ba3c6; stroke:none;" d="M988 3436L989 3437L988 3436z"/>
<path style="fill:#889da5; stroke:none;" d="M242 3437L243 3438L242 3437z"/>
<path style="fill:#5ba3c6; stroke:none;" d="M243 3437L244 3438L243 3437z"/>
<path style="fill:#1785bc; stroke:none;" d="M344 3437L346 3440L344 3437z"/>
<path style="fill:#5ba3c6; stroke:none;" d="M985 3437L986 3438L985 3437z"/>
<path style="fill:#889da5; stroke:none;" d="M986 3437L987 3438L986 3437M245 3438L246 3439L245 3438z"/>
<path style="fill:#1785bc; stroke:none;" d="M246 3438L247 3439L246 3438z"/>
<path style="fill:#5ba3c6; stroke:none;" d="M982 3438L983 3439L982 3438z"/>
<path style="fill:#889da5; stroke:none;" d="M983 3438L984 3439L983 3438M248 3439L249 3440L248 3439z"/>
<path style="fill:#5ba3c6; stroke:none;" d="M249 3439L250 3440L249 3439z"/>
<path style="fill:#1785bc; stroke:none;" d="M920.667 3439.33L921.333 3439.67L920.667 3439.33z"/>
<path style="fill:#889da5; stroke:none;" d="M980 3439L981 3440L980 3439M251.667 3440.33L252.333 3440.67L251.667 3440.33z"/>
<path style="fill:#5ba3c6; stroke:none;" d="M364 3440L365 3441L364 3440z"/>
<path style="fill:#889da5; stroke:none;" d="M977 3440L978 3441L977 3440M254.667 3441.33L255.333 3441.67L254.667 3441.33M974 3441L975 3442L974 3441M257.667 3442.33L258.333 3442.67L257.667 3442.33M971 3442L972 3443L971 3442M260.667 3443.33L261.333 3443.67L260.667 3443.33M968 3443L969 3444L968 3443M264 3444L265 3445L264 3444z"/>
<path style="fill:#5ba3c6; stroke:none;" d="M265 3444L266 3445L265 3444z"/>
<path style="fill:#1785bc; stroke:none;" d="M964 3444L965 3445L964 3444z"/>
<path style="fill:#889da5; stroke:none;" d="M965 3444L966 3445L965 3444M267.667 3445.33L268.333 3445.67L267.667 3445.33z"/>
<path style="fill:#1785bc; stroke:none;" d="M927 3445L928 3446L927 3445M939 3445L940 3450L941 3450L939 3445M961 3445L962 3446L961 3445z"/>
<path style="fill:#889da5; stroke:none;" d="M962 3445L963 3446L962 3445M270.667 3446.33L271.333 3446.67L270.667 3446.33z"/>
<path style="fill:#5ba3c6; stroke:none;" d="M958 3446L959 3447L958 3446z"/>
<path style="fill:#889da5; stroke:none;" d="M959 3446L960 3447L959 3446M274.667 3447.33L275.333 3447.67L274.667 3447.33z"/>
<path style="fill:#1785bc; stroke:none;" d="M937 3447L939 3451L937 3447z"/>
<path style="fill:#889da5; stroke:none;" d="M955.667 3447.33L956.333 3447.67L955.667 3447.33M278 3448L279 3449L278 3448z"/>
<path style="fill:#5ba3c6; stroke:none;" d="M279 3448L280 3449L279 3448M307 3448L308 3449L307 3448z"/>
<path style="fill:#889da5; stroke:none;" d="M952 3448L953 3449L952 3448M281.667 3449.33L282.333 3449.67L281.667 3449.33z"/>
<path style="fill:#5ba3c6; stroke:none;" d="M294 3449L295 3450L294 3449M920 3449L921 3450L920 3449z"/>
<path style="fill:#1785bc; stroke:none;" d="M942 3449L943 3450L942 3449z"/>
<path style="fill:#5ba3c6; stroke:none;" d="M948 3449L949 3450L948 3449z"/>
<path style="fill:#889da5; stroke:none;" d="M949 3449L950 3450L949 3449M285 3450L286 3451L285 3450z"/>
<path style="fill:#5ba3c6; stroke:none;" d="M291 3450L291 3452L293 3450L291 3450M308 3450L309 3451L308 3450z"/>
<path style="fill:#1785bc; stroke:none;" d="M935 3450L936 3451L935 3450z"/>
<path style="fill:#889da5; stroke:none;" d="M945.667 3450.33L946.333 3450.67L945.667 3450.33M288 3451L288 3452L291 3452L288 3451z"/>
<path style="fill:#5ba3c6; stroke:none;" d="M294.667 3451.33L295.333 3451.67L294.667 3451.33z"/>
<path style="fill:#889da5; stroke:none;" d="M941.667 3451.33L942.333 3451.67L941.667 3451.33M293.667 3452.33L294.333 3452.67L293.667 3452.33z"/>
<path style="fill:#2e4f5a; stroke:none;" d="M295 3452L295 3453L299 3453L295 3452z"/>
<path style="fill:#5ba3c6; stroke:none;" d="M300 3452L300 3453L304 3454L304 3453L300 3452M311 3452L312 3453L311 3452M920.333 3452.67L920.667 3453.33L920.333 3452.67z"/>
<path style="fill:#1785bc; stroke:none;" d="M929.667 3452.33L930.333 3452.67L929.667 3452.33z"/>
<path style="fill:#889da5; stroke:none;" d="M937.667 3452.33L938.333 3452.67L937.667 3452.33M296 3453L296 3454L303 3455L296 3453z"/>
<path style="fill:#2e4f5a; stroke:none;" d="M300.667 3453.33L301.333 3453.67L300.667 3453.33z"/>
<path style="fill:#5ba3c6; stroke:none;" d="M924 3453L921 3457L924 3453z"/>
<path style="fill:#889da5; stroke:none;" d="M933 3453L933 3454L936 3454L933 3453z"/>
<path style="fill:#2e4f5a; stroke:none;" d="M303 3454L304 3455L303 3454z"/>
<path style="fill:#889da5; stroke:none;" d="M930.667 3454.33L931.333 3454.67L930.667 3454.33M304 3455L304 3456L307 3456L304 3455z"/>
<path style="fill:#5ba3c6; stroke:none;" d="M307 3455L308 3456L307 3455z"/>
<path style="fill:#889da5; stroke:none;" d="M927 3455L928 3456L927 3455M308 3456L308 3457L315 3458L308 3456z"/>
<path style="fill:#5ba3c6; stroke:none;" d="M312 3456L313 3457L312 3456z"/>
<path style="fill:#1785bc; stroke:none;" d="M480 3459L483 3456L480 3459M820 3456L821 3459L822 3459L822 3456L820 3456z"/>
<path style="fill:#5ba3c6; stroke:none;" d="M919 3456L920 3457L919 3456z"/>
<path style="fill:#889da5; stroke:none;" d="M922.667 3456.33L923.333 3456.67L922.667 3456.33z"/>
<path style="fill:#5ba3c6; stroke:none;" d="M315 3457L316 3458L315 3457M319 3457L322 3459L322 3458L319 3457M335 3457L336 3458L335 3457M342.667 3457.33L343.333 3457.67L342.667 3457.33z"/>
<path style="fill:#889da5; stroke:none;" d="M918.667 3457.33L919.333 3457.67L918.667 3457.33M317.667 3458.33L318.333 3458.67L317.667 3458.33z"/>
<path style="fill:#5ba3c6; stroke:none;" d="M325.667 3458.33L326.333 3458.67L325.667 3458.33M913 3458L914 3459L913 3458z"/>
<path style="fill:#889da5; stroke:none;" d="M914.667 3458.33L915.333 3458.67L914.667 3458.33M321 3459L321 3460L329 3461L321 3459z"/>
<path style="fill:#2e4f5a; stroke:none;" d="M325.667 3459.33L326.333 3459.67L325.667 3459.33z"/>
<path style="fill:#5ba3c6; stroke:none;" d="M328 3459L329 3460L328 3459M334 3459L335 3460L334 3459M343 3459L344 3460L343 3459M903 3460L903 3461L907 3460L903 3460M909 3459L910 3460L909 3459z"/>
<path style="fill:#889da5; stroke:none;" d="M910.667 3459.33L911.333 3459.67L910.667 3459.33z"/>
<path style="fill:#5ba3c6; stroke:none;" d="M329 3460L330 3461L329 3460M332 3460L332 3461L338 3462L338 3461L332 3460z"/>
<path style="fill:#2e4f5a; stroke:none;" d="M833 3460C834.556 3461.81 835.444 3461.81 837 3460L833 3460z"/>
<path style="fill:#889da5; stroke:none;" d="M906.667 3460.33L907.333 3460.67L906.667 3460.33M330 3461L330 3462L333 3462L330 3461z"/>
<path style="fill:#5ba3c6; stroke:none;" d="M341 3461L342 3462L341 3461M900 3461L901 3462L900 3461z"/>
<path style="fill:#889da5; stroke:none;" d="M901.667 3461.33L902.333 3461.67L901.667 3461.33M334 3462L334 3463L339 3463L334 3462z"/>
<path style="fill:#2e4f5a; stroke:none;" d="M339.667 3462.33L340.333 3462.67L339.667 3462.33z"/>
<path style="fill:#5ba3c6; stroke:none;" d="M342 3462L344 3464L344 3462L342 3462z"/>
<path style="fill:#889da5; stroke:none;" d="M896 3462L896 3463L899 3463L896 3462M340 3463L340 3464L343 3464L340 3463z"/>
<path style="fill:#2e4f5a; stroke:none;" d="M889 3463L890 3464L889 3463z"/>
<path style="fill:#889da5; stroke:none;" d="M891 3463L891 3464L894 3464L891 3463M344 3464L344 3465L349 3465L344 3464z"/>
<path style="fill:#5ba3c6; stroke:none;" d="M349 3464L349 3465L352 3465L349 3464z"/>
<path style="fill:#2e4f5a; stroke:none;" d="M856 3464L857 3465L856 3464M880 3464L881 3465L880 3464M883.667 3464.33L884.333 3464.67L883.667 3464.33z"/>
<path style="fill:#5ba3c6; stroke:none;" d="M885 3464L886 3465L885 3464z"/>
<path style="fill:#889da5; stroke:none;" d="M886.667 3464.33L887.333 3464.67L886.667 3464.33M350 3465L350 3466L354 3466L350 3465z"/>
<path style="fill:#5ba3c6; stroke:none;" d="M354 3465L355 3466L354 3465z"/>
<path style="fill:#2e4f5a; stroke:none;" d="M355.667 3465.33L356.333 3465.67L355.667 3465.33z"/>
<path style="fill:#5ba3c6; stroke:none;" d="M358.667 3465.33L359.333 3465.67L358.667 3465.33z"/>
<path style="fill:#2e4f5a; stroke:none;" d="M876 3465L877 3466L876 3465z"/>
<path style="fill:#889da5; stroke:none;" d="M880 3465L880 3466L883 3466L880 3465M355 3466L355 3467L359 3467L355 3466z"/>
<path style="fill:#2e4f5a; stroke:none;" d="M359 3466L360 3467L359 3466M832.667 3466.33L833.333 3466.67L832.667 3466.33M872 3466L873 3467L872 3466z"/>
<path style="fill:#5ba3c6; stroke:none;" d="M874 3466L875 3467L874 3466z"/>
<path style="fill:#889da5; stroke:none;" d="M875.667 3466.33L876.333 3466.67L875.667 3466.33M361 3467L361 3468L364 3468L361 3467z"/>
<path style="fill:#5ba3c6; stroke:none;" d="M364 3467L365 3468L364 3467z"/>
<path style="fill:#1785bc; stroke:none;" d="M840.667 3467.33L841.333 3467.67L840.667 3467.33z"/>
<path style="fill:#2e4f5a; stroke:none;" d="M857 3467L858 3468L857 3467M864.667 3467.33L865.333 3467.67L864.667 3467.33z"/>
<path style="fill:#5ba3c6; stroke:none;" d="M868 3467L869 3468L868 3467z"/>
<path style="fill:#889da5; stroke:none;" d="M869 3467L869 3468L872 3468L869 3467M366 3468L366 3469L370 3469L366 3468z"/>
<path style="fill:#5ba3c6; stroke:none;" d="M370 3468L371 3469L370 3468z"/>
<path style="fill:#1785bc; stroke:none;" d="M845 3468L846 3469L845 3468z"/>
<path style="fill:#2e4f5a; stroke:none;" d="M858.667 3468.33L859.333 3468.67L858.667 3468.33z"/>
<path style="fill:#5ba3c6; stroke:none;" d="M861 3468L862 3469L861 3468z"/>
<path style="fill:#889da5; stroke:none;" d="M862.667 3468.33L863.333 3468.67L862.667 3468.33M373 3469L373 3470L376 3470L373 3469z"/>
<path style="fill:#1785bc; stroke:none;" d="M840 3469L841 3470L840 3469z"/>
<path style="fill:#5ba3c6; stroke:none;" d="M853 3469L854 3470L853 3469z"/>
<path style="fill:#889da5; stroke:none;" d="M854 3469L854 3470L857 3470L854 3469M379 3470L379 3471L383 3471L379 3470z"/>
<path style="fill:#1785bc; stroke:none;" d="M843 3470L844 3471L843 3470z"/>
<path style="fill:#5ba3c6; stroke:none;" d="M844.667 3470.33L845.333 3470.67L844.667 3470.33z"/>
<path style="fill:#889da5; stroke:none;" d="M846 3470L846 3471L849 3471L846 3470M385 3471L385 3472L389 3472L385 3471z"/>
<path style="fill:#5ba3c6; stroke:none;" d="M389 3471L390 3472L389 3471z"/>
<path style="fill:#1785bc; stroke:none;" d="M834 3471L835 3472L834 3471z"/>
<path style="fill:#5ba3c6; stroke:none;" d="M835 3471L836 3472L835 3471z"/>
<path style="fill:#889da5; stroke:none;" d="M836 3471L836 3472L840 3472L836 3471M393 3472L393 3473L398 3473L393 3472z"/>
<path style="fill:#2e4f5a; stroke:none;" d="M398.667 3472.33L399.333 3472.67L398.667 3472.33M441 3472L442 3473L441 3472z"/>
<path style="fill:#889da5; stroke:none;" d="M824 3472L824 3473L830 3473L824 3472M400 3473L400 3474L405 3474L400 3473z"/>
<path style="fill:#5ba3c6; stroke:none;" d="M405 3473L406 3474L405 3473z"/>
<path style="fill:#2e4f5a; stroke:none;" d="M406.667 3473.33L407.333 3473.67L406.667 3473.33M424 3473L425 3474L424 3473M456.333 3473.67L456.667 3474.33L456.333 3473.67z"/>
<path style="fill:#1785bc; stroke:none;" d="M472.667 3473.33L473.333 3473.67L472.667 3473.33M810 3473L811 3474L810 3473z"/>
<path style="fill:#5ba3c6; stroke:none;" d="M811.667 3473.33L812.333 3473.67L811.667 3473.33z"/>
<path style="fill:#889da5; stroke:none;" d="M813 3473L813 3474L817 3474L813 3473M408 3474L408 3475L414 3475L408 3474z"/>
<path style="fill:#5ba3c6; stroke:none;" d="M414 3474L415 3475L414 3474z"/>
<path style="fill:#2e4f5a; stroke:none;" d="M415 3474L416 3475L415 3474M422.667 3474.33L423.333 3474.67L422.667 3474.33M427 3474L432 3476L432 3475L427 3474M448 3474L448 3475L452 3475L448 3474z"/>
<path style="fill:#1785bc; stroke:none;" d="M478 3474L478 3475L480 3475L480 3476L469 3476L469 3477L486 3475L478 3474M487 3477L492 3476L487 3477M792.667 3474.33L793.333 3474.67L792.667 3474.33z"/>
<path style="fill:#5ba3c6; stroke:none;" d="M794.667 3474.33L795.333 3474.67L794.667 3474.33z"/>
<path style="fill:#889da5; stroke:none;" d="M796 3474L796 3475L802 3475L796 3474M418 3475L418 3476L424 3476L418 3475z"/>
<path style="fill:#5ba3c6; stroke:none;" d="M424.667 3475.33L425.333 3475.67L424.667 3475.33z"/>
<path style="fill:#2e4f5a; stroke:none;" d="M454 3475L455 3476L454 3475z"/>
<path style="fill:#1785bc; stroke:none;" d="M463 3477L466 3476L463 3477M496 3475L496 3476L499 3476L496 3475M770.667 3475.33L771.333 3475.67L770.667 3475.33z"/>
<path style="fill:#5ba3c6; stroke:none;" d="M772 3475L772 3476L775 3476L772 3475z"/>
<path style="fill:#889da5; stroke:none;" d="M775 3475L775 3476L782 3476L775 3475M430 3476L430 3477L437 3477L430 3476z"/>
<path style="fill:#5ba3c6; stroke:none;" d="M437.667 3476.33L438.333 3476.67L437.667 3476.33z"/>
<path style="fill:#2e4f5a; stroke:none;" d="M440 3476L440 3477L453 3477L440 3476z"/>
<path style="fill:#1785bc; stroke:none;" d="M735 3476L736 3477L735 3476z"/>
<path style="fill:#5ba3c6; stroke:none;" d="M736 3476L736 3477L744 3477L736 3476z"/>
<path style="fill:#889da5; stroke:none;" d="M744 3476L744 3477L757 3477L744 3476M446 3477L446 3478L453 3478L446 3477z"/>
<path style="fill:#5ba3c6; stroke:none;" d="M453 3477L453 3478L456 3478L453 3477z"/>
<path style="fill:#1785bc; stroke:none;" d="M680 3477L680 3478L688 3478L680 3477z"/>
<path style="fill:#5ba3c6; stroke:none;" d="M688 3477L688 3478L696 3478L688 3477z"/>
<path style="fill:#889da5; stroke:none;" d="M696 3477L696 3478L715 3478L696 3477M469 3478L469 3479L488 3479L469 3478z"/>
<path style="fill:#5ba3c6; stroke:none;" d="M488 3478L488 3479L494 3479L488 3478z"/>
<path style="fill:#1785bc; stroke:none;" d="M494.667 3478.33L495.333 3478.67L494.667 3478.33M589 3478L589 3479L596 3479L589 3478z"/>
<path style="fill:#5ba3c6; stroke:none;" d="M596 3478L596 3479L608 3479L596 3478z"/>
<path style="fill:#889da5; stroke:none;" d="M608 3478L608 3479L641 3479L608 3478z"/>
</svg>
