<?xml version="1.0" standalone="yes"?>
<svg xmlns="http://www.w3.org/2000/svg" width="1280" height="3718">
<path style="fill:#f8f9f9; stroke:none;" d="M0 0L0 3718L1280 3718L1280 0L0 0z"/>
<path style="fill:#89a9b5; stroke:none;" d="M351 150L352 151L351 150z"/>
<path style="fill:#274854; stroke:none;" d="M423 456L421 464L427 470C422.033 479.546 425 495.397 425 506C425 534.706 426 563.35 426 592L428 592L428 568L430 568C430 585.797 432.875 605.487 430.576 623C429.889 628.228 432.147 638.341 426 640C430.477 644.785 449.629 639.536 456 639.089C485.207 637.043 514.697 638 544 638C619.753 638 697.616 632.961 773 640.17C799.644 642.717 826.753 646.168 853 651.449C868.793 654.627 885.944 661.658 902 662L903 658L898 657L899 624L902 624L900 530L900 493L902 493L903 496L905 496L908 456L922 456L922 150L500 150L391 150L363 150L352.603 151.028L351 168L351 219L351 393L351 438L352.028 454.396L370 456L423 456z"/>
<path style="fill:#89a9b5; stroke:none;" d="M922 150L922 455L923 455L923 240L923 178L922 150M351 455L351 602L351 644L350.397 661.775L337 671L321 676.756L283 700L283 701L293 698C297.362 693.101 304.22 687.053 311 687L312 683C315.081 683.283 316.144 683.03 317 680L334 675L332 674L332 673L345 669C345 666.044 347.505 666.678 350 667C350 663.42 366.98 659.741 371 659L371 658L352 663C358.223 656.451 372.479 654.223 381 651.514C385.093 650.213 390.692 649.489 392 645L384 645L392 642L392 640L388 640L388 639L392 639L392 552L384 552L384 544L392 544L392 520L389 520L390 456L351 455z"/>
<path style="fill:#5ba3c7; stroke:none;" d="M390 456L389 520L392 520L392 544L384 544L384 552L392 552L393.996 569L392 639L388 639L388 640L392 640L392 642L384 645L392 645C384.712 657.042 359.904 651.417 352 663L371 658L371 659C366.506 659.549 350.61 662.586 350 667L345 669L332 673L332 674L334 675L317 680L312 683L311 687C304.489 686.156 296.227 692.527 293 698C281.353 697.479 285 714.15 285 722L285 804L285 1155L285 2654L286 2654L286 2652L287 2652L287 2656L339.961 2657.95L364.039 2653.09L383 2651.57L400 2646L408 2636L416 2636L416 2632L424 2632L424 2624L432 2624L432 2620L440 2620L440 2616L435 2616C438.855 2611.96 442.661 2612 448 2612L448 2608L451 2608L451 2600L456 2600L456 2592C460.268 2590.81 463.247 2588.47 464 2584L467 2584L472 2568L475 2568L480 2544L483 2544L483 2536L486 2536L490 2504L493 2504L499.896 2421L499.005 2295L502.996 2218L502.001 1520L503.999 1377L504 816L498.054 786.985L500 712L497 712L497 696L500 696L500 688L497 688C497.096 676.365 498.385 664.622 498.896 653C499.104 648.256 496.359 643.011 501 640L501 639C485.39 637.341 468.574 637.373 453 639.424C445.744 640.38 432.524 643.868 426 640L429 641C435.433 619.236 430 590.636 430 568L428 568L428 592L426 592C426 564.341 425 536.711 425 509C425 496.713 422.568 481.566 427 470L421 464L423 456L390 456M908 456L905 496L903 496L902 493L900 493L900 530L902 624L899 624L898 657L903 658L902 662L819 647L819 648L838 654L827 651L827 652L832 652C831.477 654.54 831.405 654.686 834 655L834 656L827 657L828 1104L831 1104L831 1088L832 1088L831 1136L830 1136L830 1128L829 1128L828 1216L832 1216L832 1240L827 1240L828 1256L831 1256L832 1336L829 1336L828.005 1538L831 1568L828 1568L828 1616L831 1616L829 1784L832 1784L830.108 2076L831.995 2337L828.054 2356.04L828.079 2420L831 2440L832 2440L832 2432L833 2432C833.043 2444.49 835.675 2457.31 835.985 2470C836.32 2483.66 832.709 2491.96 840 2504C836.424 2507.12 839.048 2511.14 839.741 2515.09C841.45 2524.82 839.533 2534.87 848 2542L848 2538L850 2538L853 2568L856 2568C856.039 2571.5 858.707 2582.79 864 2579L867 2592L870 2592L870 2600L881 2604L881 2608L881 2609L906 2631L906 2632L903 2632L903 2633L912 2637L912 2632L913 2632L913 2640C920.703 2640.23 929.602 2645.06 936.039 2649.15C939.308 2651.23 942.409 2653.82 945 2650L946 2650L946 2660L947 2660L948 1296L948 869L948 736L948 695L947 680L922 672C921.892 668.79 922.496 665.781 919 665L919 664L922 664L922 456L908 456M384 464L384 467L390 467L390 464L384 464z"/>
<path style="fill:#89a9b5; stroke:none;" d="M399 472L399 496L400 496L399 472z"/>
<path style="fill:#274854; stroke:none;" d="M423 480L423 488L424 488L423 480z"/>
<path style="fill:#89a9b5; stroke:none;" d="M922 496L922 652L923 652L923 543C923 529.747 927.107 508.169 922 496z"/>
<path style="fill:#274854; stroke:none;" d="M906 504L906 512L907 512L906 504M423 544L423 568L424 568L423 544M426 608L426 624L428 624L428 608L426 608z"/>
<path style="fill:#1785bd; stroke:none;" d="M464 638L464 639L472 639L464 638M495 638L496 639L495 638M497 638L497 639L501 639L501 640L498 640L497 688L500 688L500 696L497 696L497 712L500 712L498.054 787.961L503.981 814.004L504 1021L502 1520L502.999 2216L499.005 2294L498.961 2443L493 2504L490 2504L486 2536L483 2536L483 2544L480 2544L475 2568L472 2568L467 2584L464 2584L456 2592L456 2600L451 2600L451 2608L448 2608L448 2612C442.864 2612 438.067 2611.28 435 2616L440 2616L440 2620L432 2620L432 2624L424 2624L424 2632L416 2632L416 2636L408 2636L400 2646C392.7 2646.02 388.701 2649.86 382 2651.57C376.048 2653.09 369.234 2652.06 363.09 2653.09C355.172 2654.42 346.988 2657.39 338.985 2657.95C322.473 2659.1 302.694 2651.37 287 2656L287 2652L286 2652L286 2654L285 2654L285 700L271 713C261.124 714.689 249.099 731.394 243.004 739.001C220.482 767.111 203.44 803.34 203.004 840C201.241 988.165 202 1136.69 202 1285C202 1702.63 195 2120.34 195 2538C195 2661.01 193 2784.01 193 2907C193 2941.3 193.825 2975.71 192.985 3010C192.606 3025.47 187.728 3046.77 192.318 3061.77C193.39 3065.27 197.98 3065.39 201 3066C208.991 3067.6 216.971 3069.35 225 3070.75C239.003 3073.18 252.977 3075.76 267 3078.08C271.337 3078.8 280.149 3078.55 283.397 3081.74C287.121 3085.4 284.554 3095.11 286 3100L287 3100L287 3096L288 3096L288 3099C298.855 3094.87 308.322 3094 320 3094L320 3091L343 3093C346.145 3092.15 351.369 3090.69 352 3095C355.534 3095 360.988 3092.05 360 3096L368 3098L363 3098L363 3097L365 3097L365 3096L360 3097L369 3100C369.227 3096.61 370.907 3096.52 374 3097L370 3099L370 3100L384 3101C385.016 3106.85 397.567 3109.78 403 3110L400 3112L400 3113L408 3113L408 3114L403 3114L403 3115L442 3119L442 3120L440 3123L446 3134C450.793 3135.21 451.349 3139.67 456 3136C456.267 3147.08 465.111 3154.89 470.57 3163.34C472.347 3166.09 471.777 3169.52 473.225 3172.42C477.463 3180.92 481.917 3186.03 482 3196L486 3194L498 3255L502 3252L502 3256L499 3256C499.014 3261.04 498.43 3267.17 504 3269L504 3272L501 3272L504 3274L507 3294L510 3293L505 3296L505 3297L510 3297L510 3298C484.613 3298 459.332 3299 434 3299C429.923 3299 411.658 3297.05 411 3301C406.549 3299.41 402.202 3297.56 399 3302L412 3302L412 3303L400 3305L408 3307L409 3304L410 3304L407 3311L413 3312C413.001 3321.09 415.338 3329.66 422 3336L424.826 3347L432 3384L426 3384L424 3416L418 3416L420 3432L417 3432L417 3440L416 3440L416 3437L415 3437C410.23 3446.13 399.258 3449.95 400 3461L392 3461L392 3467L384 3467L384 3471L376 3471L376 3472L382 3472L377 3483C374.161 3480.54 368.964 3479.5 368 3484L364 3482L366 3478L363 3477L358 3480L358 3484L352 3484L352 3481L336 3481C333.255 3486.04 325.683 3480 320 3480L320 3476L306 3470L305 3470L304 3470L296 3472L297 3462L296 3462L290 3464L288 3452L287 3452L287 3454L286 3454L286 3440L285 3440L285 3493L304 3496C309.285 3500.56 321.227 3503.02 328 3502C333.078 3507.9 348.775 3506.52 356.09 3508.41C379.396 3514.41 404.062 3516.5 428 3518.46C438.296 3519.3 450.967 3521.97 461 3519L471 3519.72L495 3517L496 3517C504.095 3525.75 504 3502.23 504 3499L508 3501C513.61 3492.1 511.874 3482.2 512 3472L513 3472L513 3488L514 3488L514 3472L518 3472L518 3464L520 3464L520 3472L521 3472L522 3448L525 3448L527 3424L528 3424L528 3432L529 3432L530 3352L526 3352L526 3360L524 3360L524 3344L528 3344L529 3328L528 3328L528 3336L527 3336L525 3312L522 3312L520 3304L520 3303L523 3303L523 3302L512 3302L512 3301L522 3301L522 3300L513 3300L513 3299L576 3297L576 3296L572 3296L571 3272L568 3272L565 3200L560 3200L558 3180L554 3183L553 3168L552 3168L551 3170C549.78 3167.12 548.829 3150.79 544 3157L543 3157C543.773 3150.9 544.168 3131.38 536 3131L539 3127L536 3127L536 3125L534 3126L511 3122.29L464 3119.91L437 3117L437 3116L439 3116L439 3115L434 3113L434 3112L441 3110L441 3109L424 3104L424 3103L427 3103L427 3102L424 3102L424 3101L456 3102L456 3101L397 3095.83L366 3094L349.001 3090.54L304 3084.13L286.603 3080.26L285 3065L285 3024L286 3024L286 3029L287 3029L287 3025L307.09 3022.24L336 3019L336 3022L344 3024L352 3024L360 3021L360 3024L371 3025L371 3024L368 3021L376 3021C376.79 3025.59 379.631 3026.55 384 3027L384 3024L416 3032L416 3036L422 3040L417 3040L417 3042C424.669 3042.22 437.827 3045.68 440 3054L445 3053C445.796 3056.72 448.637 3056 452 3056C452.668 3064.67 464.432 3075.28 472 3079L471 3081L471 3082L472 3082L475 3080C475.352 3084.25 475.802 3087.33 480 3089L479 3093L488 3095L480 3098L480 3100L502 3101L502 3102L496 3102L496 3104C542.967 3104 589.883 3107.31 637 3106C677.027 3104.89 717.058 3101.11 757 3100C777.972 3099.42 800.288 3098.02 821 3094.61C825.754 3093.83 838.842 3095.4 840 3090L848 3092L848 3090L844 3090L844 3089L857 3091L857 3090L853 3089L856 3086L855 3088L856 3088L864 3082L868 3083L873 3074L872 3070L883 3056L888 3059L889 3059L894 3052L912 3040C913.354 3046.32 922.869 3043.12 923 3037L927 3037L927 3036L917 3035L943 3033C940.602 3029.72 941.814 3024.53 945 3029L946 3029L946 3024L947 3024L948 3076C982.487 3074.52 1019.32 3063.01 1053 3055.58C1061.36 3053.73 1069.69 3051.69 1078 3049.63C1081.06 3048.86 1085.95 3048.61 1087.89 3045.78C1092.2 3039.47 1089 3022.47 1089 3015L1089 2934C1089 2832.71 1091 2731.31 1091 2630C1091 2155.12 1092 1679.93 1092 1205C1092 1114.4 1093 1023.43 1089.04 933C1087.24 891.913 1091.37 849.89 1079.11 810C1064.08 761.048 1027.34 722.062 983 697.694C971.914 691.603 960.27 684.356 948 681L947 2660L946 2660L946 2650L945 2650C941.035 2653.23 937.005 2649.17 933.286 2646.76C927.76 2643.19 919.583 2640.07 913 2640L913 2632L912 2632L912 2637L903 2633L903 2632L906 2632L906 2631L881 2609L881 2608L881 2604L879 2606L878 2606L870 2600L870 2592L867 2592C867.039 2586.88 868.083 2582.7 864 2579C858.731 2580.98 856.115 2571.85 856 2568L853 2568L850 2538L848 2538L848 2542C840.853 2533.54 841.125 2525.5 839.871 2515.09C839.344 2510.72 837.036 2507.93 840 2504L834.329 2492.93L835.961 2468L833 2432L832 2432L832 2440L831 2440L828.001 2400L828.129 2356.04L831.999 2337L830.258 2076L832 1784L829 1784L831 1616L828 1616L828 1568L831 1568L828.005 1537L829 1336L832 1336L831 1256L828 1256L827 1240L832 1240L832 1216L828 1216L829 1128L830 1128L830 1136L831 1136L832 1088L831 1088L831 1104L828 1104L827 657L834 656L834 655L831 655L832 652L827 652L827 651L838 654C833.127 648.335 825.938 648.877 819 648L819 647L824 647L824 646L816 647L795 642.718L734 638L497 638M452 639L453 640L452 639z"/>
<path style="fill:#5ba3c7; stroke:none;" d="M376 640L379 642L376 640z"/>
<path style="fill:#274854; stroke:none;" d="M424 640L423 642L424 640z"/>
<path style="fill:#1785bd; stroke:none;" d="M439 640L440 641L439 640M441 640L441 641L444 641L441 640z"/>
<path style="fill:#89a9b5; stroke:none;" d="M416 641L417 642L416 641M400 642L400 646L407 645L407 643L400 642z"/>
<path style="fill:#274854; stroke:none;" d="M416 642L416 643L419 643L416 642z"/>
<path style="fill:#1785bd; stroke:none;" d="M425 642L426 643L425 642z"/>
<path style="fill:#89a9b5; stroke:none;" d="M421 644L421 645L424 645L421 644M416 645L416 646L419 646L416 645z"/>
<path style="fill:#5ba3c7; stroke:none;" d="M811 646L811 647L815 647L811 646M816 646L817 647L816 646M369 647L368 650L371 650L369 647z"/>
<path style="fill:#1785bd; stroke:none;" d="M827.667 647.333L828.333 647.667L827.667 647.333z"/>
<path style="fill:#5ba3c7; stroke:none;" d="M382 648L383 649L382 648z"/>
<path style="fill:#1785bd; stroke:none;" d="M832 648L832 649L836 649L832 648z"/>
<path style="fill:#5ba3c7; stroke:none;" d="M379 649L380 650L379 649z"/>
<path style="fill:#89a9b5; stroke:none;" d="M397 649L397 650L400 650L397 649z"/>
<path style="fill:#1785bd; stroke:none;" d="M840 649L841 650L840 649z"/>
<path style="fill:#89a9b5; stroke:none;" d="M392 650L389 652L389 653L392 650z"/>
<path style="fill:#1785bd; stroke:none;" d="M845 650L845 651L848 651L845 650M850 651L850 652L854 652L850 651M856.667 652.333L857.333 652.667L856.667 652.333z"/>
<path style="fill:#89a9b5; stroke:none;" d="M382.667 653.333L383.333 653.667L382.667 653.333z"/>
<path style="fill:#5ba3c7; stroke:none;" d="M827.667 653.333L828.333 653.667L827.667 653.333z"/>
<path style="fill:#1785bd; stroke:none;" d="M861 653L862 654L861 653z"/>
<path style="fill:#89a9b5; stroke:none;" d="M372 656L372 657L381 655L372 656z"/>
<path style="fill:#1785bd; stroke:none;" d="M866 654L867 655L866 654M870 655L871 656L870 655M875 656L876 657L875 656M878.667 657.333L879.333 657.667L878.667 657.333M884.667 658.333L885.333 658.667L884.667 658.333z"/>
<path style="fill:#89a9b5; stroke:none;" d="M922 658L922 663L923 663L922 658z"/>
<path style="fill:#1785bd; stroke:none;" d="M888 659L889 660L888 659z"/>
<path style="fill:#5ba3c7; stroke:none;" d="M894.667 659.333L895.333 659.667L894.667 659.333M501 664L501 672L502 672L501 664z"/>
<path style="fill:#274854; stroke:none;" d="M915 664L916 665L915 664z"/>
<path style="fill:#89a9b5; stroke:none;" d="M919 664L920 665L919 664z"/>
<path style="fill:#274854; stroke:none;" d="M920 664L921 665L920 664z"/>
<path style="fill:#89a9b5; stroke:none;" d="M921 664L922 665L921 664z"/>
<path style="fill:#274854; stroke:none;" d="M912 665L913 666L912 665M921.333 666.667L921.667 667.333L921.333 666.667z"/>
<path style="fill:#89a9b5; stroke:none;" d="M351 668L348 669L348 670L352 669L351 668M922 668L925 672L925 671L922 668z"/>
<path style="fill:#5ba3c7; stroke:none;" d="M336 670L337 671L336 670z"/>
<path style="fill:#89a9b5; stroke:none;" d="M919 670L920 671L919 670M927 672L928 673L927 672M929.667 673.333L930.333 673.667L929.667 673.333M931 674L931 675L944 679L944 678L931 674z"/>
<path style="fill:#5ba3c7; stroke:none;" d="M327 676L328 677L327 676M320 678L321 679L320 678z"/>
<path style="fill:#89a9b5; stroke:none;" d="M945 679L946 680L945 679M946 682L949 680L946 682z"/>
<path style="fill:#5ba3c7; stroke:none;" d="M950 681L951 682L950 681M314 682L315 683L314 682z"/>
<path style="fill:#89a9b5; stroke:none;" d="M334 682L335 683L334 682z"/>
<path style="fill:#5ba3c7; stroke:none;" d="M952 682L953 683L952 682z"/>
<path style="fill:#89a9b5; stroke:none;" d="M953 682L954 683L953 682M317 685L320 683L317 685M955 683L956 684L955 683M944 684L945 685L944 684M957 684L958 685L957 684z"/>
<path style="fill:#5ba3c7; stroke:none;" d="M309.667 685.333L310.333 685.667L309.667 685.333M959 685L960 686L959 685z"/>
<path style="fill:#89a9b5; stroke:none;" d="M319 686L320 687L319 686M961 686L962 687L961 686z"/>
<path style="fill:#5ba3c7; stroke:none;" d="M963 687L964 688L963 687z"/>
<path style="fill:#89a9b5; stroke:none;" d="M964 687L965 688L964 687z"/>
<path style="fill:#5ba3c7; stroke:none;" d="M965 688L966 689L965 688z"/>
<path style="fill:#89a9b5; stroke:none;" d="M966 688L967 689L966 688z"/>
<path style="fill:#5ba3c7; stroke:none;" d="M967 689L968 690L967 689M969 690L970 691L969 690z"/>
<path style="fill:#89a9b5; stroke:none;" d="M970 690L971 691L970 690M303 691L304 692L303 691z"/>
<path style="fill:#5ba3c7; stroke:none;" d="M971 691L972 692L971 691z"/>
<path style="fill:#89a9b5; stroke:none;" d="M972 691L973 692L972 691z"/>
<path style="fill:#5ba3c7; stroke:none;" d="M973 692L974 693L973 692M295 693L294 695L295 693z"/>
<path style="fill:#89a9b5; stroke:none;" d="M301 693L302 694L301 693z"/>
<path style="fill:#5ba3c7; stroke:none;" d="M975 693L976 694L975 693z"/>
<path style="fill:#89a9b5; stroke:none;" d="M977 694L978 695L977 694z"/>
<path style="fill:#5ba3c7; stroke:none;" d="M292 695L293 696L292 695z"/>
<path style="fill:#89a9b5; stroke:none;" d="M979 695L980 696L979 695z"/>
<path style="fill:#5ba3c7; stroke:none;" d="M980 696L981 697L980 696z"/>
<path style="fill:#89a9b5; stroke:none;" d="M981 696L982 697L981 696z"/>
<path style="fill:#5ba3c7; stroke:none;" d="M982 697L983 698L982 697z"/>
<path style="fill:#89a9b5; stroke:none;" d="M983 697L984 698L983 697M295 698L296 699L295 698M984 698L985 699L984 698M986 699L987 700L986 699M988 700L989 701L988 700z"/>
<path style="fill:#5ba3c7; stroke:none;" d="M282 701L283 702L282 701M989 701L990 702L989 701z"/>
<path style="fill:#89a9b5; stroke:none;" d="M288.667 702.333L289.333 702.667L288.667 702.333M991 702L992 703L991 702M279 703L280 704L279 703M292 703L293 704L292 703z"/>
<path style="fill:#5ba3c7; stroke:none;" d="M992 703L993 704L992 703z"/>
<path style="fill:#89a9b5; stroke:none;" d="M993 703L994 704L993 703M278 704L279 705L278 704z"/>
<path style="fill:#5ba3c7; stroke:none;" d="M994 704L995 705L994 704M277 705L278 706L277 705z"/>
<path style="fill:#89a9b5; stroke:none;" d="M996 705L997 706L996 705M275 706L276 707L275 706z"/>
<path style="fill:#5ba3c7; stroke:none;" d="M997 706L998 707L997 706z"/>
<path style="fill:#89a9b5; stroke:none;" d="M274 707L275 708L274 707M999 707L1000 708L999 707z"/>
<path style="fill:#5ba3c7; stroke:none;" d="M273 708L274 709L273 708M1000 708L1001 709L1000 708M272 709L270 712L272 709z"/>
<path style="fill:#89a9b5; stroke:none;" d="M1002 709L1003 710L1002 709M270 710L271 711L270 710z"/>
<path style="fill:#274854; stroke:none;" d="M272 710L273 711L272 710z"/>
<path style="fill:#5ba3c7; stroke:none;" d="M1003 710L1004 711L1003 710z"/>
<path style="fill:#89a9b5; stroke:none;" d="M269 711L270 712L269 711z"/>
<path style="fill:#5ba3c7; stroke:none;" d="M1004 711L1005 712L1004 711z"/>
<path style="fill:#89a9b5; stroke:none;" d="M1005 711L1006 712L1005 711M268 712L269 713L268 712z"/>
<path style="fill:#274854; stroke:none;" d="M270 712L271 713L270 712z"/>
<path style="fill:#89a9b5; stroke:none;" d="M1006 712L1007 713L1006 712M267 713L268 714L267 713z"/>
<path style="fill:#5ba3c7; stroke:none;" d="M1007 713L1008 714L1007 713z"/>
<path style="fill:#89a9b5; stroke:none;" d="M266 714L267 715L266 714M1009 714L1010 715L1009 714z"/>
<path style="fill:#5ba3c7; stroke:none;" d="M265 715L266 716L265 715M1010 715L1011 716L1010 715M264 716L265 717L264 716M1011 716L1012 717L1011 716z"/>
<path style="fill:#89a9b5; stroke:none;" d="M262 717L260 720L262 717z"/>
<path style="fill:#5ba3c7; stroke:none;" d="M263 717L264 718L263 717z"/>
<path style="fill:#89a9b5; stroke:none;" d="M1013 717L1014 718L1013 717z"/>
<path style="fill:#5ba3c7; stroke:none;" d="M262 718L261 720L262 718z"/>
<path style="fill:#89a9b5; stroke:none;" d="M1014 718L1015 719L1014 718z"/>
<path style="fill:#274854; stroke:none;" d="M262 719L263 720L262 719z"/>
<path style="fill:#5ba3c7; stroke:none;" d="M1015 719L1016 720L1015 719z"/>
<path style="fill:#89a9b5; stroke:none;" d="M259 720L260 721L259 720z"/>
<path style="fill:#5ba3c7; stroke:none;" d="M1016 720L1017 721L1016 720z"/>
<path style="fill:#89a9b5; stroke:none;" d="M1018 721L1019 722L1018 721M1019 722L1020 723L1019 722M256 723L253 727L256 723z"/>
<path style="fill:#5ba3c7; stroke:none;" d="M1020 723L1021 724L1020 723M256 724L257 725L256 724M1021 724L1022 725L1021 724M255 725L256 726L255 725M254 726L255 727L254 726M253 727L254 728L253 727z"/>
<path style="fill:#89a9b5; stroke:none;" d="M1025 727L1026 728L1025 727z"/>
<path style="fill:#5ba3c7; stroke:none;" d="M252 728L253 729L252 728z"/>
<path style="fill:#89a9b5; stroke:none;" d="M1026 728L1027 729L1026 728z"/>
<path style="fill:#5ba3c7; stroke:none;" d="M251 729L252 730L251 729z"/>
<path style="fill:#89a9b5; stroke:none;" d="M1027 729L1028 730L1027 729z"/>
<path style="fill:#5ba3c7; stroke:none;" d="M250 730L251 731L250 730M1028 730L1029 731L1028 730z"/>
<path style="fill:#89a9b5; stroke:none;" d="M249 731L250 732L249 731z"/>
<path style="fill:#274854; stroke:none;" d="M250 731L251 732L250 731z"/>
<path style="fill:#5ba3c7; stroke:none;" d="M1029 731L1030 732L1029 731z"/>
<path style="fill:#89a9b5; stroke:none;" d="M248 732L249 733L248 732z"/>
<path style="fill:#5ba3c7; stroke:none;" d="M1030 732L1031 733L1030 732z"/>
<path style="fill:#89a9b5; stroke:none;" d="M247 733L248 734L247 733z"/>
<path style="fill:#5ba3c7; stroke:none;" d="M1031 733L1032 734L1031 733z"/>
<path style="fill:#89a9b5; stroke:none;" d="M246 734L247 735L246 734z"/>
<path style="fill:#5ba3c7; stroke:none;" d="M1032 734L1033 735L1032 734z"/>
<path style="fill:#89a9b5; stroke:none;" d="M245 735L246 736L245 735z"/>
<path style="fill:#5ba3c7; stroke:none;" d="M1033 735L1034 736L1033 735M1034 736L1035 737L1034 736M244 737L245 738L244 737M1035 737L1036 738L1035 737z"/>
<path style="fill:#89a9b5; stroke:none;" d="M243 738L244 739L243 738z"/>
<path style="fill:#5ba3c7; stroke:none;" d="M1036 738L1037 739L1036 738z"/>
<path style="fill:#89a9b5; stroke:none;" d="M242 739L243 740L242 739z"/>
<path style="fill:#5ba3c7; stroke:none;" d="M1037 739L1038 740L1037 739z"/>
<path style="fill:#89a9b5; stroke:none;" d="M241 740L242 741L241 740M1038 740L1039 741L1038 740M240 741L241 742L240 741M1039 741L1040 742L1039 741z"/>
<path style="fill:#5ba3c7; stroke:none;" d="M240 742L241 743L240 742z"/>
<path style="fill:#89a9b5; stroke:none;" d="M1040 742L1041 743L1040 742M239 743L240 744L239 743M1041 743L1042 744L1041 743M238 744L239 745L238 744M1042 744L1043 745L1042 744M237 745L238 746L237 745z"/>
<path style="fill:#5ba3c7; stroke:none;" d="M237 746L238 747L237 746z"/>
<path style="fill:#89a9b5; stroke:none;" d="M236 747L237 748L236 747z"/>
<path style="fill:#5ba3c7; stroke:none;" d="M1044 747L1045 748L1044 747z"/>
<path style="fill:#89a9b5; stroke:none;" d="M235 748L236 749L235 748z"/>
<path style="fill:#5ba3c7; stroke:none;" d="M1045 748L1046 749L1045 748z"/>
<path style="fill:#89a9b5; stroke:none;" d="M1046 749L1047 750L1046 749z"/>
<path style="fill:#5ba3c7; stroke:none;" d="M234 750L235 751L234 750z"/>
<path style="fill:#89a9b5; stroke:none;" d="M1047 750L1048 751L1047 750M233 751L234 752L233 751M232 752L233 753L232 752z"/>
<path style="fill:#5ba3c7; stroke:none;" d="M823 752L823 904L824 904L823 797L823.015 766L823 752M232 753L233 754L232 753M1049 753L1050 754L1049 753z"/>
<path style="fill:#89a9b5; stroke:none;" d="M231 754L232 755L231 754M1050 754L1051 755L1050 754M230 755L231 756L230 755M1051 755L1052 756L1051 755z"/>
<path style="fill:#5ba3c7; stroke:none;" d="M230 756L231 757L230 756z"/>
<path style="fill:#89a9b5; stroke:none;" d="M229 757L230 758L229 757z"/>
<path style="fill:#5ba3c7; stroke:none;" d="M1052 757L1053 758L1052 757z"/>
<path style="fill:#89a9b5; stroke:none;" d="M1053 758L1054 759L1053 758z"/>
<path style="fill:#5ba3c7; stroke:none;" d="M228 759L229 760L228 759z"/>
<path style="fill:#89a9b5; stroke:none;" d="M227 760L228 761L227 760z"/>
<path style="fill:#5ba3c7; stroke:none;" d="M1054 760L1055 761L1054 760M1055 761L1056 762L1055 761z"/>
<path style="fill:#89a9b5; stroke:none;" d="M226 762L227 763L226 762M1056 762L1057 763L1056 762z"/>
<path style="fill:#5ba3c7; stroke:none;" d="M225 764L226 765L225 764M1057 764L1058 765L1057 764z"/>
<path style="fill:#89a9b5; stroke:none;" d="M224 765L225 766L224 765M1058 765L1059 766L1058 765z"/>
<path style="fill:#5ba3c7; stroke:none;" d="M224 766L225 767L224 766M1058 766L1059 767L1058 766z"/>
<path style="fill:#89a9b5; stroke:none;" d="M223 767L224 768L223 767z"/>
<path style="fill:#5ba3c7; stroke:none;" d="M1059 767L1060 768L1059 767z"/>
<path style="fill:#89a9b5; stroke:none;" d="M222 769L223 770L222 769z"/>
<path style="fill:#5ba3c7; stroke:none;" d="M1060 769L1061 770L1060 769z"/>
<path style="fill:#89a9b5; stroke:none;" d="M1061 770L1062 771L1061 770M221 771L222 772L221 771z"/>
<path style="fill:#5ba3c7; stroke:none;" d="M1062 772L1063 773L1062 772z"/>
<path style="fill:#89a9b5; stroke:none;" d="M220 773L221 774L220 773z"/>
<path style="fill:#5ba3c7; stroke:none;" d="M1063 774L1064 775L1063 774z"/>
<path style="fill:#89a9b5; stroke:none;" d="M219 775L220 776L219 775M218 777L219 778L218 777M1065 777L1066 778L1065 777z"/>
<path style="fill:#5ba3c7; stroke:none;" d="M218 778L219 779L218 778z"/>
<path style="fill:#89a9b5; stroke:none;" d="M217 779L218 780L217 779M1066 779L1067 780L1066 779z"/>
<path style="fill:#5ba3c7; stroke:none;" d="M217 780L218 781L217 780z"/>
<path style="fill:#89a9b5; stroke:none;" d="M216 781L217 782L216 781M1067 781L1068 782L1067 781z"/>
<path style="fill:#5ba3c7; stroke:none;" d="M216 782L217 783L216 782z"/>
<path style="fill:#89a9b5; stroke:none;" d="M1068 783L1069 784L1068 783M215 784L216 785L215 784z"/>
<path style="fill:#5ba3c7; stroke:none;" d="M1069 785L1070 786L1069 785z"/>
<path style="fill:#89a9b5; stroke:none;" d="M214 786L215 787L214 786z"/>
<path style="fill:#5ba3c7; stroke:none;" d="M214 787L215 788L214 787z"/>
<path style="fill:#89a9b5; stroke:none;" d="M1070 787L1071 788L1070 787M213 789L214 790L213 789M1071 789L1072 790L1071 789M212 791L213 792L212 791z"/>
<path style="fill:#5ba3c7; stroke:none;" d="M212 792L213 793L212 792M1072 792L1073 793L1072 792z"/>
<path style="fill:#89a9b5; stroke:none;" d="M1073 793L1074 794L1073 793M211 794L212 795L211 794z"/>
<path style="fill:#5ba3c7; stroke:none;" d="M1073 794L1074 795L1073 794M211 795L212 796L211 795z"/>
<path style="fill:#89a9b5; stroke:none;" d="M1074 796L1075 797L1074 796M210 797L211 798L210 797z"/>
<path style="fill:#5ba3c7; stroke:none;" d="M1074 797L1075 798L1074 797M210 798L211 799L210 798z"/>
<path style="fill:#89a9b5; stroke:none;" d="M1075 798L1076 799L1075 798z"/>
<path style="fill:#5ba3c7; stroke:none;" d="M1075 799L1076 800L1075 799z"/>
<path style="fill:#89a9b5; stroke:none;" d="M209 800L210 801L209 800z"/>
<path style="fill:#5ba3c7; stroke:none;" d="M209 801L210 802L209 801z"/>
<path style="fill:#89a9b5; stroke:none;" d="M1076 801L1077 802L1076 801z"/>
<path style="fill:#5ba3c7; stroke:none;" d="M1076 802L1077 803L1076 802z"/>
<path style="fill:#89a9b5; stroke:none;" d="M208 804L209 805L208 804M1077 804L1078 805L1077 804z"/>
<path style="fill:#5ba3c7; stroke:none;" d="M208 805L209 806L208 805M1077 805L1078 806L1077 805z"/>
<path style="fill:#89a9b5; stroke:none;" d="M207.333 807.667L207.667 808.333L207.333 807.667M1078 807L1079 808L1078 807z"/>
<path style="fill:#5ba3c7; stroke:none;" d="M207 809L208 810L207 809z"/>
<path style="fill:#89a9b5; stroke:none;" d="M1079 810L1080 811L1079 810M206.333 811.667L206.667 812.333L206.333 811.667z"/>
<path style="fill:#5ba3c7; stroke:none;" d="M1079 811L1080 812L1079 811M206 813L207 814L206 813z"/>
<path style="fill:#89a9b5; stroke:none;" d="M1080 813L1081 814L1080 813z"/>
<path style="fill:#5ba3c7; stroke:none;" d="M1080 814L1081 815L1080 814z"/>
<path style="fill:#89a9b5; stroke:none;" d="M205.333 816.667L205.667 817.333L205.333 816.667M1081.33 816.667L1081.67 817.333L1081.33 816.667z"/>
<path style="fill:#5ba3c7; stroke:none;" d="M205 818L206 819L205 818M1081 818L1082 819L1081 818z"/>
<path style="fill:#89a9b5; stroke:none;" d="M204.333 821.667L204.667 822.333L204.333 821.667M1082 821L1083 822L1082 821z"/>
<path style="fill:#5ba3c7; stroke:none;" d="M1082 822L1083 823L1082 822M204.333 823.667L204.667 824.333L204.333 823.667z"/>
<path style="fill:#89a9b5; stroke:none;" d="M1083 825L1084 826L1083 825z"/>
<path style="fill:#5ba3c7; stroke:none;" d="M1083 826L1084 827L1083 826z"/>
<path style="fill:#89a9b5; stroke:none;" d="M203.333 828.667L203.667 829.333L203.333 828.667z"/>
<path style="fill:#5ba3c7; stroke:none;" d="M203 830L203 834L204 834L203 830z"/>
<path style="fill:#89a9b5; stroke:none;" d="M1084 830L1085 831L1084 830z"/>
<path style="fill:#5ba3c7; stroke:none;" d="M1084 831L1085 832L1084 831z"/>
<path style="fill:#89a9b5; stroke:none;" d="M1085.33 835.667L1085.67 836.333L1085.33 835.667M202 837L202 845L203 845L202 837z"/>
<path style="fill:#5ba3c7; stroke:none;" d="M1085.33 837.667L1085.67 838.333L1085.33 837.667z"/>
<path style="fill:#89a9b5; stroke:none;" d="M1086 842L1086 845L1087 845L1086 842z"/>
<path style="fill:#5ba3c7; stroke:none;" d="M202 845L202 853L203 853L202 845M1086.33 845.667L1086.67 846.333L1086.33 845.667z"/>
<path style="fill:#89a9b5; stroke:none;" d="M1087 852L1087 858L1088 858L1087 852M202 853L202 861L203 861L202 853z"/>
<path style="fill:#5ba3c7; stroke:none;" d="M1087 858L1087 864L1088 864L1087 858M203.333 864.667L203.667 865.333L203.333 864.667z"/>
<path style="fill:#89a9b5; stroke:none;" d="M203 866L203 888L204 888L203 866M1088 876L1088 885L1089 885L1088 876z"/>
<path style="fill:#5ba3c7; stroke:none;" d="M1088 885L1088 894L1089 894L1088 885M203 888L203 936L204 936C204 922.473 208.209 900.415 203 888z"/>
<path style="fill:#89a9b5; stroke:none;" d="M1089 911L1089 924L1090 924L1089 911z"/>
<path style="fill:#5ba3c7; stroke:none;" d="M1089 924L1089 938L1090 938L1089 924z"/>
<path style="fill:#89a9b5; stroke:none;" d="M1090 963L1090 986L1091 986L1090 963z"/>
<path style="fill:#1785bd; stroke:none;" d="M834 968L834 1008L835 1008C835 996.566 838.411 978.512 834 968z"/>
<path style="fill:#5ba3c7; stroke:none;" d="M1090 986L1090 1003L1091 1003L1090 986z"/>
<path style="fill:#89a9b5; stroke:none;" d="M202 1000L202 1072L203 1072L203 1023L202 1000M1091 1040L1091 1064L1092 1064L1091 1040z"/>
<path style="fill:#5ba3c7; stroke:none;" d="M1091 1064L1091 1090L1092 1090L1091 1064M202 1072L202 1120L203 1120C203 1106.47 207.209 1084.41 202 1072z"/>
<path style="fill:#89a9b5; stroke:none;" d="M1092 1152L1092 1200L1093 1200C1093 1186.47 1097.21 1164.41 1092 1152z"/>
<path style="fill:#1785bd; stroke:none;" d="M831 1160L831 1176L832 1176L831 1160z"/>
<path style="fill:#89a9b5; stroke:none;" d="M201 1192L201 1272L202 1272L202 1217L201 1192z"/>
<path style="fill:#5ba3c7; stroke:none;" d="M1092 1200L1092 1249L1093 1249C1093 1235.21 1097.31 1212.65 1092 1200M201 1272L201 1320L202 1320C202 1306.47 206.209 1284.41 201 1272z"/>
<path style="fill:#89a9b5; stroke:none;" d="M1093 1360L1093 1456L1094 1456L1094 1389L1093 1360M200 1384L200 1442L201 1442L201 1403L200 1384z"/>
<path style="fill:#5ba3c7; stroke:none;" d="M200 1442L200 1504L201 1504L201 1462L200 1442M1093 1456L1093 1928L1094 1928L1094 1594L1094 1498C1094 1486.06 1097.61 1466.98 1093 1456z"/>
<path style="fill:#1785bd; stroke:none;" d="M498 1528L498 2224L499 2224L499 1730L499 1588L499 1547L498 1528z"/>
<path style="fill:#89a9b5; stroke:none;" d="M199 1570L199 1648L200 1648L200 1594L199 1570z"/>
<path style="fill:#5ba3c7; stroke:none;" d="M199 1648L199 1696L200 1696C200 1682.47 204.209 1660.41 199 1648z"/>
<path style="fill:#89a9b5; stroke:none;" d="M198 1760L198 1824L199 1824L199 1780L198 1760z"/>
<path style="fill:#5ba3c7; stroke:none;" d="M198 1824L198 1880L199 1880L199 1842L198 1824z"/>
<path style="fill:#89a9b5; stroke:none;" d="M1093 1928L1093 2064L1094 2064L1094 1969C1094 1957.32 1097.51 1938.74 1093 1928M197 1952L197 2024L198 2024L198 1975L197 1952z"/>
<path style="fill:#5ba3c7; stroke:none;" d="M197 2024L197 2072L198 2072C198 2058.47 202.209 2036.41 197 2024z"/>
<path style="fill:#89a9b5; stroke:none;" d="M196 2136L196 2208L197 2208L197 2159L196 2136z"/>
<path style="fill:#5ba3c7; stroke:none;" d="M196 2208L196 2261L197 2261L197 2225L196 2208M1092 2224L1092 2288L1093 2288L1093 2244L1092 2224z"/>
<path style="fill:#1785bd; stroke:none;" d="M496 2232L496 2288L497 2288L497 2250L496 2232z"/>
<path style="fill:#89a9b5; stroke:none;" d="M1092 2288L1092 2376L1093 2376L1093 2315L1092 2288M195 2328L195 2400L196 2400L196 2351L195 2328z"/>
<path style="fill:#5ba3c7; stroke:none;" d="M195 2400L195 2448L196 2448C196 2434.47 200.209 2412.41 195 2400M1091 2480L1092 2481L1091 2480M1091 2488L1091 2552L1092 2552L1092 2508L1091 2488M494 2512L494 2520L496 2520L496 2512L494 2512z"/>
<path style="fill:#89a9b5; stroke:none;" d="M194 2520L194 2584L195 2584L195 2540L194 2520M1091 2552L1091 2608L1092 2608L1092 2570L1091 2552z"/>
<path style="fill:#1785bd; stroke:none;" d="M470.667 2567.33L471.333 2567.67L470.667 2567.33M859 2575L860 2576L859 2575z"/>
<path style="fill:#5ba3c7; stroke:none;" d="M194 2584L194 2640L195 2640L195 2602L194 2584z"/>
<path style="fill:#1785bd; stroke:none;" d="M936.667 2647.33L937.333 2647.67L936.667 2647.33M288 2648L288 2649L296 2649L288 2648z"/>
<path style="fill:#5ba3c7; stroke:none;" d="M944 2656L945 2657L944 2656M1090 2688L1091 2689L1090 2688M1090 2692L1090 2736L1091 2736C1091 2723.52 1094.81 2703.46 1090 2692z"/>
<path style="fill:#89a9b5; stroke:none;" d="M193 2728L193 2792L194 2792L194 2748L193 2728M1090 2736L1090 2799L1091 2799L1091 2756L1090 2736z"/>
<path style="fill:#5ba3c7; stroke:none;" d="M193 2792L193 2832L194 2832C194 2820.57 197.411 2802.51 193 2792M1089 2884L1089 2928L1090 2928C1090 2915.52 1093.81 2895.46 1089 2884z"/>
<path style="fill:#89a9b5; stroke:none;" d="M192 2911L192 2960L193 2960C193 2946.21 197.309 2923.65 192 2911M1089 2928L1089 2996L1090 2996L1090 2949L1089 2928z"/>
<path style="fill:#5ba3c7; stroke:none;" d="M192 2960L192 3016L193 3016L193 2978L192 2960M312 3016L312 3017L320 3017L312 3016M326.667 3016.33L327.333 3016.67L326.667 3016.33M336 3016L336 3017L344 3017L336 3016M287 3025L287 3029L286 3029L286 3024L285 3024L285 3065L286.028 3080.26L305 3084.42L349.015 3090.7L366 3094L408 3096.91L502 3102L502 3101L480 3100L480 3098L488 3095L479 3093L480 3089L475 3080L472 3082L471 3082L472 3079C464.905 3074.03 453.404 3064.91 452 3056L445 3053L440 3054C438.696 3045.13 424.612 3042.08 417 3042L417 3040L422 3040L416 3036L416 3032L394.17 3028.44L384 3024L384 3027C379.901 3026.25 377.285 3025.11 376 3021L368 3021L371 3024L371 3025L360 3024L360 3021C356.49 3021 352.854 3020.01 352 3024L344 3024L336 3022L336 3019L287 3025M296 3020L296 3022L304 3022L304 3020L296 3020M287.333 3022.67L287.667 3023.33L287.333 3022.67M389.333 3022.67L389.667 3023.33L389.333 3022.67M392 3023L393 3024L392 3023z"/>
<path style="fill:#1785bd; stroke:none;" d="M372 3024L373 3025L372 3024M374 3024L375 3025L374 3024z"/>
<path style="fill:#5ba3c7; stroke:none;" d="M946 3024L946 3029L945 3029L945 3026C939.794 3026.83 939.242 3029.5 943 3033L917 3035L927 3036L927 3037L923 3037C922.071 3042.69 915.438 3045.3 912 3040L894 3052L889 3059L888 3059L883 3056L872 3070L873 3074L868 3083L864 3082L855 3088L856 3086L853 3089L885 3086.28L948 3077L947.089 3040L946 3024z"/>
<path style="fill:#1785bd; stroke:none;" d="M394 3030L394 3031L399 3031L394 3030M396 3032L396 3034L400 3034L400 3032L396 3032z"/>
<path style="fill:#5ba3c7; stroke:none;" d="M926.667 3032.33L927.333 3032.67L926.667 3032.33M1089 3033L1089 3034L1093 3034L1089 3033z"/>
<path style="fill:#89a9b5; stroke:none;" d="M1093.67 3033.33L1094.33 3033.67L1093.67 3033.33z"/>
<path style="fill:#274854; stroke:none;" d="M1089 3034C1088.95 3052.11 1071.56 3050.8 1057 3054.37C1022 3062.97 983.945 3073.14 948 3076L948 3081L947 3081L938 3081L938 3082L940 3084L946 3083L948 3084L948 3493C963.764 3490.88 980.163 3484.02 995 3478.42C1022.99 3467.87 1050.49 3456.21 1077 3442.3C1086.44 3437.35 1095.8 3432.39 1105 3426.99C1108.12 3425.16 1113.78 3423.06 1115.4 3419.61C1120.72 3408.24 1114.98 3387.55 1116.17 3375C1121.14 3322.76 1116.74 3269.44 1119.04 3217C1120.57 3182.05 1119.51 3146.97 1121.04 3112C1121.8 3094.62 1125.88 3072 1121.44 3055C1117.96 3041.63 1101.67 3034.03 1089 3034z"/>
<path style="fill:#5ba3c7; stroke:none;" d="M1097 3034L1098 3035L1097 3034z"/>
<path style="fill:#89a9b5; stroke:none;" d="M1098 3034L1099 3035L1098 3034M1100 3035L1101 3036L1100 3035z"/>
<path style="fill:#5ba3c7; stroke:none;" d="M1102 3036L1103 3037L1102 3036z"/>
<path style="fill:#89a9b5; stroke:none;" d="M1103 3036L1104 3037L1103 3036z"/>
<path style="fill:#5ba3c7; stroke:none;" d="M1104 3037L1105 3038L1104 3037z"/>
<path style="fill:#89a9b5; stroke:none;" d="M1105 3037L1106 3038L1105 3037z"/>
<path style="fill:#5ba3c7; stroke:none;" d="M918 3038L918 3040L920 3040L920 3038L918 3038M1106 3038L1107 3039L1106 3038z"/>
<path style="fill:#89a9b5; stroke:none;" d="M1108 3039L1109 3040L1108 3039z"/>
<path style="fill:#1785bd; stroke:none;" d="M406 3040L406 3041L415 3042L415 3040L406 3040M1109 3040L1110 3041L1109 3040z"/>
<path style="fill:#89a9b5; stroke:none;" d="M1110 3040L1111 3041L1110 3040M1111 3041L1112 3042L1111 3041z"/>
<path style="fill:#5ba3c7; stroke:none;" d="M1112 3042L1113 3043L1112 3042z"/>
<path style="fill:#89a9b5; stroke:none;" d="M190 3045L191 3046L190 3045M188 3046L189 3047L188 3046z"/>
<path style="fill:#1785bd; stroke:none;" d="M189 3046L190 3047L189 3046z"/>
<path style="fill:#274854; stroke:none;" d="M285 3493L285 3208L285 3122C285 3110.54 288.035 3094.17 284.682 3083.23C282.987 3077.7 264.15 3077.45 259 3076.59C242.629 3073.84 226.277 3070.86 210 3067.6C205.573 3066.71 195.783 3066.6 193.028 3062.57C190.411 3058.74 192 3050.47 192 3046C179.073 3049.07 165.538 3058.67 161.927 3072C158.618 3084.22 162 3100.29 162 3113L162 3205C162 3264.37 161 3323.61 161 3383L161 3430C161 3434.94 159.211 3444.32 162.028 3448.58C166.565 3455.44 184.522 3459.19 192 3462.2C221.173 3473.96 253.713 3488.4 285 3493z"/>
<path style="fill:#89a9b5; stroke:none;" d="M186 3047L187 3048L186 3047z"/>
<path style="fill:#1785bd; stroke:none;" d="M910.667 3047.33L911.333 3047.67L910.667 3047.33z"/>
<path style="fill:#5ba3c7; stroke:none;" d="M1117 3047L1118 3048L1117 3047M184 3048L185 3049L184 3048M1118 3048L1119 3049L1118 3048M182 3049L183 3050L182 3049z"/>
<path style="fill:#89a9b5; stroke:none;" d="M1119 3049L1120 3050L1119 3049z"/>
<path style="fill:#5ba3c7; stroke:none;" d="M180 3050L181 3051L180 3050z"/>
<path style="fill:#1785bd; stroke:none;" d="M428 3050L428 3051L432 3052L428 3050M1119 3050L1120 3051L1119 3050z"/>
<path style="fill:#89a9b5; stroke:none;" d="M178 3051L179 3052L178 3051M1120 3051L1121 3052L1120 3051z"/>
<path style="fill:#1785bd; stroke:none;" d="M177 3052L178 3053L177 3052z"/>
<path style="fill:#89a9b5; stroke:none;" d="M175 3053L176 3054L175 3053M1121 3053L1122 3054L1121 3053M174 3054L175 3055L174 3054z"/>
<path style="fill:#1785bd; stroke:none;" d="M1121 3054L1122 3055L1121 3054M173 3055L174 3056L173 3055z"/>
<path style="fill:#89a9b5; stroke:none;" d="M171 3056L172 3057L171 3056z"/>
<path style="fill:#1785bd; stroke:none;" d="M440 3056L441 3057L440 3056z"/>
<path style="fill:#5ba3c7; stroke:none;" d="M1122 3056L1122 3068L1123 3068L1122 3056z"/>
<path style="fill:#89a9b5; stroke:none;" d="M169 3058L170 3059L169 3058M168 3059L169 3060L168 3059z"/>
<path style="fill:#1785bd; stroke:none;" d="M167 3061L168 3062L167 3061z"/>
<path style="fill:#5ba3c7; stroke:none;" d="M166 3062L167 3063L166 3062z"/>
<path style="fill:#89a9b5; stroke:none;" d="M165 3063L166 3064L165 3063z"/>
<path style="fill:#5ba3c7; stroke:none;" d="M164 3065L165 3066L164 3065z"/>
<path style="fill:#89a9b5; stroke:none;" d="M163 3066L164 3067L163 3066z"/>
<path style="fill:#1785bd; stroke:none;" d="M163 3067L164 3068L163 3067z"/>
<path style="fill:#89a9b5; stroke:none;" d="M1122 3068L1122 3086L1123 3086L1122 3068z"/>
<path style="fill:#5ba3c7; stroke:none;" d="M162 3069L163 3070L162 3069z"/>
<path style="fill:#89a9b5; stroke:none;" d="M161 3071L162 3072L161 3071z"/>
<path style="fill:#5ba3c7; stroke:none;" d="M161 3072L162 3073L161 3072z"/>
<path style="fill:#1785bd; stroke:none;" d="M161 3073L162 3074L161 3073z"/>
<path style="fill:#89a9b5; stroke:none;" d="M160.333 3075.67L160.667 3076.33L160.333 3075.67z"/>
<path style="fill:#5ba3c7; stroke:none;" d="M160 3077L161 3078L160 3077z"/>
<path style="fill:#1785bd; stroke:none;" d="M920 3083L898 3084L898 3085L913 3085L922 3082L935 3082L924 3087L924 3088L927 3088L917 3094L916 3094L916 3092L915 3092L915 3097L920 3097L920 3098L906 3097L907 3100C885.102 3105.68 862.411 3109.73 839.576 3111.23C833.535 3111.62 827.974 3114.57 822 3114L822 3115L824 3115L824 3116L820 3116L820 3118L830 3119L827 3124L826 3124L826 3120L821 3120L813 3138L812 3138L810 3134L807 3134L800 3136L803 3144L812 3138L809 3149L807 3146L801 3167L800 3167L800 3152L799 3152L795 3168L795 3179L794 3179L792 3173L793 3178C787.419 3181.89 788.017 3193.74 788 3200L790 3200L790 3184L794 3184L787 3216L784 3214L779 3256L778 3256L778 3248L776 3248L776 3256L773 3256C772.927 3262.6 766.693 3279.18 772 3284L772 3285L772 3286L765 3291L762 3290L752 3294L752 3297C776.182 3301.49 803.41 3299 828 3299L828 3300L816 3300L816 3301L824 3301L824 3302L805 3302L805 3303L808 3303L808 3312C812.923 3312.79 813.846 3315.27 814 3320L811 3320L810 3336L808 3336L808 3316L804.29 3326.71L803 3368L800 3368L798.001 3399L798 3414L798 3415L798 3416C805.179 3424.71 804.072 3435.38 806.245 3445.83C808.086 3454.69 810.924 3462.8 811 3472L814 3472L814 3480L818 3480L821 3506L826 3506L826 3507L818 3510C833.082 3509.81 845.605 3514.87 861 3510L861 3512L897.424 3505.61L912 3501L921 3501L920 3499L921 3499C928.095 3500.05 934.894 3496.21 941 3493L940 3495L948 3493L947 3480L946 3480L947 3489L947 3490L943 3491L944 3488L939 3489L940 3485C937.289 3484.42 936.605 3484.23 936 3487C932.758 3483.24 923.939 3477.11 925 3472L925 3471L911 3456L915 3457L915 3456C908.655 3450.29 902.095 3432.48 902 3424L899 3424L897 3392L896 3392L896 3408L895 3408C894.965 3395.45 892.682 3383.4 892.985 3371C893.118 3365.59 892.068 3360.2 896 3356L896 3360L899 3360L897 3351C899.69 3348.08 898.885 3346.48 896 3344L896 3343C901.138 3337.84 902.98 3327.09 903 3320L904 3320L905 3322C907.619 3317.08 909.584 3312.52 908 3307L918 3304L918 3303L915 3303L915 3302L920 3302L920 3301L819 3298C820.053 3293.36 820.762 3283.29 817 3280L820 3266L824 3267L820 3264L821 3258L823 3261L824 3261C824.548 3256.7 827.864 3251.38 824 3248L832 3224L838 3200C834.989 3197.7 836.818 3195.03 840 3194L847.4 3180.87L850 3169L848 3165C854.615 3162.91 858.528 3150.36 860 3144L864 3145L871 3131L872 3131L872 3135L873 3135L884 3118L887 3120L888 3119L885 3117L886 3112L890 3114L888 3112L888 3111L895 3111L895 3110L891 3109L891 3108L893 3106L941 3098L941 3097L934 3094L945 3094L945 3088L946 3088L946 3096L948 3084L946 3083L940 3084L938 3082L938 3081L947 3081L948 3081L948 3077C941.282 3077.53 924.421 3077.86 920 3083M160 3078L160 3083L161 3083L160 3078z"/>
<path style="fill:#274854; stroke:none;" d="M936 3081L937 3082L936 3081M918.667 3082.33L919.333 3082.67L918.667 3082.33M922 3082L913 3085C900.504 3081.31 881.883 3087.3 869 3088.84C834.073 3093.03 799.084 3097.51 764 3099.91C651.285 3107.63 536.738 3108.96 424 3101L424 3102L427 3102L427 3103L424 3103L424 3104L441 3109L441 3110L434 3112L434 3113L439 3115L439 3116L437 3116L437 3117L536 3125L536 3127L539 3127L536 3128L536 3131C543.704 3131.87 543.386 3150.93 543 3157L544 3157C550.82 3149.2 548.335 3172.87 552 3168L553 3168L554 3183L558 3180L560 3200L565 3200L568 3272L571 3272L572 3296L576 3296L576 3297L513 3299L513 3300L522 3300L522 3301L512 3301L512 3302L523 3302L523 3303L520 3303L520 3304L522 3312L525 3312L527 3336L528 3336L528 3328L529 3328L528 3344L524 3344L524 3360L526 3360L526 3352L530 3352L529 3432L528 3432L528 3424L527 3424L525 3448L522 3448L521 3472L520 3472L520 3464L518 3464L518 3472L514 3472L514 3488L513 3488L513 3472L512 3472C511.567 3482.78 512.445 3491.06 508 3501L504 3499C504 3503.71 505.469 3522.38 496 3517L495 3517C486.074 3521.3 472.807 3519.97 463 3520L463 3521C552.912 3521 643.145 3522.97 733 3519.04C754.53 3518.1 776.498 3517.11 798 3517C803.775 3516.97 819.202 3518.35 823 3514L847 3513L847 3512L818 3510L826 3507L826 3506L821 3506L824 3504L818 3480L814 3480L814 3472L811 3472C810.967 3459.91 806.578 3448.88 805.155 3437C804.306 3429.91 803.979 3420.86 798 3416L798 3415L798 3414L798 3401L800 3368L803 3368C803 3354.18 797.78 3326.91 808 3316L808 3336L810 3336L811 3320L814 3320C813.941 3314.98 813.411 3312.42 808 3312C807.911 3308.6 808.598 3303.44 805 3303L805 3302L824 3302L824 3301L816 3301L816 3300L828 3300L828 3299L752 3297L752 3294L762 3290L765 3291L772 3286L772 3285L772 3284C767.337 3276.78 772.972 3264.07 773 3256L776 3256L776 3248L778 3248L778 3256L779 3256L784 3214L787 3216L794 3184L790 3184L790 3200L788 3200C788.057 3193.05 788.018 3183.25 793 3178L792 3173L794 3179L795 3179C795.732 3175.45 799.81 3169.05 795 3168L799 3152L800 3152L800 3167L801 3167L807 3146L809 3149L812 3138L803 3144L800 3136L807 3134L810 3134L812 3138L813 3138L821 3120L826 3120L826 3124L827 3124L830 3119L820 3118L820 3116L824 3116L824 3115L822 3115L822 3114C829.45 3115.43 841.179 3111.6 848.996 3110.41C868.31 3107.48 888.876 3107.42 907 3100L906 3097L920 3098L920 3097L915 3097L915 3092L916 3092L916 3094L917 3094L924 3088L924 3087C928.6 3086.79 932.578 3086.19 935 3082L922 3082z"/>
<path style="fill:#5ba3c7; stroke:none;" d="M160 3083L161 3084L160 3083z"/>
<path style="fill:#274854; stroke:none;" d="M938 3083L939 3084L938 3083z"/>
<path style="fill:#89a9b5; stroke:none;" d="M160.333 3084.67L160.667 3085.33L160.333 3084.67z"/>
<path style="fill:#5ba3c7; stroke:none;" d="M302.667 3085.33L303.333 3085.67L302.667 3085.33z"/>
<path style="fill:#1785bd; stroke:none;" d="M891 3085L891 3086L897 3086L891 3085M920 3085L921 3086L920 3085M925 3085L926 3086L925 3085z"/>
<path style="fill:#274854; stroke:none;" d="M287 3086L288 3087L287 3086z"/>
<path style="fill:#1785bd; stroke:none;" d="M883 3086L883 3087L888 3087L883 3086M876 3087L876 3088L880 3088L876 3087z"/>
<path style="fill:#5ba3c7; stroke:none;" d="M161 3088L162 3089L161 3088z"/>
<path style="fill:#1785bd; stroke:none;" d="M868 3088L868 3089L872 3089L868 3088z"/>
<path style="fill:#5ba3c7; stroke:none;" d="M945 3088L945 3094L934 3094L941 3097L941 3098L893 3106L891 3108L891 3109L895 3110L895 3111L888 3111L888 3112L890 3114L886 3112L885 3117L888 3119L887 3120L884 3118L873 3135L872 3135L872 3131L871 3131L864 3145L860 3144C857.853 3150.58 854.306 3161.69 848 3165L850 3169L847.4 3179.95L840 3194C836.302 3194 833.003 3198.92 838 3200L832 3224L824 3248L824 3261L823 3261L821 3258L820 3264L824 3267L820 3266L817 3280C820.323 3284.39 819.796 3292.67 819 3298L920 3301L920 3302L915 3302L915 3303L918 3303L918 3304L908 3307C908.674 3309.55 907.026 3322.62 904 3320L903 3320C902.933 3327.5 900.246 3336.8 896 3343L896 3344C898.088 3346.94 898.484 3347.73 897 3351L899 3360L896 3360L896 3356C891.68 3359.05 893.102 3365.23 892.985 3370C892.672 3382.81 894.893 3395.07 895 3408L896 3408L896 3392L897 3392L899 3424L902 3424C902.028 3432.07 907.941 3451.69 915 3456L915 3457L911 3456C914.191 3463.17 918.729 3466.82 925 3471L925 3472C921.721 3475.82 932.94 3484.49 936 3487L940 3485L939 3489L944 3488L943 3491L947 3490L947 3489L946 3480L947 3480L947 3486L948 3486L948 3298C927.236 3298 902.321 3301.81 882 3297.66C875.212 3296.27 876.028 3289.04 870 3288L875.286 3277.96L878 3264L879 3256L881 3258C886.646 3238.95 891.476 3222.18 903.011 3205.83C906.062 3201.51 907.493 3194.75 912 3192L927 3171L932 3173C934.146 3166.86 938.059 3162.68 944 3160L944 3148L945 3148L947 3172L948 3172L948 3119C948 3112.4 949.901 3102.57 946 3097L948 3097L948 3096L946 3096L945 3088z"/>
<path style="fill:#89a9b5; stroke:none;" d="M161 3089L162 3090L161 3089z"/>
<path style="fill:#5ba3c7; stroke:none;" d="M844 3089L844 3090L852 3091L844 3089z"/>
<path style="fill:#1785bd; stroke:none;" d="M859 3089L859 3090L864 3090L859 3089z"/>
<path style="fill:#5ba3c7; stroke:none;" d="M320 3091L320 3094L290 3098L288 3096L287 3096L287 3100C284.31 3100.43 285.159 3102.66 287 3104L287 3105C282.986 3108.51 285 3118.94 285 3124L285 3176L286 3176L287 3162L303 3152L304 3158L323 3153L323 3152L304 3153L304 3150L338 3150C338 3144.35 347.332 3148 351 3148L354 3152L354 3153L352 3156L368 3157L368 3160C386.035 3160.01 389.856 3181.55 406 3184L412 3200L417 3200L430 3232C441.797 3235.55 440.332 3254.41 440 3264L444 3262L447 3264L447 3279L448 3279L448 3268L449 3268L450 3297L285 3298L286 3454L287 3454L287 3452L288 3452L290 3464L296 3462L297 3462L296 3472L304 3470L305 3470L306 3470C308.621 3473.02 316.345 3477.43 320 3476L320 3480C326.019 3480.02 333.869 3487.95 336 3481L352 3481L352 3484L358 3484L358 3480L363 3477L365 3477L366 3478L364 3482L368 3484C370.374 3480.34 373.491 3481.05 377 3483L382 3472L376 3472L376 3471L384 3471L384 3467L392 3467L392 3461L400 3461C399.885 3450 411.66 3446.75 415 3437L416 3437L416 3440L417 3440L417 3432L420 3432L418 3416L424 3416L426 3384L432 3384L424.826 3346L422 3336C416.475 3328.65 413.007 3321.46 413 3312L407 3311L410 3310L410 3304L409 3304L408 3307L400 3305L412 3303L412 3302L399 3302C403.116 3298.12 406.07 3299.84 411 3301L434 3299L510 3298L510 3297L505 3297L505 3296C507.993 3295.94 509.346 3296.05 510 3293L507 3294L504 3274L501 3272L504 3269C499.031 3266.29 499.043 3261.2 499 3256L502 3256L502 3252L498 3255L486 3194L482 3196C481.971 3185.53 477.674 3180.49 473.225 3171.58C471.79 3168.7 472.431 3165.22 470.57 3162.55C465.106 3154.72 456.563 3146.38 456 3136L454 3139L446 3134C445.266 3129.26 444.472 3125.32 440 3123L442 3120L442 3119L403 3115L403 3114L408 3114L408 3113L400 3113L400 3112L403 3110C397.438 3109.33 385.761 3106.57 384 3101L370 3100L370 3099L374 3097C370.748 3096.24 369.182 3096.46 369 3100L360 3097L365 3096L365 3097L363 3097L363 3098L368 3098C365.382 3095.33 363.594 3095.05 360 3096C359.452 3092.72 354.648 3094.5 352 3095C351.461 3090.71 346.28 3091.93 343 3093C342.285 3088.71 324.139 3090.99 320 3091M482 3092L485 3092L484 3090L482 3092M840 3090L840 3092L842 3092L840 3090M833 3091L834 3092L833 3091M837.667 3091.33L838.333 3091.67L837.667 3091.33z"/>
<path style="fill:#1785bd; stroke:none;" d="M328 3092L328 3093L335 3094L328 3092M477 3092L478 3093L477 3092M162 3093L163 3094L162 3093M909 3096L914 3096L914 3095L912 3093L909 3096M343 3094L346 3096L346 3095L343 3094M339 3095L339 3096L342 3096L339 3095M937 3095L938 3096L937 3095M296 3098L301 3097L296 3098M304 3096L305 3097L304 3096M350 3096L351 3097L350 3096z"/>
<path style="fill:#5ba3c7; stroke:none;" d="M494 3096L494 3098L496 3096L494 3096M383 3097L384 3098L383 3097M487 3098L487 3099L491 3098L487 3098M492 3097L493 3098L492 3097z"/>
<path style="fill:#1785bd; stroke:none;" d="M944 3097L945 3098L944 3097M946.667 3097.33L947.333 3097.67L946.667 3097.33z"/>
<path style="fill:#5ba3c7; stroke:none;" d="M362 3098L363 3099L362 3098M385 3098L386 3099L385 3098z"/>
<path style="fill:#274854; stroke:none;" d="M424 3099L416 3100L416 3101L425 3100L424 3099z"/>
<path style="fill:#5ba3c7; stroke:none;" d="M384 3100L384 3101L388 3101L384 3100z"/>
<path style="fill:#274854; stroke:none;" d="M428 3100L428 3101L432 3101L428 3100z"/>
<path style="fill:#1785bd; stroke:none;" d="M478 3100L479 3101L478 3100M458 3101L458 3102L471 3102L458 3101z"/>
<path style="fill:#274854; stroke:none;" d="M422.667 3102.33L423.333 3102.67L422.667 3102.33z"/>
<path style="fill:#1785bd; stroke:none;" d="M477 3102L477 3103L493 3103L477 3102M428 3103L428 3104L432 3104L428 3103M285.667 3104.33L286.333 3104.67L285.667 3104.33z"/>
<path style="fill:#274854; stroke:none;" d="M422 3105L423 3106L422 3105M424 3105L425 3106L424 3105M426 3105L427 3106L426 3105z"/>
<path style="fill:#5ba3c7; stroke:none;" d="M885 3107L885 3108L888 3108L885 3107z"/>
<path style="fill:#1785bd; stroke:none;" d="M1121 3107L1121 3112L1122 3112L1121 3107z"/>
<path style="fill:#274854; stroke:none;" d="M426 3112L427 3113L426 3112M428 3112L428 3113L432 3113L428 3112z"/>
<path style="fill:#1785bd; stroke:none;" d="M440 3112L441 3113L440 3112z"/>
<path style="fill:#5ba3c7; stroke:none;" d="M1121 3112L1121 3122L1122 3122L1121 3112z"/>
<path style="fill:#1785bd; stroke:none;" d="M400.667 3114.33L401.333 3114.67L400.667 3114.33z"/>
<path style="fill:#274854; stroke:none;" d="M424 3114L424 3115L428 3115L424 3114z"/>
<path style="fill:#1785bd; stroke:none;" d="M445 3116L446 3117L445 3116M811 3117L811 3118L811 3120L815 3121L816 3120L816 3118L811 3117z"/>
<path style="fill:#274854; stroke:none;" d="M814 3118L815 3119L814 3118z"/>
<path style="fill:#89a9b5; stroke:none;" d="M1121 3122L1121 3140L1122 3140L1121 3122z"/>
<path style="fill:#1785bd; stroke:none;" d="M543 3126L550 3128L550 3127L543 3126M552 3126L552 3127L557 3127L552 3126z"/>
<path style="fill:#5ba3c7; stroke:none;" d="M867 3133L866 3136L867 3133z"/>
<path style="fill:#1785bd; stroke:none;" d="M542.333 3134.67L542.667 3135.33L542.333 3134.67z"/>
<path style="fill:#274854; stroke:none;" d="M807 3136L807 3138L809 3138L809 3136L807 3136z"/>
<path style="fill:#89a9b5; stroke:none;" d="M338 3150L304 3150L304 3153L323 3152L323 3153L304 3158L303 3152L287 3162L285 3298C339.646 3298 395.562 3301.3 450 3297L449 3268L448 3268L448 3279L447 3279L447 3264L444 3262L440 3264C440.681 3255.06 442.062 3233.99 430 3232L417 3200L412 3200L406 3184C389.911 3179.67 386.455 3160 368 3160L368 3157L352 3156L354 3153L354 3152L351 3148C347.279 3147.98 337.85 3143.75 338 3150M944 3148L944 3160C937.536 3161.81 933.538 3166.61 932 3173L927 3171C922.465 3178.59 912.103 3183.29 912 3192L904.333 3203L891.5 3221L887 3239.67L879 3256L878 3264L875.25 3276.99L870 3288L880.005 3297.43L902 3298L948 3298L948 3199C948 3183.54 950.034 3162.38 944 3148z"/>
<path style="fill:#1785bd; stroke:none;" d="M548 3151L549 3152L548 3151z"/>
<path style="fill:#89a9b5; stroke:none;" d="M161 3160L161 3232L162 3232L162 3183L161 3160z"/>
<path style="fill:#1785bd; stroke:none;" d="M1120 3161L1120 3165L1121 3165L1120 3161z"/>
<path style="fill:#5ba3c7; stroke:none;" d="M1120 3165L1120 3172L1121 3172L1120 3165z"/>
<path style="fill:#89a9b5; stroke:none;" d="M1120 3172L1120 3192L1121 3192L1120 3172z"/>
<path style="fill:#5ba3c7; stroke:none;" d="M927 3179L928 3180L927 3179M920.667 3183.33L921.333 3183.67L920.667 3183.33M484 3189L484 3192L485 3192L484 3189z"/>
<path style="fill:#1785bd; stroke:none;" d="M948 3189L948 3298L949 3298L949 3222L948 3189z"/>
<path style="fill:#274854; stroke:none;" d="M559 3208L560 3209L559 3208z"/>
<path style="fill:#1785bd; stroke:none;" d="M1119 3212L1119 3219L1120 3219L1119 3212z"/>
<path style="fill:#5ba3c7; stroke:none;" d="M1119 3219L1119 3229L1120 3229L1119 3219z"/>
<path style="fill:#89a9b5; stroke:none;" d="M1119 3229L1119 3246L1120 3246L1119 3229z"/>
<path style="fill:#5ba3c7; stroke:none;" d="M161 3232L161 3264L162 3264L161 3232z"/>
<path style="fill:#1785bd; stroke:none;" d="M161 3264L161 3280L162 3280L161 3264M1118 3268L1118 3272L1119 3272L1118 3268z"/>
<path style="fill:#5ba3c7; stroke:none;" d="M1118 3272L1118 3280L1119 3280L1118 3272z"/>
<path style="fill:#89a9b5; stroke:none;" d="M1118 3280L1118 3298L1119 3298L1118 3280z"/>
<path style="fill:#1785bd; stroke:none;" d="M805.667 3300.33L806.333 3300.67L805.667 3300.33M811 3300L811 3301L814 3301L811 3300M393 3301L394 3302L393 3301M395 3301L396 3302L395 3301M397 3301L398 3302L397 3301z"/>
<path style="fill:#274854; stroke:none;" d="M810 3303L810 3304L816 3304L810 3303z"/>
<path style="fill:#5ba3c7; stroke:none;" d="M411 3307L412 3308L411 3307M413 3307L414 3308L413 3307z"/>
<path style="fill:#1785bd; stroke:none;" d="M1117 3318L1117 3325L1118 3325L1117 3318z"/>
<path style="fill:#274854; stroke:none;" d="M520 3320L520 3328L522 3328L522 3320L520 3320z"/>
<path style="fill:#5ba3c7; stroke:none;" d="M1117 3325L1117 3333L1118 3333L1117 3325z"/>
<path style="fill:#89a9b5; stroke:none;" d="M1117 3333L1117 3350L1118 3350L1117 3333z"/>
<path style="fill:#1785bd; stroke:none;" d="M798 3360L798 3368L799 3368L798 3360z"/>
<path style="fill:#89a9b5; stroke:none;" d="M160 3367L160 3432L161 3432L161 3388L160 3367z"/>
<path style="fill:#1785bd; stroke:none;" d="M1116 3372L1116 3379L1117 3379L1116 3372z"/>
<path style="fill:#5ba3c7; stroke:none;" d="M1116 3379L1116 3388L1117 3388L1116 3379z"/>
<path style="fill:#89a9b5; stroke:none;" d="M1116 3388L1116 3404L1117 3404L1116 3388z"/>
<path style="fill:#274854; stroke:none;" d="M803 3415L804 3416L803 3415M521 3416L521 3432L520 3432L520 3424L519 3424L519 3440L522 3440L521 3416z"/>
<path style="fill:#5ba3c7; stroke:none;" d="M1114 3421L1115 3422L1114 3421z"/>
<path style="fill:#1785bd; stroke:none;" d="M1112 3422L1113 3423L1112 3422M1110 3423L1111 3424L1110 3423z"/>
<path style="fill:#89a9b5; stroke:none;" d="M1111 3423L1112 3424L1111 3423M1109 3424L1110 3425L1109 3424z"/>
<path style="fill:#5ba3c7; stroke:none;" d="M1107 3425L1108 3426L1107 3425z"/>
<path style="fill:#1785bd; stroke:none;" d="M1105 3426L1106 3427L1105 3426z"/>
<path style="fill:#89a9b5; stroke:none;" d="M1106 3426L1107 3427L1106 3426M1104 3427L1105 3428L1104 3427z"/>
<path style="fill:#5ba3c7; stroke:none;" d="M1102 3428L1103 3429L1102 3428M1100 3429L1101 3430L1100 3429z"/>
<path style="fill:#1785bd; stroke:none;" d="M1098 3430L1099 3431L1098 3430z"/>
<path style="fill:#89a9b5; stroke:none;" d="M1099 3430L1100 3431L1099 3430M1097 3431L1098 3432L1097 3431z"/>
<path style="fill:#5ba3c7; stroke:none;" d="M160 3432L160 3449L161 3449L160 3432M1095 3432L1096 3433L1095 3432M1093 3433L1094 3434L1093 3433z"/>
<path style="fill:#1785bd; stroke:none;" d="M1091 3434L1092 3435L1091 3434z"/>
<path style="fill:#89a9b5; stroke:none;" d="M1090 3435L1091 3436L1090 3435M1088 3436L1089 3437L1088 3436z"/>
<path style="fill:#1785bd; stroke:none;" d="M408 3437L410 3440L408 3437z"/>
<path style="fill:#89a9b5; stroke:none;" d="M1086 3437L1087 3438L1086 3437M1084 3438L1085 3439L1084 3438z"/>
<path style="fill:#1785bd; stroke:none;" d="M402 3439L403 3440L402 3439z"/>
<path style="fill:#5ba3c7; stroke:none;" d="M1082 3439L1083 3440L1082 3439M903.333 3440.67L903.667 3441.33L903.333 3440.67M1080 3440L1081 3441L1080 3440M1078 3441L1079 3442L1078 3441z"/>
<path style="fill:#1785bd; stroke:none;" d="M1076 3442L1077 3443L1076 3442M1074 3443L1075 3444L1074 3443z"/>
<path style="fill:#89a9b5; stroke:none;" d="M1075 3443L1076 3444L1075 3443M1073 3444L1074 3445L1073 3444z"/>
<path style="fill:#1785bd; stroke:none;" d="M1070 3445L1071 3446L1070 3445z"/>
<path style="fill:#89a9b5; stroke:none;" d="M1071 3445L1072 3446L1071 3445z"/>
<path style="fill:#1785bd; stroke:none;" d="M1068 3446L1069 3447L1068 3446z"/>
<path style="fill:#89a9b5; stroke:none;" d="M1069 3446L1070 3447L1069 3446z"/>
<path style="fill:#1785bd; stroke:none;" d="M1066 3447L1067 3448L1066 3447z"/>
<path style="fill:#89a9b5; stroke:none;" d="M1067 3447L1068 3448L1067 3447z"/>
<path style="fill:#1785bd; stroke:none;" d="M1064 3448L1065 3449L1064 3448z"/>
<path style="fill:#89a9b5; stroke:none;" d="M1065 3448L1066 3449L1065 3448z"/>
<path style="fill:#5ba3c7; stroke:none;" d="M161 3449L162 3450L161 3449z"/>
<path style="fill:#1785bd; stroke:none;" d="M1062 3449L1063 3450L1062 3449z"/>
<path style="fill:#89a9b5; stroke:none;" d="M1063 3449L1064 3450L1063 3449M163 3450L164 3451L163 3450z"/>
<path style="fill:#1785bd; stroke:none;" d="M1060 3450L1061 3451L1060 3450z"/>
<path style="fill:#89a9b5; stroke:none;" d="M1061 3450L1062 3451L1061 3450M165 3451L166 3452L165 3451z"/>
<path style="fill:#5ba3c7; stroke:none;" d="M166 3451L167 3452L166 3451z"/>
<path style="fill:#1785bd; stroke:none;" d="M1058 3451L1059 3452L1058 3451z"/>
<path style="fill:#89a9b5; stroke:none;" d="M1059 3451L1060 3452L1059 3451M167 3452L168 3453L167 3452z"/>
<path style="fill:#5ba3c7; stroke:none;" d="M168 3452L169 3453L168 3452M1056 3452L1057 3453L1056 3452z"/>
<path style="fill:#89a9b5; stroke:none;" d="M170 3453L171 3454L170 3453z"/>
<path style="fill:#5ba3c7; stroke:none;" d="M1054 3453L1055 3454L1054 3453z"/>
<path style="fill:#89a9b5; stroke:none;" d="M172 3454L173 3455L172 3454z"/>
<path style="fill:#1785bd; stroke:none;" d="M173 3454L174 3455L173 3454z"/>
<path style="fill:#5ba3c7; stroke:none;" d="M1052 3454L1053 3455L1052 3454z"/>
<path style="fill:#89a9b5; stroke:none;" d="M174 3455L175 3456L174 3455z"/>
<path style="fill:#5ba3c7; stroke:none;" d="M175 3455L176 3456L175 3455z"/>
<path style="fill:#89a9b5; stroke:none;" d="M1050 3455L1051 3456L1050 3455M177 3456L178 3457L177 3456M1048 3456L1049 3457L1048 3456M179 3457L180 3458L179 3457z"/>
<path style="fill:#5ba3c7; stroke:none;" d="M180 3457L181 3458L180 3457z"/>
<path style="fill:#1785bd; stroke:none;" d="M1045 3457L1046 3458L1045 3457z"/>
<path style="fill:#89a9b5; stroke:none;" d="M1046 3457L1047 3458L1046 3457M181 3458L182 3459L181 3458z"/>
<path style="fill:#5ba3c7; stroke:none;" d="M182 3458L183 3459L182 3458z"/>
<path style="fill:#1785bd; stroke:none;" d="M1043 3458L1044 3459L1043 3458z"/>
<path style="fill:#89a9b5; stroke:none;" d="M1044 3458L1045 3459L1044 3458M184 3459L185 3460L184 3459z"/>
<path style="fill:#1785bd; stroke:none;" d="M185 3459L186 3460L185 3459z"/>
<path style="fill:#5ba3c7; stroke:none;" d="M1041 3459L1042 3460L1041 3459z"/>
<path style="fill:#89a9b5; stroke:none;" d="M186 3460L187 3461L186 3460z"/>
<path style="fill:#5ba3c7; stroke:none;" d="M187 3460L188 3461L187 3460z"/>
<path style="fill:#1785bd; stroke:none;" d="M920 3460L923 3464L920 3460z"/>
<path style="fill:#5ba3c7; stroke:none;" d="M1039 3460L1040 3461L1039 3460z"/>
<path style="fill:#89a9b5; stroke:none;" d="M189 3461L190 3462L189 3461z"/>
<path style="fill:#1785bd; stroke:none;" d="M190 3461L191 3462L190 3461z"/>
<path style="fill:#89a9b5; stroke:none;" d="M1037 3461L1038 3462L1037 3461M191 3462L192 3463L191 3462z"/>
<path style="fill:#5ba3c7; stroke:none;" d="M192 3462L193 3463L192 3462z"/>
<path style="fill:#1785bd; stroke:none;" d="M1034 3462L1035 3463L1034 3462z"/>
<path style="fill:#89a9b5; stroke:none;" d="M1035 3462L1036 3463L1035 3462M194 3463L195 3464L194 3463z"/>
<path style="fill:#1785bd; stroke:none;" d="M195 3463L196 3464L195 3463z"/>
<path style="fill:#5ba3c7; stroke:none;" d="M1032 3463L1033 3464L1032 3463z"/>
<path style="fill:#89a9b5; stroke:none;" d="M196 3464L197 3465L196 3464z"/>
<path style="fill:#5ba3c7; stroke:none;" d="M197 3464L198 3465L197 3464M287 3464L287 3472L288 3472L287 3464z"/>
<path style="fill:#89a9b5; stroke:none;" d="M1030 3464L1031 3465L1030 3464M199 3465L200 3466L199 3465z"/>
<path style="fill:#5ba3c7; stroke:none;" d="M1027 3465L1028 3466L1027 3465z"/>
<path style="fill:#89a9b5; stroke:none;" d="M1028 3465L1029 3466L1028 3465M201 3466L202 3467L201 3466z"/>
<path style="fill:#5ba3c7; stroke:none;" d="M202 3466L203 3467L202 3466M1025 3466L1026 3467L1025 3466z"/>
<path style="fill:#89a9b5; stroke:none;" d="M204 3467L205 3468L204 3467z"/>
<path style="fill:#5ba3c7; stroke:none;" d="M205 3467L206 3468L205 3467z"/>
<path style="fill:#1785bd; stroke:none;" d="M1022 3467L1023 3468L1022 3467z"/>
<path style="fill:#89a9b5; stroke:none;" d="M1023 3467L1024 3468L1023 3467M207 3468L208 3469L207 3468z"/>
<path style="fill:#1785bd; stroke:none;" d="M208 3468L209 3469L208 3468z"/>
<path style="fill:#5ba3c7; stroke:none;" d="M1020 3468L1021 3469L1020 3468z"/>
<path style="fill:#89a9b5; stroke:none;" d="M1021 3468L1022 3469L1021 3468M209.667 3469.33L210.333 3469.67L209.667 3469.33M1018 3469L1019 3470L1018 3469M212 3470L213 3471L212 3470z"/>
<path style="fill:#1785bd; stroke:none;" d="M213 3470L214 3471L213 3470M1015 3470L1016 3471L1015 3470z"/>
<path style="fill:#89a9b5; stroke:none;" d="M1016 3470L1017 3471L1016 3470M214.667 3471.33L215.333 3471.67L214.667 3471.33M1013 3471L1014 3472L1013 3471M218 3472L219 3473L218 3472z"/>
<path style="fill:#5ba3c7; stroke:none;" d="M1010 3472L1011 3473L1010 3472z"/>
<path style="fill:#89a9b5; stroke:none;" d="M1011 3472L1012 3473L1011 3472M220 3473L221 3474L220 3473z"/>
<path style="fill:#5ba3c7; stroke:none;" d="M221 3473L222 3474L221 3473z"/>
<path style="fill:#89a9b5; stroke:none;" d="M1008 3473L1009 3474L1008 3473M223 3474L224 3475L223 3474z"/>
<path style="fill:#5ba3c7; stroke:none;" d="M224 3474L225 3475L224 3474M1005 3474L1006 3475L1005 3474z"/>
<path style="fill:#89a9b5; stroke:none;" d="M226 3475L227 3476L226 3475z"/>
<path style="fill:#1785bd; stroke:none;" d="M227 3475L228 3476L227 3475M1002 3475L1003 3476L1002 3475z"/>
<path style="fill:#89a9b5; stroke:none;" d="M1003 3475L1004 3476L1003 3475M229 3476L230 3477L229 3476M1000 3476L1001 3477L1000 3476M232 3477L233 3478L232 3477z"/>
<path style="fill:#1785bd; stroke:none;" d="M233 3477L234 3478L233 3477z"/>
<path style="fill:#5ba3c7; stroke:none;" d="M997 3477L998 3478L997 3477z"/>
<path style="fill:#89a9b5; stroke:none;" d="M998 3477L999 3478L998 3477M235 3478L236 3479L235 3478z"/>
<path style="fill:#1785bd; stroke:none;" d="M994 3478L995 3479L994 3478z"/>
<path style="fill:#89a9b5; stroke:none;" d="M995 3478L996 3479L995 3478M238 3479L239 3480L238 3479z"/>
<path style="fill:#1785bd; stroke:none;" d="M368 3479L368 3480L376 3480L368 3479z"/>
<path style="fill:#89a9b5; stroke:none;" d="M992 3479L993 3480L992 3479M241 3480L242 3481L241 3480M989 3480L990 3481L989 3480M243.667 3481.33L244.333 3481.67L243.667 3481.33z"/>
<path style="fill:#1785bd; stroke:none;" d="M245 3481L246 3482L245 3481z"/>
<path style="fill:#89a9b5; stroke:none;" d="M986 3481L987 3482L986 3481M246.667 3482.33L247.333 3482.67L246.667 3482.33z"/>
<path style="fill:#1785bd; stroke:none;" d="M248 3482L249 3483L248 3482z"/>
<path style="fill:#5ba3c7; stroke:none;" d="M983 3482L984 3483L983 3482z"/>
<path style="fill:#89a9b5; stroke:none;" d="M250 3483L251 3484L250 3483z"/>
<path style="fill:#5ba3c7; stroke:none;" d="M251 3483L252 3484L251 3483M980 3483L981 3484L980 3483z"/>
<path style="fill:#89a9b5; stroke:none;" d="M981 3483L982 3484L981 3483M253 3484L254 3485L253 3484z"/>
<path style="fill:#5ba3c7; stroke:none;" d="M254 3484L255 3485L254 3484M358 3484L358 3488L360 3488L360 3484L358 3484M977 3484L978 3485L977 3484z"/>
<path style="fill:#89a9b5; stroke:none;" d="M978 3484L979 3485L978 3484M256 3485L257 3486L256 3485z"/>
<path style="fill:#5ba3c7; stroke:none;" d="M257 3485L258 3486L257 3485M974 3485L975 3486L974 3485z"/>
<path style="fill:#89a9b5; stroke:none;" d="M975 3485L976 3486L975 3485M259.667 3486.33L260.333 3486.67L259.667 3486.33z"/>
<path style="fill:#1785bd; stroke:none;" d="M261 3486L262 3487L261 3486z"/>
<path style="fill:#5ba3c7; stroke:none;" d="M971 3486L972 3487L971 3486z"/>
<path style="fill:#89a9b5; stroke:none;" d="M972 3486L973 3487L972 3486M263 3487L264 3488L263 3487z"/>
<path style="fill:#5ba3c7; stroke:none;" d="M264 3487L265 3488L264 3487M938 3487L939 3488L938 3487M968 3487L969 3488L968 3487z"/>
<path style="fill:#89a9b5; stroke:none;" d="M969 3487L970 3488L969 3487M266.667 3488.33L267.333 3488.67L266.667 3488.33z"/>
<path style="fill:#5ba3c7; stroke:none;" d="M947 3488L948 3489L947 3488z"/>
<path style="fill:#89a9b5; stroke:none;" d="M965 3488L966 3489L965 3488M269.667 3489.33L270.333 3489.67L269.667 3489.33z"/>
<path style="fill:#1785bd; stroke:none;" d="M271 3489L272 3490L271 3489z"/>
<path style="fill:#5ba3c7; stroke:none;" d="M285 3489L286 3490L285 3489M936 3489L937 3490L936 3489z"/>
<path style="fill:#1785bd; stroke:none;" d="M961 3489L962 3490L961 3489z"/>
<path style="fill:#89a9b5; stroke:none;" d="M962 3489L963 3490L962 3489M273 3490L274 3491L273 3490z"/>
<path style="fill:#5ba3c7; stroke:none;" d="M274 3490L275 3491L274 3490M332 3490L333 3491L332 3490M958 3490L959 3491L958 3490z"/>
<path style="fill:#89a9b5; stroke:none;" d="M959 3490L960 3491L959 3490M276.667 3491.33L277.333 3491.67L276.667 3491.33z"/>
<path style="fill:#5ba3c7; stroke:none;" d="M278 3491L279 3492L278 3491M944 3491L941 3492L941 3493L945 3492L944 3491M947 3491L948 3492L947 3491M955 3491L956 3492L955 3491z"/>
<path style="fill:#89a9b5; stroke:none;" d="M956 3491L957 3492L956 3491M280.667 3492.33L281.333 3492.67L280.667 3492.33z"/>
<path style="fill:#5ba3c7; stroke:none;" d="M290 3492L290 3493L293 3493L290 3492M331 3493L331 3494L335 3493L331 3493M940 3495L941 3493L940 3493L934 3496L934 3497L948 3493L940 3495z"/>
<path style="fill:#1785bd; stroke:none;" d="M951 3492L952 3493L951 3492z"/>
<path style="fill:#89a9b5; stroke:none;" d="M952 3492L953 3493L952 3492M284.667 3493.33L285.333 3493.67L284.667 3493.33z"/>
<path style="fill:#5ba3c7; stroke:none;" d="M286 3493L286 3494L289 3494L286 3493z"/>
<path style="fill:#89a9b5; stroke:none;" d="M948.667 3493.33L949.333 3493.67L948.667 3493.33M288.667 3494.33L289.333 3494.67L288.667 3494.33z"/>
<path style="fill:#5ba3c7; stroke:none;" d="M290 3494L291 3495L290 3494z"/>
<path style="fill:#89a9b5; stroke:none;" d="M945 3494L946 3495L945 3494M292.667 3495.33L293.333 3495.67L292.667 3495.33z"/>
<path style="fill:#5ba3c7; stroke:none;" d="M294 3495L295 3496L294 3495z"/>
<path style="fill:#89a9b5; stroke:none;" d="M941 3495L942 3496L941 3495M296.667 3496.33L297.333 3496.67L296.667 3496.33z"/>
<path style="fill:#5ba3c7; stroke:none;" d="M298 3496L299 3497L298 3496M301 3496L301 3498L303 3498L301 3496M304 3496L305 3497L304 3496M930.667 3496.33L931.333 3496.67L930.667 3496.33z"/>
<path style="fill:#89a9b5; stroke:none;" d="M937.667 3496.33L938.333 3496.67L937.667 3496.33M299.667 3497.33L300.333 3497.67L299.667 3497.33z"/>
<path style="fill:#274854; stroke:none;" d="M304 3497L305 3498L304 3497z"/>
<path style="fill:#5ba3c7; stroke:none;" d="M312 3497L313 3498L312 3497M932 3497L933 3498L932 3497z"/>
<path style="fill:#89a9b5; stroke:none;" d="M933.667 3497.33L934.333 3497.67L933.667 3497.33M303 3498L303 3499L306 3499L303 3498z"/>
<path style="fill:#5ba3c7; stroke:none;" d="M306 3498L307 3499L306 3498M309 3498L311 3500L309 3498M327 3498L328 3499L327 3498M927.667 3498.33L928.333 3498.67L927.667 3498.33z"/>
<path style="fill:#89a9b5; stroke:none;" d="M929.667 3498.33L930.333 3498.67L929.667 3498.33M307 3499L307 3500L310 3500L307 3499z"/>
<path style="fill:#5ba3c7; stroke:none;" d="M312 3499L313 3500L312 3499M316.667 3499.33L317.333 3499.67L316.667 3499.33M322.667 3499.33L323.333 3499.67L322.667 3499.33M920.667 3499.33L921.333 3499.67L920.667 3499.33M924 3499L925 3500L924 3499z"/>
<path style="fill:#89a9b5; stroke:none;" d="M925.667 3499.33L926.333 3499.67L925.667 3499.33M312.667 3500.33L313.333 3500.67L312.667 3500.33z"/>
<path style="fill:#5ba3c7; stroke:none;" d="M314 3500L315 3501L314 3500M326.667 3500.33L327.333 3500.67L326.667 3500.33M919 3500L920 3501L919 3500z"/>
<path style="fill:#89a9b5; stroke:none;" d="M921.667 3500.33L922.333 3500.67L921.667 3500.33M316 3501L316 3502L319 3502L316 3501z"/>
<path style="fill:#5ba3c7; stroke:none;" d="M319.667 3501.33L320.333 3501.67L319.667 3501.33M912.333 3501.67L912.667 3502.33L912.333 3501.67M916 3501L917 3502L916 3501z"/>
<path style="fill:#89a9b5; stroke:none;" d="M917.667 3501.33L918.333 3501.67L917.667 3501.33M320 3502L320 3503L323 3503L320 3502z"/>
<path style="fill:#5ba3c7; stroke:none;" d="M323 3502L324 3503L323 3502M326 3502L328 3504L328 3502L326 3502z"/>
<path style="fill:#89a9b5; stroke:none;" d="M913.667 3502.33L914.333 3502.67L913.667 3502.33M325.667 3503.33L326.333 3503.67L325.667 3503.33z"/>
<path style="fill:#5ba3c7; stroke:none;" d="M908 3503L909 3504L908 3503z"/>
<path style="fill:#89a9b5; stroke:none;" d="M909 3503L910 3504L909 3503M329 3504L329 3505L332 3505L329 3504z"/>
<path style="fill:#5ba3c7; stroke:none;" d="M332.667 3504.33L333.333 3504.67L332.667 3504.33M336 3504L339 3506L339 3505L336 3504M340.667 3504.33L341.333 3504.67L340.667 3504.33M903 3504L904 3505L903 3504z"/>
<path style="fill:#89a9b5; stroke:none;" d="M904.667 3504.33L905.333 3504.67L904.667 3504.33M334.667 3505.33L335.333 3505.67L334.667 3505.33z"/>
<path style="fill:#274854; stroke:none;" d="M896 3505L897 3506L896 3505z"/>
<path style="fill:#5ba3c7; stroke:none;" d="M898 3505L899 3506L898 3505z"/>
<path style="fill:#89a9b5; stroke:none;" d="M899.667 3505.33L900.333 3505.67L899.667 3505.33M339 3506L339 3507L342 3507L339 3506z"/>
<path style="fill:#5ba3c7; stroke:none;" d="M342 3506L343 3507L342 3506M344 3506L345 3507L344 3506z"/>
<path style="fill:#1785bd; stroke:none;" d="M813 3506L816 3509L813 3506z"/>
<path style="fill:#5ba3c7; stroke:none;" d="M893 3506L894 3507L893 3506z"/>
<path style="fill:#89a9b5; stroke:none;" d="M894.667 3506.33L895.333 3506.67L894.667 3506.33M344 3507L344 3508L347 3508L344 3507z"/>
<path style="fill:#5ba3c7; stroke:none;" d="M347.667 3507.33L348.333 3507.67L347.667 3507.33M352 3507L359 3510L359 3509L352 3507z"/>
<path style="fill:#274854; stroke:none;" d="M832 3507L832 3508L837 3508L832 3507z"/>
<path style="fill:#5ba3c7; stroke:none;" d="M888 3507L889 3508L888 3507z"/>
<path style="fill:#89a9b5; stroke:none;" d="M889.667 3507.33L890.333 3507.67L889.667 3507.33M349 3508L349 3509L352 3509L349 3508z"/>
<path style="fill:#274854; stroke:none;" d="M880 3508L881 3509L880 3508z"/>
<path style="fill:#5ba3c7; stroke:none;" d="M882.667 3508.33L883.333 3508.67L882.667 3508.33z"/>
<path style="fill:#89a9b5; stroke:none;" d="M884.667 3508.33L885.333 3508.67L884.667 3508.33M355.667 3509.33L356.333 3509.67L355.667 3509.33z"/>
<path style="fill:#274854; stroke:none;" d="M873 3509L874 3510L873 3509z"/>
<path style="fill:#5ba3c7; stroke:none;" d="M876 3509L877 3510L876 3509z"/>
<path style="fill:#89a9b5; stroke:none;" d="M877 3509L877 3510L880 3510L877 3509M360 3510L360 3511L364 3511L360 3510z"/>
<path style="fill:#5ba3c7; stroke:none;" d="M364.667 3510.33L365.333 3510.67L364.667 3510.33M368 3510L371 3512L371 3511L368 3510z"/>
<path style="fill:#274854; stroke:none;" d="M860 3510L848 3512L848 3513L860 3510M866.667 3510.33L867.333 3510.67L866.667 3510.33z"/>
<path style="fill:#5ba3c7; stroke:none;" d="M869.667 3510.33L870.333 3510.67L869.667 3510.33z"/>
<path style="fill:#89a9b5; stroke:none;" d="M871.667 3510.33L872.333 3510.67L871.667 3510.33M366 3511L366 3512L369 3512L366 3511z"/>
<path style="fill:#5ba3c7; stroke:none;" d="M862.667 3511.33L863.333 3511.67L862.667 3511.33z"/>
<path style="fill:#89a9b5; stroke:none;" d="M864 3511L864 3512L867 3512L864 3511M372 3512L372 3513L376 3513L372 3512z"/>
<path style="fill:#5ba3c7; stroke:none;" d="M376 3512L377 3513L376 3512z"/>
<path style="fill:#1785bd; stroke:none;" d="M816 3512L816 3513L821 3514L821 3513L816 3512M823.667 3512.33L824.333 3512.67L823.667 3512.33M828 3512L831 3514L828 3512z"/>
<path style="fill:#5ba3c7; stroke:none;" d="M854.667 3512.33L855.333 3512.67L854.667 3512.33z"/>
<path style="fill:#89a9b5; stroke:none;" d="M856 3512L856 3513L859 3513L856 3512M379 3513L379 3514L382 3514L379 3513z"/>
<path style="fill:#5ba3c7; stroke:none;" d="M382.667 3513.33L383.333 3513.67L382.667 3513.33z"/>
<path style="fill:#1785bd; stroke:none;" d="M806.667 3513.33L807.333 3513.67L806.667 3513.33M845 3513L846 3514L845 3513z"/>
<path style="fill:#5ba3c7; stroke:none;" d="M846 3513L847 3514L846 3513z"/>
<path style="fill:#89a9b5; stroke:none;" d="M847 3513L847 3514L851 3514L847 3513M385 3514L385 3515L389 3515L385 3514z"/>
<path style="fill:#5ba3c7; stroke:none;" d="M389.667 3514.33L390.333 3514.67L389.667 3514.33M392 3514L393 3515L392 3514z"/>
<path style="fill:#1785bd; stroke:none;" d="M816 3514L817 3515L816 3514M823.333 3514.67L823.667 3515.33L823.333 3514.67M834 3514L835 3515L834 3514z"/>
<path style="fill:#5ba3c7; stroke:none;" d="M835.667 3514.33L836.333 3514.67L835.667 3514.33z"/>
<path style="fill:#89a9b5; stroke:none;" d="M837 3514L837 3515L841 3515L837 3514M392 3515L392 3516L396 3516L392 3515z"/>
<path style="fill:#5ba3c7; stroke:none;" d="M396.667 3515.33L397.333 3515.67L396.667 3515.33M824 3515L824 3516L827 3516L824 3515z"/>
<path style="fill:#89a9b5; stroke:none;" d="M827 3515L827 3516L830 3516L827 3515M400 3516L400 3517L404 3517L400 3516z"/>
<path style="fill:#5ba3c7; stroke:none;" d="M404.667 3516.33L405.333 3516.67L404.667 3516.33z"/>
<path style="fill:#274854; stroke:none;" d="M407 3516L408 3517L407 3516z"/>
<path style="fill:#1785bd; stroke:none;" d="M808.667 3516.33L809.333 3516.67L808.667 3516.33z"/>
<path style="fill:#5ba3c7; stroke:none;" d="M810 3516L810 3517L813 3517L810 3516z"/>
<path style="fill:#89a9b5; stroke:none;" d="M813 3516L813 3517L818 3517L813 3516M409 3517L409 3518L414 3518L409 3517z"/>
<path style="fill:#5ba3c7; stroke:none;" d="M414.667 3517.33L415.333 3517.67L414.667 3517.33z"/>
<path style="fill:#1785bd; stroke:none;" d="M790.667 3517.33L791.333 3517.67L790.667 3517.33z"/>
<path style="fill:#5ba3c7; stroke:none;" d="M792 3517L792 3518L796 3518L792 3517z"/>
<path style="fill:#89a9b5; stroke:none;" d="M796 3517L796 3518L802 3518L796 3517M420 3518L420 3519L425 3519L420 3518z"/>
<path style="fill:#5ba3c7; stroke:none;" d="M425.667 3518.33L426.333 3518.67L425.667 3518.33z"/>
<path style="fill:#274854; stroke:none;" d="M428 3518L428 3519L431 3519L428 3518z"/>
<path style="fill:#1785bd; stroke:none;" d="M766.667 3518.33L767.333 3518.67L766.667 3518.33z"/>
<path style="fill:#5ba3c7; stroke:none;" d="M768 3518L768 3519L773 3519L768 3518z"/>
<path style="fill:#89a9b5; stroke:none;" d="M773 3518L773 3519L781 3519L773 3518M432 3519L432 3520L438 3520L432 3519z"/>
<path style="fill:#5ba3c7; stroke:none;" d="M438 3519L438 3520L441 3520L438 3519z"/>
<path style="fill:#274854; stroke:none;" d="M443 3519L444 3520L443 3519M447.667 3519.33L448.333 3519.67L447.667 3519.33M460 3519L461 3520L460 3519M462 3519L463 3520L462 3519z"/>
<path style="fill:#1785bd; stroke:none;" d="M728 3519L728 3520L733 3520L728 3519z"/>
<path style="fill:#5ba3c7; stroke:none;" d="M733 3519L733 3520L741 3520L733 3519z"/>
<path style="fill:#89a9b5; stroke:none;" d="M741 3519L741 3520L754 3520L741 3519M448 3520L448 3521L457 3521L448 3520z"/>
<path style="fill:#5ba3c7; stroke:none;" d="M457 3520L457 3521L461 3521L457 3520z"/>
<path style="fill:#1785bd; stroke:none;" d="M668 3520L668 3521L675 3521L668 3520z"/>
<path style="fill:#5ba3c7; stroke:none;" d="M675 3520L675 3521L686 3521L675 3520z"/>
<path style="fill:#89a9b5; stroke:none;" d="M686 3520L686 3521L709 3521L686 3520M473 3521L473 3522L490 3522L473 3521z"/>
<path style="fill:#5ba3c7; stroke:none;" d="M490 3521L490 3522L504 3522L490 3521z"/>
<path style="fill:#1785bd; stroke:none;" d="M504 3521L504 3522L512 3522L504 3521M556 3521L556 3522L579 3522L556 3521z"/>
<path style="fill:#5ba3c7; stroke:none;" d="M579 3521L579 3522L600 3522L579 3521z"/>
<path style="fill:#89a9b5; stroke:none;" d="M600 3521L600 3522L632 3522L600 3521z"/>
</svg>
