<svg width="54" height="182" viewBox="0 0 54 182" fill="none" xmlns="http://www.w3.org/2000/svg">
<path d="M5.70446 17.3772C5.67301 17.538 5.48772 18.653 5.32693 20.0651C5.19411 21.2151 5.11723 22.2218 4.99489 24.6546C4.911 26.2939 4.82716 27.9403 4.78172 29.4084C4.60582 33.6548 4.65363 37.9076 4.925 42.1491C5.25357 46.7735 6.50839 51.5132 9.01459 60.9927C9.56782 63.0393 9.94783 65.1287 10.1506 67.239C10.3879 69.6929 10.3879 72.1639 10.1506 74.6178L17.6273 161.349C17.2532 162.793 16.9925 164.265 16.8477 165.75C16.717 167.058 16.6809 168.375 16.7394 169.689C16.9806 173.653 19.0114 177.155 20.1824 178.917C21.0358 179.814 22.0628 180.528 23.2009 181.017C24.3389 181.505 25.5644 181.756 26.8027 181.756C28.041 181.756 29.2664 181.505 30.4044 181.017C31.5425 180.528 32.5695 179.814 33.423 178.917C35.3035 176.945 36.034 174.887 36.6142 172.954C37.1827 171.056 37.4458 169.079 37.3937 167.099C37.3253 165.863 37.1947 164.631 37.0022 163.408C36.8158 162.201 36.5673 161.006 36.2577 159.825L45.5904 75.3308C45.765 73.3594 46.0733 71.4022 46.5132 69.4726C46.8208 68.1338 47.1738 66.8895 47.5618 65.7465C48.6978 62.2511 50.9733 52.7401 52.3505 42.6769C53.3938 35.0449 53.8925 27.3484 53.843 19.6457C53.8306 19.0955 53.7591 18.5483 53.6298 18.0133C53.4894 17.3953 53.2988 16.7898 53.06 16.2028C51.8961 13.5323 6.85095 11.4525 5.70446 17.3772Z" fill="#E0E4E7"/>
<path opacity="0.5" d="M5.63428 18.7997C5.7982 19.7842 6.08348 20.7446 6.48363 21.6589C6.83317 22.4664 8.12299 25.046 12.0029 27.7444C15.3077 29.9904 19.1069 31.4031 23.0763 31.862C27.9437 32.6988 32.9259 32.6016 37.7569 31.5754C41.8885 30.6805 44.1151 29.4432 44.94 28.9329L45.1392 28.8105C46.8625 27.7025 49.1589 25.7101 51.4903 21.8896L5.63428 18.7997Z" fill="#676D6C"/>
<path d="M26.1387 86.9356C26.4925 86.5095 26.67 85.9643 26.635 85.4116C26.6361 85.1577 26.696 84.9076 26.81 84.6807C26.924 84.4539 27.0891 84.2566 27.2922 84.1043C27.6417 83.7757 28.0227 83.3772 28.4911 83.7338C28.9594 84.0903 28.5925 84.5063 28.4282 84.8873C28.2639 85.2683 27.9982 85.5654 28.4282 85.9009C28.4037 86.4986 28.1171 87.0964 28.4282 87.6941C27.7815 89.1132 27.9248 90.5778 28.173 92.0493C28.0821 95.2371 27.6837 98.4389 28.201 101.616C28.4736 103.287 27.9458 104.898 28.0436 106.552C28.0786 107.09 28.2884 107.618 28.1765 108.174C28.1031 108.523 28.0018 108.873 27.5893 108.873C27.4925 108.891 27.3925 108.884 27.2993 108.852C27.206 108.82 27.1225 108.765 27.0568 108.691C26.9911 108.618 26.9454 108.529 26.9242 108.433C26.903 108.336 26.9069 108.236 26.9356 108.142C27.757 106.045 26.0408 104.063 26.7924 101.92C27.0755 101.113 26.5372 100.019 26.3344 99.0855C25.9849 97.4043 26.4428 95.7369 26.1422 94.0801C26.3868 93.7795 26.8412 93.5209 26.3868 93.0525C26.3868 92.7973 26.3868 92.5422 26.3868 92.287C26.628 91.518 26.4393 90.749 26.3868 89.98V89.4697C26.5162 89.1202 26.8552 88.7706 26.3868 88.4455C26.4847 87.9247 26.2261 87.4424 26.1387 86.9356Z" fill="#FEFEFE"/>
<path d="M30.0254 48.8357C29.5186 50.933 29.564 53.0931 29.3997 55.2323C29.303 56.5895 29.3112 57.952 29.4242 59.3079C29.5515 61.045 29.4159 62.7914 29.0222 64.4881C28.9558 64.7747 29.1096 65.2746 28.6168 65.3025C28.3127 65.32 28.1484 64.981 27.9666 64.7433C26.5684 62.9956 26.6768 60.9473 27.0019 58.9164C27.1522 57.9727 27.2536 57.0674 26.9285 56.1586C26.2294 54.1802 26.9705 52.1948 26.974 50.2164C26.974 48.965 26.5545 47.7697 26.7642 46.4973C26.8516 45.9695 26.7118 45.3089 27.2151 45.0292C27.8408 44.6797 28.2637 45.2565 28.7531 45.62C29.8611 46.4414 29.7877 47.6648 30.0254 48.8357Z" fill="#FEFEFE"/>
<path d="M27.2712 69.2627C28.1695 69.2627 28.4002 69.9059 28.5645 70.5805C28.5923 70.7061 28.5931 70.8362 28.5669 70.9622C28.5406 71.0882 28.4879 71.2072 28.4122 71.3113C28.3366 71.4154 28.2397 71.5022 28.128 71.566C28.0162 71.6298 27.8922 71.6692 27.7641 71.6815C27.4456 71.6733 27.1418 71.546 26.9127 71.3247C26.6836 71.1033 26.5459 70.8041 26.5267 70.4861C26.4988 70.0946 26.4078 69.2802 27.2712 69.2627Z" fill="#FEFEFE"/>
<path d="M21.0317 162.656C21.2904 160.779 21.175 158.902 21.0491 157.025C22.5242 156.445 22.2306 157.972 22.1956 158.308C21.9964 160.199 22.5767 162.062 22.318 163.939C22.318 164.677 22.0139 165.428 22.318 166.148C22.6011 166.777 21.8601 166.847 21.7832 167.284L21.5176 167.012C21.5365 166.909 21.5215 166.804 21.4748 166.711C21.4281 166.618 21.3522 166.543 21.2589 166.498C21.2589 165.816 21.2589 165.135 21.2589 164.453V163.932C21.2065 163.506 21.4582 163.016 21.0317 162.656Z" fill="white"/>
<path d="M29.3193 32.1068C42.568 32.1068 53.3081 24.9895 53.3081 16.2098C53.3081 7.43009 42.568 0.312744 29.3193 0.312744C16.0706 0.312744 5.33032 7.43009 5.33032 16.2098C5.33032 24.9895 16.0706 32.1068 29.3193 32.1068Z" fill="#141313"/>
<path d="M52.3647 17.1465C52.3647 8.9149 42.1022 2.24219 29.4384 2.24219C16.7745 2.24219 6.51562 8.9149 6.51562 17.1465C6.51562 20.0897 7.83339 22.8301 10.0984 25.1405C10.0761 24.9362 10.0644 24.7308 10.0634 24.5253C10.0634 18.7265 18.3894 14.0391 28.6589 14.0391C38.9284 14.0391 47.2545 18.7439 47.2545 24.5253C47.2491 25.3376 47.0864 26.1412 46.7755 26.8917C50.2535 24.2772 52.3647 20.8726 52.3647 17.1465Z" fill="#676D6C"/>
<path d="M28.6585 14.0215C18.389 14.0215 10.063 18.7263 10.063 24.5077C10.064 24.7132 10.0757 24.9185 10.098 25.1229C14.1666 29.2754 21.3041 32.0333 29.4379 32.0333C36.3658 32.0333 42.5702 30.0339 46.7751 26.8741C47.086 26.1236 47.2487 25.32 47.254 24.5077C47.254 18.7263 38.9279 14.0215 28.6585 14.0215Z" fill="#979C9D"/>
<path d="M28.925 30.3986C32.309 30.388 35.0455 28.2088 35.0371 25.5313C35.0287 22.8537 32.2786 20.6918 28.8945 20.7024C25.5104 20.7131 22.7739 22.8922 22.7823 25.5698C22.7907 28.2473 25.5409 30.4092 28.925 30.3986Z" fill="#751B29"/>
<path d="M28.9473 29.039C32.3313 29.039 35.0747 26.8684 35.0747 24.1909C35.0747 21.5133 32.3313 19.3428 28.9473 19.3428C25.5632 19.3428 22.8198 21.5133 22.8198 24.1909C22.8198 26.8684 25.5632 29.039 28.9473 29.039Z" fill="#8F1A1C"/>
<path d="M28.6339 27.4927C31.1686 27.4927 33.2233 25.9153 33.2233 23.9694C33.2233 22.0235 31.1686 20.446 28.6339 20.446C26.0992 20.446 24.0444 22.0235 24.0444 23.9694C24.0444 25.9153 26.0992 27.4927 28.6339 27.4927Z" fill="#363F39"/>
<path d="M28.6339 27.2097C31.1686 27.2097 33.2233 25.6322 33.2233 23.6863C33.2233 21.7405 31.1686 20.163 28.6339 20.163C26.0992 20.163 24.0444 21.7405 24.0444 23.6863C24.0444 25.6322 26.0992 27.2097 28.6339 27.2097Z" fill="#141313"/>
<path opacity="0.5" d="M47.492 26.6085C48.1734 29.7123 48.577 32.8706 48.6979 36.0461C48.7513 41.9925 48.0107 47.9194 46.4958 53.6698C46.0658 55.2847 45.7093 56.3718 45.7093 56.3718C45.15 58.0636 44.8145 58.6682 44.1539 61.4086C42.7557 67.2424 42.5634 71.6991 42.3817 75.2469C42.0321 81.8078 41.2283 88.3442 40.9626 94.9085C40.6131 103.682 39.1345 121.397 34.6429 159.493C36.022 162.682 36.454 166.201 35.8873 169.629C34.8142 175.96 30.0639 179.766 30.2422 179.92C30.4205 180.074 36.5899 176.473 37.0932 169.913C37.4427 165.278 37.0932 161.933 36.2298 159.825C37.7014 148.248 38.6766 137.961 39.54 130.523C39.54 130.523 43.5772 96.5758 44.5454 84.3524C44.5454 84.3244 44.5453 84.1636 44.5768 83.9469C44.6275 83.4097 44.7115 82.8763 44.8285 82.3495C45.0906 81.1541 45.2759 77.6412 45.6814 74.4185C45.8177 73.3384 46.0309 71.6222 46.5133 69.448C46.9152 67.6406 47.4194 65.8574 48.0233 64.1071C49.1873 60.6431 49.8374 57.0673 51.1447 49.9123C51.8158 46.2491 52.5428 41.7855 53.1335 36.6578C53.1335 36.6228 53.6963 31.8411 53.7627 19.9847C53.773 18.8795 53.6782 17.7758 53.4796 16.6886C53.4201 16.374 53.3642 16.1188 53.3328 15.9895C53.2713 17.9886 52.7663 19.949 51.8542 21.7289C50.5854 24.2456 48.5336 25.7417 47.492 26.6085Z" fill="#B2B5B3"/>
<path d="M6.11323 23.0012C6.19362 23.0012 6.46282 23.0781 6.77391 24.7489C7.39958 28.2967 6.42432 29.7403 6.63404 33.075C6.78085 35.4938 6.86829 36.9199 7.48348 38.706C7.72816 39.4051 8.21045 40.6285 7.67216 41.6876C7.45545 42.1175 7.00459 42.6488 6.58514 42.5859C6.10977 42.516 5.81613 41.7085 5.59242 40.6005C5.06112 37.9825 5.51206 36.6577 5.54352 33.9278C5.58493 31.6987 5.47518 29.4694 5.21498 27.2551C5.10943 26.3617 5.16146 25.4566 5.36875 24.5811C5.41419 24.3679 5.73922 22.9872 6.11323 23.0012Z" fill="white"/>
<path d="M16.9495 169.881C16.5133 169.899 16.0918 170.043 15.7366 170.297C15.585 170.382 15.4674 170.517 15.4037 170.679C15.3401 170.841 15.3342 171.019 15.387 171.185C14.6619 171.424 13.9502 171.702 13.2549 172.017C13.5364 172.593 13.7645 173.193 13.9365 173.81C14.133 174.458 14.2699 175.123 14.3454 175.795C15.2123 175.53 15.9113 175.226 16.7922 174.991C16.9075 175.061 17.4528 175.526 17.9072 175.477C18.1305 175.453 18.345 175.377 18.5329 175.254C18.8157 174.219 18.7816 173.123 18.435 172.108C18.1193 171.26 17.6107 170.498 16.9495 169.881Z" fill="#7C7A77"/>
<path d="M7.53949 53.9075C7.63386 54.1872 7.72476 54.4703 7.81564 54.7499L9.7591 54.3689C10.2886 52.118 10.1054 49.7581 9.23479 47.6158C8.53964 45.9438 7.44215 44.4693 6.03995 43.3235L3.9707 44.1274C5.80305 47.1182 7.01659 50.4463 7.53949 53.9145V53.9075Z" fill="#383838"/>
<path d="M4.05077 44.8475C4.05077 44.7287 4.02277 44.6063 4.01228 44.498C4.00179 44.3896 3.99137 44.2673 3.98438 44.1484C5.36786 45.5231 6.43007 47.1868 7.09481 49.0203C7.75956 50.8538 8.01038 52.8116 7.82931 54.7535C7.609 54.5743 7.39782 54.3841 7.19662 54.1837C5.79846 52.7856 5.28466 51.2231 4.85472 49.8809C4.33887 48.2522 4.06791 46.5559 4.05077 44.8475Z" fill="#A9AAA6"/>
<path d="M7.5452 53.8774C7.74008 53.8089 7.20491 51.7809 6.34994 49.3476C5.49496 46.9144 4.64395 44.9974 4.44907 45.0658C4.25419 45.1343 4.78928 47.1624 5.64426 49.5956C6.49923 52.0288 7.35032 53.9459 7.5452 53.8774Z" fill="#333333"/>
<path d="M7.45586 53.9058C7.65074 53.8373 7.11557 51.8093 6.2606 49.376C5.40562 46.9428 4.5546 45.0257 4.35972 45.0941C4.16484 45.1626 4.69994 47.1907 5.55491 49.624C6.40989 52.0572 7.26098 53.9742 7.45586 53.9058Z" fill="#7D7D7D"/>
<path d="M7.39619 53.9277C7.59107 53.8592 7.05598 51.8312 6.20101 49.3979C5.34604 46.9647 4.49494 45.0477 4.30007 45.1161C4.10519 45.1846 4.64036 47.2126 5.49533 49.6459C6.3503 52.0791 7.20132 53.9962 7.39619 53.9277Z" fill="#333333"/>
<path d="M7.30464 53.9627C7.49952 53.8943 6.96443 51.8662 6.10946 49.433C5.25449 46.9997 4.40339 45.0827 4.20851 45.1512C4.01364 45.2197 4.5488 47.2477 5.40378 49.6809C6.25875 52.1142 7.10976 54.0312 7.30464 53.9627Z" fill="#7D7D7D"/>
<path d="M7.21221 53.9958C7.40709 53.9274 6.87192 51.8993 6.01694 49.4661C5.16197 47.0328 4.31094 45.1158 4.11606 45.1842C3.92119 45.2527 4.45629 47.2808 5.31126 49.714C6.16623 52.1473 7.01733 54.0643 7.21221 53.9958Z" fill="#333333"/>
<path d="M7.11893 54.0277C7.31381 53.9592 6.77864 51.9312 5.92367 49.4979C5.06869 47.0647 4.21768 45.1476 4.0228 45.2161C3.82792 45.2846 4.36301 47.3126 5.21799 49.7459C6.07296 52.1791 6.92405 54.0961 7.11893 54.0277Z" fill="#7D7D7D"/>
<path d="M7.012 54.0648C7.20688 53.9963 6.67179 51.9682 5.81681 49.535C4.96184 47.1017 4.11075 45.1847 3.91587 45.2532C3.72099 45.3217 4.25608 47.3497 5.11105 49.783C5.96603 52.2162 6.81712 54.1332 7.012 54.0648Z" fill="#333333"/>
<path d="M6.91922 54.0968C7.1141 54.0283 6.57901 52.0002 5.72404 49.567C4.86907 47.1337 4.01797 45.2167 3.8231 45.2852C3.62822 45.3537 4.16331 47.3817 5.01828 49.815C5.87325 52.2482 6.72435 54.1652 6.91922 54.0968Z" fill="#7D7D7D"/>
<path d="M6.84233 54.1244C7.03721 54.0559 6.50204 52.0279 5.64707 49.5946C4.7921 47.1614 3.94107 45.2443 3.74619 45.3128C3.55131 45.3812 4.08642 47.4093 4.94139 49.8426C5.79636 52.2758 6.64746 54.1929 6.84233 54.1244Z" fill="#333333"/>
<path d="M6.75272 54.1561C6.9476 54.0876 6.41251 52.0596 5.55754 49.6263C4.70256 47.1931 3.85147 45.276 3.65659 45.3445C3.46171 45.413 3.9968 47.441 4.85178 49.8743C5.70675 52.3075 6.55784 54.2246 6.75272 54.1561Z" fill="#7D7D7D"/>
<path d="M6.69333 54.1746C6.88821 54.1061 6.3531 52.078 5.49813 49.6448C4.64316 47.2115 3.79206 45.2945 3.59719 45.363C3.40231 45.4314 3.93748 47.4595 4.79245 49.8927C5.64742 52.326 6.49845 54.2431 6.69333 54.1746Z" fill="#333333"/>
<path d="M6.59745 54.2076C6.79233 54.1391 6.25716 52.1111 5.40218 49.6778C4.54721 47.2446 3.6962 45.3276 3.50132 45.396C3.30644 45.4645 3.84153 47.4926 4.6965 49.9258C5.55147 52.359 6.40257 54.2761 6.59745 54.2076Z" fill="#7D7D7D"/>
<path d="M6.50882 54.2427C6.7037 54.1743 6.16853 52.1462 5.31356 49.713C4.45859 47.2798 3.60757 45.3627 3.4127 45.4312C3.21782 45.4997 3.75291 47.5277 4.60788 49.961C5.46285 52.3942 6.31395 54.3112 6.50882 54.2427Z" fill="#333333"/>
<path d="M6.41629 54.2746C6.61117 54.2061 6.076 52.1781 5.22103 49.7449C4.36606 47.3116 3.51504 45.3946 3.32017 45.463C3.12529 45.5315 3.66038 47.5596 4.51535 49.9928C5.37032 52.4261 6.22142 54.3431 6.41629 54.2746Z" fill="#7D7D7D"/>
<path d="M6.21318 54.3448C6.40806 54.2764 5.87297 52.2483 5.018 49.8151C4.16303 47.3818 3.31192 45.4648 3.11704 45.5332C2.92216 45.6017 3.45727 47.6298 4.31224 50.063C5.16721 52.4963 6.01831 54.4133 6.21318 54.3448Z" fill="#7D7D7D"/>
<path d="M6.14823 54.3688C6.34311 54.3004 5.80794 52.2723 4.95296 49.8391C4.09799 47.4059 3.24698 45.4888 3.0521 45.5573C2.85722 45.6258 3.39231 47.6538 4.24728 50.0871C5.10226 52.5203 5.95335 54.4373 6.14823 54.3688Z" fill="#333333"/>
<path d="M6.05545 54.4007C6.25033 54.3322 5.71516 52.3042 4.86019 49.871C4.00522 47.4377 3.1542 45.5207 2.95933 45.5891C2.76445 45.6576 3.29954 47.6857 4.15451 50.1189C5.00948 52.5522 5.86058 54.4692 6.05545 54.4007Z" fill="#7D7D7D"/>
<path d="M5.9958 54.4227C6.19068 54.3542 5.65559 52.3262 4.80062 49.8929C3.94565 47.4597 3.09455 45.5427 2.89968 45.6111C2.7048 45.6796 3.23997 47.7076 4.09494 50.1409C4.94991 52.5741 5.80093 54.4912 5.9958 54.4227Z" fill="#333333"/>
<path d="M5.90669 54.4511C6.10157 54.3827 5.56648 52.3546 4.71151 49.9214C3.85654 47.4881 3.00544 45.5711 2.81056 45.6396C2.61569 45.7081 3.15085 47.7361 4.00583 50.1693C4.8608 52.6026 5.71181 54.5196 5.90669 54.4511Z" fill="#7D7D7D"/>
<path d="M5.814 54.483C6.00888 54.4145 5.47371 52.3865 4.61874 49.9532C3.76376 47.52 2.91275 45.6029 2.71787 45.6714C2.52299 45.7399 3.05808 47.7679 3.91305 50.2012C4.76803 52.6344 5.61912 54.5515 5.814 54.483Z" fill="#333333"/>
<path d="M5.72197 54.5192C5.91685 54.4507 5.38168 52.4227 4.52671 49.9894C3.67174 47.5562 2.82071 45.6391 2.62583 45.7076C2.43095 45.776 2.96605 47.8041 3.82103 50.2374C4.676 52.6706 5.52709 54.5876 5.72197 54.5192Z" fill="#7D7D7D"/>
<path d="M5.61161 54.5565C5.80649 54.488 5.2714 52.4599 4.41642 50.0267C3.56145 47.5934 2.71036 45.6764 2.51548 45.7449C2.3206 45.8134 2.85569 47.8414 3.71066 50.2747C4.56564 52.7079 5.41673 54.6249 5.61161 54.5565Z" fill="#333333"/>
<path d="M5.52225 54.5882C5.71713 54.5197 5.18204 52.4917 4.32707 50.0584C3.4721 47.6252 2.621 45.7082 2.42612 45.7766C2.23124 45.8451 2.76633 47.8732 3.62131 50.3064C4.47628 52.7397 5.32737 54.6567 5.52225 54.5882Z" fill="#7D7D7D"/>
<path d="M5.44414 54.6124C5.63902 54.5439 5.10384 52.5159 4.24886 50.0826C3.39389 47.6494 2.54288 45.7323 2.348 45.8008C2.15312 45.8693 2.68821 47.8973 3.54318 50.3306C4.39815 52.7638 5.24926 54.6809 5.44414 54.6124Z" fill="#333333"/>
<path d="M5.35576 54.6476C5.55064 54.5791 5.01555 52.551 4.16058 50.1178C3.30561 47.6845 2.4545 45.7675 2.25962 45.836C2.06474 45.9044 2.59984 47.9325 3.45482 50.3658C4.30979 52.799 5.16088 54.716 5.35576 54.6476Z" fill="#7D7D7D"/>
<path d="M5.2961 54.6695C5.49098 54.6011 4.95589 52.573 4.10091 50.1398C3.24594 47.7065 2.39485 45.7895 2.19997 45.858C2.00509 45.9264 2.54026 47.9545 3.39523 50.3877C4.25021 52.821 5.10122 54.738 5.2961 54.6695Z" fill="#333333"/>
<path d="M5.20366 54.7014C5.39854 54.6329 4.86336 52.6049 4.00838 50.1716C3.15341 47.7384 2.3024 45.8213 2.10752 45.8898C1.91264 45.9583 2.44773 47.9863 3.3027 50.4196C4.15768 52.8528 5.00878 54.7699 5.20366 54.7014Z" fill="#7D7D7D"/>
<path d="M5.11112 54.731C5.306 54.6626 4.77083 52.6345 3.91586 50.2013C3.06088 47.768 2.20987 45.851 2.01499 45.9195C1.82011 45.9879 2.3552 48.016 3.21017 50.4492C4.06515 52.8825 4.91624 54.7995 5.11112 54.731Z" fill="#333333"/>
<path d="M5.0181 54.7628C5.21298 54.6943 4.67781 52.6663 3.82284 50.233C2.96786 47.7998 2.11685 45.8827 1.92197 45.9512C1.72709 46.0197 2.26218 48.0477 3.11716 50.481C3.97213 52.9142 4.82322 54.8312 5.0181 54.7628Z" fill="#7D7D7D"/>
<path d="M4.91092 54.8035C5.1058 54.7351 4.57071 52.707 3.71574 50.2738C2.86077 47.8405 2.00967 45.9235 1.8148 45.992C1.61992 46.0604 2.15501 48.0885 3.00998 50.5217C3.86495 52.955 4.71605 54.872 4.91092 54.8035Z" fill="#333333"/>
<path d="M4.8162 54.8363C5.01108 54.7678 4.47599 52.7397 3.62101 50.3065C2.76604 47.8732 1.91495 45.9562 1.72007 46.0247C1.52519 46.0932 2.06028 48.1212 2.91525 50.5545C3.77022 52.9877 4.62132 54.9047 4.8162 54.8363Z" fill="#7D7D7D"/>
<path d="M4.72344 54.8682C4.91832 54.7997 4.38323 52.7716 3.52825 50.3384C2.67328 47.9051 1.82217 45.9881 1.6273 46.0565C1.43242 46.125 1.96752 48.1531 2.82249 50.5864C3.67747 53.0196 4.52856 54.9366 4.72344 54.8682Z" fill="#333333"/>
<path d="M4.63407 54.9C4.82895 54.8315 4.29386 52.8034 3.43889 50.3702C2.58391 47.937 1.73282 46.0199 1.53794 46.0884C1.34306 46.1569 1.87815 48.1849 2.73312 50.6182C3.5881 53.0514 4.43919 54.9684 4.63407 54.9Z" fill="#7D7D7D"/>
<path d="M4.57474 54.9219C4.76962 54.8535 4.23445 52.8254 3.37948 50.3922C2.52451 47.959 1.67349 46.0419 1.47861 46.1104C1.28374 46.1789 1.81882 48.2069 2.6738 50.6402C3.52877 53.0734 4.37986 54.9904 4.57474 54.9219Z" fill="#333333"/>
<path d="M4.47879 54.9516C4.67367 54.8831 4.13858 52.8551 3.28361 50.4218C2.42864 47.9886 1.57754 46.0716 1.38267 46.14C1.18779 46.2085 1.72288 48.2366 2.57785 50.6698C3.43282 53.1031 4.28392 55.0201 4.47879 54.9516Z" fill="#7D7D7D"/>
<path d="M4.2974 55.0185C4.49228 54.95 3.95719 52.922 3.10222 50.4887C2.24724 48.0555 1.39615 46.1385 1.20127 46.2069C1.00639 46.2754 1.54148 48.3035 2.39645 50.7367C3.25143 53.17 4.10252 55.087 4.2974 55.0185Z" fill="#7D7D7D"/>
<path d="M4.19071 55.0557C4.38559 54.9873 3.8505 52.9592 2.99553 50.526C2.14055 48.0927 1.28946 46.1757 1.09458 46.2442C0.899702 46.3126 1.43479 48.3407 2.28976 50.7739C3.14474 53.2072 3.99583 55.1242 4.19071 55.0557Z" fill="#333333"/>
<path d="M4.09453 55.0887C4.28941 55.0203 3.75432 52.9922 2.89935 50.559C2.04438 48.1257 1.19327 46.2087 0.998389 46.2771C0.803511 46.3456 1.33861 48.3737 2.19359 50.8069C3.04856 53.2402 3.89965 55.1572 4.09453 55.0887Z" fill="#7D7D7D"/>
<path d="M4.02372 55.1151C4.2186 55.0466 3.68351 53.0185 2.82853 50.5853C1.97356 48.152 1.12247 46.235 0.927588 46.3035C0.73271 46.372 1.2678 48.4 2.12277 50.8333C2.97774 53.2665 3.82884 55.1835 4.02372 55.1151Z" fill="#333333"/>
<path d="M16.7308 174.875C16.8145 174.845 16.5836 173.971 16.215 172.922C15.8464 171.873 15.4797 171.046 15.3959 171.076C15.3121 171.105 15.5429 171.979 15.9116 173.028C16.2802 174.078 16.647 174.904 16.7308 174.875Z" fill="#333333"/>
<path d="M16.6892 174.891C16.773 174.862 16.542 173.988 16.1734 172.939C15.8048 171.889 15.4381 171.063 15.3543 171.092C15.2705 171.122 15.5015 171.996 15.8701 173.045C16.2387 174.094 16.6054 174.921 16.6892 174.891Z" fill="#7D7D7D"/>
<path d="M16.6626 174.899C16.7463 174.869 16.5155 173.995 16.1469 172.946C15.7783 171.897 15.4115 171.07 15.3277 171.1C15.2439 171.129 15.4748 172.004 15.8435 173.053C16.2121 174.102 16.5788 174.928 16.6626 174.899Z" fill="#333333"/>
<path d="M16.6277 174.914C16.7114 174.885 16.4805 174.01 16.1119 172.961C15.7433 171.912 15.3766 171.086 15.2928 171.115C15.209 171.145 15.4399 172.019 15.8085 173.068C16.1772 174.117 16.5439 174.944 16.6277 174.914Z" fill="#7D7D7D"/>
<path d="M16.5854 174.927C16.6692 174.898 16.4383 174.024 16.0697 172.975C15.7011 171.925 15.3343 171.099 15.2506 171.128C15.1668 171.158 15.3977 172.032 15.7663 173.081C16.1349 174.13 16.5016 174.957 16.5854 174.927Z" fill="#333333"/>
<path d="M16.5471 174.943C16.6309 174.913 16.4 174.039 16.0313 172.99C15.6627 171.941 15.296 171.114 15.2122 171.144C15.1285 171.173 15.3594 172.047 15.728 173.097C16.0966 174.146 16.4633 174.972 16.5471 174.943Z" fill="#7D7D7D"/>
<path d="M16.4992 174.957C16.583 174.927 16.3521 174.053 15.9835 173.004C15.6149 171.955 15.2482 171.128 15.1644 171.158C15.0806 171.187 15.3115 172.062 15.6801 173.111C16.0487 174.16 16.4154 174.986 16.4992 174.957Z" fill="#333333"/>
<path d="M16.4575 174.973C16.5413 174.944 16.3104 174.07 15.9417 173.021C15.5731 171.972 15.2064 171.145 15.1226 171.174C15.0389 171.204 15.2698 172.078 15.6384 173.127C16.007 174.176 16.3737 175.003 16.4575 174.973Z" fill="#7D7D7D"/>
<path d="M16.4275 174.983C16.5112 174.954 16.2803 174.08 15.9117 173.031C15.5431 171.982 15.1764 171.155 15.0926 171.184C15.0088 171.214 15.2397 172.088 15.6083 173.137C15.977 174.186 16.3437 175.013 16.4275 174.983Z" fill="#333333"/>
<path d="M16.389 174.995C16.4727 174.966 16.2418 174.091 15.8732 173.042C15.5046 171.993 15.1379 171.167 15.0541 171.196C14.9703 171.226 15.2012 172.1 15.5698 173.149C15.9384 174.198 16.3052 175.025 16.389 174.995Z" fill="#7D7D7D"/>
<path d="M16.3581 175.004C16.4419 174.975 16.211 174.1 15.8424 173.051C15.4738 172.002 15.107 171.176 15.0233 171.205C14.9395 171.234 15.1704 172.109 15.539 173.158C15.9076 174.207 16.2743 175.033 16.3581 175.004Z" fill="#333333"/>
<path d="M16.323 175.02C16.4067 174.99 16.1758 174.116 15.8072 173.067C15.4386 172.018 15.0719 171.191 14.9881 171.221C14.9043 171.25 15.1352 172.124 15.5039 173.173C15.8725 174.222 16.2392 175.049 16.323 175.02Z" fill="#7D7D7D"/>
<path d="M16.2842 175.032C16.3679 175.002 16.137 174.128 15.7684 173.079C15.3998 172.03 15.0331 171.203 14.9493 171.233C14.8655 171.262 15.0964 172.136 15.465 173.185C15.8336 174.234 16.2004 175.061 16.2842 175.032Z" fill="#333333"/>
<path d="M16.2421 175.048C16.3259 175.019 16.095 174.144 15.7264 173.095C15.3578 172.046 14.9911 171.22 14.9073 171.249C14.8235 171.279 15.0544 172.153 15.423 173.202C15.7917 174.251 16.1584 175.078 16.2421 175.048Z" fill="#7D7D7D"/>
<path d="M16.1946 175.062C16.2783 175.033 16.0474 174.159 15.6788 173.109C15.3102 172.06 14.9435 171.234 14.8597 171.263C14.7759 171.293 15.0068 172.167 15.3754 173.216C15.744 174.265 16.1108 175.092 16.1946 175.062Z" fill="#333333"/>
<path d="M16.153 175.079C16.2368 175.049 16.0059 174.175 15.6373 173.126C15.2687 172.077 14.902 171.25 14.8182 171.28C14.7344 171.309 14.9653 172.183 15.3339 173.233C15.7025 174.282 16.0693 175.108 16.153 175.079Z" fill="#7D7D7D"/>
<path d="M16.1263 175.087C16.2101 175.058 15.9791 174.184 15.6105 173.135C15.2419 172.086 14.8752 171.259 14.7914 171.288C14.7076 171.318 14.9385 172.192 15.3071 173.241C15.6757 174.29 16.0425 175.117 16.1263 175.087Z" fill="#333333"/>
<path d="M16.0881 175.103C16.1719 175.073 15.941 174.199 15.5724 173.15C15.2037 172.101 14.837 171.274 14.7532 171.304C14.6695 171.333 14.9004 172.208 15.269 173.257C15.6376 174.306 16.0043 175.132 16.0881 175.103Z" fill="#7D7D7D"/>
<path d="M16.0632 175.111C16.147 175.081 15.9161 174.207 15.5475 173.158C15.1788 172.109 14.8121 171.282 14.7283 171.312C14.6446 171.341 14.8755 172.215 15.2441 173.264C15.6127 174.314 15.9794 175.14 16.0632 175.111Z" fill="#333333"/>
<path d="M16.0215 175.124C16.1052 175.094 15.8743 174.22 15.5057 173.171C15.1371 172.122 14.7704 171.295 14.6866 171.325C14.6028 171.354 14.8337 172.228 15.2023 173.277C15.571 174.326 15.9377 175.153 16.0215 175.124Z" fill="#7D7D7D"/>
<path d="M15.9829 175.136C16.0666 175.106 15.8357 174.232 15.4671 173.183C15.0985 172.134 14.7318 171.307 14.648 171.337C14.5642 171.366 14.7951 172.24 15.1638 173.289C15.5324 174.339 15.8991 175.165 15.9829 175.136Z" fill="#333333"/>
<path d="M15.9441 175.151C16.0279 175.122 15.797 174.247 15.4284 173.198C15.0598 172.149 14.6931 171.323 14.6093 171.352C14.5255 171.382 14.7563 172.256 15.125 173.305C15.4936 174.354 15.8604 175.181 15.9441 175.151Z" fill="#7D7D7D"/>
<path d="M15.8933 175.17C15.9771 175.14 15.7461 174.266 15.3775 173.217C15.0089 172.168 14.6422 171.341 14.5584 171.371C14.4746 171.4 14.7056 172.275 15.0742 173.324C15.4428 174.373 15.8095 175.199 15.8933 175.17Z" fill="#333333"/>
<path d="M15.8548 175.182C15.9386 175.152 15.7076 174.278 15.339 173.229C14.9704 172.18 14.6037 171.354 14.5199 171.383C14.4361 171.412 14.667 172.287 15.0356 173.336C15.4042 174.385 15.771 175.211 15.8548 175.182Z" fill="#7D7D7D"/>
<path d="M15.8217 175.193C15.9055 175.163 15.6746 174.289 15.306 173.24C14.9374 172.191 14.5707 171.364 14.4869 171.394C14.4031 171.423 14.634 172.298 15.0026 173.347C15.3712 174.396 15.738 175.222 15.8217 175.193Z" fill="#333333"/>
<path d="M15.7832 175.208C15.867 175.179 15.6361 174.305 15.2675 173.256C14.8989 172.206 14.5321 171.38 14.4483 171.409C14.3645 171.439 14.5955 172.313 14.9641 173.362C15.3327 174.411 15.6994 175.238 15.7832 175.208Z" fill="#7D7D7D"/>
<path d="M15.7602 175.216C15.844 175.186 15.6131 174.312 15.2445 173.263C14.8759 172.214 14.5091 171.387 14.4254 171.417C14.3416 171.446 14.5725 172.321 14.9411 173.37C15.3097 174.419 15.6764 175.245 15.7602 175.216Z" fill="#333333"/>
<path d="M15.7214 175.231C15.8052 175.202 15.5743 174.328 15.2057 173.279C14.837 172.229 14.4703 171.403 14.3865 171.432C14.3028 171.462 14.5337 172.336 14.9023 173.385C15.2709 174.434 15.6376 175.261 15.7214 175.231Z" fill="#7D7D7D"/>
<path d="M15.6794 175.244C15.7632 175.215 15.5323 174.341 15.1637 173.292C14.7951 172.243 14.4283 171.416 14.3446 171.445C14.2608 171.475 14.4917 172.349 14.8603 173.398C15.2289 174.447 15.5956 175.274 15.6794 175.244Z" fill="#333333"/>
<path d="M15.6408 175.26C15.7246 175.23 15.4937 174.356 15.1251 173.307C14.7565 172.258 14.3898 171.431 14.306 171.461C14.2222 171.49 14.4531 172.365 14.8217 173.414C15.1903 174.463 15.5571 175.289 15.6408 175.26Z" fill="#7D7D7D"/>
<path d="M15.5901 175.279C15.6738 175.249 15.4429 174.375 15.0743 173.326C14.7057 172.277 14.339 171.45 14.2552 171.48C14.1714 171.509 14.4023 172.383 14.7709 173.432C15.1396 174.481 15.5063 175.308 15.5901 175.279Z" fill="#333333"/>
<path d="M15.5512 175.291C15.635 175.261 15.4041 174.387 15.0355 173.338C14.6669 172.289 14.3002 171.462 14.2164 171.492C14.1326 171.521 14.3635 172.395 14.7321 173.444C15.1007 174.493 15.4675 175.32 15.5512 175.291Z" fill="#7D7D7D"/>
<path d="M15.5125 175.306C15.5963 175.277 15.3654 174.402 14.9968 173.353C14.6281 172.304 14.2614 171.478 14.1776 171.507C14.0939 171.536 14.3247 172.411 14.6933 173.46C15.0619 174.509 15.4287 175.335 15.5125 175.306Z" fill="#333333"/>
<path d="M15.4743 175.319C15.5581 175.29 15.3272 174.415 14.9586 173.366C14.59 172.317 14.2233 171.491 14.1395 171.52C14.0557 171.55 14.2866 172.424 14.6552 173.473C15.0238 174.522 15.3906 175.349 15.4743 175.319Z" fill="#7D7D7D"/>
<path d="M15.4465 175.327C15.5303 175.297 15.2994 174.423 14.9308 173.374C14.5621 172.325 14.1954 171.498 14.1116 171.528C14.0279 171.557 14.2588 172.432 14.6274 173.481C14.996 174.53 15.3627 175.356 15.4465 175.327Z" fill="#333333"/>
<path d="M15.4082 175.339C15.492 175.309 15.261 174.435 14.8924 173.386C14.5238 172.337 14.1571 171.51 14.0733 171.54C13.9895 171.569 14.2205 172.443 14.5891 173.493C14.9577 174.542 15.3244 175.368 15.4082 175.339Z" fill="#7D7D7D"/>
<path d="M15.3659 175.355C15.4497 175.326 15.2188 174.452 14.8502 173.403C14.4816 172.354 14.1149 171.527 14.0311 171.556C13.9473 171.586 14.1782 172.46 14.5468 173.509C14.9154 174.558 15.2821 175.385 15.3659 175.355Z" fill="#333333"/>
<path d="M15.3274 175.367C15.4111 175.338 15.1802 174.464 14.8116 173.415C14.443 172.366 14.0763 171.539 13.9925 171.568C13.9087 171.598 14.1396 172.472 14.5083 173.521C14.8769 174.57 15.2436 175.397 15.3274 175.367Z" fill="#7D7D7D"/>
<path d="M15.28 175.386C15.3638 175.357 15.1329 174.482 14.7643 173.433C14.3956 172.384 14.0289 171.558 13.9451 171.587C13.8614 171.617 14.0923 172.491 14.4609 173.54C14.8295 174.589 15.1962 175.416 15.28 175.386Z" fill="#333333"/>
<path d="M15.2414 175.398C15.3252 175.369 15.0943 174.494 14.7257 173.445C14.3571 172.396 13.9903 171.57 13.9066 171.599C13.8228 171.628 14.0537 172.503 14.4223 173.552C14.7909 174.601 15.1576 175.427 15.2414 175.398Z" fill="#7D7D7D"/>
<path d="M15.2082 175.411C15.292 175.382 15.0611 174.508 14.6925 173.459C14.3239 172.409 13.9571 171.583 13.8734 171.612C13.7896 171.642 14.0205 172.516 14.3891 173.565C14.7577 174.614 15.1244 175.441 15.2082 175.411Z" fill="#333333"/>
<path d="M15.1697 175.425C15.2535 175.395 15.0226 174.521 14.654 173.472C14.2854 172.423 13.9186 171.596 13.8349 171.626C13.7511 171.655 13.9819 172.529 14.3505 173.578C14.7191 174.627 15.086 175.454 15.1697 175.425Z" fill="#7D7D7D"/>
<path d="M15.1433 175.436C15.2271 175.406 14.9961 174.532 14.6275 173.483C14.2589 172.434 13.8922 171.607 13.8084 171.637C13.7246 171.666 13.9556 172.54 14.3242 173.589C14.6928 174.639 15.0595 175.465 15.1433 175.436Z" fill="#333333"/>
<path d="M15.1047 175.447C15.1885 175.418 14.9576 174.544 14.589 173.495C14.2204 172.446 13.8536 171.619 13.7698 171.648C13.6861 171.678 13.917 172.552 14.2856 173.601C14.6542 174.65 15.0209 175.477 15.1047 175.447Z" fill="#7D7D7D"/>
<path d="M15.0627 175.464C15.1465 175.435 14.9156 174.56 14.547 173.511C14.1784 172.462 13.8116 171.636 13.7279 171.665C13.6441 171.694 13.875 172.569 14.2436 173.618C14.6122 174.667 14.9789 175.493 15.0627 175.464Z" fill="#333333"/>
<path d="M15.0237 175.476C15.1074 175.446 14.8765 174.572 14.5079 173.523C14.1393 172.474 13.7726 171.647 13.6888 171.677C13.605 171.706 13.8359 172.581 14.2045 173.63C14.5732 174.679 14.9399 175.505 15.0237 175.476Z" fill="#7D7D7D"/>
<path d="M14.9787 175.49C15.0625 175.461 14.8316 174.587 14.463 173.538C14.0944 172.488 13.7277 171.662 13.6439 171.691C13.5601 171.721 13.791 172.595 14.1596 173.644C14.5282 174.693 14.895 175.52 14.9787 175.49Z" fill="#333333"/>
<path d="M14.9363 175.503C15.02 175.474 14.7891 174.6 14.4205 173.55C14.0519 172.501 13.6852 171.675 13.6014 171.704C13.5176 171.734 13.7485 172.608 14.1171 173.657C14.4857 174.706 14.8525 175.533 14.9363 175.503Z" fill="#7D7D7D"/>
<path d="M14.9014 175.518C14.9852 175.488 14.7543 174.614 14.3857 173.565C14.0171 172.516 13.6503 171.689 13.5666 171.719C13.4828 171.748 13.7136 172.622 14.0822 173.671C14.4508 174.721 14.8176 175.547 14.9014 175.518Z" fill="#333333"/>
<path d="M14.863 175.533C14.9468 175.504 14.7159 174.629 14.3472 173.58C13.9786 172.531 13.6119 171.705 13.5281 171.734C13.4444 171.764 13.6753 172.638 14.0439 173.687C14.4125 174.736 14.7792 175.563 14.863 175.533Z" fill="#7D7D7D"/>
<path d="M14.8352 175.538C14.919 175.509 14.688 174.635 14.3194 173.586C13.9508 172.537 13.5841 171.71 13.5003 171.739C13.4165 171.769 13.6475 172.643 14.0161 173.692C14.3847 174.741 14.7514 175.568 14.8352 175.538Z" fill="#333333"/>
<path d="M14.7966 175.554C14.8804 175.525 14.6495 174.65 14.2809 173.601C13.9122 172.552 13.5455 171.726 13.4617 171.755C13.378 171.784 13.6089 172.659 13.9775 173.708C14.3461 174.757 14.7128 175.583 14.7966 175.554Z" fill="#7D7D7D"/>
<path d="M14.758 175.566C14.8418 175.536 14.6109 174.662 14.2423 173.613C13.8737 172.564 13.5069 171.737 13.4232 171.767C13.3394 171.796 13.5703 172.671 13.9389 173.72C14.3075 174.769 14.6742 175.595 14.758 175.566Z" fill="#333333"/>
<path d="M14.716 175.582C14.7998 175.553 14.5689 174.679 14.2003 173.63C13.8317 172.581 13.465 171.754 13.3812 171.783C13.2974 171.813 13.5283 172.687 13.8969 173.736C14.2655 174.785 14.6323 175.612 14.716 175.582Z" fill="#7D7D7D"/>
<path d="M14.6718 175.6C14.7556 175.571 14.5247 174.696 14.1561 173.647C13.7875 172.598 13.4208 171.772 13.337 171.801C13.2532 171.831 13.4841 172.705 13.8527 173.754C14.2213 174.803 14.5881 175.63 14.6718 175.6Z" fill="#333333"/>
<path d="M14.6334 175.612C14.7171 175.583 14.4862 174.708 14.1176 173.659C13.749 172.61 13.3823 171.784 13.2985 171.813C13.2147 171.842 13.4455 172.717 13.8142 173.766C14.1828 174.815 14.5496 175.641 14.6334 175.612Z" fill="#7D7D7D"/>
<path d="M14.5969 175.623C14.6807 175.594 14.4498 174.719 14.0811 173.67C13.7125 172.621 13.3458 171.795 13.262 171.824C13.1783 171.853 13.4092 172.728 13.7778 173.777C14.1464 174.826 14.5131 175.652 14.5969 175.623Z" fill="#333333"/>
<path d="M14.5583 175.639C14.6421 175.609 14.4113 174.735 14.0427 173.686C13.674 172.637 13.3072 171.81 13.2235 171.84C13.1397 171.869 13.3706 172.743 13.7392 173.792C14.1078 174.841 14.4745 175.668 14.5583 175.639Z" fill="#7D7D7D"/>
<path d="M14.5354 175.646C14.6192 175.616 14.3882 174.742 14.0196 173.693C13.651 172.644 13.2843 171.817 13.2005 171.847C13.1167 171.876 13.3476 172.751 13.7163 173.8C14.0849 174.849 14.4516 175.675 14.5354 175.646Z" fill="#333333"/>
<path d="M14.4934 175.663C14.5771 175.633 14.3462 174.759 13.9776 173.71C13.609 172.661 13.2423 171.834 13.1585 171.864C13.0747 171.893 13.3056 172.767 13.6743 173.816C14.0429 174.866 14.4096 175.692 14.4934 175.663Z" fill="#7D7D7D"/>
<path d="M14.4543 175.675C14.5381 175.645 14.3072 174.771 13.9386 173.722C13.57 172.673 13.2032 171.846 13.1195 171.876C13.0357 171.905 13.2666 172.779 13.6352 173.828C14.0038 174.877 14.3705 175.704 14.4543 175.675Z" fill="#333333"/>
<path d="M14.4126 175.691C14.4963 175.662 14.2654 174.787 13.8968 173.738C13.5282 172.689 13.1615 171.863 13.0777 171.892C12.9939 171.922 13.2248 172.796 13.5935 173.845C13.9621 174.894 14.3288 175.721 14.4126 175.691Z" fill="#7D7D7D"/>
<path d="M9.72114 175.31C9.80461 175.281 9.5748 174.41 9.20786 173.364C8.84092 172.319 8.47581 171.496 8.39234 171.525C8.30887 171.554 8.53866 172.425 8.9056 173.471C9.27254 174.516 9.63766 175.339 9.72114 175.31Z" fill="#333333"/>
<path d="M14.3298 175.721C14.4136 175.691 14.1827 174.817 13.8141 173.768C13.4454 172.719 13.0787 171.892 12.9949 171.922C12.9112 171.951 13.1421 172.826 13.5107 173.875C13.8793 174.924 14.246 175.75 14.3298 175.721Z" fill="#7D7D7D"/>
<path d="M9.64091 175.335C9.72438 175.305 9.49457 174.434 9.12763 173.389C8.76069 172.344 8.39557 171.52 8.3121 171.55C8.22862 171.579 8.45835 172.45 8.82529 173.495C9.19223 174.541 9.55744 175.364 9.64091 175.335Z" fill="#333333"/>
<path d="M14.2497 175.749C14.3335 175.72 14.1026 174.846 13.734 173.797C13.3654 172.747 12.9986 171.921 12.9149 171.95C12.8311 171.98 13.062 172.854 13.4306 173.903C13.7992 174.952 14.1659 175.779 14.2497 175.749Z" fill="#7D7D7D"/>
<path d="M14.2253 175.757C14.3091 175.728 14.0782 174.853 13.7096 173.804C13.341 172.755 12.9742 171.928 12.8905 171.958C12.8067 171.987 13.0376 172.862 13.4062 173.911C13.7748 174.96 14.1415 175.786 14.2253 175.757Z" fill="#333333"/>
<path d="M14.1833 175.77C14.2671 175.741 14.0362 174.866 13.6676 173.817C13.299 172.768 12.9322 171.942 12.8485 171.971C12.7647 172 12.9956 172.875 13.3642 173.924C13.7328 174.973 14.0995 175.799 14.1833 175.77Z" fill="#7D7D7D"/>
<path d="M14.1447 175.786C14.2285 175.756 13.9976 174.882 13.629 173.833C13.2604 172.784 12.8937 171.957 12.8099 171.987C12.7261 172.016 12.957 172.89 13.3256 173.939C13.6942 174.988 14.061 175.815 14.1447 175.786Z" fill="#333333"/>
<path d="M14.1062 175.797C14.19 175.768 13.959 174.894 13.5904 173.845C13.2218 172.796 12.8551 171.969 12.7713 171.998C12.6875 172.028 12.9184 172.902 13.2871 173.951C13.6557 175 14.0224 175.827 14.1062 175.797Z" fill="#7D7D7D"/>
<path d="M14.0549 175.816C14.1387 175.787 13.9078 174.913 13.5392 173.863C13.1705 172.814 12.8038 171.988 12.72 172.017C12.6363 172.047 12.8672 172.921 13.2358 173.97C13.6044 175.019 13.9711 175.846 14.0549 175.816Z" fill="#333333"/>
<path d="M14.0202 175.828C14.104 175.799 13.8731 174.924 13.5045 173.875C13.1359 172.826 12.7692 172 12.6854 172.029C12.6016 172.059 12.8325 172.933 13.2011 173.982C13.5697 175.031 13.9365 175.858 14.0202 175.828Z" fill="#7D7D7D"/>
<path d="M13.9834 175.839C14.0672 175.81 13.8362 174.935 13.4676 173.886C13.099 172.837 12.7323 172.011 12.6485 172.04C12.5647 172.07 12.7956 172.944 13.1643 173.993C13.5329 175.042 13.8996 175.869 13.9834 175.839Z" fill="#333333"/>
<path d="M13.9451 175.855C14.0289 175.825 13.798 174.951 13.4294 173.902C13.0608 172.853 12.694 172.026 12.6103 172.056C12.5265 172.085 12.7573 172.959 13.1259 174.008C13.4945 175.057 13.8613 175.884 13.9451 175.855Z" fill="#7D7D7D"/>
<path d="M13.9216 175.866C14.0054 175.836 13.7745 174.962 13.4059 173.913C13.0372 172.864 12.6705 172.037 12.5867 172.067C12.503 172.096 12.7339 172.97 13.1025 174.019C13.4711 175.068 13.8378 175.895 13.9216 175.866Z" fill="#333333"/>
<path d="M13.8796 175.879C13.9634 175.849 13.7325 174.975 13.3639 173.926C12.9953 172.877 12.6285 172.05 12.5447 172.08C12.461 172.109 12.6919 172.983 13.0605 174.033C13.4291 175.082 13.7958 175.908 13.8796 175.879Z" fill="#7D7D7D"/>
<path d="M13.8413 175.894C13.9251 175.865 13.6941 174.99 13.3255 173.941C12.9569 172.892 12.5902 172.066 12.5064 172.095C12.4226 172.125 12.6536 172.999 13.0222 174.048C13.3908 175.097 13.7575 175.924 13.8413 175.894Z" fill="#333333"/>
<path d="M13.8025 175.906C13.8862 175.877 13.6553 175.002 13.2867 173.953C12.9181 172.904 12.5514 172.078 12.4676 172.107C12.3838 172.137 12.6147 173.011 12.9833 174.06C13.352 175.109 13.7187 175.936 13.8025 175.906Z" fill="#7D7D7D"/>
<path d="M13.7507 175.922C13.8345 175.892 13.6036 175.018 13.235 173.969C12.8663 172.92 12.4996 172.093 12.4158 172.123C12.3321 172.152 12.563 173.026 12.9316 174.075C13.3002 175.124 13.6669 175.951 13.7507 175.922Z" fill="#333333"/>
<path d="M13.7119 175.934C13.7957 175.904 13.5648 175.03 13.1961 173.981C12.8275 172.932 12.4608 172.105 12.377 172.135C12.2932 172.164 12.5242 173.038 12.8928 174.087C13.2614 175.137 13.6281 175.963 13.7119 175.934Z" fill="#7D7D7D"/>
<path d="M13.68 175.948C13.7638 175.918 13.5328 175.044 13.1642 173.995C12.7956 172.946 12.4289 172.119 12.3451 172.149C12.2613 172.178 12.4922 173.053 12.8608 174.102C13.2294 175.151 13.5962 175.977 13.68 175.948Z" fill="#333333"/>
<path d="M8.9916 53.9779L6.16594 54C6.03049 54.0004 5.89629 53.9788 5.77098 53.9365C5.64567 53.8943 5.53175 53.8321 5.43565 53.7537C5.33956 53.6752 5.26314 53.582 5.2109 53.4792C5.15866 53.3765 5.13161 53.2664 5.13117 53.1551L5.00009 42.8836C4.99647 42.6599 5.10024 42.4441 5.28891 42.2828C5.47757 42.1216 5.73593 42.0279 6.00804 42.0221L8.83362 42C9.10373 41.9992 9.36351 42.0856 9.55701 42.2405C9.75051 42.3953 9.86231 42.6064 9.86847 42.8284L9.99955 53.1026C10.0036 53.2145 9.98065 53.326 9.93212 53.4306C9.8836 53.5353 9.81037 53.631 9.71672 53.7123C9.62307 53.7936 9.51084 53.859 9.3864 53.9045C9.26195 53.9501 9.1278 53.975 8.9916 53.9779Z" fill="#677E85"/>
<path d="M8.29918 42.2213L6.78223 42.2332L6.93572 53.959L8.45267 53.9471L8.29918 42.2213Z" fill="#4D656E"/>
</svg>
