<svg width="24" height="24" viewBox="0 0 24 24" fill="none" xmlns="http://www.w3.org/2000/svg">
<path d="M5.625 6.75C6.24632 6.75 6.75 6.24632 6.75 5.625C6.75 5.00368 6.24632 4.5 5.625 4.5C5.00368 4.5 4.5 5.00368 4.5 5.625C4.5 6.24632 5.00368 6.75 5.625 6.75Z" fill="white"/>
<path d="M12 6.75C12.6213 6.75 13.125 6.24632 13.125 5.625C13.125 5.00368 12.6213 4.5 12 4.5C11.3787 4.5 10.875 5.00368 10.875 5.625C10.875 6.24632 11.3787 6.75 12 6.75Z" fill="white"/>
<path d="M18.375 6.75C18.9963 6.75 19.5 6.24632 19.5 5.625C19.5 5.00368 18.9963 4.5 18.375 4.5C17.7537 4.5 17.25 5.00368 17.25 5.625C17.25 6.24632 17.7537 6.75 18.375 6.75Z" fill="white"/>
<path d="M5.625 13.125C6.24632 13.125 6.75 12.6213 6.75 12C6.75 11.3787 6.24632 10.875 5.625 10.875C5.00368 10.875 4.5 11.3787 4.5 12C4.5 12.6213 5.00368 13.125 5.625 13.125Z" fill="white"/>
<path d="M12 13.125C12.6213 13.125 13.125 12.6213 13.125 12C13.125 11.3787 12.6213 10.875 12 10.875C11.3787 10.875 10.875 11.3787 10.875 12C10.875 12.6213 11.3787 13.125 12 13.125Z" fill="white"/>
<path d="M18.375 13.125C18.9963 13.125 19.5 12.6213 19.5 12C19.5 11.3787 18.9963 10.875 18.375 10.875C17.7537 10.875 17.25 11.3787 17.25 12C17.25 12.6213 17.7537 13.125 18.375 13.125Z" fill="white"/>
<path d="M5.625 19.5C6.24632 19.5 6.75 18.9963 6.75 18.375C6.75 17.7537 6.24632 17.25 5.625 17.25C5.00368 17.25 4.5 17.7537 4.5 18.375C4.5 18.9963 5.00368 19.5 5.625 19.5Z" fill="white"/>
<path d="M12 19.5C12.6213 19.5 13.125 18.9963 13.125 18.375C13.125 17.7537 12.6213 17.25 12 17.25C11.3787 17.25 10.875 17.7537 10.875 18.375C10.875 18.9963 11.3787 19.5 12 19.5Z" fill="white"/>
<path d="M18.375 19.5C18.9963 19.5 19.5 18.9963 19.5 18.375C19.5 17.7537 18.9963 17.25 18.375 17.25C17.7537 17.25 17.25 17.7537 17.25 18.375C17.25 18.9963 17.7537 19.5 18.375 19.5Z" fill="white"/>
</svg>
