<svg width="24" height="24" viewBox="0 0 24 24" fill="none" xmlns="http://www.w3.org/2000/svg">
<path d="M18.7502 21H5.24951C5.0506 21 4.85983 20.921 4.71918 20.7803C4.57853 20.6397 4.49951 20.4489 4.49951 20.25V3.75C4.49951 3.55109 4.57853 3.36032 4.71918 3.21967C4.85983 3.07902 5.0506 3 5.24951 3H14.2502L19.5002 8.25V20.25C19.5002 20.3485 19.4808 20.446 19.4432 20.537C19.4055 20.628 19.3502 20.7107 19.2806 20.7803C19.2109 20.85 19.1283 20.9052 19.0373 20.9429C18.9463 20.9806 18.8487 21 18.7502 21Z" stroke="#464E5F" stroke-linecap="round" stroke-linejoin="round"/>
<path d="M14.25 3V8.25H19.5007" stroke="#464E5F" stroke-linecap="round" stroke-linejoin="round"/>
<path d="M9 12.75H15" stroke="#464E5F" stroke-linecap="round" stroke-linejoin="round"/>
<path d="M9 15.75H15" stroke="#464E5F" stroke-linecap="round" stroke-linejoin="round"/>
</svg>
