<svg width="17" height="16" viewBox="0 0 17 16" fill="none" xmlns="http://www.w3.org/2000/svg">
<path d="M7.14472 1.66737H7.3829C7.49135 1.66737 7.58133 1.57739 7.58133 1.46894C7.58133 1.36049 7.49135 1.27051 7.3829 1.27051H7.14472C7.03627 1.27051 6.94629 1.36049 6.94629 1.46894C6.94629 1.57739 7.03627 1.66737 7.14472 1.66737Z" fill="#464E5F"/>
<path d="M8.23017 1.66737H8.46835C8.5768 1.66737 8.66678 1.57739 8.66678 1.46894C8.66678 1.36049 8.5768 1.27051 8.46835 1.27051H8.23017C8.12172 1.27051 8.03174 1.36049 8.03174 1.46894C8.03161 1.57739 8.12158 1.66737 8.23017 1.66737Z" fill="#464E5F"/>
<path d="M9.31757 1.66737H9.55575C9.6642 1.66737 9.75418 1.57739 9.75418 1.46894C9.75418 1.36049 9.6642 1.27051 9.55575 1.27051H9.31757C9.20912 1.27051 9.11914 1.36049 9.11914 1.46894C9.11914 1.57739 9.20646 1.66737 9.31757 1.66737Z" fill="#464E5F"/>
<path d="M4.73685 7.30127H1.57441C1.46596 7.30127 1.37598 7.39125 1.37598 7.4997C1.37598 7.60816 1.46596 7.69814 1.57441 7.69814H4.73685C4.8453 7.69814 4.93528 7.60816 4.93528 7.4997C4.93528 7.39125 4.84796 7.30127 4.73685 7.30127Z" fill="#464E5F"/>
<path d="M4.50385 8.56128H3.3288C3.22035 8.56128 3.13037 8.65126 3.13037 8.75971C3.13037 8.86817 3.22035 8.95815 3.3288 8.95815H4.50385C4.61231 8.95815 4.70228 8.86817 4.70228 8.75971C4.70228 8.65126 4.61231 8.56128 4.50385 8.56128Z" fill="#464E5F"/>
<path d="M2.35246 8.56128H1.57441C1.46595 8.56128 1.37598 8.65126 1.37598 8.75971C1.37598 8.86817 1.46595 8.95815 1.57441 8.95815H2.35246C2.46091 8.95815 2.55089 8.86817 2.55089 8.75971C2.55102 8.65126 2.46104 8.56128 2.35246 8.56128Z" fill="#464E5F"/>
<path d="M16.8046 7.96039V7.95773V6.44138C16.8046 5.75595 16.2489 5.20025 15.5634 5.20025H11.2049V1.24112C11.2049 0.555694 10.6465 0 9.96373 0H1.24112C0.555694 0 0 0.558348 0 1.24112V9.55611C0 10.2415 0.558348 10.7972 1.24112 10.7972H5.60243V14.7536C5.60243 15.4391 6.16078 15.9948 6.84355 15.9948H15.5634C16.2462 15.9948 16.8046 15.4364 16.8046 14.7536V7.96569V7.96038V7.96039ZM16.4076 6.44135V7.76192H5.99936V6.44135C5.99936 5.97562 6.37775 5.59712 6.84359 5.59712H9.62498H9.62764H9.6303H11.0011H11.0038H11.0064H15.561C16.0294 5.5946 16.4078 5.97565 16.4078 6.44135H16.4076ZM9.43179 5.19757H6.84631C6.29327 5.19757 5.83009 5.56279 5.66874 6.06027H1.77324V4.46457H9.42917V5.19757H9.43179ZM1.24133 0.394284H9.96121C10.4269 0.394284 10.8054 0.772674 10.8054 1.23851V2.55908H4.70002L4.28985 1.97695C4.25277 1.92405 4.1919 1.89229 4.12837 1.89229H1.99542C1.99276 1.89229 1.9901 1.89494 1.98744 1.89494C1.97163 1.89494 1.95834 1.90026 1.94504 1.90292C1.93441 1.90558 1.92391 1.90823 1.91328 1.91089C1.90265 1.91621 1.89215 1.92418 1.88417 1.93203C1.87354 1.94 1.86038 1.94784 1.85241 1.95847C1.84975 1.96113 1.84709 1.96113 1.84709 1.96379L1.34165 2.56188L0.397054 2.56175V1.24117C0.397054 0.775442 0.775444 0.394262 1.24128 0.394262L1.24133 0.394284ZM1.24133 10.4003C0.775596 10.4003 0.397104 10.0219 0.397104 9.55608V2.95867H1.42915C1.48736 2.95867 1.54292 2.93222 1.58 2.88716L2.08544 2.28907H4.02526L4.43543 2.8712C4.47251 2.9241 4.53338 2.95587 4.59692 2.95587H10.8027V5.19474H9.82357V4.26596C9.82357 4.15751 9.73359 4.06753 9.62514 4.06753H1.57486C1.46641 4.06753 1.37643 4.15751 1.37643 4.26596V6.25866C1.37643 6.36711 1.46641 6.45709 1.57486 6.45709H5.60272V10.3975H1.24142L1.24133 10.4003ZM15.5634 15.6007H6.84352C6.37779 15.6007 5.99929 15.2223 5.99929 14.7564L5.99943 8.15902H16.4076V14.7537C16.4075 15.2194 16.0291 15.6006 15.5633 15.6006L15.5634 15.6007Z" fill="#464E5F"/>
<path d="M12.7473 6.86757H12.9854C13.0939 6.86757 13.1839 6.77759 13.1839 6.66914C13.1839 6.56068 13.0939 6.4707 12.9854 6.4707H12.7473C12.6388 6.4707 12.5488 6.56068 12.5488 6.66914C12.5488 6.77759 12.6361 6.86757 12.7473 6.86757Z" fill="#464E5F"/>
<path d="M13.8327 6.86757H14.0709C14.1793 6.86757 14.2693 6.77759 14.2693 6.66914C14.2693 6.56068 14.1793 6.4707 14.0709 6.4707H13.8327C13.7243 6.4707 13.6343 6.56068 13.6343 6.66914C13.6341 6.77759 13.7241 6.86757 13.8327 6.86757Z" fill="#464E5F"/>
<path d="M14.9177 6.86757H15.1558C15.2643 6.86757 15.3543 6.77759 15.3543 6.66914C15.3543 6.56068 15.2643 6.4707 15.1558 6.4707H14.9177C14.8092 6.4707 14.7192 6.56068 14.7192 6.66914C14.7192 6.77759 14.8092 6.86757 14.9177 6.86757Z" fill="#464E5F"/>
<path d="M15.2325 12.5017H14.2692C14.1608 12.5017 14.0708 12.5917 14.0708 12.7001C14.0708 12.8086 14.1608 12.8986 14.2692 12.8986H15.2325C15.341 12.8986 15.431 12.8086 15.431 12.7001C15.431 12.5917 15.341 12.5017 15.2325 12.5017Z" fill="#464E5F"/>
<path d="M7.17402 12.8983H13.29C13.3984 12.8983 13.4884 12.8084 13.4884 12.6999C13.4884 12.5914 13.3984 12.5015 13.29 12.5015H7.17402C7.06556 12.5015 6.97559 12.5914 6.97559 12.6999C6.97559 12.8084 7.06556 12.8983 7.17402 12.8983Z" fill="#464E5F"/>
<path d="M15.2324 13.7612H8.93134C8.82289 13.7612 8.73291 13.8512 8.73291 13.9597C8.73291 14.0681 8.82289 14.1581 8.93134 14.1581H15.2324C15.3409 14.1581 15.4308 14.0681 15.4308 13.9597C15.431 13.8512 15.341 13.7612 15.2325 13.7612H15.2324Z" fill="#464E5F"/>
<path d="M7.95255 13.7612H7.17451C7.06605 13.7612 6.97607 13.8512 6.97607 13.9597C6.97607 14.0681 7.06605 14.1581 7.17451 14.1581H7.95255C8.06101 14.1581 8.15099 14.0681 8.15099 13.9597C8.15099 13.8512 8.06101 13.7612 7.95255 13.7612Z" fill="#464E5F"/>
<path d="M7.17402 11.6365H9.0741C9.18256 11.6365 9.27253 11.5466 9.27253 11.4381V9.53803C9.27253 9.42958 9.18256 9.3396 9.0741 9.3396H7.17402C7.06556 9.3396 6.97559 9.42958 6.97559 9.53803V11.438C6.97559 11.5466 7.06556 11.6365 7.17402 11.6365V11.6365ZM7.37258 9.73647H8.8758V11.2397H7.37258V9.73647Z" fill="#464E5F"/>
<path d="M10.2547 11.6364H12.1548C12.2633 11.6364 12.3532 11.5465 12.3532 11.438V9.53792C12.3532 9.42947 12.2633 9.33949 12.1548 9.33949L10.2547 9.33936C10.1463 9.33936 10.0563 9.42933 10.0563 9.53779L10.0562 11.4379C10.0562 11.5465 10.1436 11.6364 10.2547 11.6364L10.2547 11.6364ZM10.4532 9.73635H11.9564V11.2396H10.4532V9.73635Z" fill="#464E5F"/>
<path d="M13.3322 11.6365H15.2323C15.3408 11.6365 15.4307 11.5466 15.4307 11.4381V9.53803C15.4307 9.42958 15.3408 9.3396 15.2323 9.3396H13.3322C13.2238 9.3396 13.1338 9.42958 13.1338 9.53803V11.438C13.1338 11.5466 13.2211 11.6365 13.3322 11.6365V11.6365ZM13.5308 9.73647H15.034V11.2397H13.5308V9.73647Z" fill="#464E5F"/>
<path d="M4.81648 12.5543L4.004 11.8107C3.92466 11.7366 3.79759 11.7419 3.72343 11.824C3.64927 11.906 3.65458 12.0304 3.73672 12.1046L4.17333 12.5042L1.23603 12.5041C1.12758 12.5041 1.0376 12.5941 1.0376 12.7025C1.0376 12.811 1.12758 12.901 1.23603 12.901H4.1603L3.73951 13.2715C3.6575 13.343 3.64953 13.47 3.72104 13.5521C3.76078 13.597 3.81368 13.6183 3.86923 13.6183C3.91681 13.6183 3.96187 13.6025 4.00161 13.5681L4.81409 12.8509L4.82206 12.8429C4.82738 12.8376 4.83004 12.8296 4.83535 12.8244C4.84599 12.8111 4.85914 12.7953 4.86446 12.7795C4.86978 12.7689 4.86978 12.7557 4.87243 12.7451C4.87509 12.7318 4.88041 12.7186 4.88041 12.7053V12.7027V12.7C4.88267 12.6417 4.85622 12.5914 4.81648 12.5544L4.81648 12.5543Z" fill="#464E5F"/>
<path d="M4.68366 14.8568H1.75939L2.18018 14.4862C2.26218 14.4147 2.27016 14.2878 2.19865 14.2057C2.12715 14.1237 2.00022 14.1157 1.91808 14.1872L1.1056 14.9044C1.10294 14.907 1.10028 14.9123 1.09763 14.915C1.09231 14.9203 1.08965 14.9256 1.08699 14.9308C1.0737 14.9466 1.0632 14.9599 1.05523 14.9784C1.04991 14.989 1.04991 14.9995 1.04725 15.0102C1.0446 15.0234 1.03928 15.0366 1.03662 15.0526V15.0552V15.0579C1.03662 15.1161 1.06307 15.1663 1.10281 15.2034L1.91529 15.947C1.95237 15.9814 2.00261 15.9999 2.05019 15.9999C2.10309 15.9999 2.15864 15.9788 2.19573 15.9364C2.26989 15.8544 2.26457 15.73 2.18243 15.6558L1.74848 15.2562H4.68326C4.79171 15.2562 4.88169 15.1662 4.88169 15.0577C4.88209 14.9493 4.79211 14.8568 4.68366 14.8568V14.8568Z" fill="#464E5F"/>
<path d="M12.152 4.79767C12.2605 4.79767 12.3505 4.70769 12.3505 4.59924V4.06733C12.3505 3.95888 12.2605 3.8689 12.152 3.8689C12.0436 3.8689 11.9536 3.95888 11.9536 4.06733V4.59924C11.9536 4.70769 12.0436 4.79767 12.152 4.79767Z" fill="#464E5F"/>
<path d="M12.152 3.51469C12.2605 3.51469 12.3505 3.42471 12.3505 3.31626V1.33418C12.3505 1.22572 12.2605 1.13574 12.152 1.13574C12.0436 1.13574 11.9536 1.22572 11.9536 1.33418V3.31626C11.9536 3.42737 12.0436 3.51469 12.152 3.51469Z" fill="#464E5F"/>
</svg>
