<svg width="24" height="24" viewBox="0 0 24 24" fill="none" xmlns="http://www.w3.org/2000/svg">
<path d="M8.25 15C10.9424 15 13.125 12.8174 13.125 10.125C13.125 7.43261 10.9424 5.25 8.25 5.25C5.55761 5.25 3.375 7.43261 3.375 10.125C3.375 12.8174 5.55761 15 8.25 15Z" stroke="#464E5F" stroke-width="0.65" stroke-miterlimit="10"/>
<path d="M14.5698 5.43149C15.2403 5.24257 15.9436 5.19953 16.6321 5.30528C17.3207 5.41102 17.9786 5.66309 18.5615 6.0445C19.1444 6.42592 19.6389 6.92782 20.0115 7.51641C20.3841 8.105 20.6263 8.76661 20.7217 9.45667C20.8171 10.1467 20.7635 10.8492 20.5645 11.5168C20.3655 12.1844 20.0258 12.8017 19.5682 13.3269C19.1107 13.8522 18.5458 14.2733 17.9118 14.5619C17.2777 14.8505 16.5892 14.9998 15.8926 14.9999" stroke="#464E5F" stroke-width="0.65" stroke-linecap="round" stroke-linejoin="round"/>
<path d="M1.49951 18.5059C2.26089 17.4229 3.27166 16.539 4.4465 15.9288C5.62133 15.3186 6.92574 15.0001 8.24959 15C9.57344 14.9999 10.8779 15.3184 12.0528 15.9285C13.2276 16.5386 14.2385 17.4225 14.9999 18.5054" stroke="#464E5F" stroke-width="0.65" stroke-linecap="round" stroke-linejoin="round"/>
<path d="M15.8926 15C17.2166 14.999 18.5213 15.3171 19.6962 15.9273C20.8712 16.5375 21.8819 17.4218 22.6426 18.5054" stroke="#464E5F" stroke-width="0.65" stroke-linecap="round" stroke-linejoin="round"/>
</svg>
