<svg width="41" height="40" viewBox="0 0 41 40" fill="none" xmlns="http://www.w3.org/2000/svg">
<g filter="url(#filter0_d_465_1975)">
<path d="M37 30.2498C36.4271 30.3749 35.8539 30.5 35.1665 30.5C33.7913 30.5 32.8749 30 31.4998 30C30.125 30 29.2083 30.5 27.8334 30.5C26.4583 30.5 25.5415 30 24.1668 30C22.7917 30 21.8752 30.5 20.5001 30.5C19.125 30.5 18.2086 30 16.8335 30C15.4583 30 14.5419 30.5 13.1668 30.5C11.7917 30.5 10.8753 30 9.50017 30C8.12509 30 7.2086 30.5 5.83352 30.5C5.14611 30.5 4.57322 30.3755 4 30.2504V31.7505C4.57256 31.8756 5.14545 32 5.83319 32C7.20833 32 8.12476 31.5001 9.49984 31.5001C10.8749 31.5001 11.7917 32 13.1665 32C14.5413 32 15.4581 31.5001 16.8332 31.5001C18.2083 31.5001 19.1247 32 20.4998 32C21.8749 32 22.7914 31.5001 24.1665 31.5001C25.5413 31.5001 26.458 32 27.8331 32C29.2079 32 30.1247 31.5001 31.4995 31.5001C32.8746 31.5001 33.7911 32 35.1662 32C35.8536 32 36.4264 31.8751 36.9997 31.75V30.2498H37Z" fill="white"/>
<path d="M37 26.2499C36.4271 26.375 35.8539 26.4999 35.1665 26.4999C33.7914 26.4999 32.8749 26 31.4999 26C30.1251 26 29.2083 26.4999 27.8335 26.4999C26.4584 26.4999 25.5416 26 24.1669 26C22.7914 26 21.875 26.4999 20.5 26.4999C19.125 26.4999 18.2085 26 16.8334 26C15.4582 26 14.5418 26.4999 13.1668 26.4999C11.7916 26.4999 10.8752 26 9.50013 26C8.12505 26 7.20825 26.4999 5.8335 26.4999C5.14578 26.4999 4.57289 26.3755 4 26.2504V27.7505C4.57289 27.8754 5.14578 28 5.8335 28C7.20863 28 8.12505 27.5001 9.50013 27.5001C10.8752 27.5001 11.792 28 13.1668 28C14.5416 28 15.4583 27.5001 16.8334 27.5001C18.2085 27.5001 19.1253 28 20.5 28C21.8751 28 22.7916 27.5001 24.1666 27.5001C25.5414 27.5001 26.4582 28 27.8332 28C29.208 28 30.1248 27.5001 31.4996 27.5001C32.8747 27.5001 33.7911 28 35.1662 28C35.8536 28 36.4265 27.8751 36.9997 27.75V26.2499H37Z" fill="white"/>
<path d="M19.9995 0.818115C19.9995 0.818115 12.8403 11.2688 12.8403 16.494C12.8403 20.4298 16.0451 23.6194 19.9995 23.6194C23.954 23.6194 27.1587 20.4298 27.1587 16.494C27.1587 11.2691 19.9995 0.818115 19.9995 0.818115ZM23.3409 18.8688H16.6588V16.9689H23.3409V18.8688ZM23.3412 12.2185H20.9543V14.5935H19.0453V12.2185H16.6594V10.3182H19.0453V7.94325H20.9543V10.3182H23.3412V12.2185Z" fill="url(#paint0_linear_465_1975)"/>
</g>
<defs>
<filter id="filter0_d_465_1975" x="0" y="0.818115" width="41" height="39.1819" filterUnits="userSpaceOnUse" color-interpolation-filters="sRGB">
<feFlood flood-opacity="0" result="BackgroundImageFix"/>
<feColorMatrix in="SourceAlpha" type="matrix" values="0 0 0 0 0 0 0 0 0 0 0 0 0 0 0 0 0 0 127 0" result="hardAlpha"/>
<feOffset dy="4"/>
<feGaussianBlur stdDeviation="2"/>
<feComposite in2="hardAlpha" operator="out"/>
<feColorMatrix type="matrix" values="0 0 0 0 0 0 0 0 0 0 0 0 0 0 0 0 0 0 0.05 0"/>
<feBlend mode="normal" in2="BackgroundImageFix" result="effect1_dropShadow_465_1975"/>
<feBlend mode="normal" in="SourceGraphic" in2="effect1_dropShadow_465_1975" result="shape"/>
</filter>
<linearGradient id="paint0_linear_465_1975" x1="22.4995" y1="10.9394" x2="16.8913" y2="22.0507" gradientUnits="userSpaceOnUse">
<stop stop-color="white"/>
<stop offset="1" stop-color="#DBDBDB"/>
</linearGradient>
</defs>
</svg>
