<svg width="36" height="36" viewBox="0 0 36 36" fill="none" xmlns="http://www.w3.org/2000/svg">
<path d="M18.0002 0.818359C8.52305 0.818359 0.818359 8.52305 0.818359 18.0002C0.818359 27.4773 8.52305 35.182 18.0002 35.182C27.4773 35.182 35.182 27.4773 35.182 18.0002C35.182 8.52305 27.4773 0.818359 18.0002 0.818359ZM18.0002 33.9521C9.21032 33.9521 2.04822 26.79 2.04822 18.0002C2.04822 9.21032 9.21032 2.04822 18.0002 2.04822C26.79 2.04822 33.9521 9.21032 33.9521 18.0002C33.9521 26.79 26.79 33.9521 18.0002 33.9521Z" fill="white"/>
<path d="M18.0002 7.40167C18.3257 7.40167 18.6151 7.11229 18.6151 6.78674V4.83343C18.6151 4.50788 18.3257 4.21851 18.0002 4.21851C17.6746 4.21851 17.3853 4.50788 17.3853 4.83343V6.78674C17.3853 7.11229 17.6746 7.40167 18.0002 7.40167Z" fill="white"/>
<path d="M11.9235 6.28031C11.7427 5.99093 11.381 5.88241 11.0916 6.06327C10.8022 6.24414 10.6937 6.60586 10.8746 6.89524L11.8512 8.59533C11.9597 8.77619 12.1768 8.92088 12.3938 8.92088C12.5023 8.92088 12.6108 8.88471 12.7193 8.84854C13.0087 8.66768 13.1172 8.30595 12.9364 8.01658L11.9235 6.28031Z" fill="white"/>
<path d="M8.59561 11.851L6.89552 10.8743C6.60614 10.6934 6.20824 10.802 6.06356 11.0913C5.91887 11.3807 5.99121 11.7786 6.28059 11.9233L7.98068 12.9C8.0892 12.9723 8.19772 12.9723 8.30624 12.9723C8.52327 12.9723 8.7403 12.8638 8.84882 12.6468C8.99351 12.3935 8.88499 12.0318 8.59561 11.851Z" fill="white"/>
<path d="M7.40191 18.0002C7.40191 17.6746 7.11253 17.3853 6.78698 17.3853H4.83368C4.50813 17.3853 4.21875 17.6746 4.21875 18.0002C4.21875 18.3257 4.50813 18.6151 4.83368 18.6151H6.78698C7.11253 18.6151 7.40191 18.3257 7.40191 18.0002Z" fill="white"/>
<path d="M7.98065 23.0643L6.28055 24.0409C5.99117 24.2218 5.88266 24.5835 6.06352 24.8729C6.17204 25.0538 6.38907 25.1985 6.6061 25.1985C6.71462 25.1985 6.82314 25.1623 6.93165 25.1261L8.59558 24.1495C8.88495 23.9686 8.99347 23.6069 8.81261 23.3175C8.63175 23.0281 8.27003 22.9196 7.98065 23.0643Z" fill="white"/>
<path d="M12.6832 27.188C12.3938 27.0072 11.9959 27.1157 11.8512 27.4051L10.8746 29.1052C10.6937 29.3945 10.8022 29.7924 11.0916 29.9371C11.2001 30.0095 11.3086 30.0095 11.4171 30.0095C11.6342 30.0095 11.8512 29.9009 11.9597 29.6839L12.9364 27.9838C13.0811 27.7306 12.9725 27.3689 12.6832 27.188Z" fill="white"/>
<path d="M18.0002 28.5986C17.6746 28.5986 17.3853 28.888 17.3853 29.2136V31.1669C17.3853 31.4924 17.6746 31.7818 18.0002 31.7818C18.3257 31.7818 18.6151 31.4924 18.6151 31.1669V29.2136C18.6151 28.888 18.3257 28.5986 18.0002 28.5986Z" fill="white"/>
<path d="M24.1496 27.4051C23.9688 27.1157 23.607 27.0072 23.3177 27.188C23.0283 27.3689 22.9198 27.7306 23.1006 28.02L24.0773 29.7201C24.1858 29.9009 24.4028 30.0456 24.6199 30.0456C24.7284 30.0456 24.8369 30.0095 24.9454 29.9733C25.2348 29.7924 25.3433 29.4307 25.1625 29.1413L24.1496 27.4051Z" fill="white"/>
<path d="M29.7201 24.0771L28.02 23.0643C27.7306 22.8834 27.3327 22.9919 27.188 23.2813C27.0072 23.5707 27.1157 23.9686 27.4051 24.1132L29.1052 25.0899C29.2137 25.1622 29.3222 25.1622 29.4307 25.1622C29.6477 25.1622 29.8648 25.0537 29.9733 24.8367C30.118 24.6197 30.0095 24.2218 29.7201 24.0771Z" fill="white"/>
<path d="M31.203 17.3853H29.2497C28.9241 17.3853 28.6348 17.6746 28.6348 18.0002C28.6348 18.3257 28.9241 18.6151 29.2497 18.6151H31.203C31.5285 18.6151 31.8179 18.3257 31.8179 18.0002C31.8179 17.6746 31.5285 17.3853 31.203 17.3853Z" fill="white"/>
<path d="M27.7306 13.0084C27.8391 13.0084 27.9476 12.9723 28.0562 12.9361L29.7563 11.9594C30.0456 11.7786 30.1542 11.4169 29.9733 11.1275C29.7924 10.8381 29.4307 10.7296 29.1413 10.9104L27.4051 11.8509C27.1157 12.0318 27.0072 12.3935 27.188 12.6829C27.2965 12.8999 27.5136 13.0084 27.7306 13.0084Z" fill="white"/>
<path d="M24.9093 6.02714C24.6199 5.84628 24.222 5.9548 24.0773 6.24418L23.0645 7.98044C22.8836 8.26982 22.9922 8.66772 23.2815 8.81241C23.39 8.88475 23.4986 8.88475 23.6071 8.88475C23.8241 8.88475 24.0411 8.77623 24.1497 8.5592L25.1263 6.8591C25.3072 6.6059 25.1987 6.208 24.9093 6.02714Z" fill="white"/>
<path d="M19.7702 18C19.7702 18.9775 18.9778 19.7699 18.0003 19.7699C17.0228 19.7699 16.2304 18.9775 16.2304 18C16.2304 17.0225 17.0228 16.2301 18.0003 16.2301C18.9778 16.2301 19.7702 17.0225 19.7702 18Z" stroke="white" stroke-width="1.2"/>
</svg>
