<svg width="44" height="38" viewBox="0 0 44 38" fill="none" xmlns="http://www.w3.org/2000/svg">
<g filter="url(#filter0_d_70_1290)">
<path d="M7.58962 22.7577H13.1321C14.6618 22.7577 15.9034 21.5261 15.9034 20.0088H16.4577C16.4577 20.916 17.2059 21.6581 18.1204 21.6581H20.8917C21.1965 21.6581 21.4459 21.4107 21.4459 21.1084V19.459C21.4459 19.1566 21.1965 18.9092 20.8917 18.9092H19.2289V17.8097H20.8917C21.1965 17.8097 21.4459 17.5623 21.4459 17.2599V15.6105C21.4459 15.3081 21.1965 15.0607 20.8917 15.0607H18.1204C17.2059 15.0607 16.4577 15.8029 16.4577 16.7101H15.9034C15.9034 15.1928 14.6618 13.9612 13.1321 13.9612H7.58962C6.06001 13.9612 4.81836 15.1928 4.81836 16.7101V20.0088C4.81836 21.5261 6.06001 22.7577 7.58962 22.7577ZM15.9034 17.8097H16.4577V18.9092H15.9034V17.8097ZM8.14387 17.8097C8.14387 17.5073 8.39329 17.2599 8.69812 17.2599H12.0236C12.3285 17.2599 12.5779 17.5073 12.5779 17.8097V18.9092C12.5779 19.2116 12.3285 19.459 12.0236 19.459H8.69812C8.39329 19.459 8.14387 19.2116 8.14387 18.9092V17.8097Z" fill="white"/>
<path d="M36.4105 13.9612H30.868C29.3384 13.9612 28.0967 15.1928 28.0967 16.7101H27.5425C27.5425 15.8029 26.7943 15.0607 25.8797 15.0607H23.1085C22.8036 15.0607 22.5542 15.3081 22.5542 15.6105V17.2599C22.5542 17.5623 22.8036 17.8097 23.1085 17.8097H24.7712V18.9092H23.1085C22.8036 18.9092 22.5542 19.1566 22.5542 19.459V21.1084C22.5542 21.4107 22.8036 21.6581 23.1085 21.6581H25.8797C26.7943 21.6581 27.5425 20.916 27.5425 20.0088H28.0967C28.0967 21.5261 29.3384 22.7577 30.868 22.7577H36.4105C37.9401 22.7577 39.1818 21.5261 39.1818 20.0088V16.7101C39.1818 15.1928 37.9401 13.9612 36.4105 13.9612ZM28.0967 18.9092H27.5425V17.8097H28.0967V18.9092ZM35.8563 18.9092C35.8563 19.2116 35.6068 19.459 35.302 19.459H31.9765C31.6716 19.459 31.4222 19.2116 31.4222 18.9092V17.8097C31.4222 17.5073 31.6716 17.2599 31.9765 17.2599H35.302C35.6068 17.2599 35.8563 17.5073 35.8563 17.8097V18.9092Z" fill="white"/>
<path d="M21.4458 7.36377H22.5543V11.762H21.4458V7.36377Z" fill="white"/>
<path d="M14.9443 10.4909L15.7282 9.71338L18.8634 12.8233L18.0796 13.6009L14.9443 10.4909Z" fill="white"/>
<path d="M14.9443 26.2266L18.0796 23.1167L18.8634 23.8942L15.7282 27.0042L14.9443 26.2266Z" fill="white"/>
<path d="M21.4458 24.9573H22.5543V29.3555H21.4458V24.9573Z" fill="white"/>
<path d="M25.1357 23.9013L25.9196 23.1238L29.0548 26.2337L28.271 27.0113L25.1357 23.9013Z" fill="white"/>
<path d="M25.1357 12.8253L28.271 9.71533L29.0548 10.4929L25.9196 13.6028L25.1357 12.8253Z" fill="white"/>
</g>
<defs>
<filter id="filter0_d_70_1290" x="0.818359" y="7.36377" width="42.3633" height="29.9917" filterUnits="userSpaceOnUse" color-interpolation-filters="sRGB">
<feFlood flood-opacity="0" result="BackgroundImageFix"/>
<feColorMatrix in="SourceAlpha" type="matrix" values="0 0 0 0 0 0 0 0 0 0 0 0 0 0 0 0 0 0 127 0" result="hardAlpha"/>
<feOffset dy="4"/>
<feGaussianBlur stdDeviation="2"/>
<feComposite in2="hardAlpha" operator="out"/>
<feColorMatrix type="matrix" values="0 0 0 0 0 0 0 0 0 0 0 0 0 0 0 0 0 0 0.05 0"/>
<feBlend mode="normal" in2="BackgroundImageFix" result="effect1_dropShadow_70_1290"/>
<feBlend mode="normal" in="SourceGraphic" in2="effect1_dropShadow_70_1290" result="shape"/>
</filter>
</defs>
</svg>
