<svg width="44" height="36" viewBox="0 0 44 36" fill="none" xmlns="http://www.w3.org/2000/svg">
<g filter="url(#filter0_d_70_1278)">
<path d="M4.81853 14.7112C4.81853 14.5233 4.97098 14.3708 5.15893 14.3708C6.82686 14.3708 8.16117 13.3361 9.45471 12.3421C11.1703 11.0214 12.9403 9.653 15.0372 11.6273C15.1544 11.7367 15.1772 11.914 15.0916 12.0494C15.0078 12.1853 14.8407 12.2449 14.69 12.1923C14.6764 12.1855 13.1854 11.6681 12.6477 12.4783C12.4775 12.737 12.4843 13.125 12.6681 13.4654C12.9812 14.0372 13.6825 14.3708 14.5947 14.3708C16.2558 14.3708 17.5969 13.336 18.8905 12.3421C20.5992 11.0213 22.3761 9.65299 24.4729 11.6273C24.5896 11.7389 24.612 11.9171 24.5262 12.054C24.4404 12.1909 24.2704 12.2487 24.1189 12.1923C24.1053 12.1855 22.6144 11.6681 22.0834 12.4783C21.9132 12.737 21.92 13.125 22.1038 13.4654C22.4102 14.0372 23.1114 14.3708 24.0304 14.3708C25.6916 14.3708 27.0259 13.336 28.3194 12.3421C30.0349 11.0213 31.805 9.65299 33.9018 11.6273C34.0188 11.7362 34.0443 11.9118 33.9631 12.0494C33.877 12.1865 33.7076 12.2458 33.5546 12.1923C33.541 12.1855 32.0501 11.6681 31.5123 12.4783C31.3421 12.737 31.3489 13.125 31.5327 13.4654C31.8459 14.0372 32.5471 14.3708 33.4593 14.3708C33.5495 14.3708 33.6361 14.4066 33.7 14.4705C33.764 14.5345 33.7997 14.621 33.7997 14.7112C33.7997 14.8014 33.764 14.888 33.7 14.9519C33.6361 15.0159 33.5495 15.0516 33.4593 15.0516C32.2884 15.0516 31.3693 14.5887 30.9336 13.7853C30.6273 13.2203 30.6341 12.5735 30.9472 12.097C31.2604 11.6205 31.7301 11.4298 32.1999 11.3686C31.1447 11.0963 30.1439 11.7975 28.7347 12.8799C27.3254 13.9623 25.923 15.0516 24.0305 15.0516H24.0237C22.8527 15.0516 21.9337 14.5887 21.5047 13.7853C21.1984 13.2203 21.1984 12.5735 21.5116 12.097C21.8247 11.6205 22.2944 11.4298 22.7642 11.3686C21.709 11.0963 20.7082 11.7975 19.3058 12.8799C17.9034 13.9623 16.4874 15.0516 14.5948 15.0516C13.4239 15.0516 12.4979 14.5887 12.0691 13.7853C11.7627 13.2203 11.7695 12.5735 12.0759 12.097C12.3822 11.6205 12.8656 11.4298 13.3285 11.3686C12.2733 11.0963 11.2726 11.7975 9.87016 12.8799C8.46776 13.9623 7.05851 15.0516 5.1591 15.0516C4.97261 15.048 4.82235 14.8977 4.81871 14.7112L4.81853 14.7112ZM5.15893 24.9229C7.05834 24.9229 8.54926 23.7724 9.86999 22.7511C11.1907 21.7299 12.2731 20.9675 13.3284 21.2398C12.8654 21.3011 12.3957 21.4985 12.0757 21.975C11.7557 22.4515 11.7625 23.0915 12.0689 23.6566C12.4978 24.4599 13.4237 24.9229 14.5946 24.9229C16.4872 24.9229 17.9849 23.7724 19.3057 22.7511C20.6264 21.7299 21.7088 20.9675 22.764 21.2398C22.2943 21.3011 21.8245 21.4985 21.5114 21.975C21.1982 22.4515 21.1982 23.0915 21.5046 23.6566C21.9335 24.4599 22.8525 24.9229 24.0235 24.9229H24.0303C25.9229 24.9229 27.4206 23.7724 28.7345 22.7511C30.0484 21.7299 31.1445 20.9675 32.1997 21.2398C31.73 21.3011 31.2602 21.4985 30.9471 21.975C30.6339 22.4515 30.6271 23.0915 30.9335 23.6566C31.3692 24.4599 32.2882 24.9229 33.4592 24.9229C33.5494 24.9229 33.6359 24.8871 33.6999 24.8232C33.7638 24.7592 33.7996 24.6727 33.7996 24.5825C33.7996 24.4923 33.7638 24.4057 33.6999 24.3418C33.6359 24.2778 33.5494 24.2421 33.4592 24.2421C32.5469 24.2421 31.8457 23.9153 31.5326 23.3366C31.3487 22.9962 31.3419 22.6082 31.5121 22.3495C32.0499 21.5393 33.5409 22.0636 33.5545 22.0636C33.7047 22.1139 33.8696 22.0538 33.9525 21.9189C34.0354 21.784 34.0145 21.6099 33.9017 21.4985C31.8048 19.5242 30.0348 20.8926 28.3192 22.2133C27.0257 23.2141 25.6913 24.2421 24.0303 24.2421C23.1112 24.2421 22.41 23.9153 22.1036 23.3366C21.9198 22.9962 21.913 22.6082 22.0832 22.3495C22.6142 21.5394 24.1051 22.0636 24.1188 22.0636C24.2714 22.1227 24.4446 22.0621 24.5272 21.9206C24.6101 21.7845 24.5875 21.6092 24.4728 21.4985C22.3759 19.5242 20.5991 20.8926 18.8903 22.2133C17.5968 23.2141 16.2557 24.2421 14.5945 24.2421C13.6823 24.2421 12.981 23.9153 12.6679 23.3366C12.4841 22.9962 12.4773 22.6082 12.6475 22.3495C13.1853 21.5394 14.6762 22.0636 14.6898 22.0636C14.8401 22.1139 15.0049 22.0539 15.0878 21.9189C15.1707 21.784 15.1498 21.6099 15.037 21.4985C12.9402 19.5242 11.1701 20.8926 9.45453 22.2133C8.16106 23.2141 6.82669 24.2421 5.15876 24.2421C4.97227 24.2457 4.82201 24.396 4.81836 24.5825C4.81836 24.6727 4.8541 24.7592 4.91805 24.8232C4.98199 24.8871 5.06855 24.9229 5.15876 24.9229L5.15893 24.9229ZM29.1973 19.0817C28.285 19.0817 27.5838 18.7549 27.2774 18.1763C27.0936 17.8359 27.0868 17.4478 27.257 17.1891C27.788 16.379 29.2789 16.9032 29.2925 16.9032C29.4438 16.9635 29.6164 16.9059 29.701 16.7671C29.7849 16.6289 29.7623 16.451 29.6466 16.3382C27.5497 14.3639 25.7729 15.7323 24.0641 17.053C22.7706 18.0537 21.4295 19.0817 19.7683 19.0817C18.8492 19.0817 18.1481 18.7549 17.8417 18.1763C17.6579 17.8359 17.6511 17.4478 17.8213 17.1891C18.3523 16.379 19.8432 16.9032 19.8636 16.9032C20.0126 16.9628 20.1831 16.9049 20.2653 16.7671C20.3518 16.6294 20.329 16.4498 20.2108 16.3382C18.1139 14.3639 16.3439 15.7323 14.6283 17.053C13.3348 18.0537 11.9937 19.0817 10.3325 19.0817C10.1461 19.0854 9.9958 19.2356 9.99215 19.4221C9.99215 19.5123 10.0279 19.5989 10.0918 19.6628C10.1558 19.7268 10.2423 19.7625 10.3325 19.7625C12.232 19.7625 13.7229 18.612 15.0436 17.5908C16.3643 16.5696 17.4468 15.8071 18.502 16.0795C18.039 16.1407 17.5625 16.3382 17.2493 16.8147C16.9362 17.2912 16.9362 17.9312 17.2425 18.503C17.6714 19.3063 18.5973 19.7625 19.7682 19.7625C21.6608 19.7625 23.1585 18.6119 24.4793 17.5907C25.8 16.5695 26.8824 15.8071 27.9376 16.0794C27.4679 16.1407 26.9981 16.3381 26.685 16.8146C26.3719 17.2911 26.3718 17.9311 26.6782 18.503C27.1071 19.3063 28.0261 19.7624 29.1971 19.7624H29.2039C31.0965 19.7624 32.5874 18.6119 33.9081 17.5907C35.2289 16.5694 36.3181 15.807 37.3733 16.0793C36.9036 16.1406 36.4338 16.338 36.1207 16.8146C35.8076 17.2911 35.8007 17.9311 36.1071 18.5029C36.5428 19.3062 37.4619 19.7623 38.6328 19.7623C38.723 19.7623 38.8095 19.7266 38.8735 19.6626C38.9374 19.5987 38.9732 19.5121 38.9732 19.4219C38.9732 19.3317 38.9374 19.2452 38.8735 19.1812C38.8095 19.1173 38.723 19.0815 38.6328 19.0815C37.7205 19.0815 37.0193 18.7548 36.7062 18.1761C36.5224 17.8357 36.5156 17.4477 36.6857 17.189C37.2236 16.3788 38.7145 16.903 38.7281 16.903C38.8771 16.9626 39.0476 16.9047 39.1297 16.7669C39.2163 16.6293 39.1934 16.4496 39.0753 16.338C36.9784 14.3637 35.2084 15.7321 33.4928 17.0528C32.1993 18.0535 30.865 19.0815 29.197 19.0815L29.1973 19.0817Z" fill="white"/>
</g>
<defs>
<filter id="filter0_d_70_1278" x="0.818359" y="10.6365" width="42.3638" height="22.2864" filterUnits="userSpaceOnUse" color-interpolation-filters="sRGB">
<feFlood flood-opacity="0" result="BackgroundImageFix"/>
<feColorMatrix in="SourceAlpha" type="matrix" values="0 0 0 0 0 0 0 0 0 0 0 0 0 0 0 0 0 0 127 0" result="hardAlpha"/>
<feOffset dy="4"/>
<feGaussianBlur stdDeviation="2"/>
<feComposite in2="hardAlpha" operator="out"/>
<feColorMatrix type="matrix" values="0 0 0 0 0 0 0 0 0 0 0 0 0 0 0 0 0 0 0.05 0"/>
<feBlend mode="normal" in2="BackgroundImageFix" result="effect1_dropShadow_70_1278"/>
<feBlend mode="normal" in="SourceGraphic" in2="effect1_dropShadow_70_1278" result="shape"/>
</filter>
</defs>
</svg>
