<svg width="35" height="36" viewBox="0 0 35 36" fill="none" xmlns="http://www.w3.org/2000/svg">
<path d="M17.8611 0.818115C8.44777 0.818115 0.817871 8.51066 0.817871 17.9999C0.817871 27.4898 8.44777 35.1818 17.8611 35.1818C27.2739 35.1818 34.9044 27.4898 34.9044 17.9999C34.9044 8.51066 27.2739 0.818115 17.8611 0.818115ZM25.5622 28.9362C25.5613 28.9388 25.5606 28.9414 25.5596 28.9443C25.5054 29.0769 25.4003 29.1828 25.2688 29.2375C25.2662 29.2391 25.2636 29.2391 25.2603 29.2406C25.2001 29.2643 25.1345 29.2782 25.0653 29.2782H11.9566C11.8879 29.2782 11.8225 29.2643 11.7621 29.2406C11.7595 29.2389 11.7562 29.2389 11.754 29.2375C11.6225 29.1828 11.5175 29.0769 11.4632 28.9443C11.4623 28.9422 11.4616 28.9395 11.4606 28.9362C11.4371 28.8755 11.4228 28.8089 11.4228 28.7401C11.4228 28.6708 11.4366 28.6049 11.4606 28.5435C11.4616 28.5414 11.4623 28.5383 11.4632 28.5354C11.4908 28.4687 11.5298 28.4093 11.58 28.3587L13.4425 26.4811V24.4418H16.0682C16.3637 24.4418 16.6024 24.2006 16.6024 23.9032C16.6024 23.6057 16.3637 23.3645 16.0682 23.3645H13.4425V22.1232H16.0682C16.3637 22.1232 16.6024 21.882 16.6024 21.5846C16.6024 21.2871 16.3637 21.0459 16.0682 21.0459H13.4425V19.805H16.0682C16.3637 19.805 16.6024 19.5638 16.6024 19.2664C16.6024 18.9689 16.3637 18.7278 16.0682 18.7278H13.4425V17.4868H16.0682C16.3637 17.4868 16.6024 17.2457 16.6024 16.9482C16.6024 16.6503 16.3637 16.4096 16.0682 16.4096H13.4425L13.4427 15.1704H16.0684C16.3639 15.1704 16.6027 14.9292 16.6027 14.6318C16.6027 14.3338 16.3639 14.0932 16.0684 14.0932H13.4427V12.8518H16.0684C16.3639 12.8518 16.6027 12.6111 16.6027 12.3139C16.6027 12.0159 16.3639 11.7753 16.0684 11.7753H13.4427V10.5247L10.2977 7.65863C10.2956 7.65695 10.2951 7.65431 10.293 7.65215C10.2457 7.60757 10.2071 7.55508 10.1784 7.49587C10.1758 7.49059 10.1724 7.48508 10.1698 7.48029C10.1448 7.42444 10.1308 7.36379 10.1256 7.30051C10.1251 7.29236 10.1234 7.28541 10.1234 7.2775C10.123 7.27103 10.1218 7.26575 10.1218 7.25928C10.1218 7.20247 10.133 7.14806 10.1494 7.09653C10.1515 7.08838 10.1536 7.08094 10.1563 7.07351C10.1786 7.01239 10.2117 6.95702 10.2533 6.9086C10.2564 6.90548 10.2571 6.90117 10.2602 6.89781C10.2618 6.89518 10.2649 6.8947 10.2666 6.89302C10.3103 6.84532 10.3629 6.80648 10.4211 6.77748C10.4271 6.77437 10.4318 6.77101 10.4371 6.76837C10.4925 6.74321 10.5521 6.72906 10.6149 6.72379C10.623 6.72331 10.6299 6.72163 10.6385 6.72163C10.6444 6.72115 10.6496 6.71996 10.6565 6.71996H23.0464C23.3414 6.71996 23.5806 6.96062 23.5806 7.25856V26.4795L25.4442 28.3578C25.4937 28.4076 25.5332 28.4673 25.5603 28.534C25.5612 28.5366 25.5619 28.5399 25.5629 28.5426C25.5864 28.6032 25.6002 28.6694 25.6002 28.7387C25.5997 28.8087 25.5848 28.8753 25.5619 28.9359L25.5622 28.9362Z" fill="white"/>
</svg>
