<svg width="36" height="35" viewBox="0 0 36 35" fill="none" xmlns="http://www.w3.org/2000/svg">
<path d="M32.2439 34.648H3.67263C2.10129 34.648 0.81543 33.3624 0.81543 31.7908V3.2195C0.81543 1.64817 2.10103 0.362305 3.67263 0.362305H32.2439C33.8153 0.362305 35.1011 1.6479 35.1011 3.2195V31.7908C35.1009 33.3621 33.8153 34.6477 32.2437 34.6477L32.2439 34.648ZM3.67263 1.79137C2.8868 1.79137 2.24403 2.43416 2.24403 3.21997V31.7913C2.24403 32.5771 2.88682 33.2199 3.67263 33.2199H32.2439C33.0298 33.2199 33.6725 32.5771 33.6725 31.7913L33.6723 3.21997C33.6723 2.43413 33.0295 1.79137 32.2437 1.79137H3.67263Z" fill="white"/>
<path d="M30.8161 31.7909H5.10145C4.31562 31.7909 3.67285 31.1481 3.67285 30.3623L3.67311 4.64833C3.67311 3.86249 4.3159 3.21973 5.10171 3.21973H30.8157C31.6015 3.21973 32.2443 3.86252 32.2443 4.64833V30.3623C32.244 31.1481 31.6012 31.7909 30.8157 31.7909H30.8161ZM5.10145 4.64826V30.3622H30.8154L30.8157 4.64826H5.10145Z" fill="white"/>
<path d="M17.9592 20.3633C16.3879 20.3633 15.1021 19.0777 15.1021 17.5061C15.1021 15.9348 16.3877 14.6489 17.9592 14.6489C19.5306 14.6489 20.8164 15.9345 20.8164 17.5061C20.8164 19.0775 19.5306 20.3633 17.9592 20.3633V20.3633ZM17.9592 16.0775C17.1734 16.0775 16.5306 16.7203 16.5306 17.5061C16.5306 18.2919 17.1734 18.9347 17.9592 18.9347C18.7451 18.9347 19.3878 18.2919 19.3878 17.5061C19.3878 16.7203 18.7451 16.0775 17.9592 16.0775Z" fill="white"/>
<path d="M17.9594 16.0769C17.5309 16.0769 17.2451 15.7911 17.2451 15.3625V8.93406C17.2451 8.50553 17.5309 8.21973 17.9594 8.21973C18.388 8.21973 18.6738 8.5055 18.6738 8.93406V15.3625C18.6738 15.791 18.388 16.0769 17.9594 16.0769Z" fill="white"/>
<path d="M17.2451 3.93408H18.6737V6.07701H17.2451V3.93408Z" fill="white"/>
<path d="M17.2451 28.9333H18.6737V31.0763H17.2451V28.9333Z" fill="white"/>
<path d="M29.3872 16.7917H31.5301V18.2203H29.3872V16.7917Z" fill="white"/>
<path d="M4.3877 16.7917H6.53063V18.2203H4.3877V16.7917Z" fill="white"/>
<path d="M9.38771 26.7905C9.17344 26.7905 9.03069 26.719 8.88767 26.5763C8.6019 26.2905 8.6019 25.8619 8.88767 25.5762L16.0303 18.5761C16.3161 18.2904 16.7447 18.2904 17.0304 18.5761C17.3161 18.8619 17.3162 19.2905 17.0304 19.5762L9.88774 26.5763C9.74472 26.719 9.60196 26.7905 9.3877 26.7905H9.38771Z" fill="white"/>
<path d="M27.2444 27.505C27.0301 27.505 26.8873 27.4335 26.7443 27.2907L18.959 19.5047C18.6732 19.2189 18.6732 18.7903 18.959 18.5046C19.2447 18.2188 19.6733 18.2188 19.959 18.5046L27.7444 26.29C28.0302 26.5758 28.0302 27.0043 27.7444 27.29C27.6014 27.4331 27.4586 27.5046 27.2443 27.5046L27.2444 27.505Z" fill="white"/>
</svg>
