<svg width="32" height="32" viewBox="0 0 32 32" fill="none" xmlns="http://www.w3.org/2000/svg">
<path d="M20.8366 17.0761C20.8366 15.4953 20.141 14.009 18.9711 12.9655L15.3662 9.3291L11.7617 12.934C10.5599 13.9775 9.89624 15.4635 9.89624 17.0447C9.89624 20.0803 12.3627 22.5149 15.3665 22.5149C18.3699 22.5464 20.8364 20.0799 20.8364 17.0761H20.8366ZM15.3663 21.2816C13.058 21.2816 11.1608 19.3843 11.1608 17.0761C11.1608 15.8744 11.6985 14.7045 12.5838 13.9141L15.3663 11.1316L18.0225 13.8193L18.1489 13.9142C19.066 14.7046 19.6033 15.8745 19.6033 17.0762C19.5718 19.3844 17.6745 21.2817 15.3663 21.2817L15.3663 21.2816Z" fill="#5ED3FF"/>
<path d="M11.8252 4.23731C12.932 2.33998 14.3547 1.26499 15.8725 1.26499C17.3903 1.26499 18.8133 2.30849 19.9198 4.23731L22.9236 9.45454L19.0026 7.81033L18.5283 8.98026L24.8838 11.6365L25.7691 4.80663L24.5044 4.6484L23.9667 8.75906L20.9944 3.60489C19.6662 1.29663 17.8324 0 15.8721 0C13.9118 0 12.0775 1.26476 10.7498 3.60489L7.11377 9.86601L8.22063 10.4986L11.8252 4.23731Z" fill="#00C920"/>
<path d="M1.8969 25.3283C1.13799 24.0317 1.32771 22.2612 2.4346 20.3323L5.4384 15.1151L5.9761 19.3206L7.24086 19.1624L6.35557 12.3325L0 14.9887L0.474324 16.1587L4.30038 14.5778L1.32806 19.732C-5.73059e-05 22.0402 -0.189732 24.2536 0.790361 25.9927C1.77051 27.7003 3.79417 28.6489 6.48188 28.6489L13.6912 28.6482V27.3834H6.48188C4.26816 27.3519 2.65582 26.6245 1.89683 25.3283L1.8969 25.3283Z" fill="#00C920"/>
<path d="M29.9433 19.5735L26.3384 13.3442L25.2315 13.9768L28.8683 20.206C29.9751 22.1034 30.1649 23.8739 29.406 25.202C28.6471 26.4986 27.0344 27.2257 24.8209 27.2257H18.7815L22.1647 24.6643L21.4058 23.6523L15.9041 27.8263L21.3743 31.9999L22.1332 30.9879L18.8448 28.4584H24.7895C27.4772 28.4584 29.4693 27.5097 30.481 25.8021C31.4926 24.1264 31.3029 21.913 29.9433 19.5733V19.5735Z" fill="#00C920"/>
</svg>
