<svg width="40" height="36" viewBox="0 0 40 36" fill="none" xmlns="http://www.w3.org/2000/svg">
<path d="M19.4458 7.36328H20.5543V11.7615H19.4458V7.36328Z" fill="#F8991D"/>
<path d="M12.9446 10.4909L13.7285 9.71338L16.8637 12.8233L16.0798 13.6009L12.9446 10.4909Z" fill="#F8991D"/>
<path d="M12.9446 26.2266L16.0798 23.1167L16.8637 23.8942L13.7285 27.0042L12.9446 26.2266Z" fill="#F8991D"/>
<path d="M19.4458 24.957H20.5543V29.3553H19.4458V24.957Z" fill="#F8991D"/>
<path d="M23.1355 23.9011L23.9194 23.1235L27.0546 26.2335L26.2707 27.011L23.1355 23.9011Z" fill="#F8991D"/>
<path d="M23.1357 12.8248L26.271 9.71484L27.0548 10.4924L23.9196 13.6023L23.1357 12.8248Z" fill="#F8991D"/>
<path d="M10.4053 17.1605L13.6052 17.2552L13.5946 18.3592L10.3946 18.2645L10.4053 17.1605Z" fill="#F8991D"/>
<path d="M10.4053 19.1605L13.6052 19.2552L13.5946 20.3592L10.3946 20.2645L10.4053 19.1605Z" fill="#F8991D"/>
<rect x="0.5" y="14.5" width="10" height="8" rx="2.5" stroke="#F8991D"/>
<path d="M19 15H16.1229C14.3982 15 13 16.0447 13 17.3333V19.6667C13 20.9553 14.3982 22 16.1229 22H19C18.7312 21.7756 18.5196 21.512 18.3825 21.2222H16.1229C14.9731 21.2222 14.041 20.5258 14.041 19.6667V17.3333C14.041 16.4742 14.9731 15.7778 16.1229 15.7778H18.3825C18.5196 15.488 18.7312 15.2244 19 15Z" fill="#F8991D"/>
<path d="M29.5947 17.1605L26.3948 17.2552L26.4054 18.3592L29.6054 18.2645L29.5947 17.1605Z" fill="#F8991D"/>
<path d="M29.5947 19.1605L26.3948 19.2552L26.4054 20.3592L29.6054 20.2645L29.5947 19.1605Z" fill="#F8991D"/>
<rect x="0.5" y="-0.5" width="10" height="8" rx="2.5" transform="matrix(-1 0 0 1 40 15)" stroke="#F8991D"/>
<path d="M21 15H23.8771C25.6018 15 27 16.0447 27 17.3333V19.6667C27 20.9553 25.6018 22 23.8771 22H21C21.2688 21.7756 21.4804 21.512 21.6175 21.2222H23.8771C25.0269 21.2222 25.959 20.5258 25.959 19.6667V17.3333C25.959 16.4742 25.0269 15.7778 23.8771 15.7778H21.6175C21.4804 15.488 21.2688 15.2244 21 15Z" fill="#F8991D"/>
</svg>
