<svg width="50" height="50" viewBox="0 0 50 50" fill="none" xmlns="http://www.w3.org/2000/svg">
<path d="M50 25.0008C50 29.7256 48.6891 34.1439 46.41 37.913C44.4689 41.1304 41.8204 43.8716 38.6816 45.9291C38.4914 46.0533 38.2981 46.1759 38.1047 46.2953C37.6929 46.5499 37.2717 46.792 36.8426 47.023C36.7797 47.0576 36.7169 47.0906 36.654 47.1236C35.7046 47.6266 34.7191 48.0683 33.7006 48.4455H33.699C31.4482 49.2817 29.0434 49.8035 26.538 49.9544C26.1136 49.9811 25.6845 49.9953 25.2523 50C25.2224 50 25.191 50 25.1611 50C25.1077 50 25.0542 50 25.0008 50H24.9772C24.8845 50 24.7933 50 24.7021 50C24.2856 49.9953 23.8738 49.9796 23.4636 49.9544C20.9487 49.802 18.5345 49.2786 16.2742 48.4361C15.3972 48.1091 14.5437 47.7351 13.7185 47.3154C13.5283 47.2211 13.3413 47.1236 13.1558 47.023C12.7299 46.7936 12.3102 46.5515 11.9 46.2985C11.6941 46.1711 11.4913 46.0423 11.2885 45.9102C8.16384 43.8559 5.52482 41.1194 3.58838 37.913C1.31087 34.1439 0 29.7256 0 25.0008C0 11.1942 11.1927 0 25.0008 0C38.8089 0 50 11.1942 50 25.0008Z" fill="#FF9D83"/>
<path d="M28.8368 41.5439V36.137H21.1146V41.5439C21.1146 41.5439 14.4141 42.4194 11.2878 45.9103C11.4906 46.0423 11.6934 46.1712 11.8993 46.2985C12.3095 46.5516 12.7292 46.7937 13.1551 47.0231C14.1548 47.5623 15.1969 48.0354 16.2735 48.4362C18.5338 49.2786 20.948 49.802 23.4629 49.9545C23.8731 49.9797 24.2849 49.9954 24.7014 50.0001C24.7926 50.0001 24.8838 50.0001 24.9765 50.0001H25.0001C25.0834 50.0001 25.1683 50.0001 25.2516 50.0001C25.6838 49.9954 26.1129 49.9812 26.5373 49.9545C29.0427 49.8036 31.4475 49.2818 33.6983 48.4456H33.6999C34.786 48.0432 35.8344 47.567 36.8419 47.0231C37.271 46.7921 37.6922 46.55 38.104 46.2954C38.2974 46.1759 38.4907 46.0533 38.6809 45.9292C35.5625 42.4225 28.8368 41.5439 28.8368 41.5439V41.5439Z" fill="#FDDCAB"/>
<path d="M10.8494 24.3344C11.1276 27.5235 13.1442 27.7153 13.1442 27.7153L13.174 21.3307C13.174 21.3307 10.568 21.1436 10.8494 24.3344Z" fill="#FDDCAB"/>
<path d="M25.0023 8.57251C18.4181 8.57251 13.0819 13.9103 13.0819 20.4929V27.4355C13.0819 34.0197 18.4197 39.3559 25.0023 39.3559L25.0023 8.57251Z" fill="#FDDCAB"/>
<path d="M39.0976 24.2386C38.8194 27.4278 36.8028 27.6196 36.8028 27.6196L36.7729 21.235C36.7729 21.235 39.379 21.0479 39.0976 24.2386V24.2386Z" fill="#FFEAD5"/>
<path d="M25.0018 8.57251L25.0018 39.3575C31.586 39.3575 36.9222 34.0197 36.9222 27.4371V20.4945C36.9222 13.9103 31.5845 8.57408 25.0018 8.57408V8.57251Z" fill="#FFEAD5"/>
<path d="M38.6815 45.929L36.6539 47.1236C35.7045 47.6265 34.719 48.0682 33.7005 48.4454H33.6989C31.4481 49.2816 29.0433 49.8035 26.5379 49.9544C26.1135 49.9811 25.6844 49.9952 25.2522 49.9999C25.2223 49.9999 25.1909 49.9999 25.161 49.9999V46.4226H25.1657C25.2192 46.4226 25.2679 46.4178 25.3229 46.4178C29.8685 46.3235 30.6937 41.7764 30.6937 41.7764C30.8147 41.7842 30.9326 41.7952 31.0489 41.8125C35.6574 42.523 38.6815 45.929 38.6815 45.929Z" fill="#FF3932"/>
<path d="M25.1604 46.4226V49.9999C25.107 49.9999 25.0535 49.9999 25.0001 49.9999H24.9765C24.8838 49.9999 24.7926 49.9999 24.7014 49.9999C24.2849 49.9952 23.8731 49.9795 23.4629 49.9544C20.948 49.8019 18.5338 49.2785 16.2735 48.436C15.3965 48.1091 14.543 47.735 13.7178 47.3153L11.2878 45.9102C11.2878 45.9102 14.2208 42.4821 19.2741 41.8125C19.392 41.7968 19.5067 41.7842 19.6293 41.7764C19.6293 41.7764 20.4545 46.3235 24.9985 46.4178C25.0535 46.4178 25.1038 46.4226 25.1573 46.4226H25.1604Z" fill="#DB242D"/>
<path d="M23.2415 25.6295V22.7249C23.2415 22.6431 23.1771 22.5787 23.1048 22.5787H17.3678V25.6122C17.3678 26.4013 18.0075 27.041 18.7965 27.041H21.8301C22.6097 27.041 23.2415 26.4091 23.2415 25.6295V25.6295ZM24.1579 21.6624V25.6295C24.1579 26.9153 23.1158 27.9573 21.8301 27.9573H18.8059C17.5108 27.9573 16.4514 26.898 16.4514 25.6028V21.8557C16.4514 21.7488 16.5379 21.6639 16.6432 21.6639H24.1579V21.6624Z" fill="#1F1F24"/>
<path d="M26.7202 25.8229V22.7249C26.7202 22.6431 26.7846 22.5787 26.8569 22.5787H32.5939V25.804C32.5939 26.4877 32.0407 27.041 31.3569 27.041H27.9383C27.2656 27.041 26.7202 26.4956 26.7202 25.8229ZM25.8038 21.6624V25.8229C25.8038 27.0017 26.7595 27.9573 27.9383 27.9573H31.3475C32.5374 27.9573 33.5103 26.9844 33.5103 25.7946V21.6624H25.8038V21.6624Z" fill="#1F1F24"/>
<path d="M16.9076 22.5787H14.1303L13.8536 21.6624H16.9076V22.5787Z" fill="#1F1F24"/>
<path d="M33.0548 22.5787H35.8337L36.1088 21.6624H33.0548V22.5787Z" fill="#1F1F24"/>
<path d="M26.0219 21.6624H23.9393V22.5787H26.0219V21.6624Z" fill="#1F1F24"/>
<path d="M14.1237 22.5849V19.1584C14.1237 18.503 14.2636 17.8821 14.5072 17.3163C21.8553 11.3639 27.1852 22.5079 35.7892 18.3725C35.8332 18.6287 35.8677 18.8881 35.8677 19.1568L35.8143 22.4764C36.5546 21.7408 37.0796 21.274 37.7335 21.3825L38.1138 18.8645C38.2113 16.2365 37.2179 13.6902 35.4166 11.7804C32.8106 9.01725 30.2046 8.12134 24.9942 8.12134C19.7837 8.12134 17.1761 9.01725 14.5717 11.7804C12.7704 13.6917 11.777 16.2365 11.8745 18.8645L12.2548 21.4752C12.9103 21.3683 13.5846 21.8131 14.1206 22.5849H14.1237Z" fill="#1F1F24"/>
</svg>
