<svg width="24" height="24" viewBox="0 0 24 24" fill="none" xmlns="http://www.w3.org/2000/svg">
<path d="M20.7236 16.4935C20.1657 15.536 19.5007 13.7189 19.5007 10.5V9.83478C19.5007 5.68305 16.1617 2.28058 12.0575 2.25019C12.0382 2.25009 12.0193 2.25 12.0002 2.25C10.0111 2.25013 8.1036 3.04036 6.69719 4.44688C5.29078 5.85339 4.50069 7.76097 4.5007 9.75V10.5C4.5007 13.7185 3.83539 15.5357 3.27729 16.4931C3.14407 16.721 3.07335 16.98 3.07228 17.244C3.0712 17.5079 3.13981 17.7675 3.27116 17.9965C3.40251 18.2254 3.59196 18.4157 3.82037 18.548C4.04878 18.6803 4.30806 18.75 4.57203 18.75H19.4287C19.6926 18.75 19.9518 18.6803 20.1802 18.548C20.4086 18.4158 20.5981 18.2256 20.7294 17.9967C20.8608 17.7677 20.9294 17.5082 20.9284 17.2443C20.9274 16.9804 20.8567 16.7214 20.7236 16.4935H20.7236Z" fill="white"/>
<path d="M14.9932 20.25H8.99316C8.79425 20.25 8.60349 20.329 8.46283 20.4697C8.32218 20.6103 8.24316 20.8011 8.24316 21C8.24316 21.1989 8.32218 21.3897 8.46283 21.5303C8.60349 21.671 8.79425 21.75 8.99316 21.75H14.9932C15.1921 21.75 15.3828 21.671 15.5235 21.5303C15.6641 21.3897 15.7432 21.1989 15.7432 21C15.7432 20.8011 15.6641 20.6103 15.5235 20.4697C15.3828 20.329 15.1921 20.25 14.9932 20.25Z" fill="white"/>
</svg>
