<?xml version="1.0" encoding="utf-8"?>
<!-- Created by UniConvertor 2.0rc5 (https://sk1project.net/) -->
<svg xmlns="http://www.w3.org/2000/svg" height="409.0px" width="571.0px" version="1.1" xmlns:xlink="http://www.w3.org/1999/xlink" id="72b9a814-effb-11ed-a2e1-0242ac130007">

<g>
	<path style="fill:#77cede;" d="M 132.351,48.2084 C 133.588,51.0409 133.588,53.9903 132.351,56.8229 L 0.1294,56.8229 0.1294,48.2084 132.351,48.2084 Z" />
	<path style="fill:#45858e;" d="M 0.0,58.8262 L 125.686,58.8262 C 125.728,58.3318 125.728,57.8346 125.686,57.3402 125.639,56.8864 125.56,56.4366 125.449,55.9941 L 0.0,55.9941 0.0,58.8262 Z" />
	<path style="fill:#77cede;" d="M 176.597,111.063 C 177.805,110.977 179.34,110.902 181.098,110.913 182.68,110.913 184.07,110.977 185.212,111.063 L 185.212,132.277 176.597,132.277 176.597,111.063 Z" />
	<path style="fill:#77cede;" d="M 185.621,110.998 L 176.479,110.998 176.479,73.3094 C 176.479,65.0825 170.319,58.3955 162.76,58.4171 L 128.141,58.514 128.141,48.5535 162.771,48.4565 C 175.37,48.4565 185.621,59.5477 185.632,73.2232 L 185.621,110.998 Z" />
	<path style="fill:#45858e;" d="M 127.064,59.0845 L 127.064,56.0914 163.311,55.9941 C 171.203,55.9941 177.674,62.6828 177.674,70.9383 L 177.674,110.912 174.844,110.912 174.844,70.9383 C 174.844,64.3253 169.681,58.9657 163.356,58.9765" />
	<path style="fill:#677e85;" d="M 172.29,115.133 L 172.29,112.045 C 172.292,111.743 172.398,111.455 172.584,111.243 172.771,111.031 173.022,110.912 173.284,110.912 L 185.286,110.912 C 185.416,110.91 185.546,110.939 185.667,110.995 185.788,111.051 185.898,111.134 185.991,111.239 186.084,111.345 186.159,111.47 186.21,111.608 186.261,111.746 186.287,111.894 186.289,112.045 L 186.289,115.163 C 186.29,115.313 186.265,115.461 186.215,115.6 186.165,115.739 186.092,115.865 185.999,115.97 185.907,116.076 185.797,116.159 185.675,116.215 185.554,116.271 185.425,116.298 185.294,116.296 L 173.293,116.296 C 173.16,116.297 173.029,116.268 172.906,116.21 172.783,116.151 172.672,116.066 172.578,115.957 172.485,115.849 172.411,115.72 172.362,115.578 172.312,115.437 172.288,115.285 172.29,115.133 Z" />
	<path style="fill:#4d656e;" d="M 186.289,113.065 L 172.29,113.065 172.29,115.219 186.289,115.219 186.289,113.065 Z" />
	<path style="fill:#677e85;" d="M 128.927,59.2238 L 126.265,59.2238 C 125.93,59.2315 125.602,59.1657 125.35,59.0399 125.098,58.9142 124.94,58.7381 124.91,58.5482 L 124.91,48.056 C 124.94,47.8661 125.098,47.69 125.35,47.5643 125.602,47.4385 125.93,47.3727 126.265,47.3804 L 128.927,47.3804 C 129.264,47.3726 129.593,47.4382 129.847,47.5638 130.101,47.6894 130.261,47.8655 130.294,48.056 L 130.294,58.5482 C 130.264,58.7393 130.105,58.9164 129.85,59.0423 129.595,59.1683 129.265,59.2333 128.927,59.2238 Z" />
	<path style="fill:#4d656e;" d="M 128.303,46.8218 L 126.849,46.8236 126.886,59.2247 128.339,59.2229 128.303,46.8218 Z" />
	<path style="fill:#77cede;" d="M 561.919,219.0 C 563.109,220.262 564.073,221.872 563.996,223.702 563.93,225.356 563.026,226.807 561.919,228.0 L 266.0,228.0 266.0,219.0 561.919,219.0 Z" />
	<path style="fill:#070807;" d="M 570.56,401.941 L 562.979,401.941 562.979,408.036 570.56,408.036 570.56,401.941 Z" />
	<path style="fill:#070807;" d="M 382.128,401.823 L 374.548,401.823 374.548,407.918 382.128,407.918 382.128,401.823 Z" />
	<path style="fill:#77cede;" d="M 396.823,318.327 C 395.433,318.781 393.977,318.999 392.515,318.973 391.177,318.951 389.85,318.733 388.574,318.327 L 388.574,225.721 396.823,225.721 396.823,318.327 Z" />
	<path style="fill:#77cede;" d="M 441.812,318.327 C 440.422,318.781 438.966,318.999 437.505,318.973 436.17,318.952 434.846,318.734 433.574,318.327 L 433.574,225.721 441.812,225.721 441.812,318.327 Z" />
	<path style="fill:#77cede;" d="M 488.834,318.327 C 487.443,318.779 485.988,318.997 484.526,318.973 483.199,318.95 481.882,318.732 480.617,318.327 L 480.617,225.721 488.866,225.721 488.834,318.327 Z" />
	<path style="fill:#77cede;" d="M 534.574,319.327 C 533.184,319.78 531.729,319.998 530.267,319.973 528.929,319.952 527.601,319.734 526.326,319.327 L 526.326,226.721 534.574,226.721 534.574,319.327 Z" />
	<path style="fill:#545454;" d="M 559.582,124.487 L 389.405,123.626 C 386.711,123.612 384.516,125.785 384.502,128.479 L 384.078,212.394 C 384.064,215.088 386.237,217.283 388.931,217.296 L 559.108,218.158 C 561.802,218.171 563.997,215.999 564.011,213.305 L 564.435,129.39 C 564.449,126.696 562.276,124.501 559.582,124.487 Z" />
</g>
</svg>