<?xml version="1.0" standalone="yes"?>
<svg xmlns="http://www.w3.org/2000/svg" width="1280" height="407">
<path style="fill:#060709; stroke:none;" d="M0 0L0 247L2 247L2 221C2.00021 217.771 1.2512 213.257 3.6034 210.649C11.63 201.748 29.0639 203.685 37.3966 195.182C43.0783 189.385 35.7474 176.927 40.0278 170.303C42.2098 166.926 47.4757 167.052 51 167.004C60.4899 166.875 76.1776 163.669 84.8519 168.434C93.6592 173.272 82.6568 190.088 90.3179 195.468C99.0954 201.631 119.054 202.128 124.972 211.39C129.504 218.483 125.422 234.682 126.055 242.961C126.354 246.87 129.028 250.001 128.848 253.997C128.471 262.354 125.671 270.054 126.019 278.985C126.185 283.258 129.041 286.728 128.848 290.997C128.7 294.286 126.561 296.879 126.133 300.09C124.836 309.821 127.225 317.848 129 327C140.887 319.523 156.573 324 170 324C170.001 315.68 171.738 310.232 181 309L181 276L189 276L190 309C199.262 310.232 200.999 315.68 201 324C205.928 323.4 210.105 320.772 213 326L220 326L227 347L238 347L238 350L227 350L220 371L213 371L213 374L170 376L170 373C159.518 373 135.021 379.459 129.179 367.995C127.245 364.201 128 359.128 128 355C119.663 355.657 114.788 364.874 106 366.532C85.3663 370.425 61.0067 367 40 367C30.4847 367 20.2013 368.226 12.0008 362.362C1.82388 355.085 2 345.275 2 334L0 334L0 407L1163 407L1163 406L1155 405C1153.65 387.924 1149.05 380.381 1134 372L1134 385L1130 385C1130 363.89 1125.96 342.996 1125.04 322C1124.02 298.705 1125.97 275.275 1124.96 252C1124.42 239.662 1124.23 227.381 1123.99 215C1123.89 210.086 1122.26 203.704 1124.45 199.09C1127.09 193.515 1134.92 189.29 1140 186.204C1155.29 176.921 1178.95 167.149 1197 167C1197 153.073 1195.01 139.173 1195 125C1195 119.805 1195.29 113.872 1189.96 111.028C1183.56 107.616 1170.17 109.755 1163.01 110.019C1160.83 110.099 1157.23 111.702 1155.23 110.713C1149.55 107.907 1153.19 96.4614 1158 95L1158 99L1169 99L1169 90L1166 91C1166 75.4896 1159.14 60.23 1167.03 45.0154C1170.82 37.7076 1182 37.0683 1185.51 45.0401C1190 55.2182 1187 67.2161 1187 78L1184 78L1184 91L1181 90L1181 99C1215.29 99.0038 1206 143.834 1206 167C1214.84 167.073 1222.42 171.214 1231 171.907C1246.65 173.17 1266.09 167.748 1280 176L1280 0L660 0L661 40L658 40L659 0L0 0z"/>
<path style="fill:#c7c7c5; stroke:none;" d="M659 0L659 40L660 40C662.677 30.9421 662.644 8.68289 659 0z"/>
<path style="fill:#4156a0; stroke:none;" d="M573 8L574 9L573 8M575 14L576 15L575 14M601 14L602 15L601 14M581 17L582 18L581 17M577 18L578 19L577 18M607 20L608 21L607 20M658 39L659 40L658 39M660 39L661 40L660 39M1166 91L1169 92C1173.19 89.6722 1176.81 89.6723 1181 92L1184 91C1184 77.4157 1189.73 66.256 1186.53 52.8302C1185.74 49.4761 1187.22 46.2811 1185.09 43.189C1180.5 36.5197 1168.48 38.0313 1166.31 46.0038C1161.8 62.6327 1166 74.6728 1166 91M634 44L634 54L635 54L634 44z"/>
<path style="fill:#c7c7c5; stroke:none;" d="M635 44L637 54L636 46L655 46L655 52L642 52L642 54L656 54L656 44L635 44z"/>
<path style="fill:#4156a0; stroke:none;" d="M656 44L656 54L657 54L656 44M605 46L604 48L605 46z"/>
<path style="fill:#1590ba; stroke:none;" d="M606.313 47.341C604.173 48.2278 605.548 51.5453 607.687 50.659C609.827 49.7722 608.452 46.4547 606.313 47.341z"/>
<path style="fill:#4156a0; stroke:none;" d="M608 46L609 47L608 46M613 46L614 47L613 46z"/>
<path style="fill:#1590ba; stroke:none;" d="M614.564 47.1713C612.573 48.4707 614.241 52.2614 616.436 50.8287C618.427 49.5294 616.759 45.7386 614.564 47.1713z"/>
<path style="fill:#4156a0; stroke:none;" d="M617 46L618 47L617 46z"/>
<path style="fill:#1590ba; stroke:none;" d="M636 46L636 52L641 53L641 51L655 52L655 46L636 46z"/>
<path style="fill:#4156a0; stroke:none;" d="M609 47L610 48L609 47M618 47L618 51L619 51L618 47M612.333 48.6667L612.667 49.3333L612.333 48.6667z"/>
<path style="fill:#1590ba; stroke:none;" d="M514 175L712 175L712 363L719 363L719 50L671 50C670.956 62.3568 661.852 60 652 60L597 60L597 50L595 50L595 61L712 62L712 136C712 141.932 714.803 157.991 710.397 162.397C707.812 164.981 702.306 164 699 164C688.626 164 678.32 163.017 668 163C631 162.941 594 163 557 163L529 163C525.899 163 521.029 163.822 518.603 161.397C514.862 157.655 517 145.932 517 141L517 84C517 78.9843 514.596 65.1785 519.318 62.0278C523.739 59.0773 533.852 61 539 61L591 61L591 50L530 50C525.308 50 512.185 47.2628 508.603 50.0316C505.776 52.2175 507 58.8843 507 62L507 97L507 241L507 335C507 339.606 504.353 362.813 510.09 363.534C514.898 364.138 513.999 356.851 514 354L514 320L514 175z"/>
<path style="fill:#4156a0; stroke:none;" d="M597 50L597 60L670 60L670 59L598 59L597 50M604 50L605 51L604 50M609 50L610 51L609 50M638 50L639 51L638 50M640 50L641 51L640 50M670 50L670 59L671 59L670 50M605 51L606 52L605 51M608 51L609 52L608 51M613 51L614 52L613 51M617 51L618 52L617 51M637 51L637 54L638 54L637 51M641 51L641 54L642 54L641 51z"/>
<path style="fill:#c7c7c5; stroke:none;" d="M638 52L641 54L638 52M712 62L639 62L638 67L637 67L637 62C609.626 62 582.411 61 555 61C544.602 61 530.108 58.3609 520.148 61.3179C514.396 63.0255 517 79.1881 517 84L517 141C517 145.897 514.876 157.418 518.028 161.397C520.025 163.918 525.197 163 528 163L556 163C593.658 163 631.345 162.556 669 163.004C679.318 163.127 689.621 164 700 164C702.98 164 708.853 165.073 710.972 162.397C714.795 157.569 712 142.034 712 136L712 62z"/>
<path style="fill:#4156a0; stroke:none;" d="M591 61L592 62L591 61M638 61L637 67L638 67L640 61L638 61M640 62L641 63L640 62M641 63L638 67L638 68L640 69L641 63z"/>
<path style="fill:#c7c7c5; stroke:none;" d="M1163 65L1164 66L1163 65M1163 68L1164 69L1163 68M1163 70L1164 71L1163 70z"/>
<path style="fill:#4156a0; stroke:none;" d="M638 73L637 79L638 79L640 73L638 73z"/>
<path style="fill:#c7c7c5; stroke:none;" d="M1186 77L1187 78L1186 77z"/>
<path style="fill:#4156a0; stroke:none;" d="M645 79L644 80L644 81L645 82L646 82L647 81L647 80L645 79M697 80L697 81L699 82L700 82L699 79L697 80z"/>
<path style="fill:#060709; stroke:none;" d="M645 80L646 81L645 80M698.333 80.6667L698.667 81.3333L698.333 80.6667z"/>
<path style="fill:#f0a026; stroke:none;" d="M603 97C603.222 92.9717 605.66 80.396 612.332 87.4491C615.262 90.5464 613.193 94.8246 616 98C616.965 95.995 617.765 94.2688 617.877 91.9954C618.85 72.2889 589.851 87.71 603 97z"/>
<path style="fill:#4156a0; stroke:none;" d="M591 85L590 137L591 137L592 101L591 85z"/>
<path style="fill:#1590ba; stroke:none;" d="M661 88L661 100L683 100C683 84.7798 673.751 88 661 88z"/>
<path style="fill:#c7c7c5; stroke:none;" d="M1169 99L1158 99L1158 107C1167.8 107 1183.77 103.982 1191.96 110.43C1202.07 118.396 1198 139.614 1198 151L1206 151C1206 128.918 1211.2 99 1181 99C1180.89 87.317 1169.11 87.3171 1169 99z"/>
<path style="fill:#4156a0; stroke:none;" d="M1114 94L1115 94L1117 92C1114.86 90.8823 1114.47 91.7492 1114 94M1118 91L1118 92C1124.69 96.2111 1132.34 95 1140 95L1140 93L1118 91M1108 93L1109 94L1108 93M1158 112L1158 95C1150.59 96.2371 1150.59 110.763 1158 112M1117 97L1117 98L1120 98L1117 97z"/>
<path style="fill:#f0a026; stroke:none;" d="M1116 98C1116.83 102.992 1120.17 102.992 1121 98L1116 98z"/>
<path style="fill:#4156a0; stroke:none;" d="M641 99L641 103L642 103L641 99M702 99L702 117L703 117L702 99M1115 99L1115 102L1116 102L1115 99M1121 99L1121 102L1122 102L1121 99z"/>
<path style="fill:#1590ba; stroke:none;" d="M1157 99C1157.01 120.514 1179.51 102.714 1190.89 112.318C1199.13 119.265 1195 141.136 1195 151L1198 151C1198 140.258 1202.14 118.111 1192.89 110.43C1184.86 103.756 1167.77 107 1158 107L1157 99z"/>
<path style="fill:#4156a0; stroke:none;" d="M270 101.428C261.267 102.679 249.482 104.219 243.228 111.105C234.136 121.117 239.626 146.455 249.105 154.606C260.299 164.232 281.787 162.57 295.015 160.653C311.925 158.201 323.036 126.969 314.146 113.04C306.238 100.651 282.936 99.5759 270 101.428M361 158L362 158C371.271 167.476 400.308 161.713 407.363 151.996C411.388 146.452 412.305 134.441 418.189 131.028C426.375 126.279 449.458 128.5 453.106 138.001C457.82 150.275 449.821 165.324 453 177L468 176L467 170L456 171C456 160.417 460.242 137.523 449.956 130.742C442.292 125.69 424.966 129 416 129C416 101.993 388.24 98.7435 366 101.87C357.159 103.112 343.477 105.558 339.738 115.001C335.448 125.837 338.666 141.616 344.966 150.985C348.02 155.526 355.581 160.969 361 158z"/>
<path style="fill:#c7c7c5; stroke:none;" d="M1032 153L1040 153C1040 140.729 1035.16 116.921 1049 110.653C1057.27 106.906 1068.22 110 1077 110L1077 101C1067.21 101 1053.09 98.4255 1044 102.367C1026.47 109.967 1032 137.79 1032 153z"/>
<path style="fill:#1590ba; stroke:none;" d="M263 102L264 103L263 102z"/>
<path style="fill:#060709; stroke:none;" d="M642 102L642 129C642 132.581 641.22 137.613 643.738 140.562C646.406 143.685 650.19 141.27 653.59 142.054C665.807 144.872 680.955 143.685 693 141L693 140L689 140L693 132L694 132L695 143L702 144L702 103L701 103C693.151 118.128 666.057 120.289 652.001 112.583C647.4 110.06 645.232 105.841 642 102z"/>
<path style="fill:#4156a0; stroke:none;" d="M1116 102L1116 106C1110.57 106.552 1107.81 108.863 1104 104L1103 104L1101 110L1101 111L1104 111L1102 120L1097 119L1097 124C1102.85 123.028 1104.91 126.516 1104 132L1106 135L1107 135L1109 130L1117 132L1117 131C1114.47 130.249 1112.2 129.438 1110.21 127.606C1090.65 109.586 1138.82 99.6085 1131.09 122C1130.07 124.949 1127.72 127.446 1126 130L1129 129L1134 135L1134 134L1133 130L1131 127L1131 126L1134 121L1139 122L1138 117L1135 118L1132 110L1137 108L1137 107L1132 105L1131 105L1130 108L1120 105L1121 102L1116 102M643 103L644 104L643 103M1132 103L1133 104L1132 103z"/>
<path style="fill:#f0a026; stroke:none;" d="M1133 103C1132.45 106.547 1133.45 107.547 1137 107L1133 103z"/>
<path style="fill:#4156a0; stroke:none;" d="M1135 103L1136 104L1135 103M700 104L701 105L700 104M1100 104L1098 108L1099 108L1100 104z"/>
<path style="fill:#f0a026; stroke:none;" d="M1103 104C1095.84 107.975 1105.6 111.698 1103 104z"/>
<path style="fill:#4156a0; stroke:none;" d="M1136 104L1137 105L1136 104z"/>
<path style="fill:#060709; stroke:none;" d="M297.667 105.333L298.333 105.667L297.667 105.333M396.667 105.333L397.333 105.667L396.667 105.333z"/>
<path style="fill:#4156a0; stroke:none;" d="M644 105L645 106L644 105z"/>
<path style="fill:#1590ba; stroke:none;" d="M658 105L657 107L658 105z"/>
<path style="fill:#4156a0; stroke:none;" d="M656 114L656 115L688 115L688 114C682.829 106.31 684.138 105 673 105L674 108L670 109L670 105C659.347 105 660.623 106.578 656 114z"/>
<path style="fill:#1590ba; stroke:none;" d="M670 105L671 106L670 105z"/>
<path style="fill:#4156a0; stroke:none;" d="M1137 105L1138 106L1137 105z"/>
<path style="fill:#c7c7c5; stroke:none;" d="M670.333 106.667L670.667 107.333L670.333 106.667z"/>
<path style="fill:#4156a0; stroke:none;" d="M671.333 106.667L671.667 107.333L671.333 106.667M699 106L700 107L699 106M645 107L646 108L645 107z"/>
<path style="fill:#1590ba; stroke:none;" d="M673 107L674 108L673 107z"/>
<path style="fill:#4156a0; stroke:none;" d="M698 107L699 108L698 107z"/>
<path style="fill:#1590ba; stroke:none;" d="M309 108L310 109L309 108z"/>
<path style="fill:#4156a0; stroke:none;" d="M646 108L647 109L646 108z"/>
<path style="fill:#1590ba; stroke:none;" d="M667 108L666 111L667 111L668 111L667 108z"/>
<path style="fill:#c7c7c5; stroke:none;" d="M667 109L667 110L669 109L667 111L667 112L669 108L667 109z"/>
<path style="fill:#1590ba; stroke:none;" d="M670 108L671 109L670 108z"/>
<path style="fill:#c7c7c5; stroke:none;" d="M674 108L673 109L673 111L674 112L676 112L677 111L677 109L676 108L674 108z"/>
<path style="fill:#1590ba; stroke:none;" d="M679 108L680 109L679 108z"/>
<path style="fill:#c7c7c5; stroke:none;" d="M680 108L682 112L682 108L680 108z"/>
<path style="fill:#4156a0; stroke:none;" d="M697 108L698 109L697 108z"/>
<path style="fill:#1590ba; stroke:none;" d="M1036 108L1037 109L1036 108M656 109L657 110L656 109z"/>
<path style="fill:#4156a0; stroke:none;" d="M668.333 109.667L668.667 110.333L668.333 109.667M674 109L674 111L676 111L676 109L674 109M680.333 109.667L680.667 110.333L680.333 109.667z"/>
<path style="fill:#1590ba; stroke:none;" d="M682.333 109.667L682.667 110.333L682.333 109.667M1040 153L1042 153C1042 143.276 1038.12 122.714 1045.28 115.225C1052.54 107.627 1067.78 111.272 1077 112L1077 110C1067.77 110 1055.52 106.368 1047.02 111.14C1035.31 117.71 1040 141.711 1040 153z"/>
<path style="fill:#4156a0; stroke:none;" d="M1099 109L1100 110L1099 109M648 110L649 111L648 110z"/>
<path style="fill:#c7c7c5; stroke:none;" d="M267 111L267 115L270 114L270 112L269 111L267 111M366 111L365 115L369 114L369 112L368 111L366 111z"/>
<path style="fill:#4156a0; stroke:none;" d="M649 111L650 112L649 111z"/>
<path style="fill:#1590ba; stroke:none;" d="M669 111L670 112L669 111z"/>
<path style="fill:#4156a0; stroke:none;" d="M694 111L695 112L694 111M651 112L652 113L651 112z"/>
<path style="fill:#c7c7c5; stroke:none;" d="M670 112L670 115L673 115L673 114C671.04 113.347 670.446 113 673 113L670 112z"/>
<path style="fill:#4156a0; stroke:none;" d="M693 112L694 113L693 112M1114 112L1115 113L1114 112z"/>
<path style="fill:#c7c7c5; stroke:none;" d="M1114 128L1115 128L1115 121L1116 129L1123 128C1127.01 123.674 1128.69 120.691 1126 115L1125 115L1122 127L1121 127L1121 124L1120 124L1119 126C1116.92 121.116 1115.81 116.905 1120 113C1108.11 108.41 1108.59 122.035 1114 128z"/>
<path style="fill:#4156a0; stroke:none;" d="M1120 112L1120 113L1126 115L1126 114L1120 112z"/>
<path style="fill:#1590ba; stroke:none;" d="M1204 112L1205 113L1204 112z"/>
<path style="fill:#f0a026; stroke:none;" d="M601 129L603 129L604 128C603.088 122.838 606.972 111.965 613.254 119.434C615.375 121.957 614.479 125.975 615 129C626.385 115.906 599.706 106.327 599.373 122.995C599.329 125.186 600.176 127.035 601 129z"/>
<path style="fill:#4156a0; stroke:none;" d="M653.667 113.333L654.333 113.667L653.667 113.333z"/>
<path style="fill:#1590ba; stroke:none;" d="M657 113L658 114L657 113z"/>
<path style="fill:#4156a0; stroke:none;" d="M671.667 113.333L672.333 113.667L671.667 113.333z"/>
<path style="fill:#1590ba; stroke:none;" d="M673 113L674 114L673 113z"/>
<path style="fill:#4156a0; stroke:none;" d="M690 113L691 114L690 113M1112 113L1113 114L1112 113M1118 113L1117 115L1118 113z"/>
<path style="fill:#060709; stroke:none;" d="M1119 124C1130.13 117.533 1118.09 110.6 1117.6 117.044C1117.43 119.311 1118.82 121.707 1119 124z"/>
<path style="fill:#4156a0; stroke:none;" d="M1139 114L1143 118L1142 114L1139 114M1120 115L1119 116L1119 118L1120 119L1122 119L1123 118L1123 116L1122 115L1120 115M1126 115L1127 116L1126 115z"/>
<path style="fill:#c7c7c5; stroke:none;" d="M264 116L264 117L270 117L264 116M363 116L363 122L364 122L363 116M365.667 116.333L366.333 116.667L365.667 116.333M368 116L369 117L368 116z"/>
<path style="fill:#4156a0; stroke:none;" d="M1109 116L1110 117L1109 116M1116.33 116.667L1116.67 117.333L1116.33 116.667z"/>
<path style="fill:#c7c7c5; stroke:none;" d="M1120 116L1120 118L1122 118L1122 116L1120 116z"/>
<path style="fill:#4156a0; stroke:none;" d="M1125.33 116.667L1125.67 117.333L1125.33 116.667M1127.33 116.667L1127.67 117.333L1127.33 116.667z"/>
<path style="fill:#1590ba; stroke:none;" d="M1205 116L1206 117L1205 116z"/>
<path style="fill:#c7c7c5; stroke:none;" d="M279 117L284 120L284 119L279 117M284 117L286 120L287 119L284 117M290 117L291 118L290 117M378 117L383 120L383 119L378 117M383 117L385 120L386 119L383 117M396 117L398 120L396 117z"/>
<path style="fill:#f0a026; stroke:none;" d="M1138 117C1139.22 124.309 1145.31 118.218 1138 117z"/>
<path style="fill:#c7c7c5; stroke:none;" d="M264 118L264 122L265 122L264 118M267 118L268 119L267 118M269.333 118.667L269.667 119.333L269.333 118.667M276.333 118.667L276.667 119.333L276.333 118.667M292 118L293 119L292 118M295 118L294 120L295 118M297 118L297 120L299 120L299 118L297 118M366 118L367 119L366 118M368.333 118.667L368.667 119.333L368.333 118.667M375.333 118.667L375.667 119.333L375.333 118.667M391 118L392 119L391 118M394 118L393 120L395 120L394 118z"/>
<path style="fill:#4156a0; stroke:none;" d="M1108.33 118.667L1108.67 119.333L1108.33 118.667M230 132C219.948 129.607 195.057 127.163 189.457 138.015C185.106 146.448 188 161.665 188 171L175 170L175 175L192 175L192 170L189 170C189 161.479 186.582 143.909 192.318 137.109C200.937 126.891 224.785 134.669 236 135L236 119C228.34 119.597 231.365 126.201 230 132z"/>
<path style="fill:#c7c7c5; stroke:none;" d="M289 119L290 120L289 119M388 119L389 120L388 119z"/>
<path style="fill:#f0a026; stroke:none;" d="M416 120L416 129C424.882 129 441.319 125.852 448.985 130.742C460.174 137.882 456 159.69 456 171L464 171C464 155.552 469.521 128.833 452 120.97C441.172 116.11 427.355 119.906 416 120z"/>
<path style="fill:#4156a0; stroke:none;" d="M1094 119L1095 120L1094 119z"/>
<path style="fill:#f0a026; stroke:none;" d="M1092 120C1093.66 124.137 1096.34 124.137 1098 120L1097 119L1092 120z"/>
<path style="fill:#4156a0; stroke:none;" d="M1117 119L1120 126L1118 121L1120 122L1117 119M1124 119L1125 120L1124 119M1128.33 119.667L1128.67 120.333L1128.33 119.667M655.667 120.333L656.333 120.667L655.667 120.333M670.667 120.333L671.333 120.667L670.667 120.333M675 120L676 121L675 120M679 120L680 121L679 120M1123 120L1124 121L1123 120z"/>
<path style="fill:#c7c7c5; stroke:none;" d="M269 121L270 122L269 121M368 121L369 122L368 121z"/>
<path style="fill:#4156a0; stroke:none;" d="M1108.33 121.667L1108.67 122.333L1108.33 121.667M1115 121L1114 129C1116.71 126.774 1116.6 123.983 1115 121z"/>
<path style="fill:#c7c7c5; stroke:none;" d="M1118.33 121.667L1118.67 122.333L1118.33 121.667M1142 121L1143 122L1142 121z"/>
<path style="fill:#4156a0; stroke:none;" d="M651 122L651 123L656 123L651 122M657 122L657 123L664 123L664 131L668 122L657 122M670 122L670 123L673 123L670 122M674.667 122.333L675.333 122.667L674.667 122.333M678.667 122.333L679.333 122.667L678.667 122.333M684 122L682 123L681 129L677 127L674 129L676 125L673 129L668 129L668 130L683 130L682 125L685 127L685 123L689 124L688 131L693 127L690 123L694 123L684 122z"/>
<path style="fill:#c7c7c5; stroke:none;" d="M1092 122L1093 123L1092 122z"/>
<path style="fill:#4156a0; stroke:none;" d="M1121 122L1121 127L1122 127L1121 122M1127.33 122.667L1127.67 123.333L1127.33 122.667z"/>
<path style="fill:#f0a026; stroke:none;" d="M178 170L188 171C188 161.849 185.249 147.302 189.457 139.004C195.577 126.934 218.913 129.942 230 132L231 123C215.311 123 186.799 117.086 179.97 136C176.262 146.269 180.005 159.2 178 170M276 123L277 128L284 128L284 124L283 124L282 126L276 123z"/>
<path style="fill:#c7c7c5; stroke:none;" d="M277 123L277 124L284 124L283 127C288.509 128.628 298.792 130.237 300 123L277 123z"/>
<path style="fill:#060709; stroke:none;" d="M300 123L300 128L292 128L292 129C296.359 128.985 302.232 128.876 300 123z"/>
<path style="fill:#f0a026; stroke:none;" d="M316 123L316 132L330 131L330 123L316 123z"/>
<path style="fill:#4156a0; stroke:none;" d="M331 123L332 124L331 123z"/>
<path style="fill:#f0a026; stroke:none;" d="M375 123L376 124L375 123z"/>
<path style="fill:#c7c7c5; stroke:none;" d="M375 127L376 127L376 124L382 124L380 127C386.155 126.625 397.567 131.589 399 123C392.806 123 377.315 120.024 375 127z"/>
<path style="fill:#060709; stroke:none;" d="M399 123L399 128L391 128L391 129C395.359 128.985 401.232 128.876 399 123M666 123L667 124L666 123z"/>
<path style="fill:#4156a0; stroke:none;" d="M277 124L278 125L277 124M280 124L281 125L280 124M282 124L283 125L282 124M376 124L377 125L376 124z"/>
<path style="fill:#f0a026; stroke:none;" d="M377 124L376 128L388 128L388 127L380 127L381 124L377 124z"/>
<path style="fill:#4156a0; stroke:none;" d="M378.667 124.333L379.333 124.667L378.667 124.333M381 124L382 125L381 124z"/>
<path style="fill:#c7c7c5; stroke:none;" d="M1095 124L1096 125L1095 124z"/>
<path style="fill:#4156a0; stroke:none;" d="M1109 124L1110 125L1109 124M1123.67 124.333L1124.33 124.667L1123.67 124.333z"/>
<path style="fill:#c7c7c5; stroke:none;" d="M276.333 125.667L276.667 126.333L276.333 125.667M282 125L283 126L282 125z"/>
<path style="fill:#4156a0; stroke:none;" d="M329 125L329 129L330 129L329 125M1110 125L1111 126L1110 125M1112 125L1113 126L1112 125M1126 125L1127 126L1126 125M1111 126L1112 127L1111 126M1113 126L1112 128L1114 128L1113 126M1123 128L1126 127L1123 128z"/>
<path style="fill:#f0a026; stroke:none;" d="M299 127L300 128L299 127M398 127L399 128L398 127z"/>
<path style="fill:#4156a0; stroke:none;" d="M651 127L651 131L656 127L651 127M657 127L659 130L660 130L663 128L657 127M1098 127L1099 128L1098 127M1117 128L1117 129L1122 129L1117 128z"/>
<path style="fill:#c7c7c5; stroke:none;" d="M674.667 128.333L675.333 128.667L674.667 128.333z"/>
<path style="fill:#f0a026; stroke:none;" d="M1131 130L1135 135L1137 131L1131 130z"/>
<path style="fill:#4156a0; stroke:none;" d="M1134 129L1135 130L1134 129M331 130L332 131L331 130M1124.67 130.333L1125.33 130.667L1124.67 130.333M1135 130L1136 131L1135 130M329 131L330 132L329 131z"/>
<path style="fill:#f0a026; stroke:none;" d="M1101 131L1100 135L1105 137C1105.9 133.157 1104.78 131.849 1101 131z"/>
<path style="fill:#4156a0; stroke:none;" d="M1102 131L1103 132L1102 131M1121.67 131.333L1122.33 131.667L1121.67 131.333M693 132L694 133L693 132M1117 132L1116 136L1122 137L1121 132L1117 132z"/>
<path style="fill:#c7c7c5; stroke:none;" d="M1136 132L1137 133L1136 132z"/>
<path style="fill:#4156a0; stroke:none;" d="M649 133L649 140L655 140L656 140L656 133L649 133z"/>
<path style="fill:#c7c7c5; stroke:none;" d="M692 133L693 140L695 140L695 133L692 133M1100 133L1101 134L1100 133z"/>
<path style="fill:#4156a0; stroke:none;" d="M1135 133L1136 134L1135 133z"/>
<path style="fill:#c7c7c5; stroke:none;" d="M180 134L181 135L180 134M277 134L277 138L281 137L280 134L277 134M285 134L284 137L289 137L288 134L285 134M293 134L292 137L296 138L296 134L293 134M376 134L376 138L380 137L379 134L376 134M384 134L383 137L388 137L387 134L384 134M391 135L391 137L395 138L395 134L391 135M1131 134L1132 135L1131 134z"/>
<path style="fill:#4156a0; stroke:none;" d="M560 135L559 137L561 137L560 135z"/>
<path style="fill:#c7c7c5; stroke:none;" d="M652 135L653 136L652 135z"/>
<path style="fill:#4156a0; stroke:none;" d="M662 135L662 136L664 139L661 137C661.735 140.429 665.241 141.054 667 138L662 135M666.667 135.333L667.333 135.667L666.667 135.333M670 135L668 137L668 138L670 140L670 135M673 135L673 136L675 137L672 140L676 138L675 140L676 140L684 140L685 135L679 139L678 139L673 135M692 135L690 139L691 136L690 136L689 140L693 140L692 135M694 135L695 136L694 135z"/>
<path style="fill:#f0a026; stroke:none;" d="M1122 139C1117.82 131.52 1113.38 142.268 1122 139z"/>
<path style="fill:#4156a0; stroke:none;" d="M568 136L569 137L568 136z"/>
<path style="fill:#c7c7c5; stroke:none;" d="M649 136L650 137L649 136M654 136L655 137L654 136M662 136L664 139L664 136L662 136M665 136L665 139L666 139L665 136z"/>
<path style="fill:#060709; stroke:none;" d="M666.333 136.667L666.667 137.333L666.333 136.667z"/>
<path style="fill:#c7c7c5; stroke:none;" d="M667 136L667 139L668 139L667 136M673 136L673 138L675 136L673 136M691 136L690 139L691 136M1102 136L1103 137L1102 136M670 137L671 138L670 137M678.333 137.667L678.667 138.333L678.333 137.667M683.333 137.667L683.667 138.333L683.333 137.667M654 138L650 139L650 140L654 138M675 138L676 139L675 138M681 138L682 139L681 138z"/>
<path style="fill:#4156a0; stroke:none;" d="M642 139L643 140L642 139M695 139L689 141C683.4 145.242 671.85 143 665 143L665 144L701 144L701 143L695 143L695 139M643 141L644 142L643 141M649 141L649 143L654 143L654 141L649 141z"/>
<path style="fill:#c7c7c5; stroke:none;" d="M690 141L691 142L690 141z"/>
<path style="fill:#4156a0; stroke:none;" d="M645 142L646 143L645 142z"/>
<path style="fill:#c7c7c5; stroke:none;" d="M691 142L692 143L691 142z"/>
<path style="fill:#060709; stroke:none;" d="M693 142L694 143L693 142z"/>
<path style="fill:#1590ba; stroke:none;" d="M310 148L311 149L310 148z"/>
<path style="fill:#4156a0; stroke:none;" d="M1195 151L1195 156L1207 156L1207 150L1195 151M1031 152L1030 158L1044 158L1043 152L1031 152z"/>
<path style="fill:#1590ba; stroke:none;" d="M1197 155L1197 156L1205 156L1197 155z"/>
<path style="fill:#c7c7c5; stroke:none;" d="M1197 156L1197 169C1206.48 168.966 1206 164.318 1206 156L1197 156z"/>
<path style="fill:#1590ba; stroke:none;" d="M1032 157L1032 158L1041 158L1032 157z"/>
<path style="fill:#c7c7c5; stroke:none;" d="M1032 158L1032 169L1041 169L1041 158L1032 158z"/>
<path style="fill:#1590ba; stroke:none;" d="M59 166.424C54.1782 167.05 43.2767 165.177 40.0278 169.564C35.2124 176.066 42.915 188.155 37.3966 194.501C29.5798 203.49 9.9525 200.954 3.02778 210.649C-0.740616 215.925 2.00286 230.637 2 237C1.99009 259.018 1.17256 281.042 1.98148 303.004C2.58849 319.484 -5.13679 345.161 7.21373 358.957C14.8811 367.522 25.503 367 36 367C58.631 367 83.6237 370.004 106 366.699C123.3 364.144 123.807 350.907 126.259 337.09C126.987 332.991 129.278 329.377 128.737 325.039C127.709 316.795 124.988 309.858 126.133 301.039C126.643 297.113 129.065 294.133 128.941 290.003C128.698 281.95 125.688 274.604 126.019 266.004C126.197 261.365 129.082 257.689 128.941 253.003C128.774 247.47 126.003 242.813 126 237C125.997 230.578 128.729 215.993 124.972 210.638C117.998 200.698 97.818 203.072 89.6034 194.301C84.3016 188.64 90.5599 176.942 87.3966 170.303C84.7767 164.805 64.2991 165.737 59 166.424z"/>
<path style="fill:#c7c7c5; stroke:none;" d="M178 167L179 168L178 167z"/>
<path style="fill:#4156a0; stroke:none;" d="M1125 196L1125 197C1150.64 196.983 1176.2 193 1202 193C1212.01 193 1223.32 196.385 1225 184L1231 185L1229 193C1240.77 196.479 1263.91 199.046 1276 197C1266.56 183.708 1251.61 179.373 1237.04 174.537C1228.84 171.815 1220.73 167.993 1212 167.171C1180.74 164.23 1150.78 178.965 1125 196z"/>
<path style="fill:#1590ba; stroke:none;" d="M1037 168L1038 169L1037 168z"/>
<path style="fill:#4156a0; stroke:none;" d="M1014 188L1016 187L1015 190L1026 198L1026 197C1019.1 193.342 1020.09 188.211 1027 184.92C1035.82 180.722 1056.3 182.574 1054 196C1063.46 189.171 1062.51 179.217 1052 173.674C1037.75 166.162 1017.87 171.694 1014 188M61 186L65 186L68 172C62.66 173.755 62.1392 181.031 61 186z"/>
<path style="fill:#c7c7c5; stroke:none;" d="M1233 172C1238.97 179.879 1257.26 177 1266 177L1266 172L1233 172z"/>
<path style="fill:#4156a0; stroke:none;" d="M1266 172L1266 177C1271.54 177.503 1274.56 179.199 1275 185L1280 185C1279.99 174.609 1276.09 172.007 1266 172z"/>
<path style="fill:#f0a026; stroke:none;" d="M179 174L179 199C192.511 198.952 192.511 174.048 179 174z"/>
<path style="fill:#4156a0; stroke:none;" d="M520 174L520 302L520 332C520.001 334.793 519.057 341.027 523.089 341.534C527.599 342.101 526.994 335.766 527 333L527 303L527 174L520 174M696 335C680.251 326.806 686 300.004 686 285L675 286C675.968 291.797 680.178 290.892 685 290C685 301.394 679.948 328.128 692.043 334.543C697.567 337.473 705.932 336 712 336L712 335L704 335L704 174C690.618 174.159 696 201.79 696 212L696 335z"/>
<path style="fill:#060709; stroke:none;" d="M514 175L514 201L520 201L520 175L514 175M527 175L527 201L542 198L542 195L561 195L561 198L582 201L605 198L605 195L624 195L624 198C630.751 198.001 636.409 200.445 643 200.91C653.998 201.687 668.807 197.615 677.815 205.529C685.976 212.7 685 223.2 685 233C685 250.865 683.609 269.158 685.714 287C687.325 300.646 679.215 329.277 696 335L696 175L527 175M704 175L704 335L712 335L712 175L704 175M1248 177L1248 178L1275 195C1275 190.833 1276.49 183.044 1273.97 179.514C1270.18 174.201 1253.83 177 1248 177z"/>
<path style="fill:#c7c7c5; stroke:none;" d="M1026 197L1026 198L1015 188L1014 188L1013 211L1018 210C1018.19 214.415 1020.21 219.261 1016 222C1021.03 259.321 1025.31 298.32 1025 336C1029.65 337.394 1030.27 339.88 1028 344L1028 345C1035.33 349.839 1044.27 347.606 1045.79 338C1046.82 331.456 1045.47 324.628 1046.17 318C1048.89 292.166 1050.59 265.572 1055.08 240C1057.95 223.73 1066.83 202.491 1062 186L1054 196C1057.86 181.491 1033.53 180.637 1025.02 185.417C1018.4 189.132 1019.17 194.65 1026 197z"/>
<path style="fill:#f0a026; stroke:none;" d="M1225 184L1226 185L1225 184z"/>
<path style="fill:#c7c7c5; stroke:none;" d="M1226 184L1224 193L1172 193.09L1124 197L1123 205C1154.93 199.05 1187.65 200 1220 200C1213.91 206.757 1203.28 202.522 1195 203.09C1172.1 204.658 1146.87 207.574 1124 206L1124 211C1153.6 205.505 1185.95 207 1216 207L1216 208C1202.37 208.283 1199.61 218.038 1198 230L1124 230L1125.09 324L1130 385L1134 385L1132 338L1143.26 346.21L1147.75 365L1155 405L1166.26 405.933L1174.06 389.318L1200 389.91L1233 390L1236 407L1247.14 404.397L1250.75 389L1257.89 348.104L1275 334L1275 372C1275 377.335 1273.45 383.908 1280 385C1273.64 369.998 1278 346.214 1278 330L1274 330L1274 326L1278 326L1279 266L1274 266L1279 263L1280 208L1269.99 206.058L1228 204L1228 200L1280 206L1280 185L1275 185L1276 197L1243 194.17L1231.41 192.972L1230 185L1226 184z"/>
<path style="fill:#f0a026; stroke:none;" d="M1230 185L1230 188L1231 188L1230 185z"/>
<path style="fill:#c7c7c5; stroke:none;" d="M59 186C57.8337 194.661 54.3837 207.438 47.5015 213.397C40.4719 219.483 32.8893 215.451 31 228L32 228C36.7909 209.048 73.6775 214.824 73.0841 233.424C72.7674 243.352 69.1003 267.187 60.9059 273.347C48.5179 282.66 24.6643 270.502 24 256L23 256C23.0147 261.324 23.206 266.657 27.3403 270.606C35.5326 278.43 60.7596 282.103 66.348 269.996C70.5021 260.996 77.3047 237.567 74.3465 228C72.5722 222.262 65.4336 220.794 63.885 215.787C60.8847 206.085 65.2204 196.545 66 187L59 186z"/>
<path style="fill:#4156a0; stroke:none;" d="M450 186.873C432.679 191.089 436.347 217.374 437.38 230C438.166 239.615 432.703 264.794 442.343 270.821C447.291 273.914 457.349 272 463 272C467.073 272 472.031 272.737 475.957 271.486C487.291 267.875 481.643 250.01 482.093 242C482.945 226.839 490.006 194.689 470.996 187.229C467.681 185.928 463.488 186.998 460 186.998C456.81 186.998 453.113 186.115 450 186.873z"/>
<path style="fill:#060709; stroke:none;" d="M1015.33 187.667L1015.67 188.333L1015.33 187.667z"/>
<path style="fill:#4156a0; stroke:none;" d="M1036 187L1036 188L1039 188L1036 187z"/>
<path style="fill:#f0a026; stroke:none;" d="M1039 187L1040 188L1039 187M1224.33 187.667L1224.67 188.333L1224.33 187.667z"/>
<path style="fill:#4156a0; stroke:none;" d="M1033 188C1024.73 205.515 1053.35 195.805 1040 188C1043.33 197.462 1030.76 194.818 1035 189L1033 188z"/>
<path style="fill:#060709; stroke:none;" d="M1035.23 188.762C1030.34 190.845 1034.72 196.341 1038.85 194.998C1044.16 193.272 1039.85 186.798 1035.23 188.762z"/>
<path style="fill:#4156a0; stroke:none;" d="M259 189L259 190L262 190L259 189z"/>
<path style="fill:#1590ba; stroke:none;" d="M304 345C304 322.39 305 299.683 305 277L305 234C305 223.958 307.827 205.745 302.258 197.015C295.062 185.737 256.984 184.471 248.854 195.185C242.97 202.941 246 218.761 246 228L246 311C246 318.583 246.603 326.462 245.715 334C245.323 337.317 243.869 342.417 246.742 345.062C250.463 348.487 259.304 347.94 264 348.004C277.718 348.189 290.41 347.635 304 345z"/>
<path style="fill:#4156a0; stroke:none;" d="M284 189L284 190L288 190L284 189M358 189L358 190L361 190L358 189z"/>
<path style="fill:#1590ba; stroke:none;" d="M403 345C403 322.326 404 299.717 404 277L404 223C404 216.061 404.977 204.228 401.821 198.004C395.448 185.436 356.112 184.411 347.653 195.185C341.965 202.43 345 218.252 345 227L345 311C345 318.26 340.037 339.813 345.742 345.062C349.093 348.145 357.704 347.945 362 347.996C376.096 348.164 389.092 346.796 403 345z"/>
<path style="fill:#4156a0; stroke:none;" d="M383 189L383 190L387 190L383 189z"/>
<path style="fill:#1590ba; stroke:none;" d="M474 189L475 190L474 189z"/>
<path style="fill:#4156a0; stroke:none;" d="M256.667 190.333L257.333 190.667L256.667 190.333M290.667 190.333L291.333 190.667L290.667 190.333M355 190L356 191L355 190M389 190L389 191L392 191L389 190z"/>
<path style="fill:#060709; stroke:none;" d="M1016 190L1017 191L1016 190z"/>
<path style="fill:#f0a026; stroke:none;" d="M1229.33 190.667L1229.67 191.333L1229.33 190.667M1223.33 191.667L1223.67 192.333L1223.33 191.667z"/>
<path style="fill:#060709; stroke:none;" d="M444 270L448 270C446.512 255.504 447.17 240.642 446.996 226C446.922 219.749 444.852 213.18 446.638 207C449.591 196.783 462.119 190.496 470.787 198.394C476.976 204.033 476 212.442 476 220C476 236.713 475 253.335 475 270L477 270L477 226C477 219.089 478.283 210.657 476.196 204C472.289 191.541 455.847 188.614 447.34 198.105C440.425 205.821 442.935 218.597 443.83 228C445.141 241.773 444 256.164 444 270z"/>
<path style="fill:#1590ba; stroke:none;" d="M477 192L478 193L477 192z"/>
<path style="fill:#4156a0; stroke:none;" d="M542 195L542 198L528 200L528 211C534.488 216.075 532 227.534 532 235L571 235C571 228.663 569.926 221.22 571.414 215.039C572.5 210.531 576.418 204.391 572.682 199.894C570.226 196.937 564.393 198 561 198L561 195L542 195M605 195L605 198L591 200L591 211C597.718 214.925 595 228.144 595 235L634 235C634 229.563 631.966 218.976 635.028 214.314C639.672 207.245 663.869 210.676 671 212L671 211L639 210L640 200L624 198L624 195L605 195M1052 196L1050 197L1050 198L1052 196z"/>
<path style="fill:#060709; stroke:none;" d="M1035 197L1035 198L1040 198L1035 197z"/>
<path style="fill:#4156a0; stroke:none;" d="M187 198L188 199L187 198M1027.67 198.333L1028.33 198.667L1027.67 198.333M1047.67 198.333L1048.33 198.667L1047.67 198.333M1030 199L1030 200L1035 200L1030 199M1042 199L1042 200L1046 200L1042 199M1124 206C1146.6 208.484 1173.24 204.648 1196 203.09C1202.95 202.614 1215.05 207.163 1219 200L1148 201.83L1124 206z"/>
<path style="fill:#f0a026; stroke:none;" d="M1219 200L1220 201L1219 200z"/>
<path style="fill:#4156a0; stroke:none;" d="M1228 200C1229.79 205.385 1235.27 203.72 1240 204.17C1249.1 205.036 1268.44 202.303 1275 209L1276 209L1276 204L1228 200z"/>
<path style="fill:#c7c7c5; stroke:none;" d="M457.019 201.742C445.825 206.17 452.794 224.13 463.996 220.092C476.636 215.536 469.519 196.798 457.019 201.742z"/>
<path style="fill:#f0a026; stroke:none;" d="M481 201L484 209L508 209L508 201L481 201M514 201L514 209L520 209L520 201L514 201M527 201L527 209L529 209L529 201L527 201M574 201L574 209L592 209L592 201L574 201M639 201L639 210C648.728 210 667.834 206.18 674.297 215.094C681.553 225.102 674.644 241.646 678 253L685 252C685 237.358 690.494 210.037 673.996 202.417C664.658 198.105 649.162 201 639 201M1218 202L1219 203L1218 202z"/>
<path style="fill:#1590ba; stroke:none;" d="M437 203L438 204L437 203z"/>
<path style="fill:#060709; stroke:none;" d="M441 203L439 206C441.251 205.527 442.118 205.14 441 203z"/>
<path style="fill:#4156a0; stroke:none;" d="M456 204L454 211L456 211L458 206C457.157 208.841 457.331 209.665 460 211L459 206L464 205L463 209L464 209L467 207C463.541 203.096 460.769 203.902 456 204z"/>
<path style="fill:#060709; stroke:none;" d="M478 203L480 206L479 212L483 211L478 203z"/>
<path style="fill:#f0a026; stroke:none;" d="M1217 203L1218 204L1217 203M1228 203L1229 204L1228 203z"/>
<path style="fill:#060709; stroke:none;" d="M458 204L459 205L458 204M461 204L462 205L461 204z"/>
<path style="fill:#1590ba; stroke:none;" d="M436 205L437 206L436 205z"/>
<path style="fill:#060709; stroke:none;" d="M1276 206L1276 209L1279 209L1279 206L1276 206z"/>
<path style="fill:#4156a0; stroke:none;" d="M1279.33 206.667L1279.67 207.333L1279.33 206.667z"/>
<path style="fill:#060709; stroke:none;" d="M437 208L438 212L442 207L437 208z"/>
<path style="fill:#4156a0; stroke:none;" d="M460.667 207.333L461.333 207.667L460.667 207.333z"/>
<path style="fill:#060709; stroke:none;" d="M466 207L467 208L466 207z"/>
<path style="fill:#4156a0; stroke:none;" d="M1124 230L1198 230C1200.35 218.635 1202.55 208.588 1216 208L1197 207L1149 208.985L1125.6 211.179L1124 230M466 208L466 213C468.034 211.231 468.034 209.769 466 208M1229 208L1236.91 218.015L1238 230L1275 230L1275 210L1229 208z"/>
<path style="fill:#c7c7c5; stroke:none;" d="M199 210L200 211L199 210z"/>
<path style="fill:#4156a0; stroke:none;" d="M200 210L201 211L200 210M461 210L460 213L460 214L465 213L464 210L461 210z"/>
<path style="fill:#060709; stroke:none;" d="M466 210L467 211L466 210z"/>
<path style="fill:#4156a0; stroke:none;" d="M1013 211L1015 220C1004.37 220 978.117 215.242 970.804 224.214C964.347 232.136 968 251.245 968 261L958 261L959 266L971 265C969.548 254.021 963.426 230.347 975.043 223.009C986.7 215.646 1006.3 223.477 1019 222L1018 210L1013 211z"/>
<path style="fill:#f0a026; stroke:none;" d="M1208 210L1209 211L1208 210z"/>
<path style="fill:#4156a0; stroke:none;" d="M1209 210.573C1201.63 212.723 1200.73 222.615 1199.13 229C1197.7 234.683 1194.41 242.117 1195.57 248C1197.45 257.494 1214.47 262.676 1223 260.181C1231.23 257.772 1231.75 248.05 1233.35 241C1234.68 235.126 1237.99 226.993 1236.41 221.001C1233.96 211.706 1217.2 208.184 1209 210.573z"/>
<path style="fill:#f0a026; stroke:none;" d="M1218 210L1219 211L1218 210z"/>
<path style="fill:#4156a0; stroke:none;" d="M194 212L199 219L191 222C189.479 218.249 188.182 216.39 184 217L184 218C187.373 218.148 188.28 219.326 186 222L186 223L189 224L186 233L178 233L178 234C181.889 233.656 184.02 235.631 180 238L180 239L186 237L190 247L185 251L191 252L201 252L200 257L205 257L203 251L210 248L211 251L212 251L215 247L211 245L212 240L211 240C209.519 242.08 208.103 243.986 205.981 245.491C188.539 257.864 181.21 217.543 202 222.448C204.971 223.149 207.491 225.37 210 227L215 223L215 222L211 223L210 220L209 220L208 223L202 215L198 216L198 211L194 212z"/>
<path style="fill:#f0a026; stroke:none;" d="M198 211L198 216L203 215L198 211z"/>
<path style="fill:#4156a0; stroke:none;" d="M824 211L824 244L813 244L813 246L818 246L818 265C823.868 265 838.011 267.565 842 263L828 264L828 250C832.954 250.976 838.95 252.145 840 246L847 246L847 212L845 212L845 244L843 244L843 212L841 212L841 244L836 244L836 211L833 211L833 244L825 244L824 211z"/>
<path style="fill:#f0a026; stroke:none;" d="M960 261L968 261C968 250.922 964.362 232.194 971.533 224.214C979.455 215.399 1004.04 220 1015 220C1014.99 217.588 1015.55 213.885 1013.4 212.179C1010.23 209.672 1004.57 211.49 1001 211.83C990.427 212.836 977.254 209.1 968.004 215.649C954.443 225.25 958.88 246.808 960 261z"/>
<path style="fill:#c7c7c5; stroke:none;" d="M463 212L464 213L463 212z"/>
<path style="fill:#4156a0; stroke:none;" d="M672 212L673 213L672 212z"/>
<path style="fill:#f0a026; stroke:none;" d="M1227 212L1228 213L1227 212z"/>
<path style="fill:#4156a0; stroke:none;" d="M174 213L172 235L173 235C175.918 229.392 176.457 218.855 174 213z"/>
<path style="fill:#060709; stroke:none;" d="M439 213L441 216L441 213L439 213M458 213L459 214L458 213M479 213L479 216L481 213L479 213z"/>
<path style="fill:#4156a0; stroke:none;" d="M673 213L674 214L673 213z"/>
<path style="fill:#f0a026; stroke:none;" d="M1230 213L1231 214L1230 213z"/>
<path style="fill:#4156a0; stroke:none;" d="M674.333 214.667L674.667 215.333L674.333 214.667z"/>
<path style="fill:#f0a026; stroke:none;" d="M41.6667 216.333L42.3333 216.667L41.6667 216.333z"/>
<path style="fill:#4156a0; stroke:none;" d="M43 216.444C31.4454 218.406 31.1531 230.726 28.5756 240C26.7424 246.596 22.9424 255.102 24.537 262C27.0128 272.709 46.2741 277.603 56 275.655C66.6496 273.522 67.3692 260.626 69.3488 252C70.9967 244.819 74.6716 235.326 72.3472 228.004C69.393 218.698 51.5463 214.994 43 216.444M675.333 216.667L675.667 217.333L675.333 216.667z"/>
<path style="fill:#f0a026; stroke:none;" d="M1202 216L1203 217L1202 216M54 217L55 218L54 217M185.603 218.157C183.87 219.314 185.664 222.001 187.397 220.843C189.13 219.686 187.336 216.999 185.603 218.157z"/>
<path style="fill:#4156a0; stroke:none;" d="M210 219L213 218L210 219z"/>
<path style="fill:#f0a026; stroke:none;" d="M213 217L211 223L216 220L216 219L213 217M36 218L37 219L36 218M58 218L59 219L58 218z"/>
<path style="fill:#4156a0; stroke:none;" d="M214 218L215 219L214 218z"/>
<path style="fill:#f0a026; stroke:none;" d="M35 219L36 220L35 219M62 219L63 220L62 219z"/>
<path style="fill:#4156a0; stroke:none;" d="M183 219L184 220L183 219M676 219L675 257L687 258L687 252L678 253L676 219z"/>
<path style="fill:#f0a026; stroke:none;" d="M65 220L66 221L65 220z"/>
<path style="fill:#c7c7c5; stroke:none;" d="M215.333 220.667L215.667 221.333L215.333 220.667z"/>
<path style="fill:#f0a026; stroke:none;" d="M1201 220L1202 221L1201 220M1236 220L1237 221L1236 220M67 221L68 222L67 221z"/>
<path style="fill:#4156a0; stroke:none;" d="M184 221L185 222L184 221M810 221L810 224L812 224L812 221L810 221M199 225L199 226L203 226L199 225M197 226L198 227L197 226z"/>
<path style="fill:#c7c7c5; stroke:none;" d="M195 228L195 229L202 232L207 231L207 232L205 233L208 234L208 235L205 236L208 237L208 238L204 239L204 237L194 234L193 234C193.19 237.66 193.707 241.76 197.214 243.82C201.673 246.44 206.762 244.097 206 239L209 240C208.988 235.762 209.533 231.594 205 230L206 227L195 228z"/>
<path style="fill:#4156a0; stroke:none;" d="M204 226L205 227L204 226M810 226L810 228L812 228L812 226L810 226z"/>
<path style="fill:#f0a026; stroke:none;" d="M1236 226L1237 227L1236 226z"/>
<path style="fill:#4156a0; stroke:none;" d="M206 227L205 230L208 230L206 227M210 227L211 228L210 227z"/>
<path style="fill:#f0a026; stroke:none;" d="M1199 227L1200 228L1199 227M31 228L32 229L31 228z"/>
<path style="fill:#4156a0; stroke:none;" d="M196 228L196 229L199 229L196 228z"/>
<path style="fill:#c7c7c5; stroke:none;" d="M30 229L27 244L28 244L30 229z"/>
<path style="fill:#4156a0; stroke:none;" d="M194 229L192 238L193 238L194 229z"/>
<path style="fill:#060709; stroke:none;" d="M205 235C200.555 222.471 189.949 235.963 197.969 236.272C200.332 236.363 202.534 234.967 205 235z"/>
<path style="fill:#4156a0; stroke:none;" d="M200 229L201 230L200 229M211 229L212 230L211 229M201 230L202 231L201 230M208.333 230.667L208.667 231.333L208.333 230.667M810 230L810 233L812 233L812 230L810 230M196 231L196 232L200 233L200 232L196 231M204 231L204 232L207 232L204 231M212 231L212 240L213 240L213 236L218 238L218 237L218 233L218 232L212 231z"/>
<path style="fill:#f0a026; stroke:none;" d="M1198 231L1199 232L1198 231M1235 231L1236 232L1235 231M30 232L31 233L30 232M73 232L74 233L73 232z"/>
<path style="fill:#c7c7c5; stroke:none;" d="M196 232L199 234L196 232z"/>
<path style="fill:#4156a0; stroke:none;" d="M207 232L208 233L207 232z"/>
<path style="fill:#f0a026; stroke:none;" d="M220 238L220 232C215.863 233.656 215.863 236.344 220 238M179.643 234.067C177.453 235.69 180.404 238.38 182.357 236.933C184.547 235.31 181.596 232.62 179.643 234.067z"/>
<path style="fill:#4156a0; stroke:none;" d="M196 233L197 234L196 233M205 233L208 235L208 234L205 233M209 233L209 238L210 238L209 233z"/>
<path style="fill:#060709; stroke:none;" d="M450 233L450 239L451 239L450 233M455 233L456 234L455 233M459 233L460 234L459 233M464 233L465 234L464 233M469.333 233.667L469.667 234.333L469.333 233.667z"/>
<path style="fill:#4156a0; stroke:none;" d="M201 234L201 235L204 235L204 236L199 236L199 237L204 237L204 239L208 238L208 237L201 234M194 235L195 236L194 235z"/>
<path style="fill:#c7c7c5; stroke:none;" d="M201 235L201 236L204 236L201 235z"/>
<path style="fill:#1590ba; stroke:none;" d="M532 235L532 239L536 239L536 307C536 314.783 534.997 326.707 544.015 330.258C553.852 334.131 563.538 328.221 564.815 318C568.002 292.492 565 264.722 565 239L571 239L571 235L532 235M595 235L595 239L599 239C599 264.284 596.645 290.851 599.171 316C600.247 326.716 608.765 334.675 619.985 330.258C629.003 326.707 628 314.783 628 307L628 239L634 239L634 235L595 235z"/>
<path style="fill:#f0a026; stroke:none;" d="M1197 235L1198 236L1197 235M1234 235L1235 236L1234 235z"/>
<path style="fill:#4156a0; stroke:none;" d="M1279 235L1280 236L1279 235z"/>
<path style="fill:#f0a026; stroke:none;" d="M29 236L30 237L29 236z"/>
<path style="fill:#4156a0; stroke:none;" d="M171 236L172 237L171 236M195 236L196 237L195 236z"/>
<path style="fill:#060709; stroke:none;" d="M1279 236C1279 258.888 1281.4 283.312 1278.42 306C1277.5 313.044 1280.25 322.502 1275 328L1278 329C1278 345.807 1274.24 367.902 1279 384L1280 384L1280 280C1280 267.532 1283.81 247.456 1279 236z"/>
<path style="fill:#f0a026; stroke:none;" d="M72 237L73 238L72 237z"/>
<path style="fill:#4156a0; stroke:none;" d="M178 237L179 238L178 237z"/>
<path style="fill:#c7c7c5; stroke:none;" d="M220 237L221 238L220 237z"/>
<path style="fill:#4156a0; stroke:none;" d="M172 238L172 240L174 240L172 238z"/>
<path style="fill:#060709; stroke:none;" d="M469 238L469 241L471 238L469 238z"/>
<path style="fill:#4156a0; stroke:none;" d="M193.333 239.667L193.667 240.333L193.333 239.667M206 239L207 243L208 243L206 239z"/>
<path style="fill:#f0a026; stroke:none;" d="M1196 239L1197 240L1196 239M28 240L29 241L28 240z"/>
<path style="fill:#4156a0; stroke:none;" d="M205 240L206 241L205 240z"/>
<path style="fill:#060709; stroke:none;" d="M449.667 240.333L450.333 240.667L449.667 240.333M455 240L456 241L455 240M459 240L460 241L459 240M464 240L465 241L464 240z"/>
<path style="fill:#f0a026; stroke:none;" d="M1233 240L1234 241L1233 240z"/>
<path style="fill:#4156a0; stroke:none;" d="M194 241L195 242L194 241z"/>
<path style="fill:#f0a026; stroke:none;" d="M71 242L72 243L71 242z"/>
<path style="fill:#4156a0; stroke:none;" d="M206 243L207 244L206 243z"/>
<path style="fill:#f0a026; stroke:none;" d="M1195 243L1196 244L1195 243z"/>
<path style="fill:#c7c7c5; stroke:none;" d="M26 244L26 248L27 248L26 244z"/>
<path style="fill:#4156a0; stroke:none;" d="M197 244L198 245L197 244M204 244L205 245L204 244z"/>
<path style="fill:#c7c7c5; stroke:none;" d="M465 244L466 245L465 244z"/>
<path style="fill:#f0a026; stroke:none;" d="M1232 244L1233 245L1232 244z"/>
<path style="fill:#4156a0; stroke:none;" d="M199 245L199 246L203 246L199 245z"/>
<path style="fill:#f0a026; stroke:none;" d="M70 246L71 247L70 246M1124 246L1125 247L1124 246M212 253C220.991 252.282 213.416 244.35 212 253z"/>
<path style="fill:#c7c7c5; stroke:none;" d="M216 247L217 248L216 247z"/>
<path style="fill:#4156a0; stroke:none;" d="M810 247L811 248L810 247z"/>
<path style="fill:#c7c7c5; stroke:none;" d="M25 248L25 252L26 252L25 248z"/>
<path style="fill:#060709; stroke:none;" d="M478 248L481 251L478 248z"/>
<path style="fill:#f0a026; stroke:none;" d="M1195 248L1196 249L1195 248M187.313 250.341C185.173 251.228 186.548 254.545 188.687 253.659C190.827 252.772 189.452 249.455 187.313 250.341z"/>
<path style="fill:#060709; stroke:none;" d="M440 251L443 249L440 251z"/>
<path style="fill:#c7c7c5; stroke:none;" d="M449 250L448 254L452 254L451 250L449 250M828 250L828 264L840 264L840 250L828 250z"/>
<path style="fill:#f0a026; stroke:none;" d="M1196 251L1197 252L1196 251z"/>
<path style="fill:#c7c7c5; stroke:none;" d="M24 252L24 255L25 255L24 252z"/>
<path style="fill:#060709; stroke:none;" d="M439 252L439 256L443 252L439 252M478 252L482 256L482 252L478 252z"/>
<path style="fill:#4156a0; stroke:none;" d="M185 253L186 254L185 253M190 253L191 254L190 253z"/>
<path style="fill:#f0a026; stroke:none;" d="M1230 253L1231 254L1230 253z"/>
<path style="fill:#4156a0; stroke:none;" d="M186 254L187 255L186 254M189 254L190 255L189 254M448 254L447 259L448 259L448 254z"/>
<path style="fill:#1590ba; stroke:none;" d="M449.667 254.333L450.333 254.667L449.667 254.333z"/>
<path style="fill:#f0a026; stroke:none;" d="M1198 254L1199 255L1198 254M24 255L25 256L24 255M68 255L69 256L68 255z"/>
<path style="fill:#4156a0; stroke:none;" d="M187 255L188 256L187 255z"/>
<path style="fill:#c7c7c5; stroke:none;" d="M449 255L448 259L452 259L451 255L449 255z"/>
<path style="fill:#f0a026; stroke:none;" d="M1199 255L1200 256L1199 255M1229 255L1230 256L1229 255M201 256C200.311 260.468 203.569 261.305 205 257L201 256z"/>
<path style="fill:#c7c7c5; stroke:none;" d="M959 256L960 257L959 256z"/>
<path style="fill:#060709; stroke:none;" d="M440 257L442 260L442 257L440 257M479 257L479 260L480 260L481 257L479 257z"/>
<path style="fill:#f0a026; stroke:none;" d="M676 257L676 286L685 286L685 257L676 257M1204 257L1205 258L1204 257z"/>
<path style="fill:#4156a0; stroke:none;" d="M199 258L200 259L199 258z"/>
<path style="fill:#f0a026; stroke:none;" d="M1208 258L1209 259L1208 258M67 259L68 260L67 259M1213 259L1214 260L1213 259z"/>
<path style="fill:#060709; stroke:none;" d="M0 260L0 284L2 284L2 260L0 260z"/>
<path style="fill:#4156a0; stroke:none;" d="M175 260L176 261L175 260M200 260L201 261L200 260z"/>
<path style="fill:#c7c7c5; stroke:none;" d="M204 260L205 261L204 260M449 260L448 264L452 264L451 260L449 260z"/>
<path style="fill:#f0a026; stroke:none;" d="M1217 260L1218 261L1217 260M1222 260L1223 261L1222 260z"/>
<path style="fill:#060709; stroke:none;" d="M1275 263L1275 266L1278 266L1278 263L1275 263z"/>
<path style="fill:#4156a0; stroke:none;" d="M1278 263L1278 266L1279 266L1278 263z"/>
<path style="fill:#f0a026; stroke:none;" d="M66 264L67 265L66 264z"/>
<path style="fill:#1590ba; stroke:none;" d="M449.667 264.333L450.333 264.667L449.667 264.333z"/>
<path style="fill:#4156a0; stroke:none;" d="M1274.33 264.667L1274.67 265.333L1274.33 264.667z"/>
<path style="fill:#c7c7c5; stroke:none;" d="M818 265L818 267L843 267L843 265L818 265z"/>
<path style="fill:#f0a026; stroke:none;" d="M960 265L960 296L945 287L945 311L960 304C961.49 308.487 967.888 309.395 968.852 303.891C970.99 291.682 969 277.406 969 265L960 265z"/>
<path style="fill:#4156a0; stroke:none;" d="M818 267L818 268L843 268L818 267z"/>
<path style="fill:#f0a026; stroke:none;" d="M65 268L66 269L65 268z"/>
<path style="fill:#4156a0; stroke:none;" d="M815 269L813 277L830 277L829 315L833 317L832 277L847 277C846.638 265.074 824.357 270.183 815 269z"/>
<path style="fill:#f0a026; stroke:none;" d="M31 271L32 272L31 271M63 271L64 272L63 271M35 272L36 273L35 272M62 272L63 273L62 272M40 273L41 274L40 273M61 273L62 274L61 273M44 274L45 275L44 274M57 275L58 276L57 275z"/>
<path style="fill:#4156a0; stroke:none;" d="M181 276L181 277L185 277L181 276M188 276L189 277L188 276z"/>
<path style="fill:#f0a026; stroke:none;" d="M181 277L181 309L190 309L190 277L181 277z"/>
<path style="fill:#c7c7c5; stroke:none;" d="M815 277L815 313L816 313C816 302.613 819.011 286.56 815 277M817 277L817 313L830 314L830 277L817 277M832 277L832 316C851.052 313.186 845 292.194 845 277L832 277M846 277L846 312L847 312L846 277M759 286L762 286L762 279C758.223 280.265 758.431 282.334 759 286z"/>
<path style="fill:#4156a0; stroke:none;" d="M758 283L758 287L762 287L762 286L758 283z"/>
<path style="fill:#c7c7c5; stroke:none;" d="M897 283L898 290L903 284L897 283z"/>
<path style="fill:#4156a0; stroke:none;" d="M900 289L901 290L900 289z"/>
<path style="fill:#f0a026; stroke:none;" d="M676 291C676 308.281 670.713 337.116 692 343.779C698.349 345.767 705.431 345 712 345L712 336C706.129 336 698.39 337.313 693.015 334.543C679.952 327.811 685 302.105 685 290L676 291z"/>
<path style="fill:#4156a0; stroke:none;" d="M777 293L778 306L779 306L779 302L782 308L785 308L784 293L777 293M915 296L916 308L922 308L922 296L918 296L918 301L917 301L915 296z"/>
<path style="fill:#f0a026; stroke:none;" d="M917 296L918 297L917 296z"/>
<path style="fill:#060709; stroke:none;" d="M0 297L0 321L2 321L2 297L0 297z"/>
<path style="fill:#c7c7c5; stroke:none;" d="M917 297L917 300L918 300L919 297L917 297M920 297L920 300L921 300L920 297z"/>
<path style="fill:#f0a026; stroke:none;" d="M919 299L920 300L919 299z"/>
<path style="fill:#c7c7c5; stroke:none;" d="M944 299L945 300L944 299z"/>
<path style="fill:#f0a026; stroke:none;" d="M917 300L918 301L917 300M920 300L921 301L920 300z"/>
<path style="fill:#4156a0; stroke:none;" d="M744.333 301.667L744.667 302.333L744.333 301.667z"/>
<path style="fill:#c7c7c5; stroke:none;" d="M745 301L745 303L749 303L749 301L745 301z"/>
<path style="fill:#4156a0; stroke:none;" d="M749.333 301.667L749.667 302.333L749.333 301.667z"/>
<path style="fill:#c7c7c5; stroke:none;" d="M771 301L771 303L776 303L776 301L771 301M779 302L779 312L781 312L780 305L783 307L779 302M785 302L783 307L787 312L787 302L785 302z"/>
<path style="fill:#4156a0; stroke:none;" d="M884 304L884 305L890 305L884 304M909 304L909 305L915 305L909 304z"/>
<path style="fill:#f0a026; stroke:none;" d="M918 303L917 305L918 303z"/>
<path style="fill:#c7c7c5; stroke:none;" d="M919 303L920 304L919 303M885 304L885 305L889 305L885 304M910 304L910 305L914 305L910 304z"/>
<path style="fill:#1590ba; stroke:none;" d="M780 305L781 306L780 305z"/>
<path style="fill:#c7c7c5; stroke:none;" d="M917 305L918 306L917 305z"/>
<path style="fill:#4156a0; stroke:none;" d="M780.333 306.667L780.667 307.333L780.333 306.667z"/>
<path style="fill:#060709; stroke:none;" d="M784 306L785 307L784 306z"/>
<path style="fill:#f0a026; stroke:none;" d="M920 306L921 307L920 306z"/>
<path style="fill:#c7c7c5; stroke:none;" d="M954 306L955 307L954 306z"/>
<path style="fill:#f0a026; stroke:none;" d="M918.667 307.333L919.333 307.667L918.667 307.333z"/>
<path style="fill:#4156a0; stroke:none;" d="M157 328L157 323C150.151 323 136.596 320.4 131.228 325.318C124.826 331.184 127.754 354.568 128.015 363C128.129 366.664 128.914 370.035 132.109 372.258C137.965 376.332 150.136 374 157 374L157 369L177 368L177 365L157 364L157 363L205 362L205 365L198 365L198 368L205 368L205 374L213 374L213 371L220 371L226.851 357L226.397 338L220 326L213 326L213 323L205 323L205 329C198.036 324.728 204.194 315.924 197.852 311.483C191.661 307.148 175.186 306.806 171.028 314.174C168.926 317.899 171.791 324.213 168.397 327.168C165.877 329.362 160.117 328.008 157 328z"/>
<path style="fill:#1590ba; stroke:none;" d="M194 309L195 310L194 309z"/>
<path style="fill:#4156a0; stroke:none;" d="M743 310L743 318L770 317L770 316L768 314L767 314L767 316L766 316L765 313L764 316L755 316L754 316L754 310L743 310z"/>
<path style="fill:#c7c7c5; stroke:none;" d="M754 310L754 316L755 316L758 316L758 311L754 310z"/>
<path style="fill:#1590ba; stroke:none;" d="M757 310L758 311L757 310z"/>
<path style="fill:#4156a0; stroke:none;" d="M758 310L758 314L759 314L759 311L762 313L763 313L767 313L768 313L772 313L773 313C774.954 311.475 776.593 312.636 774 314L774 315L776 315L776 316L771 318L778 318L778 310L758 310z"/>
<path style="fill:#1590ba; stroke:none;" d="M173 311L174 312L173 311M744 311L744 312L747 312L744 311z"/>
<path style="fill:#c7c7c5; stroke:none;" d="M748 311C746.98 313.899 746.772 315.308 750 316L750 315L748 315L748 314L751 313L748 311z"/>
<path style="fill:#1590ba; stroke:none;" d="M749 311L750 312L749 311z"/>
<path style="fill:#4156a0; stroke:none;" d="M755 311L755 313L757 313L757 311L755 311z"/>
<path style="fill:#1590ba; stroke:none;" d="M759 311L758 315L762 311L759 311z"/>
<path style="fill:#c7c7c5; stroke:none;" d="M760 311L761 312L760 311z"/>
<path style="fill:#1590ba; stroke:none;" d="M763 311L763 312L766 313L763 311z"/>
<path style="fill:#c7c7c5; stroke:none;" d="M765 311L766 312L765 311M769 311L768 317L771 316L771 317L769 317C773.347 317.717 771.402 312.523 769 311z"/>
<path style="fill:#1590ba; stroke:none;" d="M770.667 311.333L771.333 311.667L770.667 311.333M773 311L773 312L777 313L777 312L773 311z"/>
<path style="fill:#c7c7c5; stroke:none;" d="M774 311L775 312L774 311z"/>
<path style="fill:#4156a0; stroke:none;" d="M882 312L882 313L883 319L916 319L916 312L882 312z"/>
<path style="fill:#c7c7c5; stroke:none;" d="M893 311L893 312L896 312L893 311M744 312L744 316L745 316L746 312L744 312z"/>
<path style="fill:#1590ba; stroke:none;" d="M748 312L749 313L748 312z"/>
<path style="fill:#c7c7c5; stroke:none;" d="M759 312L760 313L759 312M761 312L759 316C761.649 315.432 762.355 314.412 761 312M763 312L763 316L764 316L765 312L763 312M766 312L766 316L767 316L766 312z"/>
<path style="fill:#1590ba; stroke:none;" d="M769 312L770 313L769 312z"/>
<path style="fill:#c7c7c5; stroke:none;" d="M773 312L776 316L776 315L774 315L774 314L777 313L773 312z"/>
<path style="fill:#4156a0; stroke:none;" d="M818.667 312.333L819.333 312.667L818.667 312.333M822 312L822 313L825 313L822 312M844 312L845 313L844 312M846 312L846 321L845 321C842.522 317.347 839.518 319.636 836 321C837.976 332.873 850.082 321.728 846 312z"/>
<path style="fill:#f0a026; stroke:none;" d="M884 312L885 313L884 312M887 312L888 313L887 312M892 312L892 316L893 316L892 312M896 312L897 313L896 312M899 312L900 313L899 312M908 312L909 313L908 312M913 312L914 313L913 312z"/>
<path style="fill:#1590ba; stroke:none;" d="M170 313L171 314L170 313M757 313L758 314L757 313M762 313L762 316L763 316L762 313M767 313L768 314L767 313z"/>
<path style="fill:#4156a0; stroke:none;" d="M769 313L769 315L771 313L769 313z"/>
<path style="fill:#1590ba; stroke:none;" d="M772.333 313.667L772.667 314.333L772.333 313.667z"/>
<path style="fill:#4156a0; stroke:none;" d="M815 313L816 314L815 313M827 313L828 314L827 313M841.667 313.333L842.333 313.667L841.667 313.333z"/>
<path style="fill:#c7c7c5; stroke:none;" d="M882 313L882 317L884 317L884 313L882 313M886 313C887.127 315.006 887.873 315.006 889 313L886 313z"/>
<path style="fill:#f0a026; stroke:none;" d="M895 313L896 314L895 313M898 313L899 314L898 313z"/>
<path style="fill:#c7c7c5; stroke:none;" d="M900 313L897 315L897 316L901 317L900 313M902 313L902 317L903 317L902 313M904 313L905 314L904 313M907 313L908 314L907 313M909 313L910 314L909 313z"/>
<path style="fill:#f0a026; stroke:none;" d="M911.667 313.333L912.333 313.667L911.667 313.333z"/>
<path style="fill:#c7c7c5; stroke:none;" d="M914 313L911 316L914 313z"/>
<path style="fill:#4156a0; stroke:none;" d="M760 314L761 315L760 314z"/>
<path style="fill:#1590ba; stroke:none;" d="M770 314L771 315L770 314z"/>
<path style="fill:#4156a0; stroke:none;" d="M838 314L839 315L838 314z"/>
<path style="fill:#f0a026; stroke:none;" d="M885 314L886 315L885 314z"/>
<path style="fill:#c7c7c5; stroke:none;" d="M893 314L893 315L896 316L893 314z"/>
<path style="fill:#f0a026; stroke:none;" d="M905 314L905 317L907 316L907 315L905 314z"/>
<path style="fill:#c7c7c5; stroke:none;" d="M906 314L907 315L906 314z"/>
<path style="fill:#f0a026; stroke:none;" d="M909 314L910 315L909 314z"/>
<path style="fill:#1590ba; stroke:none;" d="M750 315L751 316L750 315z"/>
<path style="fill:#4156a0; stroke:none;" d="M835 315L836 316L835 315M898.667 315.333L899.333 315.667L898.667 315.333z"/>
<path style="fill:#c7c7c5; stroke:none;" d="M907 316L907 317L910 318L910 315L907 316z"/>
<path style="fill:#1590ba; stroke:none;" d="M770 316L771 317L770 316z"/>
<path style="fill:#c7c7c5; stroke:none;" d="M886 316L886 317L889 317L886 316z"/>
<path style="fill:#f0a026; stroke:none;" d="M896 316L897 317L896 316z"/>
<path style="fill:#c7c7c5; stroke:none;" d="M912.667 316.333L913.333 316.667L912.667 316.333z"/>
<path style="fill:#f0a026; stroke:none;" d="M914 316L915 317L914 316z"/>
<path style="fill:#c7c7c5; stroke:none;" d="M779 321L775 320L775 321L775 325L775 326C780.244 326.328 784.841 329.723 788 324C783.118 325.17 781.218 324.038 783 319L784 319L788 321C785.321 316.893 781.553 316.644 779 321z"/>
<path style="fill:#f0a026; stroke:none;" d="M907 318L908 319L907 318z"/>
<path style="fill:#c7c7c5; stroke:none;" d="M908 318L909 319L908 318z"/>
<path style="fill:#4156a0; stroke:none;" d="M821 319L823 321L821 319z"/>
<path style="fill:#060709; stroke:none;" d="M842 319C840.566 322.485 840.633 324.095 844 326L842 319z"/>
<path style="fill:#4156a0; stroke:none;" d="M718 320L718 334L720 334L720 320L718 320z"/>
<path style="fill:#c7c7c5; stroke:none;" d="M745 320L744 324L745 324L747 321L745 325L745 326C747.669 324.268 747.71 323.058 747 320L745 320z"/>
<path style="fill:#4156a0; stroke:none;" d="M747 320L748 321L747 320M751 320L752 321L751 320z"/>
<path style="fill:#c7c7c5; stroke:none;" d="M752.667 320.333L753.333 320.667L752.667 320.333z"/>
<path style="fill:#4156a0; stroke:none;" d="M754 320L755 321L754 320M758 320L759 321L758 320z"/>
<path style="fill:#c7c7c5; stroke:none;" d="M768 320L768 323L771 323L771 322C769.04 321.347 768.446 321 771 321L768 320M820 320L820 323L823 322L823 321L820 320z"/>
<path style="fill:#060709; stroke:none;" d="M745 321L746 325L747 325L747 321L745 321z"/>
<path style="fill:#c7c7c5; stroke:none;" d="M751 321L754 325L755 325L751 321M758 321L759 326L760 326L760 321L758 321z"/>
<path style="fill:#4156a0; stroke:none;" d="M761 321L761 322L765 323L765 322L761 321M774.667 321.333L775.333 321.667L774.667 321.333z"/>
<path style="fill:#060709; stroke:none;" d="M776 321L776 325L777 325L776 321z"/>
<path style="fill:#4156a0; stroke:none;" d="M819 321L820 322L819 321M883.333 321.667L883.667 322.333L883.333 321.667z"/>
<path style="fill:#c7c7c5; stroke:none;" d="M884.667 321.333L885.333 321.667L884.667 321.333M890 321L890 322L893 322L890 321z"/>
<path style="fill:#4156a0; stroke:none;" d="M896 322L896 323C898.541 323.327 898.544 324.188 897 326L897 327L901 327L901 322L898 321L896 322z"/>
<path style="fill:#c7c7c5; stroke:none;" d="M907 321L907 322L910 327L910 326L908 325L907 321z"/>
<path style="fill:#4156a0; stroke:none;" d="M909 321L910 322L909 321M911 321L911 324L913 323L913 322L911 321z"/>
<path style="fill:#c7c7c5; stroke:none;" d="M912.667 321.333L913.333 321.667L912.667 321.333z"/>
<path style="fill:#4156a0; stroke:none;" d="M914 321L915 322L914 321z"/>
<path style="fill:#1590ba; stroke:none;" d="M206 322L206 323L212 323L206 322z"/>
<path style="fill:#4156a0; stroke:none;" d="M754 322L755 323L754 322z"/>
<path style="fill:#c7c7c5; stroke:none;" d="M761 322L762 323L761 322z"/>
<path style="fill:#060709; stroke:none;" d="M762 322L762 325L764 324L764 323L762 322z"/>
<path style="fill:#c7c7c5; stroke:none;" d="M774.333 322.667L774.667 323.333L774.333 322.667z"/>
<path style="fill:#4156a0; stroke:none;" d="M822 322L823 323L822 322z"/>
<path style="fill:#c7c7c5; stroke:none;" d="M882 322L883 323L882 322z"/>
<path style="fill:#4156a0; stroke:none;" d="M885.667 322.333L886.333 322.667L885.667 322.333M889 322L889 325L891 325L891 322L889 322z"/>
<path style="fill:#060709; stroke:none;" d="M891 322L891 326L892 326L891 322z"/>
<path style="fill:#4156a0; stroke:none;" d="M892 322L892 327L893 327L894 322L892 322z"/>
<path style="fill:#c7c7c5; stroke:none;" d="M897 322L897 326L898 326L897 322M901 322L903 324L901 322z"/>
<path style="fill:#4156a0; stroke:none;" d="M902 322L903 323L902 322M906.667 322.333L907.333 322.667L906.667 322.333M760.667 323.333L761.333 323.667L760.667 323.333z"/>
<path style="fill:#c7c7c5; stroke:none;" d="M764 323L765 324L764 323z"/>
<path style="fill:#4156a0; stroke:none;" d="M770 323L770 325L772 325L772 323L770 323M820.667 323.333L821.333 323.667L820.667 323.333z"/>
<path style="fill:#c7c7c5; stroke:none;" d="M885 323L886 324L885 323z"/>
<path style="fill:#060709; stroke:none;" d="M898 323L898 326L899 326L898 323M901 323L902 326L901 323z"/>
<path style="fill:#c7c7c5; stroke:none;" d="M912 323L912 324L912 326L912 327L915 326L915 324L912 323z"/>
<path style="fill:#4156a0; stroke:none;" d="M914 323L915 324L914 323z"/>
<path style="fill:#1590ba; stroke:none;" d="M157 324L157 328C162.142 328.043 168.856 330.582 170 324L157 324z"/>
<path style="fill:#c7c7c5; stroke:none;" d="M165 324L166 325L165 324M167 324L168 325L167 324z"/>
<path style="fill:#1590ba; stroke:none;" d="M201 324L205 329L205 324L201 324z"/>
<path style="fill:#4156a0; stroke:none;" d="M744.667 324.333L745.333 324.667L744.667 324.333M751.333 324.667L751.667 325.333L751.333 324.667z"/>
<path style="fill:#c7c7c5; stroke:none;" d="M761 324L764 326L764 325L761 324z"/>
<path style="fill:#4156a0; stroke:none;" d="M763.667 324.333L764.333 324.667L763.667 324.333M768.333 324.667L768.667 325.333L768.333 324.667M774.667 324.333L775.333 324.667L774.667 324.333M883 326L886 324L883 326M902.667 324.333L903.333 324.667L902.667 324.333z"/>
<path style="fill:#c7c7c5; stroke:none;" d="M166 325L166 328L167 328L166 325M204 325L204 328L205 328L204 325z"/>
<path style="fill:#4156a0; stroke:none;" d="M747 325L748 326L747 325z"/>
<path style="fill:#c7c7c5; stroke:none;" d="M749 325L750 326L749 325M752.667 325.333L753.333 325.667L752.667 325.333z"/>
<path style="fill:#4156a0; stroke:none;" d="M758 325L759 326L758 325M761 325L762 326L761 325z"/>
<path style="fill:#c7c7c5; stroke:none;" d="M769.667 325.333L770.333 325.667L769.667 325.333z"/>
<path style="fill:#4156a0; stroke:none;" d="M772.667 325.333L773.333 325.667L772.667 325.333M777 325L778 326L777 325z"/>
<path style="fill:#c7c7c5; stroke:none;" d="M890 325L892 327L890 325M902 325L901 327L902 325z"/>
<path style="fill:#4156a0; stroke:none;" d="M911 325L912 326L911 325z"/>
<path style="fill:#c7c7c5; stroke:none;" d="M882 326L882 327L886 327L882 326z"/>
<path style="fill:#4156a0; stroke:none;" d="M886 326L887 327L886 326M888 326L889 327L888 326M890 326L891 327L890 326M902 326L903 327L902 326M906 326L907 327L906 326M914 326L915 327L914 326M1274 326L1274 330L1278 330L1278 329L1275 328L1278 327L1274 326z"/>
<path style="fill:#c7c7c5; stroke:none;" d="M677 329L678 330L677 329z"/>
<path style="fill:#1590ba; stroke:none;" d="M157 333L157 334L170 334L157 333M201 333L201 334L205 335L205 332L201 333z"/>
<path style="fill:#c7c7c5; stroke:none;" d="M166 333L167 334L166 333M204 333L205 334L204 333z"/>
<path style="fill:#060709; stroke:none;" d="M126 334L126 341L128 341L128 334L126 334z"/>
<path style="fill:#4156a0; stroke:none;" d="M1274 334L1268.4 348.363L1255 359L1269.97 367.39L1271 386C1275.73 383.39 1275 378.902 1275 374C1275 362.58 1278.41 344.503 1274 334M718 335L718 336L727 336L727 345L732 345L732 344C729.835 341.128 729.835 338.872 732 336L718 335z"/>
<path style="fill:#f0a026; stroke:none;" d="M718 336L718 345L727 345L727 336L718 336M730 336L730 344L960 344L1014 344C1017.72 344 1030.13 346.012 1030.13 340C1030.13 333.988 1017.72 336 1014 336L960 336L730 336z"/>
<path style="fill:#4156a0; stroke:none;" d="M821 336L822 337L821 336M834 336L835 337L834 336M893 336L894 337L893 336M905 336L906 337L905 336M756.667 337.333L757.333 337.667L756.667 337.333M762 337L762 338L765 338L762 337M824.667 337.333L825.333 337.667L824.667 337.333M831 337L832 338L831 337M894 337L895 338L894 337M904 337L905 338L904 337z"/>
<path style="fill:#1590ba; stroke:none;" d="M157 339L157 340L205 341L205 340L166 340L166 339L205 339C191.957 333.527 170.906 338.885 157 339z"/>
<path style="fill:#060709; stroke:none;" d="M1132 338L1133 363C1136.49 361.814 1142.72 360.417 1144.97 357.301C1151.14 348.765 1137.47 341.032 1132 338z"/>
<path style="fill:#c7c7c5; stroke:none;" d="M166 339L166 340L205 340C194.726 335.689 177.172 339 166 339z"/>
<path style="fill:#060709; stroke:none;" d="M1256 355C1265.72 352.199 1270 349.151 1270 339C1261.01 342.292 1258.19 346.111 1256 355z"/>
<path style="fill:#f0a026; stroke:none;" d="M126 341L123 355C130.561 354.411 129.738 346.88 128 341L126 341z"/>
<path style="fill:#4156a0; stroke:none;" d="M1137 341L1138 342L1137 341M403 343L402 346L399 345L400 347L394 346L394 347L396 347L396 348L354 349L354 348L356 348L356 347L348 348L344 344C341.323 349.016 339.272 366.745 343.603 371.297C346.527 374.369 353.024 374.94 357 375.561C369.314 377.484 392.248 378.724 402.682 370.637C407.314 367.047 406.722 346.688 403 343z"/>
<path style="fill:#1590ba; stroke:none;" d="M157 345L157 346L205 347L205 346L166 346L166 345L205 345C191.957 339.527 170.906 344.885 157 345z"/>
<path style="fill:#4156a0; stroke:none;" d="M245 344C242.694 349.063 240.34 366.817 244.603 371.297C249.915 376.879 263.028 376 270 376C279.178 376 298.742 378.241 304.972 369.362C307.435 365.853 305.781 359.088 306.17 355C306.548 351.027 307.139 347.891 306 344L304 346L301 345L296 346L286 348.667L254 349L254 348L256 348L256 347L248 348L248 347L250 347L250 346L245 344z"/>
<path style="fill:#c7c7c5; stroke:none;" d="M166 345L166 346L205 346C194.726 341.689 177.172 345 166 345z"/>
<path style="fill:#060709; stroke:none;" d="M303 345L304 346L303 345M402 345L403 346L402 345M299 346L299 347L302 347L299 346M397 346L397 347L400 347L397 346z"/>
<path style="fill:#c7c7c5; stroke:none;" d="M125 347L126 348L125 347z"/>
<path style="fill:#1590ba; stroke:none;" d="M226 347L226 350L227 350L226 347z"/>
<path style="fill:#c7c7c5; stroke:none;" d="M227 347L227 350L238 350L238 347L227 347z"/>
<path style="fill:#060709; stroke:none;" d="M248 347L248 348L252 348L248 347M293 347L293 348L297 348L293 347M348 347L348 348L351 348L348 347M392 347L392 348L396 348L392 347M1148 347L1150 356L1158 352L1148 347M254 348L254 349L260 349L254 348M285 348L285 349L289 349L285 348M354 348L354 349L359 349L354 348M384 348L384 349L387 349L384 348M1252 348L1245 351L1245 352L1253 354L1252 348z"/>
<path style="fill:#1590ba; stroke:none;" d="M405 349L406 350L405 349M157 351L157 352L205 353L205 352L166 352L166 351L205 351C191.957 345.527 170.906 350.885 157 351z"/>
<path style="fill:#4156a0; stroke:none;" d="M1155 350L1156 351L1155 350z"/>
<path style="fill:#c7c7c5; stroke:none;" d="M166 351L166 352L205 352C194.726 347.689 177.172 351 166 351z"/>
<path style="fill:#4156a0; stroke:none;" d="M1240 352L1240 353L1252 358L1253 355L1240 352M1150 360L1165 354C1159.44 350.222 1151.1 353.267 1150 360z"/>
<path style="fill:#c7c7c5; stroke:none;" d="M123 353L124 354L123 353z"/>
<path style="fill:#1590ba; stroke:none;" d="M243 353L244 354L243 353z"/>
<path style="fill:#060709; stroke:none;" d="M1239 353L1233 355L1234 362L1239 362L1239 353M1261 358L1270 362L1270 353L1261 358M1151 359C1154.49 363.937 1165.38 362.996 1171 363C1168.42 349.962 1160.19 356.373 1151 359M1244 355L1242 363L1252 360L1252 358L1244 355z"/>
<path style="fill:#1590ba; stroke:none;" d="M157 357L157 358L205 359L205 358L166 358L166 357L205 357C191.957 351.527 170.906 356.885 157 357z"/>
<path style="fill:#c7c7c5; stroke:none;" d="M166 357L166 358L205 358C194.726 353.689 177.172 357 166 357z"/>
<path style="fill:#060709; stroke:none;" d="M1177 357L1176 361L1180 357L1177 357M1183 358L1182 364C1172.64 364.307 1172.61 376.344 1172 384L1231 385C1230.56 379.528 1229.21 361.267 1224.41 358.117C1221.46 356.177 1215.29 358.684 1212 358.91C1202.3 359.578 1192.63 358.76 1183 358z"/>
<path style="fill:#4156a0; stroke:none;" d="M1151 383C1150.5 373.965 1141.19 371.279 1135 366L1147 362L1147 358C1144.9 358.314 1142.99 358.706 1141 359.465C1122.89 366.352 1141.53 378.522 1151 383M1215 358L1216 359L1215 358M1177 360L1178 361L1177 360z"/>
<path style="fill:#060709; stroke:none;" d="M1255 360C1254.51 371.359 1253.41 392.998 1247.68 402.852C1245.96 405.81 1243.06 405.9 1240 406L1240 407L1280 407L1280 385L1271 386C1271 371.457 1271.73 362.972 1255 360z"/>
<path style="fill:#1590ba; stroke:none;" d="M157 363L157 364L177 365L177 368L157 369L157 372L166 372L166 369C178.745 369 178.745 364 166 364L166 363L177 363L157 363z"/>
<path style="fill:#c7c7c5; stroke:none;" d="M166 363L166 364C177.914 364.001 177.914 368.999 166 369L166 372L157 372L157 373L170 373L170 376L205 376L205 369L198 369L198 364L205 364C193.35 358.975 178.239 362.999 166 363z"/>
<path style="fill:#1590ba; stroke:none;" d="M198 362L198 363L205 363L198 362z"/>
<path style="fill:#060709; stroke:none;" d="M1135 366L1150 376C1147.53 363.245 1147.25 362.473 1135 366z"/>
<path style="fill:#4156a0; stroke:none;" d="M513 363L514 364L513 363M712 363L712 364L718 364L712 363z"/>
<path style="fill:#1590ba; stroke:none;" d="M198 364L198 365L205 365L198 364z"/>
<path style="fill:#060709; stroke:none;" d="M1152 366C1152.38 374.887 1153.66 401.813 1164 403L1170 368L1152 366M1233 369L1239 402C1249.34 400.81 1249.82 374.706 1250 366L1233 369z"/>
<path style="fill:#1590ba; stroke:none;" d="M198 368L198 369L205 369L198 368M133 373L134 374L133 373z"/>
<path style="fill:#060709; stroke:none;" d="M1167 407L1236 407L1233 390L1188 389L1171.59 390.028L1167 407z"/>
</svg>
