<svg width="68" height="73" viewBox="0 0 68 73" fill="none" xmlns="http://www.w3.org/2000/svg">
<path d="M2.11364 61.2727V70H1.05682V61.2727H2.11364ZM11.9931 61.2727V70H10.9703L6.21465 63.1477H6.12942V70H5.0726V61.2727H6.09533L10.8681 68.142H10.9533V61.2727H11.9931ZM16.0046 61.2727V70H14.9478V61.2727H16.0046ZM18.4863 62.2102V61.2727H25.0317V62.2102H22.2874V70H21.2306V62.2102H18.4863ZM28.5596 61.2727V70H27.5028V61.2727H28.5596ZM31.8765 70H30.7685L33.9731 61.2727H35.064L38.2685 70H37.1606L34.5526 62.6534H34.4844L31.8765 70ZM32.2856 66.5909H36.7515V67.5284H32.2856V66.5909ZM38.9711 62.2102V61.2727H45.5166V62.2102H42.7722V70H41.7154V62.2102H38.9711ZM49.0444 61.2727V70H47.9876V61.2727H49.0444ZM52.3613 61.2727L54.9522 68.6193H55.0545L57.6454 61.2727H58.7534L55.5488 70H54.4579L51.2534 61.2727H52.3613ZM60.9528 70V61.2727H66.2198V62.2102H62.0096V65.1591H65.9471V66.0966H62.0096V69.0625H66.288V70H60.9528Z" fill="#6CCED9"/>
<rect x="10" y="39.1665" width="2.70115" height="14.5862" fill="#6CCED9"/>
<rect x="14.0518" y="34.8447" width="3.78161" height="18.908" fill="#6CCED9"/>
<rect x="18.9136" y="30.5229" width="4.59195" height="23.2299" fill="#6CCED9"/>
<rect x="24.8564" y="26.7415" width="5.4023" height="27.0115" fill="#6CCED9"/>
<path d="M50.3676 8.91379C50.3676 13.0083 47.0483 16.3276 42.9538 16.3276C38.8593 16.3276 35.54 13.0083 35.54 8.91379C35.54 4.81927 38.8593 1.5 42.9538 1.5C47.0483 1.5 50.3676 4.81927 50.3676 8.91379Z" stroke="#6CCED9" stroke-width="3"/>
<path fill-rule="evenodd" clip-rule="evenodd" d="M32.1494 18.3679H52.408V21.8794H52.408V46.7299H57V53.7529H32.6897V46.7299H37.5517V27.0116H32.1494V18.3679Z" fill="#6CCED9"/>
</svg>
