<svg width="99" height="63" viewBox="0 0 99 63" fill="none" xmlns="http://www.w3.org/2000/svg">
<path d="M21.7244 19.1862H18.0437V62.7632H21.7244V19.1862Z" fill="#050606"/>
<path d="M27.2508 16.3793H13.1888C13.0344 16.3793 12.9092 16.5045 12.9092 16.6589V19.9725C12.9092 20.127 13.0344 20.2522 13.1888 20.2522H27.2508C27.4052 20.2522 27.5304 20.127 27.5304 19.9725V16.6589C27.5304 16.5045 27.4052 16.3793 27.2508 16.3793Z" fill="#050606"/>
<path d="M19.1552 14.782C20.439 14.782 21.4797 13.7414 21.4797 12.4576C21.4797 11.1739 20.439 10.1332 19.1552 10.1332C17.8715 10.1332 16.8308 11.1739 16.8308 12.4576C16.8308 13.7414 17.8715 14.782 19.1552 14.782Z" fill="#1C2754"/>
<path d="M29.8337 5.4353C31.4962 7.32832 32.413 9.76164 32.413 12.281C32.413 14.8004 31.4962 17.2337 29.8337 19.1268" stroke="#1D2755" stroke-width="0.75" stroke-miterlimit="10"/>
<path d="M26.7612 8.92017C27.5782 9.84915 28.0288 11.0439 28.0288 12.281C28.0288 13.5181 27.5782 14.7128 26.7612 15.6418" stroke="#1D2755" stroke-width="0.75" stroke-miterlimit="10"/>
<path d="M33.7207 2.50269C35.8957 4.97478 37.0955 8.15469 37.0955 11.4474C37.0955 14.7401 35.8957 17.92 33.7207 20.3921" stroke="#1D2755" stroke-width="0.75" stroke-miterlimit="10"/>
<path d="M7.90018 5.36548C6.23516 7.25659 5.31665 9.68982 5.31665 12.2095C5.31665 14.7291 6.23516 17.1623 7.90018 19.0535" stroke="#1D2755" stroke-width="0.75" stroke-miterlimit="10"/>
<path d="M10.9691 8.85034C10.1524 9.77876 9.7019 10.9729 9.7019 12.2094C9.7019 13.4459 10.1524 14.6401 10.9691 15.5685" stroke="#1D2755" stroke-width="0.75" stroke-miterlimit="10"/>
<path d="M4.00954 2.42224C1.83451 4.89433 0.634766 8.07425 0.634766 11.367C0.634766 14.6597 1.83451 17.8396 4.00954 20.3117" stroke="#1D2755" stroke-width="0.75" stroke-miterlimit="10"/>
<path d="M97.2424 39.6201H25.4679C24.6301 39.6201 23.9509 40.2993 23.9509 41.1371V59.2398C23.9509 60.0776 24.6301 60.7568 25.4679 60.7568H97.2424C98.0802 60.7568 98.7593 60.0776 98.7593 59.2398V41.1371C98.7593 40.2993 98.0802 39.6201 97.2424 39.6201Z" fill="#1D2755"/>
<path d="M34.0944 52.7909C35.7797 52.7909 37.146 51.4247 37.146 49.7395C37.146 48.0542 35.7797 46.688 34.0944 46.688C32.4092 46.688 31.043 48.0542 31.043 49.7395C31.043 51.4247 32.4092 52.7909 34.0944 52.7909Z" fill="#2593D1"/>
<path d="M83.0614 44.8983H63.1272C62.7623 44.8983 62.4666 45.1941 62.4666 45.5589V53.4376C62.4666 53.8024 62.7623 54.0982 63.1272 54.0982H83.0614C83.4263 54.0982 83.722 53.8024 83.722 53.4376V45.5589C83.722 45.1941 83.4263 44.8983 83.0614 44.8983Z" fill="#EAE4D6"/>
<path d="M42.8086 52.7909C44.4938 52.7909 45.86 51.4247 45.86 49.7395C45.86 48.0542 44.4938 46.688 42.8086 46.688C41.1233 46.688 39.7571 48.0542 39.7571 49.7395C39.7571 51.4247 41.1233 52.7909 42.8086 52.7909Z" fill="#2593D1"/>
<path d="M83.0754 45.2373H63.1132C62.7561 45.2373 62.4666 45.5268 62.4666 45.884V53.5983C62.4666 53.9554 62.7561 54.2449 63.1132 54.2449H83.0754C83.4326 54.2449 83.722 53.9554 83.722 53.5983V45.884C83.722 45.5268 83.4326 45.2373 83.0754 45.2373Z" fill="#51C7E3" stroke="#D9D4B9" stroke-miterlimit="10"/>
<path d="M87.9829 40.2003C87.7877 40.3873 87.5278 40.4916 87.2575 40.4916C86.9872 40.4916 86.7274 40.3873 86.5322 40.2003V31.4863H87.9829V40.2003Z" fill="#96B1C4"/>
<path d="M87.8398 32.2868C87.7716 32.3767 87.6836 32.4495 87.5827 32.4996C87.4817 32.5497 87.3705 32.5758 87.2578 32.5758C87.1451 32.5758 87.0339 32.5497 86.9329 32.4996C86.8319 32.4495 86.7439 32.3767 86.6758 32.2868V23.5693H87.8398V32.2868Z" fill="#96B1C4"/>
<path d="M87.6579 24.9499C87.6264 25.0024 87.4831 25.2401 87.2594 25.2401C87.0357 25.2401 86.8889 25.0024 86.8574 24.9499V16.2324H87.6579V24.9499Z" fill="#96B1C4"/>
<path d="M87.4765 17.0329C87.459 17.0853 87.3821 17.323 87.2598 17.323C87.1375 17.323 87.057 17.0853 87.0396 17.0329V8.31885H87.4765V17.0329Z" fill="#96B1C4"/>
<path d="M87.4029 8.71401C87.4029 8.76644 87.3401 9.00414 87.2597 9.00414C87.1793 9.00414 87.1233 8.76644 87.1128 8.71401V0H87.4029V8.71401Z" fill="#96B1C4"/>
</svg>
