<svg width="86" height="53" viewBox="0 0 86 53" fill="none" xmlns="http://www.w3.org/2000/svg">
<path fill-rule="evenodd" clip-rule="evenodd" d="M3.28107 18.046C3.28107 17.1399 2.54658 16.4055 1.64053 16.4055C0.734492 16.4055 0 17.1399 0 18.046C0 18.952 0.734492 19.6865 1.64053 19.6865C2.54658 19.6865 3.28107 18.952 3.28107 18.046ZM19.6864 18.046C19.6864 17.1399 18.9519 16.4055 18.0459 16.4055C17.1398 16.4055 16.4053 17.1399 16.4053 18.046C16.4053 18.952 17.1398 19.6865 18.0459 19.6865C18.9519 19.6865 19.6864 18.952 19.6864 18.046ZM34.4512 16.4055C35.3572 16.4055 36.0917 17.1399 36.0917 18.046C36.0917 18.952 35.3572 19.6865 34.4512 19.6865C33.5452 19.6865 32.8107 18.952 32.8107 18.046C32.8107 17.1399 33.5452 16.4055 34.4512 16.4055ZM52.4971 18.046C52.4971 17.1399 51.7626 16.4055 50.8565 16.4055C49.9505 16.4055 49.216 17.1399 49.216 18.046C49.216 18.952 49.9505 19.6865 50.8565 19.6865C51.7626 19.6865 52.4971 18.952 52.4971 18.046ZM67.2619 16.4055C68.1679 16.4055 68.9024 17.1399 68.9024 18.046C68.9024 18.952 68.1679 19.6865 67.2619 19.6865C66.3558 19.6865 65.6213 18.952 65.6213 18.046C65.6213 17.1399 66.3558 16.4055 67.2619 16.4055ZM85.3077 18.046C85.3077 17.1399 84.5732 16.4055 83.6672 16.4055C82.7612 16.4055 82.0267 17.1399 82.0267 18.046C82.0267 18.952 82.7612 19.6865 83.6672 19.6865C84.5732 19.6865 85.3077 18.952 85.3077 18.046ZM1.64053 0.00012207C2.54658 0.00012207 3.28107 0.734613 3.28107 1.64066C3.28107 2.5467 2.54658 3.28119 1.64053 3.28119C0.734492 3.28119 0 2.5467 0 1.64066C0 0.734613 0.734492 0.00012207 1.64053 0.00012207ZM19.6864 1.64066C19.6864 0.734613 18.9519 0.00012207 18.0459 0.00012207C17.1398 0.00012207 16.4053 0.734613 16.4053 1.64066C16.4053 2.5467 17.1398 3.28119 18.0459 3.28119C18.9519 3.28119 19.6864 2.5467 19.6864 1.64066ZM34.4512 0.00012207C35.3572 0.00012207 36.0917 0.734613 36.0917 1.64066C36.0917 2.5467 35.3572 3.28119 34.4512 3.28119C33.5452 3.28119 32.8107 2.5467 32.8107 1.64066C32.8107 0.734613 33.5452 0.00012207 34.4512 0.00012207ZM52.4971 1.64066C52.4971 0.734613 51.7626 0.00012207 50.8565 0.00012207C49.9505 0.00012207 49.216 0.734613 49.216 1.64066C49.216 2.5467 49.9505 3.28119 50.8565 3.28119C51.7626 3.28119 52.4971 2.5467 52.4971 1.64066ZM67.2619 0.00012207C68.1679 0.00012207 68.9024 0.734613 68.9024 1.64066C68.9024 2.5467 68.1679 3.28119 67.2619 3.28119C66.3558 3.28119 65.6213 2.5467 65.6213 1.64066C65.6213 0.734613 66.3558 0.00012207 67.2619 0.00012207ZM85.3077 1.64066C85.3077 0.734613 84.5732 0.00012207 83.6672 0.00012207C82.7612 0.00012207 82.0267 0.734613 82.0267 1.64066C82.0267 2.5467 82.7612 3.28119 83.6672 3.28119C84.5732 3.28119 85.3077 2.5467 85.3077 1.64066Z" fill="white" fill-opacity="0.6"/>
<path fill-rule="evenodd" clip-rule="evenodd" d="M3.28107 51.046C3.28107 50.1399 2.54658 49.4055 1.64053 49.4055C0.734492 49.4055 0 50.1399 0 51.046C0 51.952 0.734492 52.6865 1.64053 52.6865C2.54658 52.6865 3.28107 51.952 3.28107 51.046ZM19.6864 51.046C19.6864 50.1399 18.9519 49.4055 18.0459 49.4055C17.1398 49.4055 16.4053 50.1399 16.4053 51.046C16.4053 51.952 17.1398 52.6865 18.0459 52.6865C18.9519 52.6865 19.6864 51.952 19.6864 51.046ZM34.4512 49.4055C35.3572 49.4055 36.0917 50.1399 36.0917 51.046C36.0917 51.952 35.3572 52.6865 34.4512 52.6865C33.5452 52.6865 32.8107 51.952 32.8107 51.046C32.8107 50.1399 33.5452 49.4055 34.4512 49.4055ZM52.4971 51.046C52.4971 50.1399 51.7626 49.4055 50.8565 49.4055C49.9505 49.4055 49.216 50.1399 49.216 51.046C49.216 51.952 49.9505 52.6865 50.8565 52.6865C51.7626 52.6865 52.4971 51.952 52.4971 51.046ZM67.2619 49.4055C68.1679 49.4055 68.9024 50.1399 68.9024 51.046C68.9024 51.952 68.1679 52.6865 67.2619 52.6865C66.3558 52.6865 65.6213 51.952 65.6213 51.046C65.6213 50.1399 66.3558 49.4055 67.2619 49.4055ZM85.3077 51.046C85.3077 50.1399 84.5732 49.4055 83.6672 49.4055C82.7612 49.4055 82.0267 50.1399 82.0267 51.046C82.0267 51.952 82.7612 52.6865 83.6672 52.6865C84.5732 52.6865 85.3077 51.952 85.3077 51.046ZM1.64053 33.0001C2.54658 33.0001 3.28107 33.7346 3.28107 34.6407C3.28107 35.5467 2.54658 36.2812 1.64053 36.2812C0.734492 36.2812 0 35.5467 0 34.6407C0 33.7346 0.734492 33.0001 1.64053 33.0001ZM19.6864 34.6407C19.6864 33.7346 18.9519 33.0001 18.0459 33.0001C17.1398 33.0001 16.4053 33.7346 16.4053 34.6407C16.4053 35.5467 17.1398 36.2812 18.0459 36.2812C18.9519 36.2812 19.6864 35.5467 19.6864 34.6407ZM34.4512 33.0001C35.3572 33.0001 36.0917 33.7346 36.0917 34.6407C36.0917 35.5467 35.3572 36.2812 34.4512 36.2812C33.5452 36.2812 32.8107 35.5467 32.8107 34.6407C32.8107 33.7346 33.5452 33.0001 34.4512 33.0001ZM52.4971 34.6407C52.4971 33.7346 51.7626 33.0001 50.8565 33.0001C49.9505 33.0001 49.216 33.7346 49.216 34.6407C49.216 35.5467 49.9505 36.2812 50.8565 36.2812C51.7626 36.2812 52.4971 35.5467 52.4971 34.6407ZM67.2619 33.0001C68.1679 33.0001 68.9024 33.7346 68.9024 34.6407C68.9024 35.5467 68.1679 36.2812 67.2619 36.2812C66.3558 36.2812 65.6213 35.5467 65.6213 34.6407C65.6213 33.7346 66.3558 33.0001 67.2619 33.0001ZM85.3077 34.6407C85.3077 33.7346 84.5732 33.0001 83.6672 33.0001C82.7612 33.0001 82.0267 33.7346 82.0267 34.6407C82.0267 35.5467 82.7612 36.2812 83.6672 36.2812C84.5732 36.2812 85.3077 35.5467 85.3077 34.6407Z" fill="white" fill-opacity="0.6"/>
</svg>
