<svg width="166" height="30" viewBox="0 0 166 30" fill="none" xmlns="http://www.w3.org/2000/svg">
<path d="M35.2273 6.54545V24H33.1136V6.54545H35.2273ZM54.9861 6.54545V24H52.9407L43.4293 10.2955H43.2588V24H41.1452V6.54545H43.1907L52.7361 20.2841H52.9066V6.54545H54.9861ZM63.0091 6.54545V24H60.8955V6.54545H63.0091ZM67.9725 8.42045V6.54545H81.0634V8.42045H75.5748V24H73.4612V8.42045H67.9725ZM88.1191 6.54545V24H86.0055V6.54545H88.1191ZM94.753 24H92.5371L98.9462 6.54545H101.128L107.537 24H105.321L100.105 9.30682H99.9689L94.753 24ZM95.5712 17.1818H104.503V19.0568H95.5712V17.1818ZM108.942 8.42045V6.54545H122.033V8.42045H116.544V24H114.431V8.42045H108.942ZM129.089 6.54545V24H126.975V6.54545H129.089ZM135.723 6.54545L140.904 21.2386H141.109L146.291 6.54545H148.507L142.098 24H139.916L133.507 6.54545H135.723ZM152.906 24V6.54545H163.44V8.42045H155.019V14.3182H162.894V16.1932H155.019V22.125H163.576V24H152.906Z" fill="white"/>
<rect y="17.4874" width="1.20603" height="6.51256" fill="white"/>
<rect x="1.80859" y="15.5579" width="1.68844" height="8.44221" fill="white"/>
<rect x="3.98047" y="13.6282" width="2.05025" height="10.3719" fill="white"/>
<rect x="6.63281" y="11.9397" width="2.41206" height="12.0603" fill="white"/>
<path d="M17.1932 3.9799C17.1932 5.34951 16.0829 6.4598 14.7133 6.4598C13.3437 6.4598 12.2334 5.34951 12.2334 3.9799C12.2334 2.61029 13.3437 1.5 14.7133 1.5C16.0829 1.5 17.1932 2.61029 17.1932 3.9799Z" stroke="white" stroke-width="3"/>
<path fill-rule="evenodd" clip-rule="evenodd" d="M9.88965 8.20105H18.9349V12.0603H18.9346V20.8643H20.9848V24H10.1305V20.8643H12.3014V12.0603H9.88965V8.20105Z" fill="white"/>
</svg>
