<svg width="111" height="69" viewBox="0 0 111 69" fill="none" xmlns="http://www.w3.org/2000/svg">
<path d="M50.1307 0.861816H65.5908L72.8368 5.69243H42.8848L50.1307 0.861816Z" fill="#2F6873"/>
<path d="M28.6306 64.5164H78.1533V16.696L28.6306 16.696L28.6306 64.5164Z" fill="#76A2A3"/>
<path d="M78.1534 38.7938H28.6306V42.4185H78.1534V38.7938Z" fill="#2F6873"/>
<path d="M78.1534 32.7538H28.6306V36.3785H78.1534V32.7538Z" fill="#2F6873"/>
<path d="M78.1534 26.7137H28.6306V30.3384H78.1534V26.7137Z" fill="#2F6873"/>
<path d="M78.1534 20.6738H28.6306V24.2985H78.1534V20.6738Z" fill="#2F6873"/>
<path d="M78.1534 44.8304H28.6306V48.4551H78.1534V44.8304Z" fill="#2F6873"/>
<path d="M78.1534 50.8705H28.6306V54.4952H78.1534V50.8705Z" fill="#2F6873"/>
<path d="M78.1534 56.9104H28.6306V60.5351H78.1534V56.9104Z" fill="#2F6873"/>
<g style="mix-blend-mode:multiply" opacity="0.5">
<g style="mix-blend-mode:multiply">
<path d="M75.703 16.6924H40.0186V30.3314H75.703V16.6924Z" fill="#76A2A3"/>
</g>
</g>
<path d="M9.54592 14.7525H28.6238V66.4564H9.53894C8.28598 66.4564 7.04529 66.2095 5.88775 65.7299C4.7302 65.2503 3.67848 64.5474 2.79267 63.6613C1.90685 62.7751 1.20428 61.7231 0.725107 60.5654C0.245937 59.4077 -0.000458489 58.1669 6.4047e-07 56.9139V24.281C0.0027804 21.7517 1.00996 19.327 2.80007 17.5402C4.59018 15.7534 7.01664 14.7506 9.54592 14.7525Z" fill="#2F6873"/>
<path d="M42.8814 26.1265L72.8369 26.1265V5.69592L42.8814 5.69592V26.1265Z" fill="#2F6873"/>
<path d="M48.198 13.0607C48.198 12.0334 48.5026 11.0292 49.0734 10.175C49.6441 9.32083 50.4553 8.65505 51.4044 8.26192C52.3535 7.86879 53.3979 7.76594 54.4055 7.96636C55.413 8.16677 56.3386 8.66144 57.065 9.38785C57.7914 10.1143 58.2861 11.0398 58.4865 12.0474C58.6869 13.0549 58.5841 14.0993 58.1909 15.0484C57.7978 15.9975 57.132 16.8087 56.2779 17.3795C55.4237 17.9502 54.4195 18.2549 53.3921 18.2549C52.0146 18.2549 50.6934 17.7076 49.7193 16.7335C48.7452 15.7594 48.198 14.4383 48.198 13.0607Z" fill="#154258"/>
<path d="M109.43 39.1504H89.2688C88.8831 39.1504 88.5133 39.3036 88.2406 39.5763C87.9679 39.849 87.8147 40.2188 87.8147 40.6044C87.8147 40.9901 87.9679 41.36 88.2406 41.6327C88.5133 41.9054 88.8831 42.0585 89.2688 42.0585H109.43C109.816 42.0585 110.186 41.9054 110.458 41.6327C110.731 41.36 110.884 40.9901 110.884 40.6044C110.884 40.2188 110.731 39.849 110.458 39.5763C110.186 39.3036 109.816 39.1504 109.43 39.1504Z" fill="#76A2A3"/>
<g style="mix-blend-mode:multiply" opacity="0.5">
<g style="mix-blend-mode:multiply">
<path d="M28.6306 64.5164H37.3271L37.3271 16.696H28.6306L28.6306 64.5164Z" fill="#76A2A3"/>
</g>
</g>
<path d="M78.1534 66.4564H85.2175V14.7525H78.1534V66.4564Z" fill="#2F6873"/>
<path d="M85.2175 62.954H92.2852V18.2549H85.2175V62.954Z" fill="#2F6873"/>
<path d="M99.3494 51.4751L92.2852 58.7211V22.4878L99.3494 29.7338V51.4751Z" fill="#2F6873"/>
<g style="mix-blend-mode:multiply" opacity="0.5">
<g style="mix-blend-mode:multiply">
<path d="M85.2176 62.954H87.937V18.2549H85.2176V62.954Z" fill="#76A2A3"/>
</g>
</g>
<g style="mix-blend-mode:multiply" opacity="0.5">
<g style="mix-blend-mode:multiply">
<path d="M92.2852 22.4878L94.5502 24.8088V56.4001L92.2852 58.7211V22.4878Z" fill="#76A2A3"/>
</g>
</g>
<path d="M49.8897 64.5164H70.1804V54.4917H49.8897V64.5164Z" fill="#B7D3DB"/>
<path d="M42.8813 68.3962H77.1851V64.5128H42.8813V68.3962Z" fill="#B7D3DB"/>
<path d="M64.3815 61.4964C65.4819 61.4964 66.3739 60.6044 66.3739 59.5041C66.3739 58.4037 65.4819 57.5117 64.3815 57.5117C63.2812 57.5117 62.3892 58.4037 62.3892 59.5041C62.3892 60.6044 63.2812 61.4964 64.3815 61.4964Z" fill="#76A2A3"/>
<path d="M55.6884 61.4964C56.7888 61.4964 57.6808 60.6044 57.6808 59.5041C57.6808 58.4037 56.7888 57.5117 55.6884 57.5117C54.5881 57.5117 53.696 58.4037 53.696 59.5041C53.696 60.6044 54.5881 61.4964 55.6884 61.4964Z" fill="#76A2A3"/>
</svg>
