<svg width="18" height="18" viewBox="0 0 18 18" fill="none" xmlns="http://www.w3.org/2000/svg">
<path d="M0.170117 0.000985466C0.0701094 0.0199649 -0.00172149 0.108293 3.13947e-05 0.210199V17.7906C3.13947e-05 17.9063 0.0937601 18 0.209391 18H17.7906C17.9062 18 17.9999 17.9063 17.9999 17.7906V0.210199C17.9999 0.0945686 17.9062 0.000985466 17.7906 0.000985466H0.209391C0.196251 -0.000328489 0.183112 -0.000328489 0.170117 0.000985466ZM0.418601 0.419548H17.5812V17.5814H0.418601V0.419548ZM3.97666 1.67527C2.70767 1.67527 1.67429 2.7085 1.67429 3.9775C1.67429 5.24649 2.70752 6.27972 3.97666 6.27972C5.24565 6.27972 6.27904 5.24649 6.27904 3.9775C6.27904 2.7085 5.2458 1.67527 3.97666 1.67527ZM7.28625 1.67527C7.17077 1.68608 7.0858 1.78856 7.0966 1.90419C7.10741 2.01968 7.2099 2.10465 7.32553 2.09384H16.1161C16.1722 2.09457 16.2262 2.07296 16.2661 2.03355C16.3059 1.99427 16.3284 1.94054 16.3284 1.88448C16.3284 1.82857 16.3059 1.77484 16.2661 1.73542C16.2262 1.69615 16.1722 1.67439 16.1161 1.67527H7.32553C7.31253 1.67395 7.29939 1.67395 7.28625 1.67527V1.67527ZM3.97681 2.09383C5.01965 2.09383 5.86043 2.93462 5.86043 3.97746C5.86043 5.02015 5.0195 5.86108 3.97681 5.86108C2.93397 5.86108 2.09319 5.0203 2.09319 3.97746C2.09319 2.93477 2.93412 2.09383 3.97681 2.09383ZM7.2864 3.76812H7.28626C7.17078 3.77893 7.0858 3.88141 7.09661 3.99704C7.10741 4.11267 7.2099 4.1975 7.32553 4.18669H16.1161C16.1722 4.18742 16.2262 4.16581 16.2661 4.12639C16.3059 4.08712 16.3284 4.03339 16.3284 3.97748C16.3284 3.92142 16.3059 3.86769 16.2661 3.82841C16.2262 3.789 16.1722 3.76739 16.1161 3.76812H7.32553C7.31254 3.76695 7.2994 3.76695 7.28626 3.76812L7.2864 3.76812ZM7.2864 5.86097H7.28626C7.17078 5.87177 7.0858 5.97426 7.09661 6.08989C7.10741 6.20552 7.2099 6.29049 7.32553 6.27954H16.1161C16.1722 6.28042 16.2262 6.25866 16.2661 6.21939C16.3059 6.17997 16.3284 6.12639 16.3284 6.07033C16.3284 6.01426 16.3059 5.96054 16.2661 5.92126C16.2262 5.88199 16.1722 5.86024 16.1161 5.86097H7.32553C7.31254 5.8598 7.2994 5.8598 7.28626 5.86097L7.2864 5.86097ZM1.84461 7.53526C1.74445 7.55438 1.67277 7.64271 1.67452 7.74462V16.1162C1.67452 16.2319 1.76825 16.3256 1.88388 16.3256H16.1163H16.1161C16.2318 16.3256 16.3255 16.2319 16.3255 16.1162V7.74462C16.3255 7.62899 16.2318 7.5354 16.1161 7.53526H1.88373H1.88388C1.87074 7.53409 1.8576 7.53409 1.84461 7.53526ZM2.09309 7.95382H15.9069V15.9068H2.09309V7.95382ZM11.7145 9.62153V9.62168C11.6589 9.62547 11.6071 9.65146 11.5706 9.69365L7.77029 13.6961L6.44901 11.8059H6.44915C6.41908 11.756 6.36959 11.721 6.3125 11.709C6.25542 11.6972 6.196 11.7096 6.14855 11.7434C6.10096 11.7772 6.06971 11.8293 6.06227 11.8871C6.05482 11.9449 6.07176 12.0032 6.10899 12.048L7.57405 14.1408H7.57419C7.60996 14.1917 7.66632 14.2239 7.72822 14.229C7.79012 14.234 7.85115 14.2114 7.89465 14.167L11.8714 9.98098V9.98113C11.9344 9.92039 11.953 9.82681 11.9179 9.74666C11.883 9.66651 11.8017 9.61643 11.7144 9.62139L11.7145 9.62153Z" fill="#464E5F"/>
</svg>
