<?xml version="1.0" encoding="utf-8"?>
<svg width="1299" height="413" viewBox="0 0 1299 413" fill="none" xmlns="http://www.w3.org/2000/svg" xmlns:xlink="http://www.w3.org/1999/xlink">
  
  <path d="M534.711 172.529H527.934V348.145H534.711V172.529Z" fill="#3B424E"/>
  
  <path d="M713.973 171.348H707.195V343.265H713.973V171.348Z" fill="#3B424E"/>
  <path d="M727.696 325.264L728.846 325.274L728.678 338.872L727.528 338.861L727.696 325.264Z" fill="#4D656E"/>
  <path d="M729.171 50.774H515.239V177.052H729.171V50.774Z" fill="#0783C2"/>
  <path d="M728.72 51.1096H515.563V69.9778H728.72V51.1096Z" fill="#2593D1"/>
  <path d="M730.051 368.684H721.697V375.402H730.051V368.684Z" fill="#070807"/>
  <path d="M522.393 368.551H514.039V375.269H522.393V368.551Z" fill="#070807"/>
  <path d="M535.564 346.764H527.21V353.482H535.564V346.764Z" fill="#070807"/>
  <path d="M521.205 50.7251H515.396V369.131H521.205V50.7251Z" fill="#0783C2"/>
  <path d="M728.716 50.8228H722.907V368.82H728.716V50.8228Z" fill="#0783C2"/>
  <g id="roi_panel"></g>
  <g id="iotmodule"></g>

  <g id="tank_right"></g>
  <path d="M1056 155.685C1054.87 155.541 1053.45 155.43 1051.82 155.437C1050.35 155.437 1049.06 155.552 1048 155.685V190.915H1056V155.685Z" fill="#77CEDE"/>
  <path d="M1097 112.693V110.084L1066.94 110C1060.37 109.979 1055.03 115.821 1055.03 123.018L1055 156H1057V123.018C1057 117.256 1061.69 112.588 1066.94 112.602" fill="#45858E"/>
  <path d="M1047.77 157.415L1055.78 157.436L1055.81 124.342C1055.81 117.12 1061.22 111.258 1067.84 111.279L1098.22 111.363V102.625L1067.84 102.537C1056.79 102.506 1047.8 112.272 1047.79 124.314L1047.77 157.415Z" fill="#77CEDE"/>
  <path d="M1059 158.971V156.077C1059 155.797 1058.9 155.529 1058.73 155.332C1058.55 155.135 1058.32 155.024 1058.08 155.024L1046.93 155C1046.68 154.998 1046.45 155.105 1046.28 155.298C1046.11 155.492 1046.01 155.755 1046 156.032V158.923C1046 159.062 1046.02 159.199 1046.07 159.328C1046.12 159.456 1046.19 159.572 1046.27 159.67C1046.36 159.768 1046.46 159.845 1046.57 159.898C1046.68 159.95 1046.8 159.977 1046.93 159.976L1058.07 160C1058.32 160.003 1058.55 159.896 1058.72 159.704C1058.89 159.511 1058.99 159.248 1059 158.971Z" fill="#677E85"/>
  <path d="M1045.92 156.478L1045.91 157.995L1058.9 158.018L1058.9 156.501L1045.92 156.478Z" fill="#4D656E"/>
  <path d="M686.894 256.663C688.028 256.523 689.442 256.408 691.072 256.419C692.545 256.419 693.836 256.53 694.894 256.663V291.893H686.894V256.663Z" fill="#F8991D"/>
  <path d="M714.962 341.898H706.608V348.616H714.962V341.898Z" fill="#070807"/>
  
  <g id="filter_big2"></g>
  <g id="ampv2"></g>
  <path d="M336.406 125C335.623 126.382 335.253 127.835 335.312 129.293C335.357 130.554 335.726 131.805 336.406 133H315V125H336.406Z" fill="#F8991D"/>
  <path d="M738 340.5V342.907L706.506 343C699.62 343 694.033 336.543 694.029 328.564L694 292H696V328C696 334.388 700.5 339.5 706 340.5" fill="#7D642F"/>
  <path d="M687 292H689.405L689.433 325.098C689.433 337.139 698.433 346.902 709.489 346.871L739.868 346.787V349.401L709.489 349.489C697.116 349.524 687.038 338.583 687.028 325.101L687 292Z" fill="#F8991D"/>
  <path d="M687 294.021L695 294.021V327.187C695 334.422 700.858 341.517 707.692 341.5L739 341.416V348.916L707.692 349C696.298 349.031 687.029 339.251 687.022 327.187L687 294.021Z" fill="#F8991D"/>
  <path d="M696 291.032V293.923C696 294.062 695.982 294.199 695.946 294.327C695.91 294.456 695.858 294.572 695.792 294.67C695.726 294.768 695.647 294.845 695.561 294.898C695.475 294.95 695.383 294.977 695.29 294.976L686.715 295C686.529 295.003 686.349 294.896 686.215 294.703C686.082 294.509 686.004 294.245 686 293.968V291.074C686.004 290.797 686.081 290.534 686.214 290.341C686.347 290.148 686.525 290.04 686.71 290.041L695.295 290C695.479 290.001 695.656 290.109 695.788 290.302C695.92 290.495 695.996 290.757 696 291.032Z" fill="#677E85"/>
  <path d="M695.845 291.864L685.997 291.881L685.999 293.398L695.848 293.381L695.845 291.864Z" fill="#4D656E"/>
  <path d="M739 340H740.971C741.224 339.995 741.471 340.054 741.658 340.165C741.846 340.275 741.959 340.429 741.974 340.593L742 349.405C741.986 349.569 741.873 349.723 741.685 349.834C741.498 349.946 741.251 350.005 740.997 350H739.029C738.775 350.005 738.528 349.947 738.34 349.836C738.152 349.725 738.038 349.571 738.023 349.407L738 340.595C738.014 340.431 738.127 340.277 738.313 340.166C738.5 340.055 738.746 339.996 739 340Z" fill="#677E85"/>
  <path d="M740.621 340.023L739.342 340.024L739.374 350L740.653 349.999L740.621 340.023Z" fill="#4D656E"/>
  <path d="M184 278.492C185.134 278.345 186.55 278.223 188.179 278.233C189.651 278.233 190.943 278.352 192 278.492V315.658H184V278.492Z" fill="#F8991D"/>
  <path d="M182 173.697C183.134 173.571 184.55 173.473 186.179 173.48C187.653 173.48 188.943 173.581 190 173.697V204.372H182V173.697Z" fill="#F8991D"/>
  <path d="M143.094 346.345C143.245 348.253 143.363 350.637 143.353 353.377C143.353 355.859 143.234 358.03 143.094 359.809H105.928V346.345H143.094Z" fill="#F8991D"/>
  <path d="M549.703 204C550.431 206.649 550.431 209.351 549.703 212H472V204H549.703Z" fill="#F8991D"/>
  <g id="dosingpump"> </g>
  <g id="membrane"></g>
  <path d="M1040.95 340.881C1040.51 340.899 1040.09 341.043 1039.74 341.297C1039.58 341.382 1039.47 341.517 1039.4 341.679C1039.34 341.841 1039.33 342.019 1039.39 342.185C1038.66 342.424 1037.95 342.702 1037.25 343.017C1037.54 343.593 1037.76 344.193 1037.94 344.81C1038.13 345.458 1038.27 346.123 1038.35 346.795C1039.21 346.53 1039.91 346.226 1040.79 345.991C1040.91 346.061 1041.45 346.526 1041.91 346.477C1042.13 346.453 1042.34 346.377 1042.53 346.254C1042.82 345.219 1042.78 344.123 1042.43 343.108C1042.12 342.26 1041.61 341.498 1040.95 340.881Z" fill="#7C7A77"/>
  <path d="M1031.54 224.908C1031.63 225.187 1031.72 225.47 1031.82 225.75L1033.76 225.369C1034.29 223.118 1034.11 220.758 1033.23 218.616C1032.54 216.944 1031.44 215.469 1030.04 214.323L1027.97 215.127C1029.8 218.118 1031.02 221.446 1031.54 224.915V224.908Z" fill="#383838"/>
  <path d="M1028.05 215.848C1028.05 215.729 1028.02 215.606 1028.01 215.498C1028 215.39 1027.99 215.267 1027.98 215.148C1029.37 216.523 1030.43 218.187 1031.09 220.02C1031.76 221.854 1032.01 223.812 1031.83 225.753C1031.61 225.574 1031.4 225.384 1031.2 225.184C1029.8 223.786 1029.28 222.223 1028.85 220.881C1028.34 219.252 1028.07 217.556 1028.05 215.848Z" fill="#A9AAA6"/>
  <path d="M1031.55 224.877C1031.74 224.809 1031.2 222.781 1030.35 220.348C1029.49 217.914 1028.64 215.997 1028.45 216.066C1028.25 216.134 1028.79 218.162 1029.64 220.596C1030.5 223.029 1031.35 224.946 1031.55 224.877Z" fill="#333333"/>
  <path d="M1031.46 224.906C1031.65 224.837 1031.12 222.809 1030.26 220.376C1029.41 217.943 1028.55 216.026 1028.36 216.094C1028.16 216.163 1028.7 218.191 1029.55 220.624C1030.41 223.057 1031.26 224.974 1031.46 224.906Z" fill="#7D7D7D"/>
  <path d="M1031.4 224.928C1031.59 224.859 1031.06 222.831 1030.2 220.398C1029.35 217.965 1028.49 216.048 1028.3 216.116C1028.11 216.185 1028.64 218.213 1029.5 220.646C1030.35 223.079 1031.2 224.996 1031.4 224.928Z" fill="#333333"/>
  <path d="M1031.3 224.963C1031.5 224.894 1030.96 222.866 1030.11 220.433C1029.25 218 1028.4 216.083 1028.21 216.151C1028.01 216.22 1028.55 218.248 1029.4 220.681C1030.26 223.114 1031.11 225.031 1031.3 224.963Z" fill="#7D7D7D"/>
  <path d="M1031.21 224.996C1031.41 224.927 1030.87 222.899 1030.02 220.466C1029.16 218.033 1028.31 216.116 1028.12 216.184C1027.92 216.253 1028.46 218.281 1029.31 220.714C1030.17 223.147 1031.02 225.064 1031.21 224.996Z" fill="#333333"/>
  <path d="M1031.12 225.028C1031.31 224.959 1030.78 222.931 1029.92 220.498C1029.07 218.065 1028.22 216.148 1028.02 216.216C1027.83 216.285 1028.36 218.313 1029.22 220.746C1030.07 223.179 1030.92 225.096 1031.12 225.028Z" fill="#7D7D7D"/>
  <path d="M1031.01 225.065C1031.21 224.996 1030.67 222.968 1029.82 220.535C1028.96 218.102 1028.11 216.185 1027.92 216.253C1027.72 216.322 1028.26 218.35 1029.11 220.783C1029.97 223.216 1030.82 225.133 1031.01 225.065Z" fill="#333333"/>
  <path d="M1030.92 225.097C1031.11 225.028 1030.58 223 1029.72 220.567C1028.87 218.134 1028.02 216.217 1027.82 216.285C1027.63 216.354 1028.16 218.382 1029.02 220.815C1029.87 223.248 1030.72 225.165 1030.92 225.097Z" fill="#7D7D7D"/>
  <path d="M1030.84 225.124C1031.04 225.056 1030.5 223.028 1029.65 220.595C1028.79 218.161 1027.94 216.244 1027.75 216.313C1027.55 216.381 1028.09 218.409 1028.94 220.843C1029.8 223.276 1030.65 225.193 1030.84 225.124Z" fill="#333333"/>
  <path d="M1030.75 225.156C1030.95 225.088 1030.41 223.06 1029.56 220.626C1028.7 218.193 1027.85 216.276 1027.66 216.345C1027.46 216.413 1028 218.441 1028.85 220.874C1029.71 223.308 1030.56 225.225 1030.75 225.156Z" fill="#7D7D7D"/>
  <path d="M1030.69 225.175C1030.89 225.106 1030.35 223.078 1029.5 220.645C1028.64 218.212 1027.79 216.294 1027.6 216.363C1027.4 216.431 1027.94 218.459 1028.79 220.893C1029.65 223.326 1030.5 225.243 1030.69 225.175Z" fill="#333333"/>
  <path d="M1030.6 225.208C1030.79 225.139 1030.26 223.111 1029.4 220.678C1028.55 218.245 1027.7 216.328 1027.5 216.396C1027.31 216.465 1027.84 218.493 1028.7 220.926C1029.55 223.359 1030.4 225.276 1030.6 225.208Z" fill="#7D7D7D"/>
  <path d="M1030.51 225.243C1030.7 225.174 1030.17 223.146 1029.31 220.713C1028.46 218.28 1027.61 216.363 1027.41 216.431C1027.22 216.5 1027.75 218.528 1028.61 220.961C1029.46 223.394 1030.31 225.311 1030.51 225.243Z" fill="#333333"/>
  <path d="M1030.42 225.275C1030.61 225.206 1030.08 223.178 1029.22 220.745C1028.37 218.312 1027.52 216.395 1027.32 216.463C1027.13 216.532 1027.66 218.56 1028.52 220.993C1029.37 223.426 1030.22 225.343 1030.42 225.275Z" fill="#7D7D7D"/>
  <path d="M1030.21 225.345C1030.41 225.276 1029.87 223.248 1029.02 220.815C1028.16 218.382 1027.31 216.465 1027.12 216.533C1026.92 216.602 1027.46 218.63 1028.31 221.063C1029.17 223.496 1030.02 225.413 1030.21 225.345Z" fill="#7D7D7D"/>
  <path d="M1030.15 225.369C1030.34 225.3 1029.81 223.272 1028.95 220.839C1028.1 218.406 1027.25 216.489 1027.05 216.557C1026.86 216.626 1027.39 218.654 1028.25 221.087C1029.1 223.52 1029.95 225.437 1030.15 225.369Z" fill="#333333"/>
  <path d="M1030.06 225.401C1030.25 225.332 1029.72 223.304 1028.86 220.871C1028.01 218.438 1027.15 216.521 1026.96 216.589C1026.76 216.658 1027.3 218.686 1028.15 221.119C1029.01 223.552 1029.86 225.469 1030.06 225.401Z" fill="#7D7D7D"/>
  <path d="M1030 225.423C1030.19 225.354 1029.66 223.326 1028.8 220.893C1027.95 218.46 1027.09 216.543 1026.9 216.611C1026.7 216.68 1027.24 218.708 1028.09 221.141C1028.95 223.574 1029.8 225.491 1030 225.423Z" fill="#333333"/>
  <path d="M1029.91 225.451C1030.1 225.383 1029.57 223.355 1028.71 220.921C1027.86 218.488 1027.01 216.571 1026.81 216.64C1026.62 216.708 1027.15 218.736 1028.01 221.169C1028.86 223.603 1029.71 225.52 1029.91 225.451Z" fill="#7D7D7D"/>
  <path d="M1029.81 225.483C1030.01 225.415 1029.47 223.386 1028.62 220.953C1027.76 218.52 1026.91 216.603 1026.72 216.671C1026.52 216.74 1027.06 218.768 1027.91 221.201C1028.77 223.634 1029.62 225.551 1029.81 225.483Z" fill="#333333"/>
  <path d="M1029.72 225.519C1029.92 225.451 1029.38 223.423 1028.53 220.989C1027.67 218.556 1026.82 216.639 1026.63 216.708C1026.43 216.776 1026.97 218.804 1027.82 221.237C1028.68 223.671 1029.53 225.588 1029.72 225.519Z" fill="#7D7D7D"/>
  <path d="M1029.61 225.556C1029.81 225.488 1029.27 223.46 1028.42 221.027C1027.56 218.593 1026.71 216.676 1026.52 216.745C1026.32 216.813 1026.86 218.841 1027.71 221.275C1028.57 223.708 1029.42 225.625 1029.61 225.556Z" fill="#333333"/>
  <path d="M1029.52 225.588C1029.72 225.52 1029.18 223.492 1028.33 221.058C1027.47 218.625 1026.62 216.708 1026.43 216.777C1026.23 216.845 1026.77 218.873 1027.62 221.306C1028.48 223.74 1029.33 225.657 1029.52 225.588Z" fill="#7D7D7D"/>
  <path d="M1029.44 225.612C1029.64 225.544 1029.1 223.516 1028.25 221.083C1027.39 218.649 1026.54 216.732 1026.35 216.801C1026.15 216.869 1026.69 218.897 1027.54 221.331C1028.4 223.764 1029.25 225.681 1029.44 225.612Z" fill="#333333"/>
  <path d="M1029.36 225.648C1029.55 225.579 1029.02 223.551 1028.16 221.118C1027.31 218.685 1026.45 216.767 1026.26 216.836C1026.06 216.904 1026.6 218.933 1027.45 221.366C1028.31 223.799 1029.16 225.716 1029.36 225.648Z" fill="#7D7D7D"/>
  <path d="M1029.3 225.67C1029.49 225.601 1028.96 223.573 1028.1 221.14C1027.25 218.707 1026.39 216.789 1026.2 216.858C1026.01 216.926 1026.54 218.954 1027.4 221.388C1028.25 223.821 1029.1 225.738 1029.3 225.67Z" fill="#333333"/>
  <path d="M1029.2 225.701C1029.4 225.633 1028.86 223.605 1028.01 221.172C1027.15 218.738 1026.3 216.821 1026.11 216.89C1025.91 216.958 1026.45 218.986 1027.3 221.42C1028.16 223.853 1029.01 225.77 1029.2 225.701Z" fill="#7D7D7D"/>
  <path d="M1029.11 225.731C1029.31 225.663 1028.77 223.635 1027.92 221.201C1027.06 218.768 1026.21 216.851 1026.01 216.919C1025.82 216.988 1026.36 219.016 1027.21 221.449C1028.07 223.882 1028.92 225.8 1029.11 225.731Z" fill="#333333"/>
  <path d="M1029.02 225.763C1029.21 225.694 1028.68 223.666 1027.82 221.233C1026.97 218.8 1026.12 216.883 1025.92 216.951C1025.73 217.02 1026.26 219.048 1027.12 221.481C1027.97 223.914 1028.82 225.831 1029.02 225.763Z" fill="#7D7D7D"/>
  <path d="M1028.91 225.804C1029.11 225.735 1028.57 223.707 1027.72 221.274C1026.86 218.841 1026.01 216.923 1025.81 216.992C1025.62 217.06 1026.16 219.088 1027.01 221.522C1027.86 223.955 1028.72 225.872 1028.91 225.804Z" fill="#333333"/>
  <path d="M1028.82 225.836C1029.01 225.768 1028.48 223.74 1027.62 221.306C1026.77 218.873 1025.91 216.956 1025.72 217.025C1025.53 217.093 1026.06 219.121 1026.92 221.554C1027.77 223.988 1028.62 225.905 1028.82 225.836Z" fill="#7D7D7D"/>
  <path d="M1028.72 225.868C1028.92 225.8 1028.38 223.772 1027.53 221.338C1026.67 218.905 1025.82 216.988 1025.63 217.057C1025.43 217.125 1025.97 219.153 1026.82 221.586C1027.68 224.02 1028.53 225.937 1028.72 225.868Z" fill="#333333"/>
  <path d="M1028.63 225.9C1028.83 225.831 1028.29 223.803 1027.44 221.37C1026.58 218.937 1025.73 217.02 1025.54 217.088C1025.34 217.157 1025.88 219.185 1026.73 221.618C1027.59 224.051 1028.44 225.968 1028.63 225.9Z" fill="#7D7D7D"/>
  <path d="M1028.57 225.922C1028.77 225.853 1028.23 223.825 1027.38 221.392C1026.52 218.959 1025.67 217.042 1025.48 217.11C1025.28 217.179 1025.82 219.207 1026.67 221.64C1027.53 224.073 1028.38 225.99 1028.57 225.922Z" fill="#333333"/>
  <path d="M1028.48 225.952C1028.67 225.883 1028.14 223.855 1027.28 221.422C1026.43 218.989 1025.58 217.072 1025.38 217.14C1025.19 217.209 1025.72 219.237 1026.58 221.67C1027.43 224.103 1028.28 226.02 1028.48 225.952Z" fill="#7D7D7D"/>
  <path d="M1028.3 226.019C1028.49 225.95 1027.96 223.922 1027.1 221.489C1026.25 219.055 1025.4 217.138 1025.2 217.207C1025.01 217.275 1025.54 219.303 1026.4 221.737C1027.25 224.17 1028.1 226.087 1028.3 226.019Z" fill="#7D7D7D"/>
  <path d="M1028.19 226.056C1028.39 225.987 1027.85 223.959 1027 221.526C1026.14 219.093 1025.29 217.176 1025.09 217.244C1024.9 217.313 1025.43 219.341 1026.29 221.774C1027.14 224.207 1028 226.124 1028.19 226.056Z" fill="#333333"/>
  <path d="M1028.09 226.089C1028.29 226.02 1027.75 223.992 1026.9 221.559C1026.04 219.126 1025.19 217.209 1025 217.277C1024.8 217.346 1025.34 219.374 1026.19 221.807C1027.05 224.24 1027.9 226.157 1028.09 226.089Z" fill="#7D7D7D"/>
  <path d="M1028.02 226.115C1028.22 226.047 1027.68 224.019 1026.83 221.585C1025.97 219.152 1025.12 217.235 1024.93 217.303C1024.73 217.372 1025.27 219.4 1026.12 221.833C1026.98 224.267 1027.83 226.184 1028.02 226.115Z" fill="#333333"/>
  <path d="M1040.73 345.875C1040.81 345.845 1040.58 344.971 1040.22 343.922C1039.85 342.873 1039.48 342.046 1039.4 342.076C1039.31 342.105 1039.54 342.979 1039.91 344.028C1040.28 345.078 1040.65 345.904 1040.73 345.875Z" fill="#333333"/>
  <path d="M1040.69 345.891C1040.77 345.862 1040.54 344.988 1040.17 343.939C1039.8 342.889 1039.44 342.063 1039.35 342.092C1039.27 342.122 1039.5 342.996 1039.87 344.045C1040.24 345.094 1040.61 345.921 1040.69 345.891Z" fill="#7D7D7D"/>
  <path d="M1040.66 345.899C1040.75 345.869 1040.52 344.995 1040.15 343.946C1039.78 342.897 1039.41 342.07 1039.33 342.1C1039.24 342.129 1039.47 343.004 1039.84 344.053C1040.21 345.102 1040.58 345.928 1040.66 345.899Z" fill="#333333"/>
  <path d="M1040.63 345.914C1040.71 345.885 1040.48 345.01 1040.11 343.961C1039.74 342.912 1039.38 342.086 1039.29 342.115C1039.21 342.145 1039.44 343.019 1039.81 344.068C1040.18 345.117 1040.54 345.944 1040.63 345.914Z" fill="#7D7D7D"/>
  <path d="M1040.59 345.927C1040.67 345.898 1040.44 345.024 1040.07 343.975C1039.7 342.925 1039.33 342.099 1039.25 342.128C1039.17 342.158 1039.4 343.032 1039.77 344.081C1040.13 345.13 1040.5 345.957 1040.59 345.927Z" fill="#333333"/>
  <path d="M1040.55 345.943C1040.63 345.913 1040.4 345.039 1040.03 343.99C1039.66 342.941 1039.3 342.114 1039.21 342.144C1039.13 342.173 1039.36 343.047 1039.73 344.097C1040.1 345.146 1040.46 345.972 1040.55 345.943Z" fill="#7D7D7D"/>
  <path d="M1040.5 345.957C1040.58 345.927 1040.35 345.053 1039.98 344.004C1039.61 342.955 1039.25 342.128 1039.16 342.158C1039.08 342.187 1039.31 343.062 1039.68 344.111C1040.05 345.16 1040.42 345.986 1040.5 345.957Z" fill="#333333"/>
  <path d="M1040.46 345.973C1040.54 345.944 1040.31 345.07 1039.94 344.021C1039.57 342.972 1039.21 342.145 1039.12 342.174C1039.04 342.204 1039.27 343.078 1039.64 344.127C1040.01 345.176 1040.37 346.003 1040.46 345.973Z" fill="#7D7D7D"/>
  <path d="M1040.43 345.983C1040.51 345.954 1040.28 345.08 1039.91 344.031C1039.54 342.982 1039.18 342.155 1039.09 342.184C1039.01 342.214 1039.24 343.088 1039.61 344.137C1039.98 345.186 1040.34 346.013 1040.43 345.983Z" fill="#333333"/>
  <path d="M1040.39 345.995C1040.47 345.966 1040.24 345.091 1039.87 344.042C1039.5 342.993 1039.14 342.167 1039.05 342.196C1038.97 342.226 1039.2 343.1 1039.57 344.149C1039.94 345.198 1040.31 346.025 1040.39 345.995Z" fill="#7D7D7D"/>
  <path d="M1040.36 346.004C1040.44 345.975 1040.21 345.1 1039.84 344.051C1039.47 343.002 1039.11 342.176 1039.02 342.205C1038.94 342.234 1039.17 343.109 1039.54 344.158C1039.91 345.207 1040.27 346.033 1040.36 346.004Z" fill="#333333"/>
  <path d="M1040.32 346.02C1040.41 345.99 1040.18 345.116 1039.81 344.067C1039.44 343.018 1039.07 342.191 1038.99 342.221C1038.9 342.25 1039.14 343.124 1039.5 344.173C1039.87 345.222 1040.24 346.049 1040.32 346.02Z" fill="#7D7D7D"/>
  <path d="M1040.28 346.032C1040.37 346.002 1040.14 345.128 1039.77 344.079C1039.4 343.03 1039.03 342.203 1038.95 342.233C1038.87 342.262 1039.1 343.136 1039.47 344.185C1039.83 345.234 1040.2 346.061 1040.28 346.032Z" fill="#333333"/>
  <path d="M1040.24 346.048C1040.33 346.019 1040.1 345.144 1039.73 344.095C1039.36 343.046 1038.99 342.22 1038.91 342.249C1038.82 342.279 1039.05 343.153 1039.42 344.202C1039.79 345.251 1040.16 346.078 1040.24 346.048Z" fill="#7D7D7D"/>
  <path d="M1040.19 346.062C1040.28 346.033 1040.05 345.159 1039.68 344.109C1039.31 343.06 1038.94 342.234 1038.86 342.263C1038.78 342.293 1039.01 343.167 1039.38 344.216C1039.74 345.265 1040.11 346.092 1040.19 346.062Z" fill="#333333"/>
  <path d="M1040.15 346.079C1040.24 346.049 1040.01 345.175 1039.64 344.126C1039.27 343.077 1038.9 342.25 1038.82 342.28C1038.73 342.309 1038.97 343.183 1039.33 344.233C1039.7 345.282 1040.07 346.108 1040.15 346.079Z" fill="#7D7D7D"/>
  <path d="M1040.13 346.087C1040.21 346.058 1039.98 345.184 1039.61 344.135C1039.24 343.086 1038.88 342.259 1038.79 342.288C1038.71 342.318 1038.94 343.192 1039.31 344.241C1039.68 345.29 1040.04 346.117 1040.13 346.087Z" fill="#333333"/>
  <path d="M1040.09 346.103C1040.17 346.073 1039.94 345.199 1039.57 344.15C1039.2 343.101 1038.84 342.274 1038.75 342.304C1038.67 342.333 1038.9 343.208 1039.27 344.257C1039.64 345.306 1040 346.132 1040.09 346.103Z" fill="#7D7D7D"/>
  <path d="M1040.06 346.111C1040.15 346.081 1039.92 345.207 1039.55 344.158C1039.18 343.109 1038.81 342.282 1038.73 342.312C1038.64 342.341 1038.88 343.215 1039.24 344.264C1039.61 345.314 1039.98 346.14 1040.06 346.111Z" fill="#333333"/>
  <path d="M1040.02 346.124C1040.11 346.094 1039.87 345.22 1039.51 344.171C1039.14 343.122 1038.77 342.295 1038.69 342.325C1038.6 342.354 1038.83 343.228 1039.2 344.277C1039.57 345.326 1039.94 346.153 1040.02 346.124Z" fill="#7D7D7D"/>
  <path d="M1039.98 346.136C1040.07 346.106 1039.84 345.232 1039.47 344.183C1039.1 343.134 1038.73 342.307 1038.65 342.337C1038.56 342.366 1038.8 343.24 1039.16 344.289C1039.53 345.339 1039.9 346.165 1039.98 346.136Z" fill="#333333"/>
  <path d="M1039.94 346.151C1040.03 346.122 1039.8 345.247 1039.43 344.198C1039.06 343.149 1038.69 342.323 1038.61 342.352C1038.53 342.382 1038.76 343.256 1039.12 344.305C1039.49 345.354 1039.86 346.181 1039.94 346.151Z" fill="#7D7D7D"/>
  <path d="M1039.89 346.17C1039.98 346.14 1039.75 345.266 1039.38 344.217C1039.01 343.168 1038.64 342.341 1038.56 342.371C1038.47 342.4 1038.71 343.275 1039.07 344.324C1039.44 345.373 1039.81 346.199 1039.89 346.17Z" fill="#333333"/>
  <path d="M1039.85 346.182C1039.94 346.152 1039.71 345.278 1039.34 344.229C1038.97 343.18 1038.6 342.354 1038.52 342.383C1038.44 342.412 1038.67 343.287 1039.04 344.336C1039.4 345.385 1039.77 346.211 1039.85 346.182Z" fill="#7D7D7D"/>
  <path d="M1039.82 346.193C1039.91 346.163 1039.67 345.289 1039.31 344.24C1038.94 343.191 1038.57 342.364 1038.49 342.394C1038.4 342.423 1038.63 343.298 1039 344.347C1039.37 345.396 1039.74 346.222 1039.82 346.193Z" fill="#333333"/>
  <path d="M1039.78 346.208C1039.87 346.179 1039.64 345.305 1039.27 344.256C1038.9 343.206 1038.53 342.38 1038.45 342.409C1038.36 342.439 1038.6 343.313 1038.96 344.362C1039.33 345.411 1039.7 346.238 1039.78 346.208Z" fill="#7D7D7D"/>
  <path d="M1039.76 346.216C1039.84 346.186 1039.61 345.312 1039.24 344.263C1038.88 343.214 1038.51 342.387 1038.43 342.417C1038.34 342.446 1038.57 343.321 1038.94 344.37C1039.31 345.419 1039.68 346.245 1039.76 346.216Z" fill="#333333"/>
  <path d="M1039.72 346.231C1039.81 346.202 1039.57 345.328 1039.21 344.279C1038.84 343.229 1038.47 342.403 1038.39 342.432C1038.3 342.462 1038.53 343.336 1038.9 344.385C1039.27 345.434 1039.64 346.261 1039.72 346.231Z" fill="#7D7D7D"/>
  <path d="M1039.68 346.244C1039.76 346.215 1039.53 345.341 1039.16 344.292C1038.8 343.243 1038.43 342.416 1038.34 342.445C1038.26 342.475 1038.49 343.349 1038.86 344.398C1039.23 345.447 1039.6 346.274 1039.68 346.244Z" fill="#333333"/>
  <path d="M1039.64 346.26C1039.72 346.23 1039.49 345.356 1039.13 344.307C1038.76 343.258 1038.39 342.431 1038.31 342.461C1038.22 342.49 1038.45 343.365 1038.82 344.414C1039.19 345.463 1039.56 346.289 1039.64 346.26Z" fill="#7D7D7D"/>
  <path d="M1039.59 346.279C1039.67 346.249 1039.44 345.375 1039.07 344.326C1038.71 343.277 1038.34 342.45 1038.26 342.48C1038.17 342.509 1038.4 343.383 1038.77 344.432C1039.14 345.481 1039.51 346.308 1039.59 346.279Z" fill="#333333"/>
  <path d="M1039.55 346.291C1039.64 346.261 1039.4 345.387 1039.04 344.338C1038.67 343.289 1038.3 342.462 1038.22 342.492C1038.13 342.521 1038.36 343.395 1038.73 344.444C1039.1 345.493 1039.47 346.32 1039.55 346.291Z" fill="#7D7D7D"/>
  <path d="M1039.51 346.306C1039.6 346.277 1039.37 345.402 1039 344.353C1038.63 343.304 1038.26 342.478 1038.18 342.507C1038.09 342.536 1038.32 343.411 1038.69 344.46C1039.06 345.509 1039.43 346.335 1039.51 346.306Z" fill="#333333"/>
  <path d="M1039.47 346.319C1039.56 346.29 1039.33 345.415 1038.96 344.366C1038.59 343.317 1038.22 342.491 1038.14 342.52C1038.06 342.55 1038.29 343.424 1038.66 344.473C1039.02 345.522 1039.39 346.349 1039.47 346.319Z" fill="#7D7D7D"/>
  <path d="M1039.45 346.327C1039.53 346.297 1039.3 345.423 1038.93 344.374C1038.56 343.325 1038.2 342.498 1038.11 342.528C1038.03 342.557 1038.26 343.432 1038.63 344.481C1039 345.53 1039.36 346.356 1039.45 346.327Z" fill="#333333"/>
  <path d="M1039.41 346.339C1039.49 346.309 1039.26 345.435 1038.89 344.386C1038.52 343.337 1038.16 342.51 1038.07 342.54C1037.99 342.569 1038.22 343.443 1038.59 344.493C1038.96 345.542 1039.32 346.368 1039.41 346.339Z" fill="#7D7D7D"/>
  <path d="M1039.37 346.355C1039.45 346.326 1039.22 345.452 1038.85 344.403C1038.48 343.354 1038.11 342.527 1038.03 342.556C1037.95 342.586 1038.18 343.46 1038.55 344.509C1038.92 345.558 1039.28 346.385 1039.37 346.355Z" fill="#333333"/>
  <path d="M1039.33 346.367C1039.41 346.338 1039.18 345.464 1038.81 344.415C1038.44 343.366 1038.08 342.539 1037.99 342.568C1037.91 342.598 1038.14 343.472 1038.51 344.521C1038.88 345.57 1039.24 346.397 1039.33 346.367Z" fill="#7D7D7D"/>
  <path d="M1039.28 346.386C1039.36 346.357 1039.13 345.482 1038.76 344.433C1038.4 343.384 1038.03 342.558 1037.95 342.587C1037.86 342.617 1038.09 343.491 1038.46 344.54C1038.83 345.589 1039.2 346.416 1039.28 346.386Z" fill="#333333"/>
  <path d="M1039.24 346.398C1039.33 346.369 1039.09 345.494 1038.73 344.445C1038.36 343.396 1037.99 342.57 1037.91 342.599C1037.82 342.628 1038.05 343.503 1038.42 344.552C1038.79 345.601 1039.16 346.427 1039.24 346.398Z" fill="#7D7D7D"/>
  <path d="M1039.21 346.411C1039.29 346.382 1039.06 345.508 1038.69 344.459C1038.32 343.409 1037.96 342.583 1037.87 342.612C1037.79 342.642 1038.02 343.516 1038.39 344.565C1038.76 345.614 1039.12 346.441 1039.21 346.411Z" fill="#333333"/>
  <path d="M1039.17 346.425C1039.25 346.395 1039.02 345.521 1038.65 344.472C1038.29 343.423 1037.92 342.596 1037.83 342.626C1037.75 342.655 1037.98 343.529 1038.35 344.578C1038.72 345.627 1039.09 346.454 1039.17 346.425Z" fill="#7D7D7D"/>
  <path d="M1039.14 346.436C1039.23 346.406 1039 345.532 1038.63 344.483C1038.26 343.434 1037.89 342.607 1037.81 342.637C1037.72 342.666 1037.96 343.54 1038.32 344.589C1038.69 345.639 1039.06 346.465 1039.14 346.436Z" fill="#333333"/>
  <path d="M1039.1 346.447C1039.19 346.418 1038.96 345.544 1038.59 344.495C1038.22 343.446 1037.85 342.619 1037.77 342.648C1037.69 342.678 1037.92 343.552 1038.29 344.601C1038.65 345.65 1039.02 346.477 1039.1 346.447Z" fill="#7D7D7D"/>
  <path d="M1039.06 346.464C1039.15 346.435 1038.92 345.56 1038.55 344.511C1038.18 343.462 1037.81 342.636 1037.73 342.665C1037.64 342.694 1037.87 343.569 1038.24 344.618C1038.61 345.667 1038.98 346.493 1039.06 346.464Z" fill="#333333"/>
  <path d="M1039.02 346.476C1039.11 346.446 1038.88 345.572 1038.51 344.523C1038.14 343.474 1037.77 342.647 1037.69 342.677C1037.61 342.706 1037.84 343.581 1038.2 344.63C1038.57 345.679 1038.94 346.505 1039.02 346.476Z" fill="#7D7D7D"/>
  <path d="M1038.98 346.49C1039.06 346.461 1038.83 345.587 1038.46 344.538C1038.09 343.488 1037.73 342.662 1037.64 342.691C1037.56 342.721 1037.79 343.595 1038.16 344.644C1038.53 345.693 1038.89 346.52 1038.98 346.49Z" fill="#333333"/>
  <path d="M1038.94 346.503C1039.02 346.474 1038.79 345.6 1038.42 344.55C1038.05 343.501 1037.69 342.675 1037.6 342.704C1037.52 342.734 1037.75 343.608 1038.12 344.657C1038.49 345.706 1038.85 346.533 1038.94 346.503Z" fill="#7D7D7D"/>
  <path d="M1038.9 346.518C1038.99 346.488 1038.75 345.614 1038.39 344.565C1038.02 343.516 1037.65 342.689 1037.57 342.719C1037.48 342.748 1037.71 343.622 1038.08 344.671C1038.45 345.721 1038.82 346.547 1038.9 346.518Z" fill="#333333"/>
  <path d="M1038.86 346.533C1038.95 346.504 1038.72 345.629 1038.35 344.58C1037.98 343.531 1037.61 342.705 1037.53 342.734C1037.44 342.764 1037.68 343.638 1038.04 344.687C1038.41 345.736 1038.78 346.563 1038.86 346.533Z" fill="#7D7D7D"/>
  <path d="M1038.84 346.538C1038.92 346.509 1038.69 345.635 1038.32 344.586C1037.95 343.537 1037.58 342.71 1037.5 342.739C1037.42 342.769 1037.65 343.643 1038.02 344.692C1038.38 345.741 1038.75 346.568 1038.84 346.538Z" fill="#333333"/>
  <path d="M1038.8 346.554C1038.88 346.525 1038.65 345.65 1038.28 344.601C1037.91 343.552 1037.55 342.726 1037.46 342.755C1037.38 342.784 1037.61 343.659 1037.98 344.708C1038.35 345.757 1038.71 346.583 1038.8 346.554Z" fill="#7D7D7D"/>
  <path d="M1038.76 346.566C1038.84 346.536 1038.61 345.662 1038.24 344.613C1037.87 343.564 1037.51 342.737 1037.42 342.767C1037.34 342.796 1037.57 343.671 1037.94 344.72C1038.31 345.769 1038.67 346.595 1038.76 346.566Z" fill="#333333"/>
  <path d="M1038.72 346.582C1038.8 346.553 1038.57 345.679 1038.2 344.63C1037.83 343.581 1037.46 342.754 1037.38 342.783C1037.3 342.813 1037.53 343.687 1037.9 344.736C1038.27 345.785 1038.63 346.612 1038.72 346.582Z" fill="#7D7D7D"/>
  <path d="M1038.67 346.6C1038.76 346.571 1038.52 345.696 1038.16 344.647C1037.79 343.598 1037.42 342.772 1037.34 342.801C1037.25 342.831 1037.48 343.705 1037.85 344.754C1038.22 345.803 1038.59 346.63 1038.67 346.6Z" fill="#333333"/>
  <path d="M1038.63 346.612C1038.72 346.583 1038.49 345.708 1038.12 344.659C1037.75 343.61 1037.38 342.784 1037.3 342.813C1037.21 342.842 1037.45 343.717 1037.81 344.766C1038.18 345.815 1038.55 346.641 1038.63 346.612Z" fill="#7D7D7D"/>
  <path d="M1038.6 346.623C1038.68 346.594 1038.45 345.719 1038.08 344.67C1037.71 343.621 1037.35 342.795 1037.26 342.824C1037.18 342.853 1037.41 343.728 1037.78 344.777C1038.15 345.826 1038.51 346.652 1038.6 346.623Z" fill="#333333"/>
  <path d="M1038.56 346.639C1038.64 346.609 1038.41 345.735 1038.04 344.686C1037.67 343.637 1037.31 342.81 1037.22 342.84C1037.14 342.869 1037.37 343.743 1037.74 344.792C1038.11 345.841 1038.47 346.668 1038.56 346.639Z" fill="#7D7D7D"/>
  <path d="M1038.54 346.646C1038.62 346.616 1038.39 345.742 1038.02 344.693C1037.65 343.644 1037.28 342.817 1037.2 342.847C1037.12 342.876 1037.35 343.751 1037.72 344.8C1038.08 345.849 1038.45 346.675 1038.54 346.646Z" fill="#333333"/>
  <path d="M1038.49 346.663C1038.58 346.633 1038.35 345.759 1037.98 344.71C1037.61 343.661 1037.24 342.834 1037.16 342.864C1037.07 342.893 1037.31 343.767 1037.67 344.816C1038.04 345.866 1038.41 346.692 1038.49 346.663Z" fill="#7D7D7D"/>
  <path d="M1038.45 346.675C1038.54 346.645 1038.31 345.771 1037.94 344.722C1037.57 343.673 1037.2 342.846 1037.12 342.876C1037.04 342.905 1037.27 343.779 1037.64 344.828C1038 345.877 1038.37 346.704 1038.45 346.675Z" fill="#333333"/>
  <path d="M1038.41 346.691C1038.5 346.662 1038.27 345.787 1037.9 344.738C1037.53 343.689 1037.16 342.863 1037.08 342.892C1036.99 342.922 1037.22 343.796 1037.59 344.845C1037.96 345.894 1038.33 346.721 1038.41 346.691Z" fill="#7D7D7D"/>
  <path d="M1033.72 346.31C1033.8 346.281 1033.57 345.41 1033.21 344.364C1032.84 343.319 1032.48 342.496 1032.39 342.525C1032.31 342.554 1032.54 343.425 1032.91 344.471C1033.27 345.516 1033.64 346.339 1033.72 346.31Z" fill="#333333"/>
  <path d="M1038.33 346.721C1038.41 346.691 1038.18 345.817 1037.81 344.768C1037.45 343.719 1037.08 342.892 1036.99 342.922C1036.91 342.951 1037.14 343.826 1037.51 344.875C1037.88 345.924 1038.25 346.75 1038.33 346.721Z" fill="#7D7D7D"/>
  <path d="M1033.64 346.335C1033.72 346.305 1033.49 345.434 1033.13 344.389C1032.76 343.344 1032.4 342.52 1032.31 342.55C1032.23 342.579 1032.46 343.45 1032.83 344.495C1033.19 345.541 1033.56 346.364 1033.64 346.335Z" fill="#333333"/>
  <path d="M1038.25 346.749C1038.33 346.72 1038.1 345.846 1037.73 344.797C1037.37 343.747 1037 342.921 1036.91 342.95C1036.83 342.98 1037.06 343.854 1037.43 344.903C1037.8 345.952 1038.17 346.779 1038.25 346.749Z" fill="#7D7D7D"/>
  <path d="M1038.23 346.757C1038.31 346.728 1038.08 345.853 1037.71 344.804C1037.34 343.755 1036.97 342.928 1036.89 342.958C1036.81 342.987 1037.04 343.862 1037.41 344.911C1037.77 345.96 1038.14 346.786 1038.23 346.757Z" fill="#333333"/>
  <path d="M1038.18 346.77C1038.27 346.741 1038.04 345.866 1037.67 344.817C1037.3 343.768 1036.93 342.942 1036.85 342.971C1036.76 343 1037 343.875 1037.36 344.924C1037.73 345.973 1038.1 346.799 1038.18 346.77Z" fill="#7D7D7D"/>
  <path d="M1038.14 346.786C1038.23 346.756 1038 345.882 1037.63 344.833C1037.26 343.784 1036.89 342.957 1036.81 342.987C1036.73 343.016 1036.96 343.89 1037.33 344.939C1037.69 345.988 1038.06 346.815 1038.14 346.786Z" fill="#333333"/>
  <path d="M1038.11 346.797C1038.19 346.768 1037.96 345.894 1037.59 344.845C1037.22 343.796 1036.86 342.969 1036.77 342.998C1036.69 343.028 1036.92 343.902 1037.29 344.951C1037.66 346 1038.02 346.827 1038.11 346.797Z" fill="#7D7D7D"/>
  <path d="M1038.05 346.816C1038.14 346.787 1037.91 345.913 1037.54 344.863C1037.17 343.814 1036.8 342.988 1036.72 343.017C1036.64 343.047 1036.87 343.921 1037.24 344.97C1037.6 346.019 1037.97 346.846 1038.05 346.816Z" fill="#333333"/>
  <path d="M1038.02 346.828C1038.1 346.799 1037.87 345.924 1037.5 344.875C1037.14 343.826 1036.77 343 1036.69 343.029C1036.6 343.059 1036.83 343.933 1037.2 344.982C1037.57 346.031 1037.94 346.858 1038.02 346.828Z" fill="#7D7D7D"/>
  <path d="M1037.98 346.839C1038.07 346.81 1037.84 345.935 1037.47 344.886C1037.1 343.837 1036.73 343.011 1036.65 343.04C1036.56 343.07 1036.8 343.944 1037.16 344.993C1037.53 346.042 1037.9 346.869 1037.98 346.839Z" fill="#333333"/>
  <path d="M1037.95 346.855C1038.03 346.825 1037.8 345.951 1037.43 344.902C1037.06 343.853 1036.69 343.026 1036.61 343.056C1036.53 343.085 1036.76 343.959 1037.13 345.008C1037.49 346.057 1037.86 346.884 1037.95 346.855Z" fill="#7D7D7D"/>
  <path d="M1037.92 346.866C1038.01 346.836 1037.77 345.962 1037.41 344.913C1037.04 343.864 1036.67 343.037 1036.59 343.067C1036.5 343.096 1036.73 343.97 1037.1 345.019C1037.47 346.068 1037.84 346.895 1037.92 346.866Z" fill="#333333"/>
  <path d="M1037.88 346.879C1037.96 346.849 1037.73 345.975 1037.36 344.926C1037 343.877 1036.63 343.05 1036.54 343.08C1036.46 343.109 1036.69 343.983 1037.06 345.033C1037.43 346.082 1037.8 346.908 1037.88 346.879Z" fill="#7D7D7D"/>
  <path d="M1037.84 346.894C1037.93 346.865 1037.69 345.99 1037.33 344.941C1036.96 343.892 1036.59 343.066 1036.51 343.095C1036.42 343.125 1036.65 343.999 1037.02 345.048C1037.39 346.097 1037.76 346.924 1037.84 346.894Z" fill="#333333"/>
  <path d="M1037.8 346.906C1037.89 346.877 1037.66 346.002 1037.29 344.953C1036.92 343.904 1036.55 343.078 1036.47 343.107C1036.38 343.137 1036.61 344.011 1036.98 345.06C1037.35 346.109 1037.72 346.936 1037.8 346.906Z" fill="#7D7D7D"/>
  <path d="M1037.75 346.922C1037.83 346.892 1037.6 346.018 1037.23 344.969C1036.87 343.92 1036.5 343.093 1036.42 343.123C1036.33 343.152 1036.56 344.026 1036.93 345.075C1037.3 346.124 1037.67 346.951 1037.75 346.922Z" fill="#333333"/>
  <path d="M1037.71 346.934C1037.8 346.904 1037.56 346.03 1037.2 344.981C1036.83 343.932 1036.46 343.105 1036.38 343.135C1036.29 343.164 1036.52 344.038 1036.89 345.087C1037.26 346.137 1037.63 346.963 1037.71 346.934Z" fill="#7D7D7D"/>
  <path d="M1037.68 346.948C1037.76 346.918 1037.53 346.044 1037.16 344.995C1036.8 343.946 1036.43 343.119 1036.35 343.149C1036.26 343.178 1036.49 344.053 1036.86 345.102C1037.23 346.151 1037.6 346.977 1037.68 346.948Z" fill="#333333"/>
  <g id="filter_big1"></g>
  <g id='ampv1'></g>
  <g id='rwp_motor'></g>
  <g id='feed_flow_sensor'></g>
  
  
  <path d="M1095.34 117.267C1096.68 117.267 1097.76 112.696 1097.76 107.057C1097.76 101.418 1096.68 96.8468 1095.34 96.8468C1094.01 96.8468 1092.93 101.418 1092.93 107.057C1092.93 112.696 1094.01 117.267 1095.34 117.267Z" fill="#0C0B0A" />
  <path d="M519.642 211.992C519.147 210.492 518.937 208.964 519.016 207.436C519.048 206.281 519.257 205.131 519.642 204H645.689V212L519.642 211.992Z" fill="#F8991D"/>
  <g id="filter_small1"></g>
  <g id="filter_small2"></g>
  <!-- <g id="roi_panel"></g>
  
  <path d="M534.711 172.529H527.934V348.145H534.711V172.529Z" fill="#3B424E"/>
  
  <path d="M727.696 325.264L728.846 325.274L728.678 338.872L727.528 338.861L727.696 325.264Z" fill="#4D656E"/>
  <path d="M729.171 50.774H515.239V177.052H729.171V50.774Z" fill="#0783C2"/>
  <path d="M728.72 51.1096H515.563V69.9778H728.72V51.1096Z" fill="#2593D1"/>
  <path d="M730.051 368.684H721.697V375.402H730.051V368.684Z" fill="#070807"/>
  <path d="M522.393 368.551H514.039V375.269H522.393V368.551Z" fill="#070807"/>
  <path d="M535.564 346.764H527.21V353.482H535.564V346.764Z" fill="#070807"/>
  <path d="M521.205 50.7251H515.396V369.131H521.205V50.7251Z" fill="#0783C2"/>
  
  <g id="iotmodule"></g>
  <path d="M728.716 50.8228H722.907V368.82H728.716V50.8228Z" fill="#0783C2"/> -->
  
<g id="roi_panel">

</g>
<g id="iotmodule"></g>
  <path d="M191.618 174.292L189 174.264L189.28 143.885C189.339 137.244 195.267 131.927 202.489 132.001L235.58 132.371L235.559 134.776L202.464 134.406C196.686 134.343 191.947 138.6 191.898 143.906" fill="#7D642F"/>
  <path d="M237.002 125.219L236.925 133.234L203.834 132.863C196.612 132.783 190.684 138.106 190.625 144.748L190.345 175.126L181.607 175.028L181.886 144.65C181.988 133.597 191.859 124.726 203.907 124.855L237.002 125.219Z" fill="#F8991D"/>
  <path d="M238.172 136.841L235.236 136.81C234.953 136.803 234.684 136.685 234.487 136.481C234.291 136.276 234.183 136.002 234.188 135.719L234.317 122.716C234.317 122.575 234.346 122.436 234.4 122.306C234.454 122.176 234.534 122.058 234.634 121.958C234.734 121.859 234.852 121.78 234.983 121.727C235.113 121.673 235.253 121.646 235.394 121.647L238.333 121.678C238.617 121.685 238.886 121.803 239.082 122.007C239.279 122.211 239.387 122.485 239.382 122.769L239.252 135.772C239.251 136.056 239.136 136.329 238.933 136.529C238.731 136.73 238.457 136.842 238.172 136.841Z" fill="#677E85"/>
  <path d="M236.102 121.659L235.946 136.822L237.463 136.837L237.619 121.675L236.102 121.659Z" fill="#4D656E"/>
  <path d="M194.281 174.109L194.26 176.231C194.26 176.5 194.156 176.76 193.97 176.955C193.784 177.151 193.53 177.267 193.26 177.279L178.58 177.129C178.308 177.11 178.054 176.986 177.872 176.783C177.69 176.58 177.594 176.314 177.604 176.042L177.625 173.92C177.62 173.647 177.72 173.383 177.906 173.183C178.092 172.984 178.349 172.864 178.621 172.851L193.302 173.001C193.579 173.019 193.837 173.145 194.02 173.353C194.203 173.561 194.297 173.832 194.281 174.109Z" fill="#677E85"/>
  <path d="M177.655 174.382L177.642 175.661L194.279 175.829L194.292 174.55L177.655 174.382Z" fill="#4D656E"/>
  <path d="M421.024 131.968L421 129.35L451.378 129.001C458.02 128.927 463.455 134.744 463.521 141.965L463.826 175.059L461.421 175.084L461.117 141.993C461.064 136.212 456.709 131.563 451.403 131.619" fill="#7D642F"/>
  <path d="M470.865 176.217L462.85 176.308L462.546 143.213C462.479 135.992 457.03 130.176 450.403 130.249L420.024 130.598L419.944 121.86L450.322 121.51C461.375 121.388 470.449 131.077 470.561 143.115L470.865 176.217Z" fill="#F8991D"/>
  <path d="M459.256 177.629L459.225 174.689C459.225 174.405 459.337 174.132 459.538 173.93C459.738 173.729 460.01 173.614 460.294 173.612L473.297 173.476C473.58 173.472 473.854 173.58 474.058 173.777C474.262 173.973 474.381 174.242 474.388 174.525L474.416 177.464C474.417 177.605 474.39 177.745 474.337 177.875C474.284 178.005 474.205 178.124 474.106 178.224C474.007 178.324 473.889 178.404 473.76 178.458C473.63 178.512 473.49 178.541 473.35 178.541L460.343 178.677C460.061 178.681 459.788 178.573 459.584 178.377C459.381 178.18 459.263 177.911 459.256 177.629Z" fill="#677E85" class="dosing-pump"/>
  <path d="M474.425 175.224L459.263 175.378L459.278 176.894L474.44 176.741L474.425 175.224Z" fill="#4D656E" class="dosing-pump"/>
  <path d="M421.114 134.503L418.993 134.524C418.72 134.534 418.454 134.438 418.252 134.256C418.049 134.074 417.925 133.82 417.906 133.548L417.755 118.868C417.768 118.595 417.887 118.337 418.087 118.15C418.287 117.964 418.551 117.862 418.825 117.868L420.947 117.847C421.22 117.836 421.486 117.931 421.69 118.113C421.894 118.295 422.018 118.55 422.037 118.822L422.184 133.503C422.171 133.776 422.052 134.034 421.853 134.22C421.653 134.407 421.388 134.508 421.114 134.503Z" fill="#677E85" class="ampv2"/>
  <path d="M420.523 117.871L419.244 117.885L419.415 134.522L420.694 134.509L420.523 117.871Z" fill="#4D656E" class="ampv2"/>
  <path d="M647 213.755V211.085L677.066 211C683.638 211 688.969 216.951 688.976 224.303L689 258H686.624L686.596 224.303C686.596 218.417 682.317 213.627 677.066 213.659" fill="#7D642F"/>
  <path d="M695 258H692.771L692.745 226.914C692.745 215.603 684.4 206.433 674.157 206.463L646 206.541V204.079L674.154 204C685.625 203.967 694.961 214.244 694.974 226.907L695 258Z" fill="#F8991D"/>
  <path d="M695 257.976L687.372 258L687.349 225.447C687.349 218.344 682.205 212.578 675.901 212.596L647 212.678V204.083L675.901 204C686.415 203.969 694.97 213.572 694.98 225.416L695 257.976Z" fill="#F8991D"/>
  <path d="M686 259.966V257.079C686 256.941 686.021 256.803 686.06 256.676C686.1 256.548 686.157 256.432 686.23 256.334C686.302 256.236 686.388 256.159 686.483 256.106C686.577 256.054 686.679 256.027 686.781 256.028L696.216 256C696.421 255.998 696.617 256.105 696.764 256.298C696.911 256.491 696.995 256.754 697 257.031V259.942C696.996 260.218 696.912 260.481 696.766 260.674C696.619 260.867 696.423 260.974 696.219 260.972L686.786 261C686.581 261.002 686.384 260.894 686.237 260.701C686.09 260.507 686.005 260.243 686 259.966Z" fill="#677E85"/>
  <path d="M697.146 257.46L686.062 257.479L686.065 258.996L697.149 258.977L697.146 257.46Z" fill="#4D656E"/>
  <path d="M647.999 215H646.027C645.773 215.006 645.526 214.935 645.339 214.803C645.151 214.67 645.038 214.486 645.023 214.289L645 203.713C645.014 203.517 645.127 203.332 645.314 203.199C645.501 203.066 645.747 202.995 646.001 203H647.973C648.227 202.994 648.474 203.065 648.661 203.197C648.849 203.33 648.962 203.514 648.977 203.711L649 214.287C648.986 214.483 648.873 214.668 648.686 214.801C648.499 214.934 648.253 215.005 647.999 215Z" fill="#677E85"/>
  <path d="M647 203H646V215H647V203Z" fill="#4D656E"/>
  <path d="M335.869 122.15C335.939 123.597 336.019 125.747 336.058 128.361C336.124 133.146 336.155 135.541 335.858 135.576C335.428 135.632 334.058 131.776 334.436 127.536C334.606 125.673 335.091 123.852 335.869 122.15Z" fill="#16131E"/>
  <path d="M1215 153.133C1216.13 153.056 1217.55 152.997 1219.18 153C1220.65 153 1221.94 153.063 1223 153.133V171.746H1215V153.133Z" fill="#77CEDE"/>
  <path d="M1173 110.751V108.085L1203.78 108C1210.51 107.979 1215.96 113.947 1215.97 121.3L1216 155H1213.56L1213.54 121.3C1213.54 115.417 1209.16 110.644 1203.78 110.659" fill="#45858E"/>
  <path d="M1223.22 155.335L1215.21 155.36L1215.18 122.262C1215.18 115.04 1209.78 109.179 1203.15 109.199L1172.77 109.283V100.545L1203.15 100.461C1214.2 100.43 1223.2 110.192 1223.2 122.234L1223.22 155.335Z" fill="#77CEDE"/>
  <path d="M1213 156.951V154.059C1213 153.782 1213.1 153.519 1213.26 153.326C1213.42 153.133 1213.63 153.026 1213.85 153.028L1224.14 153C1224.37 152.998 1224.58 153.105 1224.74 153.298C1224.9 153.491 1224.99 153.754 1225 154.032V156.92C1225 157.059 1224.98 157.196 1224.93 157.324C1224.89 157.452 1224.83 157.568 1224.75 157.666C1224.67 157.763 1224.58 157.841 1224.47 157.893C1224.37 157.946 1224.26 157.973 1224.15 157.972L1213.85 158C1213.74 158.001 1213.63 157.974 1213.53 157.922C1213.43 157.87 1213.33 157.793 1213.25 157.696C1213.17 157.598 1213.11 157.482 1213.07 157.355C1213.02 157.227 1213 157.09 1213 156.951Z" fill="#677E85"/>
  <path d="M1225.05 154.979L1213 155L1213 156.517L1225.05 156.496L1225.05 154.979Z" fill="#4D656E"/>
  <g id="premeate_flow_sensor"></g>
  <g opacity="0.5" class="cunductivity">
    <rect x="1182.59" y="31.9058" width="27.4318" height="34.8141" fill="url(#pattern105)"/>
  </g>
  <g id='rawtank'></g>
  
  
  <path d="M1032.99 224.978L1030.17 225C1030.03 225 1029.9 224.979 1029.77 224.937C1029.65 224.894 1029.53 224.832 1029.44 224.754C1029.34 224.675 1029.26 224.582 1029.21 224.479C1029.16 224.377 1029.13 224.266 1029.13 224.155L1029 213.884C1029 213.66 1029.1 213.444 1029.29 213.283C1029.48 213.122 1029.74 213.028 1030.01 213.022L1032.83 213C1033.1 212.999 1033.36 213.086 1033.56 213.24C1033.75 213.395 1033.86 213.606 1033.87 213.828L1034 224.103C1034 224.215 1033.98 224.326 1033.93 224.431C1033.88 224.535 1033.81 224.631 1033.72 224.712C1033.62 224.794 1033.51 224.859 1033.39 224.905C1033.26 224.95 1033.13 224.975 1032.99 224.978Z" fill="#677E85"/>
  <path d="M1032.3 213.221L1030.78 213.233L1030.94 224.959L1032.45 224.947L1032.3 213.221Z" fill="#4D656E"/>
  <path d="M982.386 311.384C981.252 311.562 979.838 311.705 978.209 311.695C976.736 311.695 975.444 311.551 974.386 311.384V267.541H982.386V311.384Z" fill="#F8991D"/>
  <path d="M983 268H981.357L981 234.658C980.926 227.369 986.858 221.403 994.223 221.33L1027.97 221V223.969H994.251C988.5 223.5 982.943 229.18 983 235" fill="#7D642F"/>
  <path d="M1028.98 216L1029 218.344L997.246 218.637C985.692 218.746 976.399 227.591 976.516 238.365L976.852 267.976L974.336 268L974.001 238.388C973.87 226.327 984.287 216.416 997.223 216.293L1028.98 216Z" fill="#F8991D"/>
  <path d="M1030 215V223H995.606C987.5 222 981.927 228.912 982 235.539V265.917H974.35L974.001 235.539C973.879 224.487 983.564 215.413 995.606 215.301L1030 215Z" fill="#F8991D"/>
  <path d="M984.984 265.966L984.999 267.883C985.007 268.129 984.939 268.37 984.807 268.554C984.676 268.738 984.493 268.85 984.297 268.868L973.735 269C973.539 268.989 973.353 268.881 973.219 268.701C973.084 268.52 973.011 268.281 973.015 268.034L973 266.118C972.993 265.872 973.062 265.632 973.193 265.448C973.324 265.265 973.507 265.153 973.703 265.136L984.276 265C984.471 265.016 984.653 265.125 984.785 265.305C984.917 265.485 984.988 265.722 984.984 265.966Z" fill="#677E85"/>
  <path d="M984.944 265.878L973.047 266L973.06 267.279L984.957 267.157L984.944 265.878Z" fill="#4D656E"/>
  <path d="M979 304.707L960 292C961.829 299.562 961.829 307.438 960 315L979 304.707Z" fill="#F8991D"/>
  <path d="M959.944 292C959.327 295.682 959.013 299.391 959.005 303.104C958.956 307.081 959.263 311.056 959.925 315C961.252 311.354 961.949 307.587 962 303.798C962.014 299.811 961.322 295.841 959.944 292Z" fill="#E48D25"/>
  <path d="M1044.01 341C1045.23 342.102 1046.22 343.474 1046.14 345.053C1046.07 346.483 1045.15 347.736 1044.01 348.761H741V341H1044.01Z" fill="#F8991D"/>
  <g id="hps_range"></g>
  <g id="hpp_range"></g>
  <g id="lps_range"></g>
  <g id="cunductivity"></g>
  
  
</svg>